<svg width="1679" height="850" viewBox="0 0 1679 850" fill="none" xmlns="http://www.w3.org/2000/svg">
<mask id="mask0_305_3980" style="mask-type:alpha" maskUnits="userSpaceOnUse" x="-55" y="-146" width="1920" height="1080">
<g clip-path="url(#clip0_305_3980)">
<path d="M995.25 304.92L993.73 304.38M1862.5 125.79C1855.41 126.18 1846.13 126.56 1839.02 126.19C1831.5 125.81 1827.21 124.41 1819.5 125.26C1804.62 126.9 1790.04 126.26 1774.67 128.02C1758.91 129.83 1744.4 129.87 1728.96 133.02C1701.58 138.61 1673.55 145.64 1644.73 148.89C1628.73 150.68 1614.73 149.69 1602.37 143.84C1589.53 137.77 1578.96 134.13 1560.59 135.38C1527.88 137.59 1507.59 149 1491.91 162.98C1484.42 169.69 1479.2 177.14 1470.75 183.51C1461.86 190.22 1452.42 196.75 1443.97 203.61C1427.48 216.99 1411.81 230.48 1390.1 241.77C1368.39 253.06 1352.2 266.21 1336.78 279.91C1328.93 286.91 1322.25 295.22 1303.84 292.32C1289.97 290.14 1278.25 282.59 1271.3 276.26C1256.3 262.65 1255.18 245.52 1253.97 230.19C1252.72 214.4 1254.97 198.56 1254.38 182.74C1253.79 166.92 1253.11 150.67 1256.17 134.99C1259.23 119.31 1269.27 104.39 1272.4 88.75C1275.61 72.75 1274.93 56.64 1274.08 40.6C1273.67 32.97 1275.55 25.33 1274.49 17.71C1273.39 9.77 1267.67 2.35999 1266.57 -5.60001C1264.4 -21.26 1258.41 -38.47 1236.26 -50.14C1225.69 -55.71 1210.96 -60.48 1196.86 -55.4C1184.3 -50.87 1179.38 -42.6 1175.58 -35.33C1167.4 -19.68 1166.33 -3.66001 1160.78 12.2C1156.33 24.94 1146.64 46.79 1119.78 51.97C1105.16 54.79 1088.16 49.4 1075.68 45.81C1062.38 41.98 1049.21 38 1035.81 34.26C1019.68 29.75 1009.25 30.34 992.71 33.94C978.71 36.99 965.05 40.44 951.27 43.74C937.49 47.04 923.79 50.55 909.38 52.99C894.97 55.43 879.25 55.35 864.75 57.78C836.86 62.45 842.04 88.9 837.35 101.22C831.55 116.46 819.62 130.88 814.02 146.22C808.09 162.48 811.3 177.96 817.55 194.02C823.55 209.46 833.14 223.8 841.33 238.87C849.26 253.45 851.41 272.13 869.24 284.48C888.88 298.07 916.24 301.24 945.06 307.59C974.34 314.04 998.06 323.29 1023.62 332.83C1036.5 337.588 1049.65 341.575 1063 344.77C1076.61 348.05 1091.68 349.36 1105.21 352.56C1132.21 358.96 1148.72 376.66 1158 390.38C1167.46 404.38 1174.24 423.38 1203.75 429.7C1232.89 435.97 1264.15 428.96 1293.95 429.15C1309.52 429.25 1322.52 434.15 1336.1 437.55C1349.91 441.04 1363.76 444.11 1379.36 444.55C1411.8 445.41 1436.42 435.14 1457.56 423.68C1468.28 417.86 1475.81 411.07 1489.99 407.29C1503.42 403.71 1518.31 401.29 1532.49 398.64C1546.67 395.99 1563.49 394.18 1576.49 390.09C1589.49 386 1595.16 378.18 1600.64 371.28C1607.8 362.28 1620.58 359.44 1635.02 366.04C1646.47 371.27 1656.31 377.35 1668.86 381.92C1694.22 391.16 1727.11 392.92 1751.79 402.1C1763.37 406.496 1774.67 411.588 1785.64 417.35C1796.12 422.74 1806.41 429.63 1820.84 432.12C1835.27 434.61 1852.84 433.65 1867.56 432.44C1873.01 432 1877.81 431.6 1882.13 431.01V400.83C1862.43 408.22 1837.57 413.58 1815.33 410.36C1784.89 405.96 1759.81 392.47 1732.39 384.67C1703.2 376.37 1679.39 368.57 1658.92 354.56C1649.39 348.05 1641.99 340.75 1631.6 334.56C1616.24 325.45 1606.75 329.94 1590.6 335.63C1583.76 338.04 1577.32 339.05 1573.73 343.05C1570.41 346.77 1569.73 351.34 1567.02 355.24C1561.22 363.4 1552.94 370.37 1540.25 376.12C1516.25 387 1485.44 392.02 1462.38 403.8C1439.32 415.58 1417.38 428.46 1382.65 429.02C1367.1 429.148 1351.61 427.064 1336.65 422.83C1322.19 418.83 1311.38 412.66 1294.45 411.5C1277.31 410.31 1259.7 413.31 1243.31 415.5C1234.85 416.61 1223.37 418.96 1214.93 416.69C1206.93 414.54 1205.29 409.22 1202.3 405.22C1189.16 387.64 1176.08 368.22 1147.95 355.47C1133.78 349.03 1116.11 346.47 1100.31 341.54C1082.74 336.07 1065.09 330.66 1047.64 325.09C1036.34 321.48 1027.16 319.09 1017.23 314.44C1006.35 309.239 995.191 304.652 983.8 300.7C962.92 293.57 938.65 289.42 918.98 281.29C897.98 272.62 889.66 253.97 880.15 241.4C860.15 214.93 828.8 183.89 840.45 154.69C846.25 140.14 856.25 126.29 863.19 111.9C870 98 867.32 79.67 893.71 71C916.97 63.37 948.43 58.82 974.46 54.35C1004.8 49.15 1029.36 50.66 1058.73 56.68C1084.84 62.02 1114.93 70.87 1140.39 60.09C1162.2 50.86 1173.33 34.97 1176.9 20.92C1180.66 6.11999 1182.01 -9.38001 1191.31 -23.62C1195.1 -29.42 1203.61 -40.68 1218.48 -37.16C1223.51 -36.0333 1228.25 -33.8783 1232.4 -30.8304C1236.56 -27.7825 1240.04 -23.9078 1242.62 -19.45C1250.73 -5.45 1255.31 11.35 1255.2 25.9C1255.1 40.78 1258.65 55.9 1255.86 70.69C1253.03 85.77 1244.92 99.88 1235.29 114.1C1225.15 129.1 1229.78 143.43 1229.17 158.85C1228.58 173.65 1230.17 188.45 1229.36 203.2C1228.49 218.51 1227.71 233.8 1229.22 249.12C1229.95 256.5 1225.85 263.94 1228.62 271.19C1231.33 278.25 1235.04 286.33 1240.62 292.92C1251.23 305.41 1279.74 317.39 1305.09 321.09C1313.82 322.353 1322.7 321.946 1331.28 319.89C1343.95 316.8 1347.49 309.28 1352.1 303.16C1358.9 294.203 1366.33 285.751 1374.35 277.87C1408.85 243.77 1462.89 216.63 1498.35 182.93C1506.94 174.77 1514.02 164.22 1528.7 158.43C1544.15 152.34 1565.4 153.02 1582.53 156.65C1591.43 158.54 1598.17 161.3 1606.23 163.82C1615.23 166.63 1623.35 166.2 1633.4 165.5C1651.83 164.22 1670.01 162.37 1688.32 160.7C1706.63 159.03 1725.23 158.7 1743.67 157.54C1761.79 156.39 1781.01 154.76 1798.93 157.07C1809.15 158.39 1820.22 159.21 1828.93 162.47C1837.18 165.58 1842.93 170.27 1851.27 173.24C1860.02 176.35 1870.55 178.13 1879.56 181.04C1880.49 181.34 1881.35 181.67 1882.18 182.04V125.8C1875.62 125.446 1869.06 125.443 1862.5 125.79Z" stroke="#D0D1DB" stroke-miterlimit="10"/>
<path d="M-65 347.72C-44.32 328.78 -37.63 307.14 -18.87 287.07C4.13 262.51 37.64 239.25 83.55 225.4C102.83 219.59 133.99 207.4 157.44 211.46C179.89 215.37 198.38 231.9 208.91 242.21C234.77 267.54 242.15 294.78 254.58 322.3C266.8 349.37 274.92 376.74 284.9 404.05C289.9 417.81 292.9 431.68 296.97 445.52C300.86 458.88 304.51 473.32 317.14 485.33C328.84 496.46 353.42 507.81 372.68 515.46C394.46 524.12 422.57 525.37 448.51 522.02C501.39 515.19 534.44 489.46 583.51 478.42C596.32 475.54 606.66 472.65 617.51 468.03C632.32 461.71 634.37 457.59 627.31 448.1C617.65 435.1 609.68 421.75 598.47 409.1C586.81 395.89 574.47 384.88 569.47 370.33C564.72 356.41 563.9 343.27 562.9 329.22C560.9 301.05 545.27 274.11 537.37 246.47C533.29 232.2 537.62 219.42 545.73 205.78C550.42 197.91 551.41 191.83 545.99 183.95C541.4 177.26 536.47 170.72 532.51 163.95C517.24 137.69 516.42 109.16 518.2 81.95C519.2 66.95 520.11 54.33 509.09 40.23C499.04 27.38 484.4 15.91 471.74 3.76997C465.74 -1.95003 462.51 -8.31003 457.74 -14.3C449.37 -24.75 432.86 -32.43 457.29 -41.08C467.42 -44.67 479.35 -44.37 488.98 -49.08C499.89 -54.38 506.05 -63.08 510.36 -70.32C520.6 -87.47 511.91 -105.23 537.44 -119.64C548.44 -125.83 562.9 -130.02 575.17 -135.37C581.37 -138.07 589.24 -140.92 594.38 -144.15C601.68 -148.75 603.52 -151.84 615.97 -152.71C632.57 -153.86 649.56 -152.28 666.23 -153.6C670.828 -153.968 675.396 -154.653 679.9 -155.65" stroke="#D0D1DB" stroke-miterlimit="10"/>
<path d="M1811.19 92C1779.35 95.1196 1747.75 100.28 1716.58 107.45C1702.02 110.81 1687 113.45 1672.58 117.02C1659.92 120.15 1640.2 126.61 1626.88 120.42C1617.11 115.88 1615.33 104.23 1614.21 98.03C1612.55 89.3381 1612.27 80.4384 1613.39 71.66C1614.39 64.32 1621.46 54.11 1618.56 47.23C1614.45 37.47 1598.36 34.44 1588.18 43.85C1572.31 58.53 1575.27 77.65 1564.11 93.43C1552.45 109.92 1527.23 121.1 1504.82 133.55C1482.82 145.76 1464.28 160.32 1447.67 174.6C1430.67 189.2 1417.57 205.44 1397.23 218.84C1387.23 225.44 1375.38 230.67 1363.59 236.35C1351.8 242.03 1341.85 250.35 1327.2 253.94C1292.05 262.5 1284.77 230.94 1284.65 219.35C1284.3 185.35 1282.52 151.02 1291.03 117.29C1295.3 100.34 1293.38 84.04 1291.11 67.08C1288.81 49.81 1294.19 32.42 1292.93 15.16C1292.32 6.77004 1287.65 -1.67996 1285.73 -10.06C1283.81 -18.44 1281.73 -26.41 1277.03 -34.4C1267.54 -50.4 1251.1 -68.35 1218.15 -73.86C1182.61 -79.8 1160.6 -59.86 1156.07 -44.13C1151.13 -27.06 1150.36 -9.54997 1144.71 7.51003C1142.12 15.32 1136.9 25.02 1125.6 30.72C1112.82 37.16 1094.78 33.13 1081.33 29.4C1049.96 20.69 1025.33 10.73 988.9 18.4C959.81 24.56 932.64 36.72 901.5 39.82C884.5 41.51 867.93 38.62 851.02 38.25C833.37 37.87 820.8 44.78 815.72 52.99C805.81 69.04 806.07 86.05 799.95 102.54C793.61 119.6 785.12 136.24 782.64 153.63C777.69 188.32 800.33 220.73 809.72 254.56C812.06 262.99 812.51 271.56 814.72 279.96C817.22 289.49 820.36 295.04 836.13 300.7C863 310.4 898.44 314 928.36 320.44C958.61 326.95 984.36 336.73 1011.41 346.09C1039.32 355.76 1069.99 362.33 1099.02 370.87C1116.81 376.1 1120.56 380.57 1125.56 390.66C1129.56 398.66 1134.3 406.56 1138 414.6C1141.81 422.88 1145.26 431.27 1152.67 438.91C1161.52 448.03 1174.61 450.91 1194.11 450.17C1211.11 449.55 1225.82 448.41 1242.91 449.51C1258.75 450.51 1274.57 450.8 1290.45 451.51C1307.62 452.27 1320.9 456.51 1336.88 459.3C1354.59 462.44 1368.88 461.64 1386.88 461.6C1395.5 461.6 1402.88 464.05 1411.53 464.26C1419.27 464.339 1426.99 463.483 1434.53 461.71C1448.53 458.71 1458.67 450.52 1467.15 444.13C1476.5 437.07 1484.86 429.78 1499.56 425.27C1513.74 420.93 1531.48 418.77 1546.93 415.87C1576.52 410.32 1608.47 403.82 1639.93 402.42C1671.39 401.02 1708.32 405.63 1737.67 411.54C1767.39 417.54 1783.56 435.75 1808.24 445.54C1826.55 452.82 1856.65 450.59 1882.24 447.9V431C1877.92 431.59 1873.12 432 1867.67 432.43C1852.98 433.64 1835.26 434.58 1820.95 432.11C1806.64 429.64 1796.23 422.73 1785.75 417.34C1774.78 411.578 1763.48 406.486 1751.9 402.09C1727.22 392.95 1694.33 391.15 1668.97 381.91C1656.42 377.34 1646.58 371.26 1635.13 366.03C1620.69 359.43 1607.91 362.26 1600.75 371.27C1595.27 378.17 1589.51 386.03 1576.6 390.08C1563.69 394.13 1546.81 395.97 1532.6 398.63C1518.39 401.29 1503.53 403.7 1490.1 407.28C1475.92 411.06 1468.39 417.85 1457.67 423.67C1436.53 435.13 1411.91 445.4 1379.47 444.54C1363.87 444.13 1350.02 441.06 1336.21 437.54C1322.63 434.11 1309.63 429.24 1294.06 429.14C1264.26 428.95 1233 435.96 1203.86 429.69C1174.35 423.33 1167.57 404.36 1158.11 390.37C1148.83 376.65 1132.34 358.95 1105.32 352.55C1091.79 349.35 1076.72 348.04 1063.11 344.76C1049.75 341.562 1036.6 337.572 1023.72 332.81C998 323.28 974.31 314 945 307.58C916.15 301.23 888.82 298.06 869.18 284.47C851.35 272.12 849.18 253.47 841.27 238.86C833.08 223.79 823.5 209.45 817.49 194.01C811.24 177.95 808.03 162.47 813.96 146.21C819.56 130.88 831.49 116.46 837.29 101.21C841.98 88.8901 836.8 62.4401 864.69 57.7701C879.19 55.34 894.78 55.45 909.32 52.98C923.86 50.51 937.47 46.98 951.21 43.73C964.95 40.48 978.66 36.98 992.65 33.93C1009.19 30.33 1019.65 29.74 1035.75 34.25C1049.15 37.99 1062.32 41.97 1075.62 45.8C1088.1 49.39 1105.1 54.8 1119.72 51.96C1146.61 46.78 1156.3 24.96 1160.72 12.19C1166.27 -3.66996 1167.34 -19.69 1175.52 -35.34C1179.32 -42.61 1184.24 -50.88 1196.8 -55.41C1210.9 -60.49 1225.63 -55.72 1236.2 -50.15C1258.35 -38.48 1264.34 -21.27 1266.51 -5.60996C1267.61 2.39004 1273.33 9.76004 1274.43 17.7C1275.49 25.32 1273.61 32.96 1274.02 40.59C1274.87 56.59 1275.55 72.7501 1272.34 88.7401C1269.21 104.38 1259.16 119.36 1256.11 134.98C1253.06 150.6 1253.76 166.98 1254.32 182.73C1254.88 198.48 1252.66 214.39 1253.91 230.18C1255.12 245.51 1256.29 262.64 1271.24 276.25C1278.24 282.58 1289.91 290.13 1303.78 292.31C1322.19 295.21 1328.87 286.88 1336.72 279.9C1352.14 266.2 1368.33 253.05 1390.04 241.76C1411.75 230.47 1427.48 217 1444 203.61C1452.45 196.75 1461.89 190.22 1470.78 183.51C1479.23 177.14 1484.45 169.69 1491.94 162.98C1507.6 148.98 1527.94 137.59 1560.62 135.38C1578.99 134.13 1589.56 137.77 1602.4 143.84C1614.77 149.69 1628.78 150.68 1644.76 148.89C1673.58 145.64 1701.61 138.61 1728.99 133.02C1744.43 129.87 1758.99 129.83 1774.7 128.02C1790.07 126.26 1804.65 126.9 1819.53 125.26C1827.24 124.41 1831.53 125.81 1839.05 126.19C1846.16 126.56 1855.44 126.19 1862.53 125.79C1869.08 125.44 1875.64 125.44 1882.19 125.79V89.91C1873.75 90.14 1865.36 90.66 1856.97 91.28C1841.54 92.4 1826.25 90.52 1811.19 92Z" stroke="#D0D1DB" stroke-miterlimit="10"/>
<path d="M1347 -125.3C1350.68 -109.3 1359.37 -93.3 1357.22 -77.13C1355.52 -64.28 1353.51 -51.76 1359.22 -39.13C1364.82 -26.77 1372.78 -14.56 1380.39 -2.50999C1386.95 7.90001 1381.81 26.62 1399.21 34.18C1420.06 43.25 1449.28 34.24 1468.66 28.79C1492.13 22.19 1501.72 11.59 1511.17 -1.00999C1520.17 -13.01 1531.17 -24.13 1541.76 -35.74C1552.04 -46.99 1561.88 -58.74 1569.16 -70.61C1572.58 -76.21 1576.96 -81.98 1579.09 -87.75C1584.54 -102.61 1591.27 -120.64 1620.62 -128.28C1636.27 -132.36 1647.46 -127.87 1662.41 -129.37C1670.77 -130.23 1673.34 -134.7 1680.28 -136.1C1694.74 -139 1708.28 -133.48 1721.57 -136.46C1734.68 -139.41 1734.79 -146.55 1736.68 -152.98C1736.95 -153.9 1737.17 -154.82 1737.37 -155.75H1274.11C1281.46 -152.87 1288.65 -149.38 1298.71 -146.16C1319.16 -139.57 1343.39 -140.86 1347 -125.3ZM1405.6 -70.09C1413.18 -74.4 1424.98 -80.7 1434.95 -83.29C1440.31 -84.68 1450.52 -85.29 1456.32 -84.34C1463.01 -83.22 1464.6 -80.11 1469.02 -77.63C1478.91 -72.09 1491.54 -71.45 1499.41 -64.63C1506.59 -58.41 1514.12 -52.68 1512.64 -45.06C1511.26 -37.92 1502.39 -32.59 1494.29 -27.06C1486.5 -21.77 1478.15 -14.63 1465.99 -11.89C1441.59 -3.47 1403.73 -22.34 1391.19 -32.2C1374.49 -45.36 1387.21 -59.63 1405.59 -70.09H1405.6Z" stroke="#D0D1DB" stroke-miterlimit="10"/>
<path d="M104.67 487.9C116.84 491.47 125.73 497.07 137.49 500.9C148.83 504.59 161.16 507.31 172.49 511.06C194.27 518.24 212.74 528.06 223.49 540.42C235.3 554.01 237.56 569.09 244.93 583.36C258.55 609.74 266.84 645.13 327.16 652.36C385.89 659.43 441.71 650.67 479.58 626.21C498.17 614.21 553.38 561.48 589.9 587.4C605.16 598.23 608.25 611.4 612.9 624.2C618.29 639 633 649.5 655.05 659C688.7 673.54 734.05 711.39 786.99 699.61C812.11 694.02 833.38 681.9 851.99 671.87C867.66 663.44 891.35 649.34 889.99 636.78C889.28 630.35 883.36 623.59 879.99 617.41C875.916 610.329 872.389 602.948 869.44 595.33C863.87 579.97 865.11 564.82 868.67 549.33C872.08 534.54 875.67 519.98 874.99 505.06C874.39 491.52 877.35 478.59 898.89 469.49C919.61 460.73 937.89 451.49 957.27 442.01C967.41 437.01 977.7 432.22 988.7 427.78C998.15 423.96 1008.85 417.56 1010.04 411.04C1012.57 397.11 983.84 387.69 967.63 379.3C959.3 374.99 950.29 371.16 942.09 366.77C933.09 361.95 923.5 356.1 913.3 352C903.1 347.9 889.59 346.71 877.41 344.9C864.03 342.9 850.76 340.27 837.97 337.4C811.97 331.59 784.97 325.07 768.32 312.69C735.23 288.09 735.61 256.05 730.84 227.15C725.72 196.06 713.78 164.78 720.6 133.53C723.95 118.19 731.24 103.22 737.32 88.14C743.04 73.99 745.8 59 755.99 45.45C765.79 32.45 783.24 22.68 809.36 18.45C836.52 14.08 865.77 13.82 892.99 9.29001C919.41 4.90001 940.99 -5.23 967.18 -10.16C993.18 -15.06 1021.18 -15.07 1046.55 -20.79C1058.82 -23.55 1067.72 -27.93 1075.18 -33.7C1082.06 -39.03 1081.67 -46.85 1083.49 -53.08C1087.29 -66.08 1087.33 -79.08 1101.77 -90.48C1109.46 -96.56 1117.02 -100.69 1130.96 -102.38C1144.36 -104.01 1155.96 -105.48 1168.65 -108.05C1190.02 -112.39 1222.25 -111.05 1242.77 -106.14C1267.13 -100.31 1277.97 -89.14 1291.02 -77.66C1305.35 -65.09 1312.43 -49.26 1318.02 -35.07C1329.63 -5.60999 1324.46 23.74 1327.02 53.53C1328.2 67.34 1337.32 78.53 1348.89 90.75C1360.07 102.55 1360.63 119.67 1377.42 129.75C1397.17 141.58 1429.73 130.22 1449.16 123.91C1470.54 116.97 1471.46 100.42 1480.16 89.15C1501.16 61.76 1532.78 36.7 1555.57 9.66002C1565.78 -2.44998 1575.13 -15.82 1597.57 -23.26C1621.08 -31.07 1645.49 -29.88 1658.83 -16.44C1671.16 -4.02999 1678.83 6.50001 1704.83 12.56C1720.29 16.18 1726.91 12.21 1741.34 11.66C1757.34 11.04 1774.23 14.53 1790.34 15.02C1805.48 15.48 1818.46 13.32 1833.61 14.26C1849.99 15.26 1865.67 18.03 1882.31 17.8V-88.27C1875.81 -85.27 1869.31 -82.39 1862.84 -81.12C1848.63 -78.36 1833.32 -81.54 1817.84 -83.28C1800.6 -85.2 1791.28 -80.52 1775.84 -80.48C1766.55 -80.48 1761.32 -85.3 1754.36 -85.48C1735.01 -86.09 1737.72 -69.83 1735.93 -61.15C1735.05 -56.9 1735.65 -46.73 1722.02 -48.4C1713.77 -49.4 1714.43 -55.4 1708.14 -57.4C1697.01 -60.93 1697.46 -57.04 1689.03 -54.03C1664.77 -45.34 1637.73 -61.83 1611.49 -49.8C1606.55 -47.55 1600.22 -46.44 1594.67 -44.66C1584.64 -41.4131 1575.06 -36.8822 1566.19 -31.18C1549.96 -20.62 1542.56 -6.17999 1532.83 6.14001C1522.03 20.02 1508.98 32.001 1494.24 41.59C1479.02 51.59 1461.61 63.24 1441.66 70.79C1422.27 78.12 1394.91 82.36 1373.66 74.95C1353.91 68.09 1346.06 55.12 1347.88 43.19C1352.09 15.69 1350.3 -11.11 1337.94 -38.07C1331.86 -51.33 1329.61 -65.07 1322.43 -78.16C1318.69 -84.99 1312.35 -90.96 1307.55 -97.53C1303.4 -103.21 1301.97 -108.53 1294.76 -113.53C1286.76 -119.08 1276.16 -123.13 1263.76 -125.68C1252.63 -127.97 1242.18 -131.24 1230.42 -132.39C1217.27 -133.68 1204.53 -133.39 1191.23 -133.06C1179.23 -132.75 1165.23 -132.95 1153.55 -131.62C1141.33 -130.22 1133.29 -126.43 1119.99 -125.97C1107.33 -125.676 1094.76 -123.819 1082.56 -120.44C1061.96 -114.71 1038.17 -104.27 1024.33 -94.44C1009.14 -83.68 999.92 -70.74 993.1 -57.99C989.56 -51.39 986.69 -45.83 976.67 -41.08C966.89 -36.44 955.37 -34.28 944.12 -30.93C921.4 -24.14 901.3 -15.08 877.71 -9.07999C865.92 -6.07999 853.71 -2.35998 840.85 -0.809982C827.99 0.740018 814 -0.0699884 800.77 0.340012C774.5 1.17001 747.54 5.34001 733.31 17.81C720.06 29.39 719.8 44.49 716.17 57.5C712.37 71.07 707.56 84.33 699.67 97.44C691.67 110.76 683.99 124.12 682.51 138.15C679.51 166.15 695.51 193.29 697.42 221.15C699.32 248.15 698.62 277.28 717.42 302.85C726.65 315.39 742.96 327.78 763.42 336.09C773.62 340.24 785.42 343.66 796.97 346.7C809.58 350.04 815.68 353.16 825.4 358.4C843.5 368.16 867.04 373.47 883.47 384.4C897.96 394.06 906.12 406.4 898.63 418.31C890.63 431.11 872.01 439.31 856.33 449.63C839.69 460.55 829.65 474.07 828.33 488.05C827.06 501.74 832.18 515.65 834.33 529.26C836.48 542.87 838.71 556.74 840.9 570.48C843.09 584.22 846.62 597.85 850.42 611.48C853.88 623.95 857.3 636.48 846.12 648.33C835.24 659.83 818.12 670.01 797.6 677.12C774.3 685.21 751.08 680.72 730.12 672.67C708.99 664.57 690.32 654.23 671.67 644.67C651.61 634.37 642.81 623.8 633.8 610.06C625.97 598.06 617.24 583.47 599.03 574.63C577.75 564.31 552.56 565.26 528.4 572.63C481.95 586.77 453.4 612.81 403.69 624.63C381.02 630 350.11 633.21 326.29 627.9C302.88 622.67 287.51 608.78 278.04 597.16C267.55 584.3 262.14 571.01 257.44 557.34C252.68 543.48 247.5 530.34 231.52 518.7C216.13 507.44 198.42 497.16 179.52 487.48C160.62 477.8 141.81 467.71 116.52 462.82C68.2399 453.48 6.29986 459.29 -41.3401 467.23C-49.2801 468.563 -57.1301 470.03 -64.8901 471.63V498.88C-41.4301 488.44 -6.63014 482.55 21.1099 480.78C49.6999 478.85 79.2099 480.43 104.67 487.9Z" stroke="#D0D1DB" stroke-miterlimit="10"/>
<path d="M-22.0003 615.46C-33.8003 589.63 -59.0003 559.12 -44.8203 532.37C-29.6703 503.84 36.0997 490.16 86.7997 502.79C99.1897 505.87 108.97 510.79 120.52 514.49C132.07 518.19 144.81 520.49 156.74 523.81C181.22 530.69 199.14 541.14 209.74 554.52C220.15 567.63 224.38 582.33 228.45 596.29C232.52 610.25 237.45 623.68 242.79 637.39C245.35 643.99 247.79 650.48 249.79 657.14C252.11 665.02 256.36 668.14 272.07 669.43C298.84 671.58 325.58 673.7 352.15 676.49C378.94 679.31 405.05 683.39 431.68 686.49C462.11 690.02 479.55 680.1 500.91 670.34C511.653 665.242 522.67 660.742 533.91 656.86C548.62 651.96 555.56 651.7 570.5 656.22C594.18 663.38 618.24 670.55 641.35 678.28C663.24 685.6 679.05 697.85 699.01 706.62C718.2 715.05 745.6 726.7 772.36 722.09C797.11 717.83 818.77 706.31 838.36 697.77C858.98 688.77 881.27 679.83 899.05 669.27C916.83 658.71 924.62 643.79 917.44 630.27C910 616.43 896 604 890 589.74C884 575.48 892.15 562.12 901.17 548.61C909.85 535.61 918.37 521.52 921.26 507.82C922.77 500.61 923.26 493.9 931.63 487.69C939.02 482.21 952.98 477.56 963.03 473.25C984.19 464.18 1004.31 456.04 1028.25 449.06C1050.25 442.64 1075.61 434.82 1082.56 421.45C1089.42 408.25 1076.82 393.68 1057.01 385.21C1035.85 376.16 1014.01 368.03 991.44 359.87C969.55 351.94 949.1 342.58 925.44 336.1C880.21 323.71 807.89 325.87 786 297.29C776.06 284.29 774.67 269.57 771.51 255.86C768.24 241.63 764.57 227.43 760.69 213.25C753.02 185.25 747.69 157.42 756.02 129.3C760.13 115.38 765.81 101.62 770.18 87.72C774.48 74.09 776.4 58.39 790.18 46.26C805.71 32.6 828.01 28.12 857.52 26.84C870.89 26.26 884.7 26.84 897.89 25.43C911.36 24.03 922.89 20.19 934.71 16.77C958.84 9.77004 983.06 2.84005 1010.63 0.320045C1037.14 -2.09995 1063.95 4.61004 1088.28 9.13004C1100.63 11.42 1114.08 13.18 1122.28 6.42004C1129.06 0.800036 1127.42 -6.41995 1129.42 -12.68C1131.67 -19.75 1135.91 -26.23 1134.93 -33.52C1133.95 -40.81 1129.33 -47.06 1133.04 -54.37C1140.58 -69.29 1151.29 -80.14 1177.04 -88.69C1200.04 -96.34 1232.16 -90.03 1251.41 -81.83C1271.75 -73.16 1284.5 -57.83 1292.13 -44.99C1300.21 -31.42 1303.78 -17.64 1306.5 -3.56997C1311.94 24.58 1302.5 53.51 1314.08 81.29C1320 95.49 1324.08 108.46 1322.83 123.08C1322.22 130.08 1319.49 137.08 1319.11 144.08C1318.73 151.08 1322.35 158.08 1325.94 164.73C1329.63 171.58 1333 178.24 1337.59 184.94C1341.34 190.4 1343.19 199.54 1357.13 200.02C1380.96 200.85 1395.52 180.72 1406.18 172.58C1421.11 161.18 1440.84 150.64 1460.99 141.74C1482.84 132.09 1495.07 120.85 1507.34 107.68C1519.2 94.95 1527.61 80.78 1535.72 67.3C1543.83 53.82 1554.85 41 1567 28.45C1577.9 17.19 1590.28 0.300042 1615.24 -4.33996C1641.17 -9.15996 1648.94 15.12 1654.68 24.19C1661.16 34.42 1666.34 52.56 1685.2 58.59C1708.46 66.04 1737 57.14 1760.72 59.78C1773.92 61.25 1783.72 58.29 1796.72 58.65C1808.15 58.97 1821.31 58.2 1832.09 59.87C1846.39 62.08 1857.74 61.1 1871.95 61.68C1875.33 61.9345 1878.72 62.0179 1882.11 61.93V17.93C1865.47 18.16 1849.79 15.41 1833.41 14.39C1818.26 13.45 1805.28 15.61 1790.14 15.15C1774.07 14.66 1757.23 11.15 1741.14 11.79C1726.71 12.34 1720.14 16.31 1704.63 12.69C1678.63 6.61004 1671 -3.91996 1658.63 -16.31C1645.29 -29.75 1620.88 -30.94 1597.37 -23.13C1574.96 -15.69 1565.61 -2.31997 1555.37 9.79003C1532.58 36.79 1501 61.89 1479.96 89.28C1471.3 100.55 1470.38 117.1 1448.96 124.04C1429.53 130.35 1396.96 141.71 1377.22 129.88C1360.43 119.83 1359.87 102.71 1348.69 90.88C1337.12 78.66 1328 67.47 1326.82 53.66C1324.26 23.87 1329.43 -5.47997 1317.82 -34.94C1312.22 -49.13 1305.14 -64.94 1290.82 -77.53C1278 -89 1267.12 -100.21 1242.76 -106C1222.24 -110.9 1190.01 -112.25 1168.64 -107.91C1155.95 -105.34 1144.35 -103.91 1130.95 -102.24C1117.01 -100.55 1109.45 -96.42 1101.76 -90.34C1087.32 -78.94 1087.28 -66 1083.48 -53C1081.66 -46.77 1082.05 -39 1075.17 -33.62C1067.71 -27.85 1058.81 -23.47 1046.54 -20.71C1021.16 -14.99 993.16 -14.98 967.17 -10.08C941 -5.12996 919.4 5.00004 893 9.39004C865.78 13.92 836.53 14.18 809.37 18.55C783.25 22.75 765.8 32.49 756 45.55C745.81 59.1 743 74.09 737.33 88.24C731.25 103.32 723.96 118.24 720.61 133.63C713.79 164.88 725.73 196.16 730.85 227.25C735.62 256.15 735.24 288.19 768.33 312.79C785 325.14 812 331.66 838 337.47C850.75 340.34 864 343 877.4 345C889.58 346.81 903 348 913.29 352.1C923.58 356.2 933 362 942.08 366.84C950.28 371.23 959.29 375.06 967.62 379.37C983.83 387.76 1012.56 397.18 1010.03 411.11C1008.84 417.63 998.14 424.03 988.69 427.85C977.69 432.29 967.4 437.09 957.26 442.08C937.88 451.6 919.6 460.8 898.88 469.56C877.34 478.66 874.38 491.56 874.98 505.13C875.63 520.05 872.07 534.61 868.66 549.4C865.1 564.84 863.86 579.99 869.43 595.4C872.388 603.002 875.921 610.366 880 617.43C883.38 623.61 889.3 630.37 890 636.8C891.38 649.36 867.69 663.46 852 671.89C833.37 681.89 812.1 694.04 787 699.63C734 711.41 688.7 673.56 655.05 659C633.05 649.48 618.29 639 612.91 624.2C608.25 611.37 605.16 598.2 589.91 587.4C553.39 561.48 498.18 614.21 479.59 626.21C441.72 650.67 385.9 659.43 327.17 652.36C266.85 645.1 258.56 609.71 244.94 583.36C237.57 569.09 235.31 554.01 223.5 540.42C212.78 528.08 194.31 518.24 172.5 511.06C161.14 507.31 148.81 504.59 137.5 500.9C125.74 497.08 116.85 491.48 104.68 487.9C79.2197 480.43 49.6797 478.9 20.9697 480.68C-6.74027 482.45 -41.5403 488.34 -65.0303 498.78V589.43C-61.1847 597.302 -58.1168 605.532 -55.8703 614C-52.6603 627 -56.5103 638.91 -65.0103 650V680.93C-53.2803 672.93 -41.6203 664.93 -30.9103 656.58C-15.1003 644.15 -15.6003 629.34 -22.0003 615.46Z" stroke="#D0D1DB" stroke-miterlimit="10"/>
<path d="M116.4 462.72C141.68 467.61 160.61 477.72 179.4 487.38C198.19 497.04 215.97 507.38 231.4 518.6C247.4 530.28 252.56 543.38 257.32 557.24C262.02 570.91 267.43 584.24 277.92 597.06C287.39 608.68 302.76 622.57 326.17 627.8C349.99 633.11 380.9 629.9 403.57 624.53C453.32 612.72 481.83 586.68 528.28 572.53C552.44 565.18 577.63 564.23 598.91 574.53C617.07 583.4 625.8 598 633.63 610C642.63 623.74 651.44 634.31 671.5 644.61C690.15 654.18 708.82 664.52 729.95 672.61C750.95 680.61 774.13 685.15 797.43 677.06C817.93 669.95 835.07 659.77 845.95 648.27C857.13 636.46 853.71 623.89 850.25 611.42C846.45 597.75 842.92 584.14 840.73 570.42C838.54 556.7 836.3 542.94 834.16 529.2C832.02 515.46 826.91 501.68 828.16 487.99C829.45 473.99 839.49 460.49 856.16 449.57C871.84 439.27 890.43 431.05 898.46 418.25C905.95 406.33 897.79 394 883.3 384.34C866.87 373.4 843.3 368.09 825.23 358.34C815.51 353.1 809.41 349.98 796.8 346.64C785.27 343.64 773.45 340.18 763.25 336.03C742.83 327.72 726.52 315.33 717.25 302.79C698.42 277.22 699.12 248.07 697.25 221.09C695.25 193.26 679.39 166.09 682.34 138.09C683.82 124.09 691.49 110.7 699.5 97.3801C707.39 84.2701 712.2 71.01 716 57.44C719.63 44.44 719.89 29.33 733.14 17.75C747.37 5.30005 774.33 1.11004 800.6 0.280045C813.83 -0.129955 827.68 0.690051 840.68 -0.869949C853.68 -2.42995 865.75 -6.13995 877.54 -9.13995C901.13 -15.14 921.23 -24.2 943.95 -30.99C955.2 -34.34 966.72 -36.5 976.5 -41.14C986.5 -45.89 989.39 -51.45 992.93 -58.05C999.75 -70.8 1008.93 -83.74 1024.16 -94.5C1038 -104.3 1061.79 -114.74 1082.39 -120.5C1094.59 -123.868 1107.16 -125.716 1119.82 -126C1133.12 -126.46 1141.16 -130.25 1153.38 -131.65C1165.02 -132.98 1179.09 -132.78 1191.06 -133.09C1204.36 -133.44 1217.06 -133.71 1230.25 -132.42C1242.01 -131.27 1252.46 -128 1263.59 -125.71C1275.98 -123.16 1286.59 -119.11 1294.59 -113.56C1301.8 -108.56 1303.23 -103.21 1307.38 -97.56C1312.18 -90.99 1318.52 -85.02 1322.26 -78.19C1329.44 -65.09 1331.69 -51.36 1337.77 -38.1C1350.13 -11.1 1351.92 15.66 1347.71 43.16C1345.89 55.09 1353.71 68.06 1373.49 74.92C1394.79 82.33 1422.15 78.09 1441.49 70.76C1461.49 63.21 1478.85 51.56 1494.07 41.56C1508.81 31.971 1521.86 19.99 1532.66 6.11005C1542.39 -6.24995 1549.79 -20.65 1566.02 -31.21C1574.89 -36.9121 1584.47 -41.443 1594.5 -44.69C1600.05 -46.47 1606.38 -47.58 1611.32 -49.83C1637.56 -61.83 1664.6 -45.37 1688.86 -54.06C1697.29 -57.06 1696.86 -60.96 1707.97 -57.43C1714.26 -55.43 1713.6 -49.43 1721.85 -48.43C1735.48 -46.76 1734.85 -56.93 1735.76 -61.18C1737.55 -69.86 1734.84 -86.12 1754.19 -85.51C1761.19 -85.3 1766.38 -80.45 1775.67 -80.51C1791.08 -80.51 1800.4 -85.23 1817.67 -83.31C1833.16 -81.57 1848.47 -78.39 1862.67 -81.15C1869.18 -82.42 1875.67 -85.35 1882.14 -88.3V-155.71H1737.39C1737.19 -154.78 1736.97 -153.86 1736.7 -152.94C1734.81 -146.51 1734.7 -139.37 1721.59 -136.42C1708.31 -133.42 1694.76 -138.96 1680.3 -136.06C1673.36 -134.66 1670.79 -130.19 1662.43 -129.33C1647.43 -127.83 1636.29 -132.33 1620.64 -128.24C1591.29 -120.6 1584.56 -102.57 1579.11 -87.71C1576.98 -81.94 1572.6 -76.17 1569.18 -70.57C1561.9 -58.68 1552.06 -46.95 1541.78 -35.7C1531.16 -24.09 1520.21 -12.98 1511.19 -0.969955C1501.74 11.63 1492.19 22.23 1468.68 28.83C1449.3 34.28 1420.08 43.29 1399.23 34.22C1381.83 26.66 1386.97 7.94004 1380.41 -2.46996C1372.8 -14.52 1364.84 -26.73 1359.24 -39.09C1353.5 -51.76 1355.51 -64.28 1357.24 -77.09C1359.39 -93.31 1350.7 -109.27 1347.02 -125.26C1343.42 -140.82 1319.19 -139.53 1298.74 -146.08C1288.68 -149.3 1281.49 -152.79 1274.14 -155.67H1041.66L1040.72 -155.23C1021.8 -146.83 1003 -139.18 991 -127.56C979 -115.94 964.88 -106.66 949.07 -96.35C934.07 -86.54 914.29 -77.79 901.39 -67.35C887.49 -56.08 873.31 -47.27 852.83 -39.05C829.08 -29.52 810.06 -33.93 783.27 -36.38C728.58 -41.38 682.98 -40.7 664.4 -11.8C660.67 -6.00996 656.87 0.10004 656.79 6.26004C656.7 13.42 663.39 18.45 669.7 24.5201C682.6 36.93 682.7 47.8201 681.47 61.5201C680.24 75.22 671.47 85.8501 660.09 97.9601C649.51 109.24 636.84 121.01 636.88 133.88C636.92 146.75 644.61 159.13 649.69 171.49C652.29 177.82 654.69 184.16 656.95 190.49C659.2 196.7 663.95 202.8 664.51 209.15C665.56 221.83 662.02 234.63 663.27 247.41C664.52 260.19 667.27 272.82 670.33 285.47C673.46 298.47 678.01 310.33 690.25 321.97C702.15 333.28 716.77 343.28 732.46 353.2C747.79 362.9 762.56 373.68 779.86 382.46C788.71 386.95 800.09 389.87 808.09 394.84C819.09 401.65 812.94 406.99 803.4 413.17C786.28 424.26 781.17 434.17 781.05 448.38C780.95 461.12 777.98 473.88 779.05 486.62C781.24 512.16 795.31 536.99 808.59 561.39C815.43 573.98 817.85 586.08 819.83 599.07C821.77 611.85 826.19 624.57 817.48 636.93C810.01 647.54 793.28 663.37 767.48 660.41C744.27 657.76 724.79 646.49 708.78 638.07C692.745 629.6 677.597 619.55 663.56 608.07C656.79 602.64 649.62 597.77 644.43 591.8C639.43 585.99 635.83 579.8 630.19 574.16C619.6 563.52 599.1 552.41 575.44 550.38C551.78 548.35 526.04 555.68 506.61 561.84C465.4 575 429.82 595 383.49 603.37C360.28 607.57 333.18 607.66 314.3 598.37C296.14 589.46 289.48 576.29 285.21 563.94C280.8 551.17 276.9 538.4 268.49 526.14C260.28 514.14 245.81 503.5 234.6 492.24C213.66 471.24 195.32 442.18 155.71 428.54C131.18 420.09 110.9 423.46 84.9297 427.97C61.2797 432.07 38.1597 434.85 13.6898 437.26C-13.1702 439.89 -39.3103 443.85 -65.0103 448.59V471.5C-57.2369 469.9 -49.3869 468.433 -41.4603 467.1C6.17974 459.19 68.1197 453.38 116.4 462.72Z" stroke="#D0D1DB" stroke-miterlimit="10"/>
<path d="M41.4597 400.66C57.1197 394.76 73.0197 387.84 81.8497 378.66C90.4197 369.74 92.0197 359.8 92.6497 350.01C93.9597 329.72 86.4597 309.53 112.76 292.34C127.11 282.96 147.4 283.03 156.81 294.48C164.24 303.48 162.54 314.21 165.13 323.82C167.79 333.69 175.01 342.91 179.8 352.52C184.68 362.29 188.13 372.32 194.8 381.8C201.39 391.1 209.8 399.66 218.86 408.37C228.55 417.71 238.72 425.79 239.47 436.58C240.77 455.42 253.88 476.67 268.34 493.88C275.81 502.77 285.04 511.21 292.71 520.05C300.71 529.3 304.89 539.29 309.43 549.12C311.66 553.93 314.92 558.56 317.43 563.32C319.94 568.08 320.27 573.47 324.43 577.74C334.12 587.74 361.93 581.85 377.81 579.05C414.16 572.63 447.41 562.33 480.23 552.2C510.62 542.82 549.04 529.73 586.07 532.52C624.56 535.42 650.99 554.74 671.67 570.3C677.23 574.48 680.67 579.3 686.84 583.3C693.01 587.3 699.84 590.82 706.12 594.63C718.56 602.18 730.77 609.71 742.43 617.58C751.89 623.97 781.43 635.39 785.31 620.36C786.6 615.3 780.31 610.49 778.51 605.67C776.51 600.43 778.4 595.54 779.51 590.34C781.81 579.81 767.4 571.78 757.29 563.34C747.18 554.9 740.14 545 736.92 535.37C730.34 515.62 732.68 495.7 733.36 475.77C734.74 435.52 719.61 396.77 681.84 361.44C663.23 344.06 644.63 325.96 638.27 306.13C632 286.5 628 266.32 624.41 246.5C620.82 226.68 629.15 207.08 621.55 187.27C613.95 167.46 593.12 150.08 582 130.88C575.11 118.98 590.3 111.88 603.19 102.78C614.28 94.98 624.46 86.8401 632.19 77.9901C649.75 57.7901 638.59 39.81 615.92 22.34C604.29 13.34 589.1 5.75004 598.82 -5.59996C606.95 -15.09 620.08 -22.31 626.68 -32.42C638.31 -50.22 622.48 -76.42 664.14 -85.61C672.68 -87.49 682.74 -87.34 691.66 -86.31C702.02 -85.11 708.13 -81.31 717.54 -79.48C734.3 -76.22 752.83 -88.19 765.36 -93.04C796.15 -105 821 -120.13 846.62 -135C858.62 -142 870.92 -148.79 883.04 -155.71H754.34C752.605 -153.831 750.769 -152.048 748.84 -150.37C727.69 -132.12 696.21 -123.18 658.84 -116.37C641.14 -113.13 622.84 -109.59 609.19 -102.61C595.77 -95.7 590.32 -85 585.65 -75.71C580.56 -65.6 587.47 -56.5 585.65 -46.48C583.83 -36.46 566.7 -32.48 556.07 -24.94C531.71 -7.69996 541.41 13.35 569.45 27.89C582.51 34.66 599.22 40.77 597.83 51.37C596.52 61.37 587.01 70.37 579.19 79.37C562.88 98.1 544.34 113.7 551.45 135.2C554.792 145.872 560.618 155.598 568.45 163.58C577.18 172.5 586.34 180.69 590.26 190.58C594.43 201.11 585.18 209.65 579.71 219.46C577.16 224.02 573.94 229.15 575.38 233.86C576.82 238.57 579.82 243.48 582.01 248.17C591.08 267.61 595.79 286.84 601.07 306.62C606.35 326.4 614.19 345.79 626.79 364.71C639.39 383.63 647.11 401.79 654.6 421.29C658.14 430.5 673.99 437.53 681.17 446.4C688.76 455.8 688.99 465.88 684.8 475.74C680.99 484.74 673.8 495.74 659.72 501.74C644.83 508.08 622.78 506.22 604.9 505.83C595.44 505.62 585.27 505.12 575.96 506.21C566.96 507.21 558.64 510.44 550.6 512.75C534.09 517.49 518.28 522.87 501.79 527.64C469.13 537.09 433.7 546.9 395.63 548.14C347.63 549.71 340.05 527.74 318.5 510.82C307.83 502.44 296.34 494.73 289.36 485.2C283.125 476.477 278.122 466.938 274.49 456.85C267.16 437.38 266.49 418.03 254.39 398.95C242.29 379.87 236.67 360.35 225.14 341.31C215.33 325.11 207.79 308.57 198.34 292.31C193.368 283.607 187.763 275.281 181.57 267.4C178.433 263.371 175.064 259.528 171.48 255.89C161.85 246.31 142.19 243.66 123.07 246.89C93.0697 251.89 75.3597 265.73 57.5997 278.24C39.3797 291.07 22.5997 305.13 21.4597 321.58C20.9397 329.08 23.1097 337.35 25.8397 344.7C27.2097 348.4 29.9297 350.7 27.0197 354.41C24.7097 357.35 19.6497 360.61 16.0197 363.19C8.18974 368.75 -5.98026 373.89 -16.7403 378.01C-28.7803 382.62 -41.5003 387.08 -54.1503 391.27C-57.7769 392.47 -61.3969 393.687 -65.0103 394.92V425.09L-62.8803 424.57C-28.9303 416.18 10.8697 412.18 41.4597 400.66Z" stroke="#D0D1DB" stroke-miterlimit="10"/>
<path d="M1184.2 146.38C1183.78 135.9 1183.28 125.38 1181.61 114.92C1179.82 103.76 1176.18 93.3899 1152.53 90.2599C1132.84 87.6399 1111.62 87.0399 1091.59 85.0099C1071.81 83.0099 1051.96 80.56 1031.76 80.11C992.2 79.24 947.49 87.4399 929.48 106.95C913.741 124.044 902.681 144.91 897.37 167.53C892.37 189.16 910.05 208.84 926.52 228.1C935.551 238.912 946.578 247.885 959 254.53C973.14 262.11 990.77 267.47 1004.63 275.21C1032.79 290.93 1056.83 307.28 1095.75 316.32C1105.11 318.64 1115.18 318.99 1125.37 318.66C1146.93 317.98 1165.37 314.56 1174.37 303.66C1182.29 294.13 1184.89 283.15 1187.05 272.92C1191.5 251.83 1189.68 231.11 1187.57 209.98C1185.46 188.85 1185.05 167.63 1184.2 146.38ZM1171.41 259.53C1167.78 276.06 1158.56 299.29 1123.02 304.92C1114.48 306.286 1105.76 306.032 1097.32 304.17C1063.82 298.54 1039.66 281.93 1018.9 268.17C996.97 253.59 966.29 244.94 949.06 228.17C932.85 212.38 921.06 194.49 921.77 176.42C922.49 158.51 933.09 139.42 947.14 123.18C961.94 106.04 988.9 93.5999 1026.14 92.6699C1058.14 91.8699 1099.84 94.2 1128.75 101.82C1162.96 110.82 1162.69 133.39 1162.85 150.82C1163.01 169.27 1162.95 187.49 1166.41 205.88C1169.77 223.66 1175.33 241.61 1171.41 259.53Z" stroke="#D0D1DB" stroke-miterlimit="10"/>
<path d="M1851.25 173.26C1842.89 170.26 1837.16 165.6 1828.91 162.49C1820.25 159.23 1809.18 158.41 1798.91 157.09C1780.99 154.78 1761.77 156.41 1743.65 157.56C1725.21 158.73 1706.65 159.05 1688.3 160.72C1669.95 162.39 1651.81 164.24 1633.38 165.52C1623.38 166.22 1615.21 166.65 1606.21 163.84C1598.15 161.32 1591.41 158.56 1582.51 156.67C1565.38 153.04 1544.13 152.36 1528.68 158.45C1514 164.24 1506.92 174.79 1498.33 182.95C1462.85 216.65 1408.81 243.79 1374.33 277.89C1366.31 285.771 1358.88 294.223 1352.08 303.18C1347.47 309.3 1343.93 316.82 1331.26 319.91C1322.68 321.966 1313.8 322.373 1305.07 321.11C1279.72 317.41 1251.21 305.43 1240.6 292.94C1235.01 286.35 1231.3 278.27 1228.6 271.21C1225.83 263.96 1229.93 256.52 1229.2 249.14C1227.69 233.82 1228.47 218.53 1229.34 203.22C1230.17 188.47 1228.56 173.67 1229.15 158.87C1229.76 143.45 1225.15 129.1 1235.27 114.12C1244.9 99.8999 1253.01 85.79 1255.84 70.71C1258.63 55.89 1255.08 40.8 1255.18 25.92C1255.29 11.37 1250.71 -5.46004 1242.6 -19.43C1240.02 -23.8878 1236.54 -27.7625 1232.38 -30.8104C1228.23 -33.8583 1223.49 -36.0134 1218.46 -37.14C1203.59 -40.66 1195.08 -29.4 1191.29 -23.6C1181.99 -9.36004 1180.64 6.13996 1176.88 20.94C1173.31 34.99 1162.18 50.88 1140.37 60.11C1114.91 70.89 1084.82 62.04 1058.71 56.7C1029.34 50.7 1004.78 49.17 974.44 54.37C948.44 58.84 916.95 63.37 893.69 71.02C867.3 79.67 869.93 98.02 863.24 111.89C856.3 126.28 846.3 140.13 840.5 154.68C828.85 183.88 860.19 214.92 880.2 241.39C889.71 253.96 898.04 272.61 919.03 281.28C938.7 289.41 962.97 293.56 983.85 300.69C995.241 304.642 1006.4 309.229 1017.28 314.43C1027.21 319.12 1036.39 321.43 1047.69 325.08C1065.14 330.65 1082.79 336.08 1100.36 341.53C1116.16 346.45 1133.83 349.02 1148 355.46C1176.13 368.23 1189.21 387.63 1202.35 405.21C1205.35 409.21 1207.02 414.53 1214.98 416.68C1223.42 418.95 1234.9 416.6 1243.36 415.49C1259.75 413.33 1277.36 410.33 1294.5 411.49C1311.43 412.65 1322.24 418.81 1336.7 422.82C1351.66 427.054 1367.15 429.138 1382.7 429.01C1417.39 428.45 1439.49 415.5 1462.43 403.79C1485.37 392.08 1516.3 386.99 1540.3 376.11C1552.99 370.36 1561.3 363.39 1567.07 355.23C1569.83 351.33 1570.46 346.76 1573.78 343.04C1577.37 339.04 1583.78 338.04 1590.65 335.62C1606.8 329.93 1616.29 325.44 1631.65 334.55C1642.04 340.72 1649.44 348.02 1658.97 354.55C1679.46 368.55 1703.25 376.36 1732.44 384.66C1759.86 392.46 1784.94 405.95 1815.38 410.35C1837.62 413.57 1862.48 408.21 1882.18 400.82V182C1881.35 181.66 1880.49 181.33 1879.56 181C1870.53 178.15 1860 176.37 1851.25 173.26ZM1768.68 316.39C1770.86 329.48 1784.54 334.24 1805.78 339.49C1824.33 344.07 1842.64 350.76 1846.92 362.01C1850.62 371.73 1841.64 384.49 1824.71 389.75C1803.03 396.49 1785.71 390.57 1768.91 383.49C1752.38 376.49 1733.97 372.41 1716.36 366.49C1699.06 360.66 1685.46 351.94 1673.42 343.39C1661.17 334.69 1650.25 325.48 1634.25 318.45C1613.6 309.38 1599.16 320.19 1580.82 325.6C1561.56 331.28 1553.58 340.78 1541.82 350.01C1530.06 359.24 1516.72 366.8 1499.07 373.07C1481.59 379.28 1465.6 385.25 1451.07 393.34C1436.9 401.21 1424.49 410.03 1404.99 414.58C1386.37 418.92 1364.63 419.22 1346.99 413.58C1328.76 407.99 1315.63 398.21 1296.12 393.87C1275.12 389.18 1254.12 388.32 1237.49 379.44C1222.49 371.44 1203.86 366.65 1190.14 357.59C1175.59 347.98 1167.74 338.83 1144.39 334C1124.61 329.91 1103.06 328.85 1083.49 324.4C1065.42 320.168 1047.89 313.898 1031.23 305.71C1014.95 297.88 1001.08 289.28 982.84 282.57C965.5 276.19 947.3 270.28 934.37 261.3C921.44 252.32 913.25 241.88 905.22 231.56C897.19 221.24 885.46 211.29 878.64 200.62C864.29 178.16 867.98 157.25 881.2 134.97C887.64 124.14 893.89 113.83 897.88 102.65C899.54 97.9899 899.73 91.03 905.2 87.07C910.67 83.11 924.05 80.94 932.34 78.78C972.88 68.21 1012.84 63.83 1057.34 69.64C1098.83 75.05 1145.85 82.95 1174.43 61.08C1180.32 56.5916 1185.93 51.7352 1191.21 46.54C1196.02 41.76 1203.79 37.42 1204.42 31.9C1205.05 26.38 1200.66 20.72 1199.36 15.21C1198.06 9.69997 1199.47 4.26996 1201.5 -1.08004C1203.82 -7.21004 1208.37 -9.17005 1217.6 -12.82C1230.27 -3.98005 1235.29 6.69995 1231.91 17.54C1230.27 22.77 1225.52 28.4 1224.74 33.54C1224.03 38.26 1230.74 43.86 1232.59 48.69C1236.94 60.31 1236.66 68.89 1229.79 80.35C1223.65 90.59 1214.98 100.54 1209.87 110.93C1199.87 131.29 1205.29 154.39 1205.46 175.28C1205.64 196.62 1207.88 218.04 1208.56 239.4C1208.91 250.2 1206.76 260.89 1206.8 271.66C1206.8 281.94 1204.8 293.86 1209.03 303.92C1213.89 315.58 1231.89 320.92 1249.5 327.09C1266.71 333.17 1282.99 339.88 1303.95 342.09C1322.95 344.09 1347.55 341.85 1364.08 336.58C1382.37 330.75 1386.67 319.04 1389.78 308.78C1393.08 297.9 1393.4 287.55 1401.97 277.29C1410.2 267.44 1421.88 258.42 1433.74 249.64C1445.6 240.86 1457.03 231.85 1468.74 222.97C1480.45 214.09 1494.49 206.13 1506.28 197.27C1517.42 188.9 1526.39 177.27 1543.09 171.48C1560.85 165.32 1584.68 172.18 1601.6 176.27C1619.86 180.68 1643.3 178.1 1662.83 177.27C1683.6 176.4 1704.03 175.82 1724.83 176.93C1745.63 178.04 1765.97 178.98 1785.99 182.1C1802.93 184.75 1821.58 194.56 1832.92 201.54C1861.38 219.05 1844.51 243.97 1828.75 262.54C1818.89 273.966 1806.39 282.812 1792.33 288.31C1774.44 295.43 1766.7 304.5 1768.68 316.39Z" stroke="#D0D1DB" stroke-miterlimit="10"/>
<path d="M1139 177.68C1138.36 162.2 1143.77 145.94 1137.35 130.73C1133.97 122.73 1127.94 115.63 1114.24 110.9C1102.12 106.71 1085.15 106.7 1071.07 106.28C1039.6 105.33 1009.8 103.96 988.07 117.53C969.47 129.12 958.63 145.77 951.53 160.24C944.19 175.19 942.83 191.66 952.42 206.44C962.2 221.53 977.87 234.92 1001.74 245.09C1025.42 255.19 1040.07 269.09 1062.33 279.85C1067.94 282.572 1073.73 284.911 1079.65 286.85C1111.45 297.12 1136.54 286.85 1148.33 270.51C1159.12 255.51 1155.33 239.41 1150.33 224.02C1145.33 208.63 1139.67 193.37 1139 177.68ZM1131.82 264.68C1126.58 270.83 1115.68 278.08 1101.45 278.16C1087.96 278.24 1074.59 272.29 1065.69 267.66C1049.87 257.44 1036.13 246.4 1017.4 237.51C998.67 228.62 984.19 220.66 975.1 207.99C957.29 183.16 980.64 155.8 1008.41 135.6C1024.05 124.22 1048.66 122.05 1074.22 121.6C1107.12 121 1114.09 131.14 1112.36 146.55C1110.92 159.39 1108.04 172.26 1110.67 185.1C1113.26 197.75 1118.76 210.1 1126.32 222.2C1134.74 235.63 1143.43 251.15 1131.85 264.72L1131.82 264.68Z" stroke="#D0D1DB" stroke-miterlimit="10"/>
<path d="M1110.7 185.13C1108.07 172.29 1110.95 159.42 1112.39 146.58C1114.12 131.17 1107.15 121.03 1074.25 121.63C1048.69 122.09 1024.08 124.26 1008.44 135.63C980.67 155.83 957.32 183.19 975.13 208.02C984.22 220.69 998.57 228.59 1017.43 237.54C1036.29 246.49 1049.9 257.47 1065.72 267.69C1074.62 272.32 1087.99 278.27 1101.48 278.19C1115.71 278.11 1126.61 270.86 1131.85 264.71C1143.43 251.14 1134.74 235.62 1126.35 222.22C1118.79 210.17 1113.29 197.78 1110.7 185.13ZM1114.97 258.56C1103.18 269.12 1085.57 262.65 1074.12 255.56C1069.1 246.604 1062.19 238.85 1053.87 232.84C1043.98 225.94 1030.87 222.98 1018.31 217.84C990.12 206.24 987.2 189.1 1010.2 174.84C1019.51 169.06 1035.64 162.45 1050.52 166.84C1062.93 170.48 1067.2 181.84 1070.24 188.52C1077.74 205 1081.24 219.99 1102.9 233.37C1113.42 239.78 1124.11 250.37 1115 258.56H1114.97Z" stroke="#D0D1DB" stroke-miterlimit="10"/>
<path d="M1102.9 233.28C1081.22 219.9 1077.74 204.91 1070.24 188.43C1067.24 181.75 1062.93 170.43 1050.52 166.75C1035.64 162.39 1019.52 169 1010.2 174.75C987.2 189.04 990.12 206.18 1018.31 217.75C1030.83 222.9 1043.98 225.86 1053.87 232.75C1062.19 238.76 1069.1 246.514 1074.12 255.47C1085.57 262.58 1103.18 269.05 1114.97 258.47C1124.11 250.37 1113.42 239.78 1102.9 233.28Z" stroke="#D0D1DB" stroke-miterlimit="10"/>
<path d="M1162.86 150.77C1162.7 133.37 1162.97 110.82 1128.76 101.77C1099.85 94.15 1058.16 91.77 1026.15 92.62C988.9 93.55 961.94 105.99 947.15 123.13C933.15 139.41 922.5 158.46 921.78 176.37C921.05 194.44 932.86 212.37 949.07 228.12C966.3 244.89 996.98 253.54 1018.91 268.12C1039.67 281.9 1063.83 298.51 1097.33 304.12C1105.77 305.982 1114.49 306.236 1123.03 304.87C1158.57 299.24 1167.79 276.01 1171.42 259.48C1175.34 241.56 1169.78 223.61 1166.42 205.78C1163 187.44 1163 169.22 1162.86 150.77ZM1148.31 270.51C1136.52 286.88 1111.43 297.12 1079.63 286.85C1073.71 284.911 1067.92 282.572 1062.31 279.85C1040.05 269.05 1025.4 255.19 1001.72 245.09C977.85 234.92 962.18 221.53 952.4 206.44C942.81 191.66 944.17 175.19 951.51 160.24C958.61 145.77 969.45 129.12 988.05 117.53C1009.83 103.96 1039.63 105.33 1071.05 106.28C1085.13 106.7 1102.1 106.71 1114.22 110.9C1127.92 115.63 1133.95 122.74 1137.33 130.73C1143.75 145.94 1138.33 162.2 1138.98 177.68C1139.62 193.37 1145.25 208.6 1150.25 224.02C1155.25 239.44 1159.1 255.54 1148.31 270.51Z" stroke="#D0D1DB" stroke-miterlimit="10"/>
<path d="M1803.42 248.59C1811.42 234.67 1811.79 222.49 1793.89 210.39C1778.55 200.03 1749.49 195.85 1726.15 193.09C1700.61 190.09 1675.03 189.93 1648.99 189.88C1636.34 189.88 1623.46 190.17 1610.89 189.23C1597.89 188.23 1585.83 184.65 1572.71 184.17C1545.87 183.17 1530.41 199.85 1517.02 209.52C1486.58 231.52 1453.84 251 1434.16 276.42C1424.61 288.75 1421.7 301.92 1417.77 314.98C1414.17 326.98 1412.97 344.07 1394.77 352.88C1384.65 357.79 1370.92 358.11 1358.1 359.59C1348.25 360.73 1329.59 362.37 1323.37 366.5C1307.03 377.35 1335.03 392.63 1346.53 401.42C1355.86 405.69 1367.07 409.42 1379.96 408.81C1407.87 407.49 1421.22 393.27 1434.49 382.45C1449.49 370.26 1474.08 366.37 1495.2 358.05C1515.97 349.85 1528.43 337.28 1548.31 328.72C1558.08 324.5 1569.84 321.18 1580.25 317.38C1590.32 313.71 1600.76 308.9 1613.03 307.45C1640.55 304.19 1661.03 316.06 1676.32 325.95C1684.85 331.667 1693.68 336.918 1702.77 341.68C1711.25 345.97 1719.42 352.13 1731.62 353.63C1759.27 357.02 1744.37 327.04 1743.62 319.48C1742.2 305.71 1745.06 292.58 1760.15 280.87C1767.15 275.42 1777.74 271.75 1785.51 266.67C1794.08 261.07 1799.54 255.38 1803.42 248.59ZM1382.73 398.69C1372.47 401.63 1362.85 393.43 1358.2 389.27C1358.48 382.98 1359.2 376.58 1373.31 374.98C1386.9 373.44 1398.92 377.42 1398.94 384.87C1399 389.49 1390.75 396.39 1382.73 398.69ZM1752.4 265.06C1741.4 272.06 1731.84 278.95 1724.08 286.98C1719.98 291.23 1716.2 294.4 1715.43 299.29C1714.75 303.63 1716.43 308.1 1715.03 312.41C1710.03 327.36 1689.81 311.41 1680.89 306.91C1668.31 300.64 1652.44 298.65 1635.41 298.23C1599.35 297.34 1577.03 313.14 1546.07 320.51C1530.53 324.2 1515.82 328.03 1504.07 334.67C1493.99 340.36 1480.85 351.21 1463.3 349.2C1455.12 348.26 1448.8 344.48 1445.5 340.64C1445.08 323.18 1452.2 305.57 1459.11 288.49C1462.65 279.385 1467.69 270.936 1474.02 263.49C1481.33 255 1492.92 248.84 1503.88 241.64C1514.16 234.89 1524.2 228.02 1533.75 221C1543.3 213.98 1552.75 204.93 1567.08 200.42C1575.57 197.75 1581.87 199.25 1590.73 200.5C1599.02 201.67 1606.73 201.42 1615.29 201.38C1632.41 201.31 1649.29 201.7 1666.29 202.62C1696.63 204.25 1738.29 205.71 1761.14 217.81C1789.89 233 1774.94 250.79 1752.4 265.06Z" stroke="#D0D1DB" stroke-miterlimit="10"/>
<path d="M1792.28 288.33C1806.34 282.832 1818.84 273.986 1828.7 262.56C1844.46 243.98 1861.33 219.06 1832.87 201.56C1821.53 194.56 1802.87 184.77 1785.94 182.12C1765.94 179 1745.45 178.05 1724.78 176.95C1704.11 175.85 1683.56 176.42 1662.78 177.29C1643.25 178.11 1619.78 180.69 1601.55 176.29C1584.63 172.2 1560.8 165.34 1543.04 171.5C1526.34 177.29 1517.37 188.92 1506.23 197.29C1494.44 206.15 1480.39 214.11 1468.69 222.99C1456.99 231.87 1445.6 240.86 1433.69 249.66C1421.78 258.46 1410.15 267.46 1401.92 277.31C1393.35 287.57 1393.03 297.92 1389.73 308.8C1386.62 319.06 1382.32 330.8 1364.03 336.6C1347.5 341.87 1322.86 344.1 1303.9 342.11C1282.9 339.92 1266.66 333.21 1249.45 327.11C1231.84 320.9 1213.84 315.6 1208.98 303.94C1204.79 293.88 1206.8 281.94 1206.75 271.68C1206.75 260.91 1208.86 250.22 1208.51 239.42C1207.83 218.06 1205.59 196.64 1205.41 175.3C1205.24 154.41 1199.8 131.3 1209.82 110.95C1214.93 100.56 1223.6 90.6099 1229.74 80.3699C1236.61 68.9099 1236.89 60.37 1232.54 48.71C1230.73 43.88 1223.98 38.28 1224.69 33.56C1225.47 28.4 1230.22 22.77 1231.86 17.56C1235.24 6.71995 1230.22 -3.96005 1217.55 -12.8C1208.32 -9.15005 1203.77 -7.19004 1201.45 -1.06004C1199.45 4.28996 1198.03 9.79995 1199.31 15.2299C1200.59 20.6599 1205.02 26.31 1204.37 31.92C1203.72 37.53 1195.97 41.78 1191.16 46.56C1185.88 51.7552 1180.27 56.6116 1174.38 61.1C1145.8 82.97 1098.78 75.1 1057.29 69.66C1012.76 63.85 972.8 68.23 932.29 78.8C924 80.96 910.72 83.07 905.15 87.09C899.58 91.11 899.49 98.01 897.83 102.67C893.83 113.85 887.59 124.16 881.15 134.99C867.93 157.27 864.24 178.18 878.59 200.64C885.41 211.31 897.04 221.13 905.17 231.58C913.3 242.03 921.37 252.33 934.32 261.32C947.27 270.31 965.45 276.21 982.79 282.59C1001.03 289.3 1014.9 297.9 1031.18 305.73C1047.84 313.918 1065.37 320.188 1083.44 324.42C1103.01 328.87 1124.56 329.93 1144.34 334.02C1167.69 338.85 1175.54 348.02 1190.09 357.61C1203.81 366.67 1222.46 371.43 1237.44 379.46C1254.03 388.34 1275.04 389.2 1296.07 393.89C1315.58 398.23 1328.71 408.01 1346.94 413.6C1364.6 419.23 1386.34 418.93 1404.94 414.6C1424.44 410.05 1436.85 401.23 1451.02 393.36C1465.6 385.27 1481.59 379.3 1499.02 373.09C1516.67 366.82 1530.02 359.28 1541.77 350.03C1553.52 340.78 1561.5 331.3 1580.77 325.62C1599.11 320.21 1613.55 309.4 1634.2 318.47C1650.2 325.47 1661.12 334.71 1673.37 343.41C1685.37 351.96 1699.01 360.68 1716.31 366.51C1733.92 372.44 1752.31 376.51 1768.86 383.51C1785.61 390.59 1802.98 396.51 1824.66 389.77C1841.59 384.51 1850.57 371.77 1846.87 362.03C1842.59 350.78 1824.28 344.09 1805.73 339.51C1784.49 334.26 1770.81 329.51 1768.63 316.41C1766.7 304.5 1774.44 295.43 1792.28 288.33ZM1187 272.92C1184.84 283.15 1182.24 294.13 1174.32 303.66C1165.26 314.56 1146.85 317.98 1125.32 318.66C1115.13 318.99 1105.06 318.66 1095.7 316.32C1056.78 307.32 1032.7 290.93 1004.58 275.21C990.72 267.47 973.09 262.11 958.95 254.53C946.543 247.88 935.529 238.908 926.51 228.1C910.04 208.84 892.39 189.16 897.36 167.53C902.682 144.927 913.746 124.078 929.48 107C947.48 87.49 992.2 79.29 1031.76 80.16C1051.96 80.61 1071.76 83.05 1091.59 85.06C1111.59 87.06 1132.84 87.69 1152.53 90.31C1176.18 93.44 1179.82 103.81 1181.61 114.97C1183.28 125.42 1183.78 135.97 1184.2 146.43C1185.05 167.68 1185.43 188.8 1187.56 210.03C1189.69 231.26 1191.49 251.83 1187 272.92ZM1760.12 280.87C1745.03 292.58 1742.12 305.71 1743.59 319.48C1744.36 327.04 1759.26 357.02 1731.59 353.63C1719.39 352.13 1711.22 345.97 1702.74 341.68C1693.67 336.932 1684.86 331.698 1676.35 326C1661.04 316.11 1640.58 304.24 1613.06 307.5C1600.79 308.95 1590.35 313.76 1580.28 317.43C1569.87 321.23 1558.11 324.55 1548.34 328.77C1528.46 337.33 1516 349.9 1495.23 358.1C1474.11 366.42 1449.47 370.31 1434.52 382.5C1421.25 393.32 1407.9 407.5 1379.99 408.86C1367.1 409.47 1355.89 405.74 1346.56 401.47C1335.06 392.68 1307.06 377.4 1323.4 366.55C1329.62 362.42 1348.28 360.78 1358.13 359.64C1370.95 358.16 1384.68 357.84 1394.8 352.93C1412.97 344.12 1414.17 326.99 1417.8 315.03C1421.73 301.97 1424.64 288.8 1434.19 276.47C1453.87 251.05 1486.61 231.56 1517.05 209.57C1530.44 199.9 1545.9 183.23 1572.74 184.22C1585.86 184.7 1597.9 188.3 1610.92 189.28C1623.49 190.22 1636.37 189.9 1649.02 189.93C1675.02 189.98 1700.64 190.11 1726.18 193.14C1749.52 195.9 1778.58 200.08 1793.92 210.44C1811.82 222.54 1811.41 234.72 1803.45 248.64C1799.57 255.43 1794.11 261.12 1785.55 266.72C1777.75 271.75 1767.18 275.42 1760.16 280.87H1760.12Z" stroke="#D0D1DB" stroke-miterlimit="10"/>
<path d="M1761.18 217.81C1738.35 205.71 1696.67 204.25 1666.33 202.62C1649.33 201.7 1632.41 201.31 1615.33 201.38C1606.79 201.38 1599.06 201.67 1590.77 200.5C1581.91 199.25 1575.61 197.75 1567.12 200.42C1552.8 204.93 1543.19 214.08 1533.79 221C1524.39 227.92 1514.2 234.89 1503.92 241.64C1492.92 248.84 1481.37 255 1474.06 263.49C1467.73 270.936 1462.69 279.385 1459.15 288.49C1452.24 305.57 1445.15 323.18 1445.54 340.64C1448.84 344.48 1455.16 348.26 1463.34 349.2C1480.89 351.2 1494.03 340.36 1504.11 334.67C1515.86 328.03 1530.57 324.2 1546.11 320.51C1577.11 313.14 1599.39 297.34 1635.45 298.23C1652.45 298.65 1668.35 300.64 1680.93 306.91C1689.85 311.37 1710.11 327.36 1715.07 312.41C1716.5 308.1 1714.79 303.63 1715.47 299.29C1716.24 294.4 1720.02 291.23 1724.12 286.98C1731.88 278.98 1741.45 271.98 1752.44 265.06C1774.94 250.79 1789.89 233 1761.18 217.81ZM1741.76 250.21C1729.53 259.21 1711.82 269.49 1694.14 275.61C1674.27 282.49 1656.5 286.02 1633.04 287.72C1620.51 288.62 1606.9 289.72 1595.74 293.03C1583.74 296.59 1580.82 303.59 1569.87 307.81C1553.32 314.19 1511.94 313.81 1499.33 304.17C1482.81 278.41 1520.56 260.05 1548.02 241.53C1559.87 233.53 1569.02 218.24 1588.42 215.03C1609.26 211.57 1636.05 213.03 1657.17 215.03C1690.38 218.15 1778.51 223.16 1741.76 250.21Z" stroke="#D0D1DB" stroke-miterlimit="10"/>
<path d="M1657.17 215.05C1636.05 213.05 1609.26 211.57 1588.42 215.05C1569.06 218.26 1559.87 233.55 1548.02 241.55C1520.56 260.07 1482.81 278.43 1499.33 304.19C1511.94 313.85 1553.33 314.19 1569.87 307.83C1580.87 303.61 1583.79 296.61 1595.74 293.05C1606.9 289.72 1620.51 288.64 1633.04 287.74C1656.5 286.04 1674.27 282.51 1694.14 275.63C1711.82 269.51 1729.53 259.22 1741.76 250.23C1778.51 223.16 1690.38 218.15 1657.17 215.05ZM1688.55 246.37C1683.79 263.45 1655.79 272.21 1625.85 276.05C1610.64 278 1592.22 279.6 1579.1 284.27C1571.01 287.15 1564.25 298.17 1554.1 298.63C1553.45 298.675 1552.8 298.675 1552.15 298.63C1542.24 297.76 1541.15 286.19 1543.66 282.63C1549.04 275.01 1558.79 269.01 1568.07 262.76C1584.24 251.87 1585.79 228.11 1617.64 227.21C1632.01 226.8 1648.96 228.37 1661.92 231.62C1667.48 233.099 1672.88 235.108 1678.05 237.62C1684.69 240.69 1689.81 241.87 1688.55 246.37Z" stroke="#D0D1DB" stroke-miterlimit="10"/>
<path d="M1373.31 375C1359.18 376.6 1358.48 383 1358.2 389.29C1362.85 393.45 1372.47 401.65 1382.73 398.71C1390.73 396.41 1398.95 389.51 1398.94 384.89C1398.92 377.42 1386.9 373.44 1373.31 375Z" stroke="#D0D1DB" stroke-miterlimit="10"/>
<path d="M225.19 341.33L225.07 341.11" stroke="#D0D1DB" stroke-miterlimit="10"/>
<path d="M343.44 760.19C318.93 752.78 289.06 752.42 264.13 745.45C239.2 738.48 219.91 727.45 197.27 718.81C175.45 710.5 148.83 702.89 120.99 703.69C106.64 704.11 92.9 706.49 79.43 708.92C67.13 711.14 51.25 712.53 40.43 716.32C12.51 726.08 37.23 744.58 49.95 754.97C65 767.24 81 779 104.71 787C154.36 803.86 215.71 793.31 270.08 802.58C295.61 805.68 339.61 816.81 359.75 802.89C379.35 789.37 371.28 768.6 343.44 760.19ZM218.23 763.79C214.81 769.62 199.73 773.48 189.36 775.39C161.69 780.48 134.1 775.7 112.36 766.14C97.29 757.66 74.66 744.61 85.8 732.31C94.38 722.83 134.8 720.63 152.26 722.31C176.49 724.7 197.36 734.31 207.71 745.67C212.75 751.18 222 757.35 218.23 763.79ZM347.8 785.4C345.51 795.69 306.22 794.72 307.29 785.25C308.29 776.32 350.13 774.88 347.8 785.4Z" stroke="#D0D1DB" stroke-miterlimit="10"/>
<path d="M929.63 848.62C930.72 834.8 929.34 820.99 930.16 807.19C930.98 793.39 941.29 778.32 937.02 764.53C932.43 749.68 910.61 736.22 882.89 747.85C861.66 756.75 848.89 770.5 831.45 781.25C814.01 792 793.79 801.35 776.87 812.35C760.48 823 745.74 837.35 722.52 844.29C698.83 851.4 670.52 850.68 645.22 846.55C632.43 844.45 618.75 841.91 606.8 838.75C594.49 835.49 584.41 830.42 572.92 826.52C549.81 818.69 520.54 819.62 494.38 821.95C481.19 823.12 467.38 827.08 454.59 824.77C442.59 822.6 427.93 818.66 419.06 813.9C400.32 803.9 397.73 787.73 389.53 775.05C380.64 761.28 361.31 750.14 336.92 743.27C313.55 736.69 288.01 732.5 264.07 726.52C239.87 720.52 217.17 711.61 195.71 703.28C176.33 695.75 152.15 681.78 126.03 682.9C100.9 683.97 74.03 694.63 51.9 700.42C27.15 706.9 3.71998 716.16 4.70998 732C5.58998 746 22.46 758.88 35.29 770.66C48.63 782.92 60.62 796 86 802.6C110 808.85 138.92 810.76 165.35 811.99C220.43 814.56 272.26 818.88 322.35 831.8C349.84 838.89 365.27 847.66 374.63 862.86C382.91 876.32 390.17 888.94 405.44 900.86C420.24 912.42 440.87 923.54 462.72 931.52C472.72 935.18 482.98 938.52 493.11 941.97H546.52C544.76 941.36 542.98 940.77 541.14 940.2C524.59 935.03 507.4 930.46 490.57 925.55C457.46 915.9 426.95 900.44 413.37 881.8C406.78 872.8 402.22 861.29 410.18 851.99C418.98 841.69 440.46 839.86 459.64 838.78C479.25 837.67 498.48 836.69 517.69 839.7C538.05 842.89 547.35 851.3 564.86 856.54C574.3 859.37 583.46 858.15 593.77 858.33C603.047 858.486 612.297 859.385 621.43 861.02C640.63 864.52 657.06 869.45 677.8 869.61C697.41 869.75 715.71 871.75 734.75 874.01C746.95 875.46 752.47 875.01 760.11 869.46C765.8 865.36 769.82 860.41 773.91 855.85C790.67 837.18 809.29 819.74 840.8 806.65C855.25 800.65 876.49 792.56 889.42 802.74C898.602 809.887 905.401 819.649 908.92 830.74C915.6 850.74 909.25 871.32 913.57 891.5C917.22 908.58 927.11 925.59 938 941.95H950.83C948.79 938.87 946.913 935.79 945.2 932.71C929.65 904.63 927.32 877.66 929.63 848.62ZM359.75 802.92C339.61 816.84 295.61 805.71 270.08 802.61C215.75 793.34 154.36 803.89 104.71 787.03C81 779 65 767.24 49.92 755C37.2 744.61 12.48 726.11 40.4 716.35C51.25 712.56 67.13 711.17 79.4 708.95C92.87 706.52 106.61 704.14 120.96 703.72C148.8 702.92 175.42 710.53 197.24 718.84C219.88 727.47 239.24 738.53 264.1 745.48C288.96 752.43 318.9 752.81 343.41 760.22C371.28 768.6 379.35 789.37 359.75 802.92Z" stroke="#D0D1DB" stroke-miterlimit="10"/>
<path d="M893.13 881.17C891.87 873.79 891.92 866.33 891.4 858.93C890.92 852.18 892.94 843.93 887.5 837.64C871.18 818.75 834.61 838.33 822.3 847.95C806.71 860.14 796.39 873.86 776.72 884.57C769.01 888.77 754.8 896.32 742.85 895.93C730.38 895.53 716.69 888.13 705.29 885.4C692.29 882.3 679.34 881.4 665.36 880.4C651.21 879.4 637.87 876.69 624.42 874.26C597.81 869.44 567.98 871.78 543.34 864.43C518.89 857.14 497.34 846.62 466.61 850.11C453.03 851.66 440.61 856.69 435.07 863.42C429.22 870.55 435.22 878.06 441.54 884.49C454.17 897.37 481.63 906.33 505.03 913.36C528.43 920.39 557.53 925.1 578.18 934.02C583.77 936.43 588.82 939.18 593.89 941.93H632C630.83 941.5 629.66 941.07 628.51 940.63C613.61 934.87 601.17 927.63 587.24 921.25C573.47 914.97 556.24 910.68 541.43 905.01C533.63 902.01 527.26 899.49 520.85 895.8C513.85 891.8 505.55 890.55 495.95 888.69C481.13 885.83 456.47 881.29 458.38 871.17C460.93 857.67 483.66 859.08 497.78 867.29C512.46 875.598 529.128 879.746 545.99 879.29C555.24 878.92 564.68 877.85 573.99 878.43C582.99 878.99 591.67 881.06 600.3 882.43C635.95 888.03 674.89 886.27 706.01 898.24C719.91 903.58 736.01 913.41 754.36 909.24C771.26 905.37 785.54 899.24 799.66 893.24C814.16 887.11 827.24 879.96 842.19 874.11C866 864.81 865.32 882.04 870.91 889.73C883.67 907.26 901.11 924.11 912.32 941.96H924.77C920.89 935.66 917.05 929.36 913.02 923.09C904.13 909.28 895.62 895.8 893.13 881.17Z" stroke="#D0D1DB" stroke-miterlimit="10"/>
<path d="M152.31 722.35C134.85 720.63 94.4297 722.83 85.8497 732.35C74.7097 744.65 97.3397 757.7 112.41 766.18C134.1 775.74 161.69 780.52 189.41 775.43C199.78 773.52 214.86 769.66 218.28 763.83C222.06 757.39 212.8 751.22 207.81 745.75C197.41 734.36 176.54 724.74 152.31 722.35ZM161.57 749.2C153.68 763.37 118.01 758.02 120.28 745.55C120.353 745.167 120.453 744.789 120.58 744.42C124.59 733.12 170.49 733.17 161.57 749.2Z" stroke="#D0D1DB" stroke-miterlimit="10"/>
<path d="M909 830.75C905.481 819.66 898.682 809.897 889.5 802.75C876.57 792.57 855.33 800.67 840.88 806.66C809.37 819.75 790.75 837.19 773.99 855.86C769.9 860.42 765.88 865.37 760.19 869.47C752.55 874.98 747.03 875.47 734.83 874.02C715.83 871.76 697.49 869.76 677.88 869.62C657.14 869.46 640.71 864.53 621.51 861.03C612.377 859.395 603.127 858.496 593.85 858.34C583.54 858.16 574.38 859.34 564.94 856.55C547.43 851.31 538.13 842.9 517.77 839.71C498.56 836.71 479.33 837.71 459.72 838.79C440.5 839.85 419 841.68 410.22 852C402.22 861.3 406.82 872.77 413.41 881.81C426.99 900.45 457.5 915.91 490.61 925.56C507.44 930.47 524.61 935.04 541.18 940.21C543.02 940.78 544.8 941.37 546.56 941.98H593.89C588.82 939.23 583.77 936.48 578.18 934.07C557.53 925.15 528.3 920.4 505.03 913.41C481.76 906.42 454.17 897.41 441.54 884.54C435.22 878.11 429.22 870.6 435.07 863.47C440.59 856.74 453.07 851.71 466.61 850.16C497.33 846.67 518.89 857.16 543.34 864.48C567.98 871.83 597.81 869.48 624.42 874.31C637.87 876.74 651.21 879.42 665.36 880.45C679.36 881.45 692.3 882.32 705.29 885.45C716.69 888.18 730.38 895.58 742.85 895.98C754.8 896.37 769.01 888.82 776.72 884.62C796.39 873.91 806.72 860.19 822.3 848C834.61 838.38 871.18 818.8 887.5 837.69C892.94 843.99 890.92 852.23 891.4 858.98C891.92 866.38 891.87 873.84 893.13 881.22C895.62 895.85 904.13 909.33 913.01 923.14C917.01 929.41 920.88 935.71 924.76 942.01H938C927.11 925.65 917.22 908.64 913.57 891.56C909.29 871.33 915.64 850.75 909 830.75Z" stroke="#D0D1DB" stroke-miterlimit="10"/>
<path d="M1882.16 447.9C1856.61 450.59 1826.51 452.82 1808.16 445.54C1783.48 435.74 1767.31 417.54 1737.59 411.54C1708.24 405.63 1671.32 401.03 1639.85 402.42C1608.38 403.81 1576.48 410.32 1546.85 415.87C1531.4 418.77 1513.66 420.93 1499.48 425.27C1484.78 429.78 1476.42 437.07 1467.07 444.13C1458.59 450.52 1448.46 458.68 1434.45 461.71C1426.91 463.483 1419.19 464.339 1411.45 464.26C1402.8 464.05 1395.45 461.59 1386.8 461.6C1368.8 461.6 1354.52 462.44 1336.8 459.3C1320.8 456.46 1307.54 452.3 1290.37 451.51C1274.49 450.81 1258.67 450.51 1242.83 449.51C1225.74 448.41 1211.05 449.51 1194.03 450.17C1174.53 450.87 1161.44 448.03 1152.59 438.91C1145.18 431.27 1141.73 422.91 1137.92 414.6C1134.22 406.6 1129.46 398.66 1125.48 390.66C1120.48 380.57 1116.73 376.1 1098.94 370.87C1069.94 362.33 1039.24 355.76 1011.33 346.09C984.33 336.73 958.53 326.95 928.28 320.44C898.36 314 862.92 310.44 836.09 300.77C820.32 295.11 817.18 289.56 814.68 280.03C812.47 271.6 812.02 263.03 809.68 254.63C800.29 220.8 777.68 188.39 782.6 153.7C785.08 136.31 793.6 119.7 799.91 102.61C806.03 86.12 805.77 69.11 815.68 53.06C820.76 44.85 833.33 37.94 850.98 38.32C867.89 38.69 884.44 41.58 901.46 39.89C932.6 36.79 959.77 24.63 988.86 18.47C1025.24 10.77 1049.92 20.73 1081.29 29.47C1094.74 33.2 1112.78 37.23 1125.56 30.79C1136.86 25.09 1142.08 15.39 1144.67 7.57999C1150.32 -9.48001 1151.09 -26.99 1156.03 -44.06C1160.56 -59.75 1182.57 -79.73 1218.11 -73.79C1251.11 -68.28 1267.5 -50.31 1276.99 -34.33C1281.74 -26.33 1283.78 -18.26 1285.69 -9.99002C1287.6 -1.72002 1292.28 6.83998 1292.89 15.23C1294.15 32.49 1288.77 49.88 1291.07 67.15C1293.34 84.15 1295.26 100.41 1290.99 117.36C1282.48 151.09 1284.26 185.41 1284.61 219.42C1284.73 230.98 1292.01 262.57 1327.16 254.01C1341.81 250.45 1351.88 242.01 1363.55 236.42C1375.22 230.83 1387.17 225.51 1397.19 218.91C1417.53 205.51 1430.66 189.27 1447.63 174.67C1464.24 160.39 1482.8 145.83 1504.78 133.62C1527.19 121.17 1552.41 109.99 1564.07 93.5C1575.23 77.72 1572.27 58.6 1588.14 43.92C1598.32 34.51 1614.41 37.54 1618.52 47.3C1621.42 54.18 1614.38 64.39 1613.35 71.73C1612.23 80.5083 1612.51 89.4081 1614.17 98.1C1615.29 104.3 1617.07 115.95 1626.84 120.49C1640.16 126.68 1659.84 120.22 1672.54 117.09C1686.92 113.54 1701.94 110.88 1716.54 107.52C1747.73 100.325 1779.34 95.1409 1811.19 92C1826.25 90.48 1841.54 92.36 1856.94 91.24C1865.33 90.62 1873.72 90.1 1882.16 89.87V61.87C1878.77 61.9579 1875.38 61.8744 1872 61.62C1857.79 61.04 1846.44 62.02 1832.14 59.81C1821.36 58.14 1808.2 58.91 1796.77 58.59C1783.69 58.23 1773.94 61.19 1760.77 59.72C1737.05 57.08 1708.51 65.98 1685.25 58.53C1666.39 52.53 1661.25 34.36 1654.73 24.13C1648.99 15.06 1641.22 -9.22001 1615.29 -4.40001C1590.29 0.239991 1577.95 17.13 1567.05 28.39C1554.88 40.96 1543.8 53.79 1535.72 67.22C1527.64 80.65 1519.2 94.87 1507.34 107.6C1495.07 120.77 1482.84 132.01 1460.99 141.66C1440.84 150.56 1421.11 161.1 1406.18 172.5C1395.52 180.64 1380.96 200.77 1357.13 199.94C1343.19 199.46 1341.34 190.32 1337.59 184.86C1333 178.16 1329.59 171.5 1325.94 164.65C1322.35 157.98 1318.73 150.97 1319.11 144C1319.49 137.03 1322.22 130 1322.83 123C1324.1 108.38 1320 95.41 1314.08 81.21C1302.49 53.43 1311.94 24.5 1306.5 -3.65001C1303.78 -17.72 1300.21 -31.5 1292.13 -45.07C1284.5 -57.89 1271.75 -73.24 1251.41 -81.91C1232.16 -90.11 1200.08 -96.42 1177.04 -88.77C1151.28 -80.22 1140.57 -69.37 1133.04 -54.45C1129.33 -47.14 1133.95 -40.89 1134.93 -33.6C1135.91 -26.31 1131.67 -19.83 1129.42 -12.76C1127.42 -6.50001 1129.06 0.719981 1122.28 6.33998C1114.13 13.1 1100.68 11.34 1088.28 9.04999C1063.95 4.52999 1037.14 -2.18001 1010.63 0.23999C983.06 2.75999 958.84 9.70999 934.71 16.69C922.86 20.11 911.36 23.95 897.89 25.35C884.7 26.72 870.89 26.18 857.52 26.76C828.01 28.04 805.71 32.52 790.18 46.18C776.39 58.31 774.47 74.01 770.18 87.64C765.81 101.54 760.18 115.3 756.02 129.22C747.71 157.34 753.02 185.22 760.69 213.17C764.57 227.35 768.24 241.55 771.51 255.78C774.67 269.49 776.06 284.24 786 297.21C807.89 325.79 880.21 323.63 925.47 336.02C949.14 342.5 969.59 351.86 991.47 359.79C1014 367.95 1035.88 376.08 1057.04 385.13C1076.85 393.6 1089.45 408.13 1082.59 421.37C1075.64 434.74 1050.26 442.56 1028.28 448.98C1004.34 455.98 984.22 464.1 963.06 473.17C953.01 477.48 939.06 482.17 931.66 487.61C923.28 493.82 922.8 500.53 921.29 507.74C918.4 521.44 909.88 535.55 901.2 548.53C892.2 562.04 884.04 575.28 890.03 589.66C896.02 604.04 910.03 616.35 917.35 630.2C924.53 643.7 916.59 658.71 898.96 669.2C881.33 679.69 858.89 688.7 838.27 697.7C818.69 706.24 797.03 717.76 772.27 722.02C745.51 726.63 718.11 715.02 698.92 706.55C678.92 697.78 663.15 685.55 641.26 678.21C618.15 670.48 594.09 663.31 570.41 656.15C555.47 651.63 548.53 651.89 533.82 656.79C522.58 660.672 511.563 665.172 500.82 670.27C479.46 680.03 462.02 689.95 431.59 686.42C404.96 683.33 378.85 679.25 352.06 676.42C325.49 673.63 298.75 671.51 271.98 669.36C256.27 668.1 251.98 664.95 249.7 657.07C247.75 650.41 245.3 643.92 242.7 637.32C237.37 623.61 232.41 610.06 228.36 596.22C224.31 582.38 220.06 567.56 209.65 554.45C199.04 541.07 181.12 530.62 156.65 523.74C144.72 520.38 131.94 518.17 120.43 514.42C108.92 510.67 99.1 505.8 86.71 502.72C36.01 490.09 -29.76 503.77 -44.91 532.3C-59 559.12 -33.8 589.63 -22 615.46C-15.63 629.34 -15.13 644.15 -30.94 656.46C-41.62 664.89 -53.28 672.88 -65 680.86V710C-61.2317 705.616 -57.0192 701.635 -52.43 698.12C-38.4612 687.167 -22.9633 678.32 -6.43 671.86C11.85 664.8 28.57 656.37 33.93 644.46C39.25 632.73 23.93 621.67 14.82 611.46C5.2 600.71 -3.27 589.92 -8.52 578.35C-18.87 555.53 -13.36 526.47 33.6 515.95C56.33 510.86 76.76 515.86 96.88 521.69C117 527.52 138.88 532.16 157.7 539.03C198.7 554.03 204.37 578.5 207.7 602.56C209.32 614.45 212.52 626.16 215.64 637.95C218.41 648.48 215.48 663.35 226.37 672.58C240 684.14 263.24 685.08 286.7 687.47C309.4 689.77 332.15 692.18 353.7 696.58C374.84 700.89 394.51 707 411.42 714.88C420.2 718.98 428.04 723.66 437.08 727.58C445.08 731.05 452.72 737.27 463.25 738.58C483.09 741.13 500.7 723.79 510.86 717.05C527.422 705.88 546.624 699.249 566.55 697.82C611.77 694.73 655.37 713.38 687.38 727.62C704.92 735.43 721.69 744.05 744.04 748.01C770.94 752.78 783.74 745.9 799.81 735.64C832.614 714.976 868.403 699.485 905.92 689.71C925.63 684.71 951.6 680.65 965.04 691.92C976.961 701.688 988.291 712.157 998.97 723.27C1019.97 745.57 1019.71 769.39 1007.07 792.82C994.9 815.37 979.43 838.3 974.34 861.68C969.34 884.46 971.65 910.08 982.44 932.32C984.09 935.73 987.26 938.92 991.26 941.95" stroke="#D0D1DB" stroke-miterlimit="10"/>
<path d="M982.39 932.33C971.6 910.09 969.33 884.47 974.29 861.69C979.38 838.31 994.85 815.38 1007.02 792.83C1019.66 769.4 1019.9 745.58 998.92 723.28C988.245 712.167 976.918 701.699 965 691.93C951.56 680.66 925.59 684.7 905.88 689.72C868.363 699.495 832.574 714.986 799.77 735.65C783.69 745.91 770.89 752.79 744 748C721.65 744 704.88 735.42 687.34 727.61C655.34 713.37 611.73 694.72 566.51 697.81C546.584 699.239 527.382 705.87 510.82 717.04C500.66 723.78 483.05 741.12 463.21 738.57C452.68 737.23 445.01 731.01 437.04 727.57C428.04 723.65 420.16 718.97 411.38 714.87C394.47 706.99 374.8 700.87 353.66 696.57C332.06 692.17 309.31 689.76 286.66 687.46C263.2 685.07 239.96 684.13 226.33 672.57C215.44 663.34 218.33 648.47 215.6 637.94C212.48 626.15 209.28 614.44 207.66 602.55C204.38 578.49 198.66 554.01 157.66 539.02C138.86 532.15 116.89 527.49 96.84 521.68C76.79 515.87 56.29 510.85 33.56 515.94C-13.44 526.46 -18.91 555.52 -8.56 578.34C-3.31 589.91 5.16 600.7 14.78 611.45C23.93 621.68 39.21 632.74 33.89 644.45C28.49 656.36 11.81 664.79 -6.47 671.85C-22.9899 678.317 -38.4741 687.167 -52.43 698.12C-57.0192 701.635 -61.2317 705.616 -65 710V758.47C-63.69 761.15 -62.35 763.83 -61.08 766.47C-55.16 778.87 -55.08 789.64 -59.99 802.12C-62.3 808.04 -64.34 814.12 -64.99 820.2V828C-64.6243 831.053 -63.763 834.025 -62.44 836.8C-56.67 848.87 -41.86 859.14 -17.16 861.1C5.58 862.91 29.38 859.53 51.42 856.94C131.98 847.46 254.76 840.45 298.79 887.27C303.79 892.6 306.05 898.34 313.03 903.14C320.01 907.94 328.44 912.14 336.03 916.66C349.82 924.83 362.12 933.58 375.28 941.99H412.36C408.613 940.137 404.967 938.24 401.42 936.3C375.06 921.82 344.62 905.43 329.93 886.8C326.1 881.94 324.5 876.8 318.41 872.5C311.806 868.013 304.718 864.283 297.28 861.38C280.281 854.496 262.674 849.219 244.69 845.62C209 838.46 165.53 836.68 127.51 836.86C86.74 837.04 47.78 842.86 7.45 844.31C-14.39 845.09 -32.08 842.54 -37.75 830.56C-43.09 819.29 -37.24 810 -25.83 800.44C-21.03 796.44 -9.75 793.06 -10.18 788.56C-10.61 784.06 -18.4 778.37 -22.39 774.47C-31.0984 766.094 -37.8432 755.893 -42.14 744.6C-50.14 723.55 -33.64 703.26 -2.07 689.75C13.74 682.99 34.54 680.34 49.93 673.36C63.73 667.1 68.63 654.29 72.14 645.23C80.96 622.49 47.68 606.94 30.32 588.3C21.69 579.03 17.06 568.1 21.15 557.92C23.8667 551.58 28.0875 545.997 33.4472 541.655C38.8069 537.313 45.144 534.342 51.91 533C69.1 529.37 94.02 537.31 109.8 540.64C128.21 544.53 147.43 548.51 161.8 555.91C193.67 572.31 181.25 594.44 183.24 615.05C184.24 625.44 189.3 635.67 192.24 645.94C195.24 656.5 197.45 666.88 207.63 676.29C228.19 695.29 272.69 699.29 309.56 705.4C347.68 711.72 384.05 722.4 407.19 739.88C425.37 753.61 429.44 789.69 475.57 783.98C495.01 781.57 509.93 772.52 520.33 764.17C531.33 755.32 543.72 746.91 552 737.23C556.46 732.02 559.89 727.97 572 728.16C581.79 728.32 591.31 730.41 600.35 732.16C617.45 735.43 641.79 737.75 655.95 743.81C672.05 750.69 680.78 759.94 700.59 764.98C719.499 769.686 739.14 770.688 758.43 767.93C800.07 761.78 818.75 742.67 847.93 727.84C876.79 713.18 916.76 699.64 951.84 717.37C1015.42 749.52 979.26 796.86 966.39 835.54C955.39 868.54 948.39 910.22 977.58 942H991.18C987.21 938.93 984 935.74 982.39 932.33Z" stroke="#D0D1DB" stroke-miterlimit="10"/>
<path d="M346.26 730.01C309.11 718.7 264.73 710.75 226.67 700.28C197.09 692.15 173.42 677.79 169.42 659.79C167.71 652.27 166.72 644.68 159.63 637.79C152.02 630.4 143.38 620.16 144.82 611.59C146.66 600.65 163.47 591.41 163.58 579.86C163.75 562.54 124.75 558.25 98.2001 557.67C82.4501 557.33 67.7901 558 58.5601 565.47C49.5701 572.73 60.5301 578.52 68.9701 584.53C77.4101 590.54 85.9301 596.85 95.4701 602.39C112.45 612.27 122.6 626.45 112.9 639.53C107.71 646.53 104.43 653.96 98.1401 660.69C84.6901 675.08 64.0601 683.78 37.4901 691.44C12.3601 698.7 -11.5199 708.91 -17.1199 724.44C-22.5699 739.55 -11.8099 754.57 2.63007 767.44C10.1801 774.16 16.1901 780.41 20.0201 788.02C22.7201 793.41 20.4601 797.85 18.3501 803.1C10.7401 822.02 63.8401 820.62 87.0601 821.81C116.06 823.29 145.06 824.17 174.06 825.67C229.95 828.56 291.72 835.44 333.06 857C353 867.46 358 884.05 371.76 896.65C386.01 909.73 406.15 921.85 427.59 931.85C435.41 935.52 443.81 938.78 452.32 941.96H412.32C408.567 940.107 404.92 938.21 401.38 936.27C375.02 921.77 344.58 905.4 329.89 886.77C326.06 881.91 324.46 876.77 318.37 872.47C311.766 867.983 304.678 864.253 297.24 861.35C280.241 854.466 262.634 849.189 244.65 845.59C208.96 838.43 165.47 836.65 127.47 836.83C86.7001 837.01 47.7401 842.84 7.41006 844.28C-14.4299 845.06 -32.1199 842.53 -37.7899 830.53C-43.1299 819.26 -37.2799 810 -25.8399 800.39C-21.0399 796.37 -9.75993 793.05 -10.1899 788.51C-10.6199 783.97 -18.3999 778.32 -22.3999 774.42C-31.0902 766.049 -37.8209 755.859 -42.1099 744.58C-50.1199 723.53 -33.6099 703.24 -2.03994 689.73C13.7701 682.97 34.5701 680.34 49.9601 673.34C63.7601 667.08 68.6601 654.27 72.1701 645.21C80.9901 622.47 47.7101 606.92 30.3501 588.28C21.7201 579.01 17.0901 568.08 21.1801 557.9C23.8942 551.556 28.1138 545.969 33.4737 541.623C38.8335 537.278 45.172 534.304 51.9401 532.96C69.1301 529.33 94.0501 537.27 109.83 540.6C128.23 544.49 147.45 548.47 161.83 555.87C193.7 572.27 181.27 594.4 183.27 615.01C184.27 625.4 189.35 635.63 192.27 645.9C195.28 656.46 197.48 666.84 207.66 676.25C228.22 695.25 272.72 699.24 309.59 705.36C347.71 711.68 384.08 722.36 407.22 739.84C425.4 753.57 429.47 789.65 475.6 783.94C495.04 781.53 509.96 772.48 520.36 764.13C531.38 755.28 543.75 746.87 552.03 737.19C556.45 731.98 559.88 727.93 572.03 728.12C581.82 728.3 591.38 730.39 600.38 732.12C617.48 735.39 641.82 737.71 655.98 743.77C672.08 750.65 680.81 759.94 700.62 764.94C719.529 769.646 739.17 770.648 758.46 767.89C800.1 761.74 818.78 742.63 847.96 727.8C876.87 713.14 916.79 699.6 951.87 717.33C1015.42 749.5 979.29 796.82 966.42 835.5C955.46 868.47 948.45 910.18 977.65 941.98H963.75C950.45 924.69 945.22 905.48 943.86 887.14C942.11 863.5 947.34 839.66 952.56 816.31C957.78 792.96 973.3 768.56 954.45 745.96C946.43 736.34 928.51 723.94 905.77 724.51C884.27 725.05 863.77 736.98 850.89 744.86C836 753.93 822.52 763.54 806 771.86C789.73 780 770.39 786 751.78 792.39C732.65 799.11 712.27 804.83 693.78 812.11C685.6 815.31 675.19 820.01 664.54 820.31C650.64 820.71 646.23 814.28 641.91 808.71C633.36 797.71 619.83 787.54 600.83 780.79C577.83 772.61 559.32 776.62 540.83 785.71C505.94 802.86 456.14 810.67 424.14 787.17C410.91 777.45 405.93 765.27 394.43 754.95C382.93 744.63 366.04 736.01 346.26 730.01ZM346.26 730.01L342.8 729.01" stroke="#D0D1DB" stroke-miterlimit="10"/>
<path d="M952.52 816.29C957.74 792.95 973.26 768.54 954.41 745.94C946.41 736.32 928.47 723.94 905.73 724.49C884.23 725.03 863.73 736.96 850.85 744.84C836 753.93 822.48 763.54 805.96 771.84C789.73 780 770.39 786 751.82 792.52C732.65 799.26 712.27 804.96 693.82 812.24C685.64 815.47 675.23 820.14 664.58 820.44C650.68 820.83 646.27 814.44 641.95 808.84C633.4 797.84 619.85 787.67 600.87 780.92C577.87 772.74 559.34 776.75 540.87 785.84C505.98 802.99 456.15 810.84 424.18 787.3C410.95 777.58 405.92 765.35 394.47 755.08C383.02 744.81 366 736.17 346.24 730.14C309.09 718.83 264.71 710.88 226.65 700.41C197.07 692.28 173.44 677.88 169.4 659.92C167.69 652.35 166.7 644.76 159.61 637.92C152 630.53 143.36 620.29 144.8 611.72C146.64 600.78 163.45 591.54 163.56 579.99C163.73 562.67 124.73 558.38 98.1799 557.8C82.4299 557.46 67.7699 558.13 58.5399 565.6C49.5399 572.86 60.5399 578.6 68.9499 584.66C77.3599 590.72 85.9499 596.98 95.4499 602.52C112.45 612.4 122.58 626.58 112.88 639.66C107.69 646.66 104.41 654.09 98.1199 660.82C84.6699 675.21 64.0399 683.91 37.4699 691.57C12.3399 698.82 -11.5301 709.03 -17.1401 724.57C-22.5901 739.65 -11.8301 754.67 2.60992 767.57C10.1599 774.29 16.1699 780.57 19.9999 788.15C22.6999 793.54 20.4399 797.98 18.3299 803.23C10.7199 822.15 63.8199 820.75 87.0399 821.94C116.04 823.42 145.04 824.3 174.04 825.8C229.94 828.69 291.71 835.57 333.04 857.13C353.04 867.55 358.04 884.13 371.73 896.74C385.98 909.82 406.12 921.9 427.56 931.94C435.38 935.61 443.78 938.87 452.29 942.05H493.13C483 938.63 472.77 935.26 462.74 931.6C440.89 923.6 420.26 912.5 405.46 900.94C390.19 889.03 382.93 876.41 374.65 862.94C365.29 847.74 349.86 838.94 322.37 831.88C272.24 818.96 220.37 814.64 165.37 812.07C138.94 810.84 110.04 808.93 86.0199 802.68C60.6399 796.07 48.6499 783 35.3099 770.74C22.4599 758.88 5.58992 746 4.70992 732C3.70992 716.16 27.1499 706.9 51.8999 700.42C73.9999 694.63 100.9 684 126 682.9C152.12 681.78 176.3 695.75 195.68 703.28C217.14 711.61 239.84 720.48 264.04 726.52C287.98 732.52 313.52 736.69 336.89 743.27C361.28 750.14 380.61 761.27 389.5 775.05C397.7 787.73 400.29 803.86 419.03 813.9C427.9 818.66 442.59 822.6 454.56 824.77C467.38 827.08 481.16 823.12 494.35 821.95C520.51 819.62 549.78 818.69 572.89 826.52C584.38 830.42 594.46 835.52 606.77 838.75C618.77 841.91 632.4 844.45 645.19 846.55C670.45 850.68 698.8 851.4 722.49 844.29C745.71 837.29 760.49 823 776.84 812.35C793.76 801.35 813.96 791.98 831.42 781.25C848.88 770.52 861.63 756.75 882.86 747.85C910.58 736.22 932.4 749.68 936.99 764.53C941.26 778.32 930.99 793.27 930.13 807.19C929.27 821.11 930.69 834.8 929.6 848.62C927.29 877.62 929.6 904.62 945.21 932.72C946.923 935.8 948.8 938.88 950.84 941.96H963.68C950.38 924.67 945.15 905.46 943.79 887.12C942.07 863.48 947.26 839.75 952.52 816.29Z" stroke="#D0D1DB" stroke-miterlimit="10"/>
<path d="M313 903.11C306 898.31 303.77 892.57 298.76 887.24C254.76 840.42 131.95 847.43 51.39 856.91C29.39 859.5 5.55 862.91 -17.19 861.07C-41.89 859.07 -56.7 848.84 -62.47 836.77C-63.783 834.003 -64.6375 831.041 -65 828V868.22C-54.77 874.06 -41.22 877.7 -23.24 878.09C3.76 878.68 30.68 874.93 56.51 871.33C109.59 863.94 163.76 859.47 218.08 866.85C245.08 870.51 263.58 881.17 277.08 893.43C291.419 906.409 306.856 918.12 323.22 928.43C329.63 932.53 336.28 937.1 342.56 941.99H375.28C362.12 933.58 349.82 924.83 336.03 916.66C328.42 912.14 319.94 907.87 313 903.11Z" stroke="#D0D1DB" stroke-miterlimit="10"/>
<path d="M307.29 785.25C306.22 794.72 345.51 795.69 347.8 785.4C350.13 774.88 308.29 776.32 307.29 785.25Z" stroke="#D0D1DB" stroke-miterlimit="10"/>
<path d="M120.58 744.42C120.453 744.789 120.353 745.167 120.28 745.55C118.01 758.02 153.68 763.37 161.57 749.2C170.49 733.17 124.59 733.12 120.58 744.42Z" stroke="#D0D1DB" stroke-miterlimit="10"/>
<path d="M1615.47 252.71C1624.9 258.41 1657.11 258.71 1647.81 248.07C1639.83 238.91 1618.68 245.58 1615.47 252.71Z" stroke="#D0D1DB" stroke-miterlimit="10"/>
<path d="M1678 237.57C1672.83 235.058 1667.43 233.049 1661.87 231.57C1648.87 228.32 1631.96 226.75 1617.59 227.16C1585.74 228.06 1584.19 251.82 1568.02 262.71C1558.74 268.96 1549.02 274.96 1543.61 282.58C1541.08 286.18 1542.19 297.75 1552.1 298.58C1552.75 298.625 1553.4 298.625 1554.05 298.58C1564.21 298.12 1570.97 287.1 1579.05 284.22C1592.17 279.55 1610.59 277.95 1625.8 276C1655.74 272.16 1683.74 263.4 1688.5 246.32C1689.81 241.87 1684.69 240.69 1678 237.57ZM1615.43 252.71C1618.64 245.58 1639.79 238.91 1647.77 248.07C1657.11 258.74 1624.9 258.41 1615.47 252.71H1615.43Z" stroke="#D0D1DB" stroke-miterlimit="10"/>
</g>
</mask>
<g mask="url(#mask0_305_3980)">
<rect x="2" y="-254.187" width="1680" height="1107.11" fill="#D9D9D9"/>
</g>
<defs>
<clipPath id="clip0_305_3980">
<rect width="1920" height="1080" fill="white" transform="translate(-55 -146)"/>
</clipPath>
</defs>
</svg>
