<svg width="1680" height="246" viewBox="0 0 1680 246" fill="none" xmlns="http://www.w3.org/2000/svg">
<path d="M-16.895 328.079C-7.74472 328.389 -0.26461 324.907 7.56146 322.522C15.3875 320.138 23.7743 318.242 31.4214 315.487C45.8687 310.277 60.7931 302.061 65.577 292.033C70.0388 282.661 64.384 269.199 53.8618 261.854C42.3732 253.781 25.0508 249.345 14.3258 240.7C8.36077 235.931 5.1874 230.112 -0.360049 225.199C-3.41413 222.505 -4.32081 220.144 -6.64716 217.437C-9.11667 214.551 -11.4192 214.408 -16.8592 216.006" stroke="#D0D1DB" stroke-width="0.75" stroke-miterlimit="10"/>
<path d="M-16.895 362.206C-13.6262 357.067 -2.28078 351.773 4.38808 347.898C11.8565 343.681 19.5824 339.938 27.5203 336.689C43.7213 329.833 59.7313 322.714 75.0972 315.226C92.9921 306.557 104.564 297.948 100.019 283.544C96.4399 272.133 87.397 260.591 75.2165 251.505C63.5489 242.8 38.818 237.47 37.5535 225.165C36.945 219.286 40.3689 213.241 43.3872 207.696C45.3318 204.119 47.6343 201.865 44.3774 198.36C41.6693 195.438 36.5633 193.03 32.8292 190.585C19.3721 181.75 8.96921 170.97 11.2359 158.617C13.7651 144.917 29.5604 139.241 45.4034 130.906C53.8856 126.446 59.7194 119.53 55.3411 112.865C51.8933 107.607 40.4525 102.598 39.0447 97.0777C37.1717 89.6849 53.3607 86.9424 62.1293 87.9201C71.888 88.9933 81.5036 90.603 91.2265 91.7954C110.72 94.1802 130.786 95.933 150.196 92.4035C168.21 89.0715 185.405 82.2764 200.827 72.3952C229.245 53.6746 232.537 29.6717 250.337 7.82707C267.54 -13.2902 292.712 -33.2747 327.142 -45.1987C341.601 -50.1948 364.972 -60.6998 382.545 -57.1941C399.39 -53.8197 413.253 -39.6063 421.15 -30.7349C440.549 -8.9499 446.084 14.4926 455.401 38.1735C464.564 61.4609 470.648 84.9988 478.14 108.525C481.91 120.365 484.165 132.301 487.183 144.201C490.106 155.708 492.838 168.12 502.31 178.459C511.091 187.998 529.523 197.799 543.97 204.381C560.302 211.822 581.382 212.907 600.828 210.021C640.483 204.155 665.25 182.012 702.078 172.508C710.856 170.418 719.389 167.408 727.537 163.53C738.643 158.092 740.182 154.539 734.885 146.383C727.644 135.222 721.667 123.728 713.268 112.793C704.512 101.43 695.254 91.9623 691.532 79.4064C687.953 67.4825 687.344 56.1309 686.593 44.04C685.09 19.8106 673.374 -3.38142 667.505 -27.1577C664.439 -39.4394 667.684 -50.4333 673.78 -62.1664C677.287 -68.9392 678.039 -74.1619 673.971 -80.9466C670.523 -86.6939 666.813 -92.322 663.854 -98.1767C652.401 -120.773 651.793 -145.324 653.117 -168.754C653.857 -181.608 654.549 -192.519 646.281 -204.645C638.73 -215.711 627.754 -225.524 618.258 -235.982C613.784 -240.906 611.338 -246.367 607.735 -251.483C601.448 -260.461 589.077 -267.079 607.39 -274.52C614.989 -277.608 623.936 -277.346 631.166 -281.376C639.338 -285.931 643.967 -293.443 647.188 -299.655C654.871 -314.405 648.381 -329.68 667.469 -342.081C675.689 -347.399 686.557 -351.012 695.779 -355.614C700.42 -357.999 706.325 -360.384 710.178 -363.174C715.678 -367.145 717.05 -369.84 726.344 -370.579C738.786 -371.569 751.54 -370.209 764.042 -371.342C775.404 -372.461 786.32 -376.341 795.836 -382.646C805.272 -388.775 811.667 -396.347 820.555 -402.762C830.635 -410.047 836.72 -417.726 836.207 -427.241" stroke="#D0D1DB" stroke-width="0.75" stroke-miterlimit="10"/>
<path d="M433.283 54.3278L433.366 54.5066" stroke="#D0D1DB" stroke-width="0.75" stroke-miterlimit="10"/>
<path d="M897.849 -427.206C895.63 -423.545 894.472 -418.859 890.416 -415.819C886.646 -412.969 880.646 -410.357 876.16 -407.913C866.103 -402.416 849.914 -398.827 843.663 -391.553C837.208 -384.017 833.45 -375.838 826.066 -368.516C810.199 -352.836 786.601 -345.122 758.554 -339.231C745.276 -336.441 731.533 -333.4 721.32 -327.391C711.108 -321.381 707.183 -312.235 703.676 -304.282C699.847 -295.578 705.036 -287.756 703.676 -279.135C702.316 -270.514 689.455 -267.068 681.498 -260.593C663.221 -245.771 670.499 -227.659 691.531 -215.151C701.326 -209.32 713.84 -204.073 712.802 -194.952C711.824 -186.319 704.69 -178.604 698.832 -170.877C686.592 -154.768 672.694 -141.342 678.027 -122.86C680.437 -113.877 684.804 -105.538 690.815 -98.4393C697.353 -90.7603 704.225 -83.7132 707.172 -75.1757C710.285 -66.1135 703.366 -58.7684 699.25 -50.3262C697.341 -46.4033 694.931 -41.9795 696.017 -37.9373C697.103 -33.8951 699.334 -29.6621 700.98 -25.6199C707.78 -8.92636 711.311 7.64788 715.296 24.6633C719.172 42.1952 725.671 59.0424 734.575 74.6365C743.976 90.8412 749.809 106.545 755.428 123.322C758.077 131.239 769.971 137.297 775.351 144.928C781.054 153.013 781.221 161.681 778.071 170.171C775.22 177.874 769.852 187.377 759.27 192.54C748.103 198.002 731.568 196.392 718.159 196.058C711.061 195.879 703.437 195.45 696.458 196.38C689.682 197.298 683.467 200.029 677.442 202.02C665.059 206.098 653.2 210.724 640.829 214.826C616.337 222.958 589.768 231.4 561.22 232.462C525.227 233.821 519.537 214.91 503.383 200.351C495.378 193.196 486.765 186.507 481.528 178.315C476.793 170.691 473.045 162.497 470.373 153.931C464.873 137.178 464.408 120.544 455.306 104.112C446.203 87.6813 442.016 70.9163 433.366 54.5209C426.005 40.5937 420.351 26.3565 413.264 12.3817C409.578 4.94364 405.376 -2.22814 400.69 -9.08138C398.36 -12.5258 395.835 -15.8342 393.126 -18.9902C385.897 -27.2296 371.163 -29.5071 356.823 -26.7527C334.335 -22.4481 321.033 -10.5361 307.72 0.219275C294.06 11.2608 281.474 23.3517 280.627 37.5054C280.233 43.9562 281.82 51.0749 283.907 57.3945C284.933 60.5782 286.973 62.5695 284.79 65.7413C283.06 68.2692 279.267 71.0713 276.547 73.2891C270.665 78.0587 260.071 82.4944 251.971 86.0477C242.904 90.0184 233.372 93.8579 223.888 97.459C204.454 104.84 185.521 112.865 165.741 119.864C155.004 123.668 146.02 125.075 133.53 125.027C121.97 125.027 111.018 124.86 99.9946 127.197C88.3867 129.654 81.2048 133.636 71.9829 138.263C62.5225 143.032 53.3006 147.218 46.6078 153.573C32.4708 166.987 49.1131 175.716 60.9238 187.115C73.4145 199.134 65.8151 213.348 77.1248 225.88C88.0288 237.947 103.788 248.321 114.955 260.459C125.763 272.156 132.611 285.165 139.28 297.864C147.237 312.996 120.765 317.3 103.418 323.692C83.9726 330.846 64.3239 337.905 47.0851 346.943C29.6553 356.077 14.7667 364.066 12.154 378.47C6.24869 410.963 64.813 417.032 91.6913 437.851C105.697 448.702 101.808 464.084 95.9503 476.521C89.2098 490.746 77.0055 500.166 62.0333 511.541C54.8753 517.014 55.4122 522.332 54.5532 528.879C53.6943 535.425 45.9875 540.588 38.8533 545.167C34.2126 548.124 32.3396 547.766 26.2195 548.994C21.71 549.889 18.5604 552.059 14.9099 553.764C8.70627 556.733 -3.68901 565.08 -11.8491 564.805" stroke="#D0D1DB" stroke-width="0.75" stroke-miterlimit="10"/>
<path d="M22.8662 598.168C27.7456 590.322 40.6061 583.859 49.3031 577.528C58 571.196 69.1546 565.008 74.3561 557.257C84.9857 541.327 88.4335 524.097 100.256 508.309C111.947 492.677 119.678 476.139 123.317 459.183C125.214 450.371 128.089 441.833 121.539 433.511C116.123 426.666 99.5164 421.444 88.6005 417.795C65.2773 410.008 31.9926 400.29 35.2734 381.069C38.2082 363.899 69.2977 352.809 91.2251 344.379C113.379 335.865 147.117 328.02 157.866 312.518C168.329 297.435 154.394 276.496 144.504 262.438C133.421 246.663 114.333 233.403 103.167 217.664C91.7858 201.626 90.1872 184.861 74.9645 169.706C70.9679 165.735 68.9995 160.166 76.5631 157.376C82.3849 155.23 90.7717 154.55 97.202 153.012C110.409 149.828 123.555 147.05 137.311 144.844C165.477 140.277 190.996 133.588 217.313 126.135C242.784 118.91 272.633 115.475 295.562 105.555C307.313 100.487 319.243 94.537 325.864 86.6195C332.283 78.9525 333.487 70.403 333.965 61.9728C334.943 44.5281 329.324 27.143 349.032 12.3573C359.769 4.29672 375.016 4.34444 382.078 14.2055C387.65 21.9799 386.373 31.1733 388.318 39.4485C390.31 47.9383 395.726 55.8677 399.317 64.131C402.908 72.3943 405.557 81.1703 410.603 89.3263C415.649 97.4823 421.877 104.696 428.641 112.184C435.918 120.221 443.542 127.173 444.15 136.45C445.116 152.666 454.959 170.946 465.803 185.755C471.398 193.398 478.318 200.66 484.08 208.268C490.045 216.233 493.206 224.818 496.618 233.308C498.288 237.457 500.722 241.44 502.583 245.542C504.444 249.644 504.719 254.27 507.809 257.943C515.086 266.564 535.939 261.52 547.846 259.063C575.106 253.543 600.039 244.683 624.651 235.967C647.437 227.894 676.26 216.638 704.021 219.035C732.892 221.527 752.707 238.113 768.216 251.539C772.38 255.117 774.933 259.254 779.586 262.688C784.238 266.122 789.332 269.151 794.045 272.442C803.386 278.941 812.536 285.415 821.281 292.176C828.379 297.673 850.569 307.498 853.432 294.561C854.411 290.209 849.71 286.071 848.338 281.922C846.859 277.414 848.255 273.205 849.114 268.734C850.832 259.672 840.035 252.768 832.412 245.494C824.788 238.22 819.492 229.79 817.082 221.491C812.143 204.488 813.896 187.353 814.409 170.218C815.435 135.639 804.09 102.252 775.768 71.8577C761.822 56.9051 747.864 41.3325 743.104 24.2693C738.344 7.20619 735.421 -9.98812 732.701 -27.0036C729.981 -44.019 736.28 -60.9152 730.565 -77.9545C724.851 -94.9938 709.235 -109.946 700.896 -126.473C695.718 -136.704 707.111 -142.845 716.774 -150.643C725.125 -157.356 732.737 -164.367 738.499 -171.975C751.622 -189.348 743.271 -204.825 726.306 -219.861C717.586 -227.564 706.192 -234.17 713.482 -243.888C719.578 -252.056 729.42 -258.268 734.371 -266.961C743.092 -282.283 731.222 -304.843 762.466 -312.725C768.873 -314.346 776.412 -314.215 783.105 -313.333C790.871 -312.296 795.453 -309.028 802.515 -307.454C815.077 -304.652 828.976 -314.943 838.377 -319.128C861.497 -329.394 880.132 -342.427 899.339 -355.222C908.418 -361.267 917.687 -367.146 926.838 -373.108C936.382 -379.344 942.681 -386.915 954.646 -391.721C960.611 -394.106 965.753 -395.668 970.68 -398.875C975.607 -402.083 980.224 -405.481 985.342 -408.593C989.971 -411.443 996.222 -413.554 1000.54 -416.511C1005.06 -419.611 1006.96 -423.88 1011.47 -427.135" stroke="#D0D1DB" stroke-width="0.75" stroke-miterlimit="10"/>
<path d="M134.006 586.066C112.532 586.436 98.4428 578.423 102.821 565.724C106.543 554.909 112.437 544.618 117.495 534.03C127.235 513.35 135.081 491.831 140.937 469.736C143.836 459.004 147.916 447.879 148.095 437.029C148.239 425.427 131.739 417.521 116.875 411.631C101.366 405.478 84.1984 401.71 68.4508 395.963C47.8477 388.427 52.9418 377.695 70.0971 369.957C98.9796 356.924 133.326 346.407 158.2 330.488C186.128 312.602 182.43 290.46 171.49 268.687C160.753 247.379 137.979 229.707 126.216 208.805C120.704 199.015 117.865 186.042 126.61 176.67C136.01 166.522 153.261 162.182 170.285 157.723C203.976 148.887 238.561 141.16 274.804 137.07C293.152 135.007 310.487 132.611 328.226 129.081C347.708 125.206 362.919 122.308 381.303 129.57C411.009 141.303 424.764 166.296 440.464 184.42C448.815 194.114 459.731 203.272 465.887 213.586C472.186 224.139 475.12 235.121 478.425 246.115C481.622 256.739 486.621 268.067 500.233 275.734C514.394 283.699 534.723 283.627 552.129 280.014C586.869 272.8 613.556 255.606 644.502 244.35C659.069 239.056 678.431 232.748 696.124 234.489C713.816 236.23 729.182 245.745 737.079 254.903C741.314 259.779 743.975 265.086 747.757 270.082C751.538 275.078 757.026 279.394 762.073 284.08C772.443 293.84 783.806 302.488 795.978 309.884C807.991 317.134 822.605 326.828 839.999 329.105C859.35 331.645 871.9 318.04 877.507 308.906C884.033 298.27 880.716 287.324 879.261 276.33C877.805 265.336 875.968 254.748 870.826 243.921C860.877 222.923 850.319 201.555 848.684 179.531C847.861 168.561 850.092 157.591 850.164 146.633C850.259 134.376 854.089 125.874 866.866 116.335C874.024 111.016 878.605 106.426 870.445 100.571C864.48 96.2905 855.914 93.7745 849.269 89.9111C836.384 82.3871 825.361 73.1461 813.813 64.7993C802.05 56.2618 791.074 47.6647 782.163 37.9347C772.977 27.9186 769.565 17.7475 767.214 6.52709C764.787 -4.26999 763.018 -15.2045 761.917 -26.216C760.987 -37.2099 763.635 -48.2276 762.848 -59.138C762.454 -64.5992 758.875 -69.8695 757.181 -75.1876C755.487 -80.5057 753.686 -86.1219 751.741 -91.5592C747.936 -102.195 742.197 -112.951 742.138 -123.921C742.078 -134.891 751.598 -145.121 759.531 -154.828C768.049 -165.237 774.671 -174.431 775.565 -186.164C776.46 -197.897 776.412 -207.352 766.749 -218.036C761.977 -223.259 757.002 -227.575 757.062 -233.74C757.122 -239.046 759.973 -244.293 762.765 -249.241C776.699 -274.138 810.902 -274.747 851.905 -270.43C872.007 -268.32 886.264 -264.468 904.075 -272.719C917.505 -278.726 929.82 -286.963 940.498 -297.08C950.173 -306.071 964.978 -313.607 976.288 -322.037C988.146 -330.908 998.68 -338.826 1007.74 -348.89C1016.79 -358.953 1030.76 -365.476 1044.96 -372.737C1052.23 -376.458 1058.47 -380.631 1065.49 -384.518C1071.98 -388.095 1079.72 -390.838 1086.38 -394.356C1092.69 -397.682 1097.96 -407.341 1107.6 -408.235C1124.21 -409.761 1121.7 -394.057 1126.22 -388.179C1136.26 -375.063 1173.14 -378.33 1193.99 -378.461C1215.27 -378.592 1221.35 -371.128 1238.43 -364.856C1253.76 -359.228 1271.94 -360.325 1274.63 -346.97C1277.39 -333.186 1283.91 -319.449 1282.28 -305.51C1281.02 -294.409 1279.51 -283.678 1283.82 -272.779C1288.02 -262.143 1293.98 -251.638 1299.69 -241.264C1304.61 -232.321 1300.76 -216.224 1313.81 -209.702C1329.44 -201.891 1351.35 -209.701 1365.89 -214.34C1383.49 -220.016 1390.68 -229.137 1397.77 -239.976C1404.54 -250.291 1412.75 -259.83 1420.67 -269.858C1428.39 -279.528 1435.76 -289.628 1441.22 -299.858C1443.79 -304.628 1447.07 -309.636 1448.67 -314.608C1452.76 -327.391 1457.81 -342.904 1479.82 -349.474C1491.54 -352.979 1499.94 -349.116 1511.16 -350.416C1517.42 -351.155 1519.34 -354.995 1524.55 -356.199C1535.4 -358.703 1545.56 -353.945 1555.57 -356.521C1565.58 -359.096 1565.49 -365.201 1566.91 -370.722C1568.49 -376.887 1568.1 -383.087 1570.22 -389.204C1572.21 -394.785 1567.69 -407.221 1578.48 -409.594C1586.27 -411.299 1598.76 -407.412 1608.11 -408.545C1616.46 -409.559 1637.66 -412.182 1631.38 -419.718C1626.91 -425.072 1618.11 -421.745 1611.62 -421.912C1602.79 -422.15 1573.26 -422.138 1570.2 -427.206" stroke="#D0D1DB" stroke-width="0.75" stroke-miterlimit="10"/>
<path d="M447.503 587.71C453.075 583.871 457.31 578.994 457.99 573.902C459.278 564.256 450.533 552.022 441.192 544.379C418.37 525.67 365.151 525.551 331.878 532.192C293.523 539.859 256.051 547.419 215.489 549.804C201.614 550.627 170.739 552.952 162.448 544.414C154.157 535.877 155.827 521.509 155.66 512.101C155.433 500.177 157.02 488.157 159.131 476.329C161.243 464.5 165.657 452.409 164.679 440.557C163.701 428.705 158.201 419.189 145.83 409.805C135.653 402.09 116.828 394.376 112.712 384.86C110.326 379.232 111.519 376.716 115.885 371.482C120.252 366.247 128.388 361.942 135.498 358.103C150.446 350.15 166.337 343.234 178.554 333.611C204.143 313.472 203.606 291.794 193.347 268.244C188.035 256.487 181.733 245.202 174.509 234.511C167.351 223.708 155.994 213.048 151.15 201.78C145.889 189.522 162.233 181.951 178.649 176.812C196.614 171.079 214.893 166.381 233.396 162.741C269.186 155.921 315.569 150.913 351.777 158.949C370.746 163.159 384.93 171.887 399.02 180.174C412.723 188.041 425.755 197.022 437.983 207.027C449.913 217.079 453.85 228.347 457.429 240.271C461.008 252.195 465.005 263.475 472.866 274.54C480.024 284.532 491.501 296.48 509.05 300.975C526.945 305.554 550.101 302.788 567.101 298.161C604.406 288.014 625.797 265.597 660.621 253.435C678.742 247.115 697.604 246.28 713.59 255.176C727.25 262.783 733.799 275.375 739.669 285.653C746.421 297.482 753.018 306.568 768.062 315.463C782.044 323.702 796.05 332.598 811.893 339.573C827.736 346.549 845.035 350.305 862.512 343.401C877.878 337.284 890.726 328.52 898.898 318.623C907.249 308.464 904.708 297.649 902.108 286.929C899.268 275.172 896.62 263.451 894.95 251.61C893.279 239.77 891.633 227.977 890.023 216.161C888.412 204.344 884.582 192.468 885.537 180.699C886.515 168.668 894.031 157.042 906.51 147.646C918.273 138.786 932.219 131.715 938.244 120.698C943.851 110.443 937.731 99.8306 926.862 91.5197C914.551 82.0998 896.894 77.5448 883.318 69.1504C876.029 64.6312 871.459 61.996 861.999 59.0866C853.411 56.6279 845.004 53.576 836.839 49.9528C821.52 42.7985 809.292 32.1385 802.373 21.3354C788.248 -0.664277 788.773 -25.7403 787.353 -48.9562C785.898 -72.8994 773.956 -96.2584 776.175 -120.333C777.284 -132.4 783.034 -143.895 789.047 -155.353C794.572 -166.258 798.723 -177.805 801.406 -189.73C804.138 -200.915 804.329 -213.912 814.267 -223.868C824.944 -234.6 845.154 -238.177 864.862 -238.892C874.776 -239.25 885.143 -238.547 894.914 -239.894C904.684 -241.242 913.715 -244.425 922.556 -247.048C940.272 -252.188 955.399 -259.986 972.387 -265.793C980.822 -268.69 989.459 -270.562 996.796 -274.533C1004.13 -278.504 1006.46 -283.405 1009.11 -289.08C1014.23 -300.05 1021.15 -311.187 1032.54 -320.44C1042.91 -328.87 1060.75 -337.861 1076.2 -342.786C1085.29 -345.688 1094.74 -347.294 1104.27 -347.555C1114.25 -347.949 1120.27 -351.216 1129.43 -352.42C1138.17 -353.613 1148.72 -353.386 1157.7 -353.613C1167.67 -353.911 1177.23 -354.137 1187.09 -353.028C1195.91 -352.039 1203.79 -349.237 1212.08 -347.257C1221.38 -345.063 1229.35 -341.581 1235.32 -336.8C1240.74 -332.472 1241.8 -327.905 1244.87 -323.016C1248.45 -317.364 1253.22 -312.284 1256.03 -306.322C1261.42 -295.054 1263.11 -283.238 1267.67 -271.838C1276.94 -248.634 1278.27 -225.585 1275.12 -201.916C1273.75 -191.65 1279.64 -180.453 1294.45 -174.599C1310.42 -168.219 1330.94 -171.868 1345.49 -178.176C1360.45 -184.674 1373.5 -194.702 1384.91 -203.3C1396.19 -211.781 1405.97 -222.09 1413.84 -233.801C1421.15 -244.425 1426.71 -256.826 1438.9 -265.9C1445.44 -270.743 1452.63 -274.648 1460.25 -277.502C1464.42 -279.04 1469.16 -279.982 1472.86 -281.926C1492.55 -292.276 1512.82 -278.086 1531.02 -285.563C1537.33 -288.15 1536.99 -291.525 1545.34 -288.46C1550.11 -286.755 1549.56 -281.592 1555.74 -280.734C1565.96 -279.291 1565.52 -288.043 1566.18 -291.692C1567.51 -299.156 1565.49 -313.155 1579.99 -312.63C1585.22 -312.451 1589.13 -308.278 1596.1 -308.302C1607.66 -308.302 1614.65 -312.368 1627.58 -310.686C1639.2 -309.196 1650.67 -306.453 1661.33 -308.838C1672.83 -311.402 1684.13 -321.955 1696.04 -321.847" stroke="#D0D1DB" stroke-width="0.75" stroke-miterlimit="10"/>
<path d="M504.277 583.739C501.688 572.102 485.571 563.349 475.239 553.858C464.097 543.615 455.328 529.879 439.02 522.093C423.32 514.581 395.881 515.224 376.793 515.224C331.077 515.308 290.277 529.724 244.919 531.322C224.924 532.073 205.001 529.533 192.857 519.231C181.726 509.787 179.054 497.148 178.362 485.844C176.823 460.661 188.836 436.634 171.824 412.428C164.439 401.947 150.863 392.169 145.471 381.211C140.078 370.253 166.253 360.595 177.431 353.524C205.896 335.495 228.098 314.628 222.586 289.063C217.325 264.643 201.112 241.463 196.34 216.971C191.222 190.572 243.857 177.062 280.22 174.403C301.777 172.829 323.907 174.188 342.995 180.615C352.122 183.691 358.791 188.509 367.607 191.8C376.113 194.972 385.359 197.309 393.853 200.528C410.185 206.705 424.036 215.183 432.029 225.795C440.881 237.492 442.587 250.466 448.111 262.759C458.323 285.415 464.538 315.904 509.777 322.152C553.822 328.233 595.673 320.697 624.078 299.652C638.024 289.326 679.421 243.967 706.813 266.265C718.253 275.589 720.568 286.881 724.063 297.923C728.096 310.669 739.155 319.672 755.666 327.864C780.898 340.372 814.886 372.936 854.613 362.801C873.451 358.031 889.401 347.562 903.371 338.953C915.134 331.691 932.886 319.565 931.848 308.762C931.323 303.229 926.885 297.41 924.344 292.068C921.276 285.925 918.634 279.578 916.434 273.073C912.259 259.862 913.189 246.841 915.862 233.534C918.415 220.811 921.087 208.291 920.634 195.448C920.192 183.811 922.411 172.686 938.529 164.852C954.038 157.316 967.769 149.351 982.3 141.206C989.911 136.914 997.618 132.788 1005.87 128.961C1012.96 125.682 1020.99 120.173 1021.87 114.557C1023.77 102.633 1002.22 94.4766 990.066 87.2626C983.827 83.5543 977.075 80.2514 970.919 76.5311C964.142 72.3696 956.972 67.3497 949.325 63.8202C941.678 60.2907 931.55 59.2653 922.411 57.7151C912.378 55.9981 902.429 53.7206 892.837 51.2643C873.367 46.2562 853.086 40.6401 840.607 29.992C815.793 8.82702 816.067 -18.7411 812.5 -43.6025C808.659 -70.3479 799.699 -97.2602 804.817 -124.149C807.335 -137.337 812.799 -150.226 817.356 -163.188C821.639 -175.374 823.715 -188.228 831.362 -199.925C838.711 -211.134 851.798 -219.516 871.387 -223.129C891.751 -226.885 913.679 -227.112 934.103 -230.999C953.907 -234.779 970.096 -243.495 989.732 -247.693C1009.37 -251.89 1030.22 -251.914 1049.25 -256.838C1057.22 -258.717 1064.59 -262.534 1070.72 -267.951C1075.88 -272.53 1075.59 -279.255 1076.95 -284.645C1079.8 -295.865 1079.84 -306.978 1090.67 -316.839C1096.43 -322.074 1102.1 -325.627 1112.56 -327.082C1122.61 -328.489 1131.31 -329.753 1140.83 -331.959C1156.85 -335.691 1181.02 -334.534 1196.41 -330.313C1214.67 -325.305 1222.81 -315.647 1232.59 -305.81C1243.33 -295.007 1248.65 -281.378 1252.87 -269.179C1261.58 -243.829 1257.64 -218.574 1259.62 -192.95C1260.52 -181.026 1267.36 -171.487 1276.03 -160.922C1284.38 -150.763 1284.83 -136.049 1297.43 -127.392C1312.24 -117.221 1336.66 -126.987 1351.22 -132.412C1367.26 -138.374 1367.93 -152.683 1374.44 -162.329C1390.22 -185.891 1413.9 -207.449 1431 -230.713C1438.65 -241.134 1445.66 -252.641 1462.47 -259.044C1480.1 -265.757 1498.4 -264.732 1508.41 -253.178C1517.66 -242.446 1523.42 -233.431 1542.88 -228.209C1554.47 -225.097 1559.44 -228.507 1570.32 -228.984C1582.35 -229.509 1594.98 -226.504 1607.04 -226.086C1618.38 -225.693 1628.12 -227.553 1639.48 -226.742C1652.24 -225.824 1664.42 -223.308 1677.42 -223.725C1683.66 -223.916 1690.55 -223.189 1694.59 -220.363C1696.86 -218.816 1699.36 -217.637 1702 -216.869" stroke="#D0D1DB" stroke-width="0.75" stroke-miterlimit="10"/>
<path d="M536.584 625.294C557.939 603.497 530.214 576.74 506.855 559.605C494.445 550.627 482.859 540.564 472.234 529.533C460.521 517.109 444.923 509.043 428.009 506.663C387.28 500.32 346.659 504.171 306.848 510.527C287.486 513.615 267.265 516.846 247.043 516.345C223.887 515.713 210.466 506.878 202.783 494.382C188.67 471.404 205.002 446.066 197.51 422.385C193.776 410.628 184.852 399.384 182.729 387.46C180.474 374.868 193.466 364.208 205.551 354.621C217.636 345.034 230.174 335.674 241.341 325.682C253.199 315.046 252.829 302.299 248.057 290.363C239.181 268.137 220.26 241.892 230.914 218.879C242.283 194.328 291.602 182.559 329.623 193.421C338.916 196.081 346.241 200.266 354.902 203.497C363.564 206.729 373.119 208.625 382.067 211.51C400.427 217.472 413.86 226.415 421.83 237.934C429.632 249.214 432.793 261.865 435.859 273.872C438.925 285.88 442.612 297.434 446.596 309.227C448.517 314.903 450.354 320.495 451.822 326.218C453.551 333.003 456.737 335.757 468.524 336.795C488.602 338.655 508.656 340.467 528.579 342.876C548.502 345.285 568.246 348.838 588.229 351.461C611.051 354.502 624.127 345.964 640.149 337.57C648.145 333.209 656.4 329.338 664.867 325.98C675.903 321.759 681.104 321.532 692.306 325.419C710.058 331.584 728.096 337.749 745.443 344.402C761.858 350.698 773.717 361.239 788.677 368.787C803.065 376.037 823.62 386.065 843.686 382.094C862.249 378.421 878.486 368.524 893.172 361.167C908.681 353.429 925.383 345.738 938.685 336.652C951.987 327.566 957.868 314.724 952.476 303.11C946.952 291.186 936.454 280.526 931.992 268.232C927.53 255.939 933.603 244.468 940.343 232.854C946.845 221.681 953.239 209.543 955.411 197.75C956.604 191.549 956.902 185.826 963.189 180.436C968.724 175.667 979.187 171.72 986.727 168.012C1002.61 160.201 1017.74 153.214 1035.64 147.192C1052.13 141.684 1071.17 134.947 1076.37 123.452C1081.57 111.957 1072.06 99.604 1057.21 92.2708C1041.34 84.4845 1024.94 77.4851 1008.03 70.4619C991.618 63.6414 976.288 55.5928 958.536 50.0124C924.595 39.3524 870.362 41.2125 853.934 16.6254C846.49 5.46456 845.452 -7.2225 843.078 -19.0153C840.62 -31.2612 837.876 -43.4713 834.953 -55.6814C829.215 -79.7558 825.23 -103.711 831.458 -127.905C834.536 -139.829 838.795 -151.752 842.088 -163.676C845.297 -175.398 846.74 -188.907 857.084 -199.341C868.739 -211.098 885.453 -214.949 907.583 -216.034C917.616 -216.523 927.972 -216.034 937.861 -217.227C947.954 -218.419 956.592 -221.734 965.468 -224.679C983.565 -230.641 1001.73 -236.603 1022.41 -238.833C1042.28 -240.92 1062.4 -235.148 1080.64 -231.261C1089.9 -229.282 1099.99 -227.768 1106.1 -233.646C1111.18 -238.416 1109.95 -244.7 1111.45 -250.077C1113.15 -256.158 1116.32 -261.739 1115.58 -267.963C1114.84 -274.187 1111.38 -279.613 1114.16 -285.849C1119.82 -298.679 1127.85 -308.028 1147.17 -315.385C1164.45 -321.967 1188.51 -316.577 1202.95 -309.423C1218.2 -301.97 1227.76 -288.77 1233.49 -277.729C1239.55 -266.055 1242.22 -254.203 1244.22 -242.1C1248.3 -217.871 1241.22 -192.985 1249.9 -169.09C1254.34 -156.868 1257.42 -145.707 1256.46 -133.139C1256.01 -127.106 1253.96 -121.108 1253.67 -115.086C1253.39 -109.065 1256.06 -103.055 1258.8 -97.3197C1261.41 -91.379 1264.33 -85.5764 1267.53 -79.9346C1270.35 -75.2366 1271.73 -67.3787 1282.18 -66.9495C1300.08 -66.234 1310.97 -83.5595 1318.98 -90.5708C1330.17 -100.372 1344.96 -109.434 1360.08 -117.102C1376.47 -125.448 1385.63 -135.071 1394.84 -146.411C1403.73 -157.357 1410.04 -169.543 1416.11 -181.133C1422.18 -192.723 1430.43 -203.789 1439.61 -214.52C1447.79 -224.214 1457.07 -238.738 1475.78 -242.732C1495.23 -246.882 1501.06 -226.039 1505.37 -218.193C1510.23 -209.393 1514.12 -193.784 1528.25 -188.597C1545.69 -182.182 1567.1 -189.849 1584.88 -187.572C1594.79 -186.308 1602.1 -188.848 1611.92 -188.538C1620.47 -188.264 1630.35 -188.931 1638.44 -187.5C1649.18 -185.593 1657.67 -186.427 1668.26 -185.938C1674.13 -185.664 1675.68 -185.247 1681.14 -186.713C1685.61 -187.906 1688.21 -188.776 1693.39 -187.608" stroke="#D0D1DB" stroke-width="0.75" stroke-miterlimit="10"/>
<path d="M1693.47 144.057C1672.76 146.346 1638.8 152.511 1620.5 144.176C1601.99 135.734 1589.87 120.066 1567.59 114.915C1545.56 109.823 1517.89 105.864 1494.28 107.069C1470.67 108.273 1446.76 113.865 1424.57 118.635C1412.99 121.127 1399.68 122.987 1389.04 126.731C1378.02 130.607 1371.75 136.879 1364.74 142.948C1358.38 148.445 1350.79 155.468 1340.28 158.079C1334.66 159.602 1328.85 160.341 1323.02 160.273C1316.54 160.095 1311 157.972 1304.54 157.984C1291.06 157.984 1280.32 158.711 1267.05 156.005C1255.12 153.56 1245.11 149.947 1232.23 149.303C1220.3 148.707 1208.46 148.469 1196.57 147.586C1183.76 146.644 1172.71 147.586 1159.99 148.159C1145.36 148.767 1135.54 146.31 1128.97 138.464C1123.41 131.894 1120.82 124.68 1117.96 117.55C1115.19 110.646 1111.62 103.837 1108.64 96.9573C1104.88 88.2767 1102.07 84.4253 1088.74 79.9299C1066.96 72.5848 1043.97 66.9328 1023.03 58.6099C1002.75 50.5494 983.434 42.143 960.755 36.5387C938.314 31.006 911.734 27.9058 891.561 19.6187C879.726 14.7537 877.376 9.97222 875.503 1.73278C873.833 -5.52889 873.499 -12.8621 871.745 -20.1238C864.706 -49.2301 847.73 -77.1082 851.464 -106.966C853.325 -121.918 859.696 -136.239 864.444 -150.905C869.037 -165.095 868.846 -179.738 876.278 -193.545C880.084 -200.604 889.509 -206.554 902.751 -206.221C915.433 -205.911 927.804 -203.418 940.593 -204.873C963.952 -207.544 984.328 -217.989 1006.15 -223.308C1033.43 -229.925 1051.94 -221.352 1075.46 -213.864C1085.54 -210.656 1099.07 -207.186 1108.65 -212.731C1117.13 -217.632 1121.05 -225.978 1122.97 -232.704C1127.2 -247.382 1127.74 -262.442 1131.48 -277.132C1134.88 -290.63 1151.38 -307.812 1178.01 -302.697C1202.73 -297.927 1214.99 -282.498 1222.15 -268.762C1225.73 -261.881 1227.25 -254.93 1228.67 -247.811C1230.09 -240.693 1233.62 -233.336 1234.07 -226.11C1235.01 -211.264 1230.98 -196.3 1232.71 -181.443C1234.42 -166.848 1235.85 -152.825 1232.71 -138.254C1226.32 -109.219 1227.65 -79.7076 1227.94 -50.4463C1228.02 -40.5018 1233.49 -13.3152 1259.84 -20.6365C1270.83 -23.7129 1278.38 -30.9507 1287.14 -35.7799C1295.89 -40.6091 1304.85 -45.164 1312.36 -50.8398C1327.61 -62.3822 1337.41 -76.3451 1350.19 -88.901C1362.64 -101.195 1376.56 -113.727 1393.04 -124.22C1409.85 -134.951 1428.77 -144.55 1437.51 -158.799C1445.86 -172.38 1443.66 -188.824 1455.56 -201.451C1463.2 -209.559 1475.26 -206.948 1478.34 -198.553C1480.51 -192.591 1475.24 -183.851 1474.47 -177.532C1473.63 -169.988 1473.84 -162.364 1475.08 -154.876C1475.92 -149.546 1477.25 -139.53 1484.62 -135.619C1494.62 -130.289 1509.4 -135.846 1518.9 -138.54C1529.64 -141.593 1540.95 -143.882 1551.86 -146.768C1575.16 -152.921 1598.88 -157.364 1622.82 -160.063C1634.12 -161.375 1645.57 -159.753 1657.13 -160.719C1669.16 -161.732 1681.17 -162.484 1693.54 -161.649" stroke="#D0D1DB" stroke-width="0.75" stroke-miterlimit="10"/>
<path d="M580.797 595.771C570.322 588.27 559.323 580.925 548.8 573.377C537.813 565.508 527.815 557.197 516.47 549.53C510.791 545.678 504.433 541.994 499.231 537.904C494.03 533.814 492.312 528.83 488.494 524.239C455.532 483.912 363.456 489.946 303.031 498.102C286.507 500.331 268.66 503.229 251.6 501.679C233.085 499.986 221.978 491.15 217.648 480.764C213.568 470.951 216.18 460.708 219.497 450.954C223.147 440.223 223.076 430.946 218.685 420.274C214.558 410.341 209.595 400.457 209.225 390.142C208.855 379.828 215.572 370.074 225.175 361.453C235.415 352.18 247.04 344.561 259.629 338.869C273.337 332.788 285.875 325.538 289.896 315.296C293.916 305.053 282.427 295.681 275.58 286.881C268.422 277.628 262.015 268.351 258.078 258.395C250.312 238.768 254.499 213.752 289.657 204.737C306.705 200.361 322.023 204.654 337.115 209.674C352.206 214.694 368.634 218.676 382.723 224.59C413.466 237.48 417.725 258.55 420.183 279.25C421.376 289.469 423.762 299.52 426.148 309.704C428.236 318.754 426.029 331.548 434.201 339.513C444.425 349.458 461.855 350.245 479.439 352.32C496.463 354.311 513.523 356.374 529.724 360.166C544.773 363.515 559.323 368.806 573.006 375.905C579.592 379.482 585.473 383.465 592.249 386.839C598.214 389.82 603.988 395.186 611.874 396.379C626.751 398.561 639.957 383.644 647.581 377.849C658.055 369.884 672.001 362.658 689.336 361.298C723.241 358.639 755.941 374.689 779.944 386.935C793.067 393.66 805.677 401.077 822.439 404.487C842.612 408.589 852.204 402.662 864.265 393.839C885.262 378.457 913.775 363.099 943.838 354.323C958.619 350.006 978.089 346.525 988.17 356.231C997.179 364.706 1005.68 373.708 1013.62 383.191C1029.35 402.388 1029.13 422.874 1019.69 443.037C1010.56 462.437 998.967 482.171 995.149 502.275C991.427 521.878 993.121 543.925 1001.22 563.087C1005.29 572.698 1021.5 580.377 1032.42 587.495" stroke="#D0D1DB" stroke-width="0.75" stroke-miterlimit="10"/>
<path d="M1693.47 123.881C1686.23 130.833 1678.12 131.655 1665.04 132.884C1654.03 133.909 1640.74 134.72 1630 132.597C1619.27 130.475 1611.48 124.537 1603.61 119.887C1595.44 114.965 1586.96 110.584 1578.22 106.77C1559.72 98.9123 1535.05 97.3622 1516.04 89.409C1506.62 85.486 1499.24 80.2514 1490.65 75.7441C1479.83 70.0683 1470.24 72.5008 1464.87 80.2633C1460.76 86.2253 1456.45 92.9504 1446.76 96.4441C1437.07 99.9378 1424.43 101.512 1413.72 103.801C1403.02 106.091 1391.93 108.165 1381.86 111.242C1371.22 114.485 1365.58 120.328 1357.53 125.336C1341.68 135.197 1323.22 144.032 1298.89 143.305C1287.19 142.947 1276.8 140.3 1266.45 137.343C1256.09 134.386 1246.51 130.189 1234.85 130.117C1212.49 129.95 1189.05 135.984 1167.19 130.594C1145.08 125.073 1139.98 108.75 1132.89 96.6945C1125.93 84.8898 1113.57 69.6629 1093.3 64.1541C1083.16 61.3996 1071.82 60.2788 1061.65 57.4528C1051.58 54.6883 1041.71 51.2545 1032.11 47.1744C1012.94 38.9588 995.125 31.0056 973.186 25.4609C951.557 19.9879 931.061 17.2572 916.339 5.57179C902.966 -5.05243 901.343 -21.1259 895.402 -33.6698C889.258 -46.6311 882.076 -58.9724 877.507 -72.2557C872.819 -86.0755 870.421 -99.3945 874.859 -113.381C879.058 -126.569 887.982 -138.97 892.36 -152.086C895.867 -162.687 891.99 -185.473 912.903 -189.456C923.784 -191.555 935.475 -191.459 946.379 -193.582C957.283 -195.704 967.483 -198.709 977.791 -201.535C988.098 -204.361 998.37 -207.342 1008.81 -209.965C1021.2 -213.065 1029.09 -213.542 1041.13 -209.691C1051.17 -206.471 1061.05 -203.061 1071.02 -199.758C1080.39 -196.67 1093.14 -192.032 1104.11 -194.464C1124.27 -198.912 1131.54 -217.716 1134.87 -228.674C1139.02 -242.327 1139.84 -256.099 1145.97 -269.561C1148.82 -275.821 1152.51 -282.94 1161.93 -286.827C1172.5 -291.203 1183.55 -287.101 1191.48 -282.308C1208.09 -272.268 1212.57 -257.47 1214.15 -243.984C1214.98 -237.14 1219.28 -230.76 1220.11 -223.928C1220.9 -217.382 1219.49 -210.812 1219.79 -204.242C1220.43 -190.434 1220.98 -176.566 1218.6 -162.818C1216.21 -149.356 1208.71 -136.466 1206.43 -123.028C1204.15 -109.59 1204.66 -95.4954 1205.08 -81.9498C1205.5 -68.4043 1203.89 -54.7156 1204.77 -41.1223C1205.69 -27.9344 1206.56 -13.1965 1217.77 -1.48715C1222.99 3.95016 1231.77 10.4368 1242.17 12.3327C1255.99 14.8248 1260.98 7.64657 1266.88 1.60114C1278.45 -10.1797 1290.58 -21.4955 1306.87 -31.2135C1323.15 -40.9315 1334.9 -52.5335 1347.26 -64.0401C1353.6 -69.9424 1360.67 -75.5586 1367.35 -81.3298C1373.69 -86.8148 1377.6 -93.2537 1383.22 -98.9891C1394.96 -111.032 1410.19 -120.846 1434.72 -122.742C1448.5 -123.815 1456.42 -120.691 1466.05 -115.468C1475.32 -110.436 1485.84 -109.578 1497.82 -111.128C1519.44 -113.918 1540.46 -119.963 1561.05 -124.769C1572.62 -127.487 1583.51 -127.511 1595.32 -129.073C1606.85 -130.588 1617.79 -130.039 1628.94 -131.458C1634.72 -132.197 1637.94 -130.993 1643.58 -130.659C1649.45 -130.446 1655.33 -130.562 1661.19 -131.005C1671.99 -131.715 1682.84 -130.875 1693.4 -128.513" stroke="#D0D1DB" stroke-width="0.75" stroke-miterlimit="10"/>
<path d="M599.981 583.585C587.933 579.022 576.377 573.253 565.491 566.366C545.735 553.918 522.901 539.812 511.889 523.786C509.002 519.601 507.809 515.189 503.24 511.481C498.36 507.679 493.041 504.476 487.397 501.941C474.758 496.064 461.539 491.52 447.957 488.384C421.198 482.231 388.593 480.705 360.08 480.848C329.504 481.015 300.299 486.023 270.045 487.263C253.665 487.943 240.399 485.749 236.152 475.435C232.143 465.74 236.533 457.751 245.099 449.512C248.678 446.054 257.148 443.168 256.826 439.293C256.504 435.418 250.658 430.529 247.664 427.178C241.011 419.725 235.981 410.971 232.895 401.47C226.93 383.358 239.265 365.901 262.934 354.276C274.793 348.469 290.373 346.179 301.934 340.169C312.277 334.792 315.963 323.762 318.636 315.976C325.245 296.409 300.299 283.03 287.272 266.992C280.805 259.027 277.334 249.619 280.4 240.867C283.084 233.212 290.314 222.588 303.472 219.404C316.357 216.28 335.039 223.112 346.874 225.974C360.689 229.325 375.1 232.747 385.885 239.09C409.745 253.196 400.463 272.239 401.967 289.97C402.718 298.913 406.5 307.713 408.695 316.548C410.962 325.634 412.608 334.565 420.243 342.662C435.657 359.009 469.025 362.443 496.679 367.702C525.311 373.139 552.535 382.332 569.893 397.369C583.529 409.173 586.595 440.223 621.192 435.311C635.759 433.236 646.949 425.449 654.751 418.271C663.019 410.652 672.288 403.414 678.504 395.091C681.844 390.608 684.469 387.114 693.524 387.281C700.872 387.424 708.007 389.225 714.795 390.703C727.62 393.517 745.872 395.473 756.55 400.731C768.623 406.693 775.161 414.611 790.025 418.939C804.114 422.983 818.926 423.851 833.391 421.479C864.624 416.185 878.629 399.753 900.521 386.983C922.15 374.379 952.13 362.73 978.436 377.992C1026.16 405.644 999.003 446.376 989.352 479.656C979.808 512.59 974.224 555.671 1010.5 583.728" stroke="#D0D1DB" stroke-width="0.75" stroke-miterlimit="10"/>
<path d="M1693.47 -58.3172C1691.53 -54.9665 1690.25 -52.1167 1690.49 -48.5634C1690.7 -45.4632 1692.19 -42.4583 1690.13 -39.4893C1685.43 -32.7642 1676.32 -29.807 1677.33 -21.6034C1677.74 -18.3362 1680.07 -15.6414 1681.53 -12.5173C1683.2 -8.94017 1681.73 -6.32882 1680.71 -2.82319C1678.48 4.71274 1684.86 9.16036 1693.47 14.2757" stroke="#D0D1DB" stroke-width="0.75" stroke-miterlimit="10"/>
<path d="M1010.86 23.184L1009.71 22.719" stroke="#D0D1DB" stroke-width="0.75" stroke-miterlimit="10"/>
<path d="M1274.59 116.678C1260.91 111.909 1251.07 103.455 1236.41 99.7104C1220.64 95.692 1204.89 94.9408 1192.45 87.2976C1181.21 80.3936 1167.23 76.3037 1156.94 68.5055C1146.03 60.2422 1140.15 52.3724 1122.63 48.2348C1107.79 44.7172 1091.62 43.7991 1076.95 39.9715C1063.27 36.2737 1050.1 30.8737 1037.76 23.8981C1025.56 17.1491 1015.16 9.75626 1001.47 3.98508C988.469 -1.51186 974.821 -6.59145 965.134 -14.3062C955.447 -22.021 949.291 -30.9997 943.267 -39.9069C937.242 -48.8141 928.449 -57.3397 923.331 -66.5211C912.594 -85.8498 915.338 -103.831 925.264 -123.005C930.036 -132.317 934.808 -141.189 937.767 -150.811C938.96 -154.818 939.151 -160.804 943.255 -164.214C947.359 -167.624 957.392 -169.484 963.607 -171.368C994.005 -180.466 1023.97 -184.234 1057.36 -179.226C1088.48 -174.576 1123.74 -167.779 1145.17 -186.595C1149.63 -190.492 1153.84 -194.675 1157.77 -199.115C1161.35 -203.217 1167.19 -206.949 1167.67 -211.695C1168.15 -216.441 1164.84 -221.318 1163.88 -226.063C1162.91 -230.809 1163.96 -235.471 1165.47 -240.074C1167.22 -245.356 1170.63 -247.038 1177.55 -250.174C1187.09 -242.566 1190.83 -233.385 1188.28 -224.06C1187.09 -219.553 1183.51 -214.712 1182.9 -210.276C1182.38 -206.222 1187.44 -201.393 1188.8 -197.243C1192.05 -187.239 1191.85 -179.858 1186.7 -169.997C1182.09 -161.197 1175.59 -152.624 1171.76 -143.693C1164.25 -126.165 1168.33 -106.299 1168.46 -88.33C1168.59 -69.9671 1170.27 -51.5447 1170.77 -33.158C1171.03 -23.8692 1169.42 -14.6759 1169.46 -5.41099C1169.46 3.43657 1167.98 13.6673 1171.13 22.3479C1174.71 32.376 1188.27 36.9309 1201.48 42.2847C1214.39 47.5074 1226.59 53.2786 1242.3 55.1745C1256.52 56.8796 1275 54.9599 1287.4 50.4049C1301.12 45.3969 1304.34 35.3212 1306.68 26.4975C1309.15 17.1253 1309.39 8.21807 1315.82 -0.605644C1321.98 -9.07164 1330.74 -16.846 1339.68 -24.3939C1348.61 -31.9417 1357.14 -39.7042 1365.92 -47.3355C1374.7 -54.9669 1385.24 -61.835 1394.09 -69.4544C1402.44 -76.6088 1409.17 -86.6487 1421.68 -91.6329C1435 -96.9391 1452.87 -91.0367 1465.56 -87.5192C1479.26 -83.7154 1496.84 -85.9452 1511.48 -86.6487C1526.97 -87.6019 1542.5 -87.7014 1558.01 -86.9468C1573.52 -85.9929 1588.86 -85.1821 1603.87 -82.4873C1616.58 -80.2098 1630.57 -71.7557 1639.07 -65.7938C1660.4 -50.7219 1647.76 -29.2827 1635.93 -13.3285C1628.85 -3.75572 1619.45 3.86969 1608.63 8.83813C1595.24 14.9551 1589.44 22.7534 1590.93 32.9841C1592.57 44.2522 1602.86 48.3421 1618.74 52.8613C1632.65 56.8081 1646.4 62.5554 1649.61 72.2377C1652.37 80.5844 1645.64 91.5783 1632.9 96.0855C1616.64 101.892 1603.62 96.801 1591.05 90.7078C1578.49 84.6147 1564.81 81.1687 1551.68 76.0653C1538.7 71.0453 1528.5 63.557 1519.47 56.188C1510.44 48.8191 1502.1 40.7823 1490.1 34.725C1474.59 26.9267 1463.78 36.2274 1450.04 40.8777C1435.59 45.7665 1429.6 53.994 1420.8 61.8758C1411.39 70.3544 1400.52 77.0749 1388.73 81.7172C1375.61 87.0591 1363.68 92.1983 1352.7 99.1619C1342.07 105.935 1332.77 113.471 1318.11 117.429C1304.14 121.173 1287.84 121.424 1274.6 116.583" stroke="#D0D1DB" stroke-width="0.75" stroke-miterlimit="10"/>
<path d="M1274.31 106.234C1265.69 98.6621 1244.69 85.5219 1256.94 76.1735C1261.61 72.5964 1275.6 71.2132 1282.98 70.2116C1292.6 68.9357 1302.9 68.6734 1310.49 64.4404C1324.12 56.8568 1325.01 42.1307 1327.71 31.8403C1330.66 20.5961 1332.84 9.26836 1340 -1.34394C1354.75 -23.2124 1379.37 -39.9775 1402.14 -58.9007C1412.19 -67.2475 1423.78 -81.5562 1443.9 -80.7096C1453.73 -80.2923 1462.76 -77.1324 1472.53 -76.3574C1481.95 -75.5465 1491.62 -75.8208 1501.16 -75.7969C1520.69 -75.7969 1539.87 -75.6419 1559.02 -73.0306C1576.52 -70.6458 1598.32 -67.0686 1609.82 -58.1495C1623.24 -47.7399 1622.94 -37.2588 1616.98 -25.2872C1613.83 -19.0885 1609.23 -13.7479 1603.55 -9.72646C1597.72 -5.35038 1589.8 -2.20247 1584.54 2.48363C1573.22 12.5594 1571.08 23.8633 1572.14 35.7037C1572.72 42.2023 1583.89 68.0056 1563.16 65.0843C1554.01 63.7965 1547.88 58.5023 1541.52 54.8058C1534.65 50.6818 1528.03 46.163 1521.69 41.2722C1510.2 32.7585 1494.86 22.5516 1474.22 25.3538C1465.02 26.6058 1457.2 30.7434 1449.65 33.9032C1441.83 37.1703 1433.02 40.0321 1425.69 43.657C1410.78 51.0259 1401.44 61.841 1385.86 68.888C1370.03 76.0423 1351.55 79.393 1340.33 89.8861C1330.38 99.1867 1320.37 111.421 1299.44 112.542C1289.77 113.066 1281.36 109.859 1274.38 106.186" stroke="#D0D1DB" stroke-width="0.75" stroke-miterlimit="10"/>
<path d="M1086.19 33.0094C1057.01 25.223 1038.98 11.1527 1017.86 -2.36922C1007.46 -9.02283 994.242 -13.6375 983.636 -20.1599C974.124 -26.0842 965.861 -33.8085 959.311 -42.8991C946.963 -59.4735 933.721 -76.4056 937.455 -95.0191C941.245 -114.05 949.495 -131.912 961.53 -147.139C975.035 -163.916 1008.57 -170.987 1038.23 -170.224C1053.38 -169.842 1068.27 -167.744 1083.1 -166.015C1098.12 -164.262 1114.03 -163.749 1128.8 -161.496C1146.53 -158.801 1149.27 -149.882 1150.61 -140.283C1151.72 -131.284 1152.37 -122.233 1152.55 -113.167C1153.19 -94.8879 1153.47 -76.7156 1155.07 -58.448C1156.67 -40.1804 1158.02 -22.4493 1154.68 -4.30094C1153.05 4.499 1151.1 13.9429 1145.13 22.1466C1138.34 31.5189 1124.54 34.4641 1108.36 35.0484C1100.73 35.3346 1093.18 35.0484 1086.15 33.0452" stroke="#D0D1DB" stroke-width="0.75" stroke-miterlimit="10"/>
<path d="M1283.04 95.7642C1283.25 90.3508 1283.77 84.8419 1294.37 83.4588C1304.55 82.1352 1313.57 85.5574 1313.58 91.9844C1313.58 95.955 1307.45 101.893 1301.44 103.908C1293.73 106.436 1286.53 99.3891 1283.04 95.812" stroke="#D0D1DB" stroke-width="0.75" stroke-miterlimit="10"/>
<path d="M1348.51 53.9242C1348.19 38.9 1353.52 23.7447 1358.71 9.0544C1361.31 1.3652 1365.08 -5.8753 1369.89 -12.4087C1375.38 -19.7061 1384.07 -25.0004 1392.29 -31.2008C1399.99 -37.0078 1407.52 -42.922 1414.69 -48.9675C1421.86 -55.0129 1429.01 -62.7873 1439.74 -66.6626C1446.11 -68.9639 1450.83 -67.6761 1457.47 -66.603C1463.7 -65.5894 1469.5 -65.804 1475.9 -65.8398C1488.73 -65.8398 1501.41 -65.5656 1514.17 -64.7786C1536.92 -63.3716 1568.18 -62.1196 1585.3 -51.6623C1606.77 -38.546 1595.62 -23.2833 1578.72 -11.0017C1570.47 -5.03969 1563.3 0.922269 1557.48 7.85007C1554.4 11.5107 1551.52 14.2413 1550.99 18.4385C1550.48 22.1826 1551.77 26.0222 1550.69 29.7305C1546.97 42.5964 1531.78 28.8362 1525.09 24.9609C1515.65 19.5594 1503.76 17.8066 1490.98 17.4846C1463.94 16.7215 1447.2 30.3148 1423.98 36.6464C1412.33 39.8301 1401.32 43.1211 1392.49 48.8326C1384.92 53.7334 1375.07 63.0698 1361.91 61.3409C1356.67 60.7245 1351.88 58.0787 1348.57 53.9719" stroke="#D0D1DB" stroke-width="0.75" stroke-miterlimit="10"/>
<path d="M1087.4 22.5401C1062.28 17.699 1044.16 3.46183 1028.59 -8.4621C1012.14 -20.9942 989.136 -28.4347 976.216 -42.8745C964.06 -56.4559 955.196 -71.8378 955.744 -87.3866C956.293 -102.935 964.239 -119.188 974.832 -133.198C985.927 -147.936 1006.15 -158.644 1034.09 -159.431C1058.09 -160.111 1089.35 -158.107 1111.04 -151.549C1136.7 -143.787 1136.5 -124.387 1136.6 -109.41C1136.73 -93.5393 1136.69 -77.8713 1139.28 -62.0482C1141.78 -46.7141 1145.97 -31.2607 1143.02 -15.855C1140.3 -1.6297 1133.38 18.3548 1106.73 23.2079C1100.34 24.3844 1093.76 24.1607 1087.46 22.5521" stroke="#D0D1DB" stroke-width="0.75" stroke-miterlimit="10"/>
<path d="M1388.87 22.5395C1376.53 0.384837 1404.8 -15.3905 1425.44 -31.3447C1434.34 -38.2368 1441.22 -51.3769 1455.74 -54.1433C1471.37 -57.1243 1491.46 -55.8246 1507.3 -54.1433C1532.2 -51.4723 1598.29 -47.1559 1570.73 -23.8923C1561.57 -16.1537 1548.28 -7.30608 1535.03 -2.0357C1520.13 3.92627 1506.8 6.91915 1489.21 8.37387C1479.82 9.16085 1469.6 10.079 1461.24 12.9527C1452.27 16.0171 1450.04 22.0387 1441.83 25.6636C1429.42 31.1605 1398.39 30.8505 1388.93 22.5276" stroke="#D0D1DB" stroke-width="0.75" stroke-miterlimit="10"/>
<path d="M1061.13 1.62463C1044.43 -7.66411 1033.47 -19.5999 1015.7 -28.2806C997.94 -36.9612 986.058 -48.5513 978.721 -61.5364C971.563 -74.2593 972.553 -88.4249 978.065 -101.279C983.386 -113.727 991.522 -128.06 1005.5 -138.028C1021.84 -149.714 1044.18 -148.521 1067.78 -147.711C1078.34 -147.353 1091.07 -147.341 1100.16 -143.74C1110.43 -139.662 1114.95 -133.545 1117.48 -126.677C1122.25 -113.561 1118.24 -99.5976 1118.67 -86.2786C1119.1 -72.9595 1123.37 -59.6763 1127.19 -46.393C1131.01 -33.1098 1133.79 -19.278 1125.7 -6.38825C1116.86 7.69391 1098.03 16.5057 1074.2 7.67007C1069.72 5.98735 1065.37 3.97464 1061.19 1.6485" stroke="#D0D1DB" stroke-width="0.75" stroke-miterlimit="10"/>
<path d="M1429.94 17.7826C1429.45 17.8181 1428.97 17.8181 1428.48 17.7826C1421.05 17.0314 1420.21 7.05074 1422.11 3.9862C1426.14 -2.57215 1433.46 -7.73536 1440.41 -13.1132C1452.54 -22.4857 1453.7 -42.9239 1477.59 -43.699C1488.78 -44.0557 1499.97 -42.7783 1510.8 -39.9071C1515 -38.6099 1519.06 -36.8711 1522.9 -34.72C1527.88 -32.037 1531.71 -31.0115 1530.78 -27.1481C1527.2 -12.4574 1506.21 -4.90931 1483.75 -1.60628C1472.35 0.0631155 1458.53 1.44632 1448.69 5.4648C1442.63 7.90928 1437.56 17.3891 1429.94 17.7826Z" stroke="#D0D1DB" stroke-width="0.75" stroke-miterlimit="10"/>
<path d="M1063.7 -8.83258C1051.84 -17.6205 1041.53 -27.1239 1027.48 -34.7671C1013.43 -42.4104 1002.58 -49.2666 995.769 -60.1651C982.407 -81.5209 999.921 -105.071 1020.74 -122.444C1032.48 -132.233 1050.92 -134.105 1070.09 -134.511C1094.76 -135.024 1099.99 -126.295 1098.72 -113.048C1097.65 -101.994 1095.48 -90.9289 1097.46 -79.8754C1099.62 -68.6768 1103.58 -57.9014 1109.19 -47.9669C1115.47 -36.4365 1122 -23.0817 1113.32 -11.4082C1110.64 -7.88599 1107.2 -5.01341 1103.26 -3.00456C1099.31 -0.995712 1094.97 0.097606 1090.54 0.193845C1080.42 0.265388 1070.39 -4.86192 1063.72 -8.84452" stroke="#D0D1DB" stroke-width="0.75" stroke-miterlimit="10"/>
<path d="M1690.36 98.3035C1675.11 107.7 1648.6 117.692 1625.94 113.9C1603.27 110.108 1584.3 98.5181 1563.73 91.805C1541.84 84.6506 1524.01 77.9493 1508.64 65.9062C1501.48 60.3019 1495.95 53.9823 1488.14 48.7119C1476.63 40.8659 1469.51 44.7293 1457.4 49.63C1452.27 51.7048 1447.44 52.5633 1444.76 56.0093C1442.26 59.2169 1441.78 63.1637 1439.72 66.5024C1435.38 73.5256 1429.16 79.5114 1419.64 84.4717C1401.65 93.8201 1378.54 98.1485 1361.19 108.32C1343.83 118.491 1327.41 129.544 1301.39 130.021C1289.69 130.129 1278.06 128.329 1266.94 124.691C1256.08 121.245 1247.98 115.951 1235.29 114.949C1222.59 113.948 1209.22 116.511 1196.93 118.36C1190.59 119.325 1181.97 121.341 1175.65 119.385C1169.69 117.537 1168.42 112.958 1166.18 109.524C1156.32 94.309 1146.52 77.6155 1125.42 66.6693C1114.8 61.1366 1101.56 58.9187 1089.69 54.6857C1076.51 49.9758 1063.28 45.3255 1050.19 40.532C1041.72 37.4318 1034.84 35.4048 1027.38 31.3745C1019.29 26.9186 1010.92 22.9682 1002.33 19.5459C986.679 13.417 968.474 9.85176 953.717 2.85242C937.981 -4.60004 931.73 -20.6497 924.607 -31.4647C909.587 -54.2394 886.085 -80.949 894.782 -106.073C899.125 -118.593 906.629 -130.505 911.83 -142.882C916.853 -154.806 914.872 -170.605 934.676 -178.046C952.118 -184.616 975.704 -188.527 995.221 -192.354C1017.98 -196.838 1036.39 -195.526 1058.45 -190.351C1078.03 -185.76 1100.59 -178.141 1119.69 -187.418C1126.51 -190.594 1132.51 -195.278 1137.26 -201.116C1142 -206.953 1145.35 -213.792 1147.07 -221.115C1149.88 -233.85 1150.9 -247.192 1157.87 -259.438C1160.71 -264.434 1167.1 -274.117 1178.25 -271.088C1182.18 -269.981 1185.83 -268.05 1188.96 -265.425C1192.08 -262.799 1194.62 -259.539 1196.38 -255.861C1202.46 -243.744 1205.69 -230.4 1205.82 -216.846C1205.74 -204.052 1208.4 -191.055 1206.32 -178.308C1204.19 -165.335 1198.1 -153.196 1190.88 -140.962C1183.29 -128.084 1186.76 -115.731 1186.3 -102.46C1185.85 -89.7369 1187.07 -77.0021 1186.43 -64.3031C1185.79 -51.1868 1185.24 -37.9871 1186.34 -24.7992C1186.89 -18.4557 1183.81 -12.0525 1185.89 -5.81627C1187.96 0.419947 1190.66 7.21658 1194.89 12.8804C1202.85 23.612 1224.23 33.9381 1243.25 37.1218C1249.79 38.2119 1256.49 37.8578 1262.88 36.0844C1272.43 33.4254 1275.04 26.9626 1278.5 21.6923C1283.54 14.0532 1289.13 6.78125 1295.2 -0.0689251C1321.08 -29.4018 1361.6 -52.7608 1388.25 -81.7479C1394.68 -88.7591 1399.99 -97.8452 1411.01 -102.817C1422.59 -108.064 1438.53 -107.48 1451.38 -104.356C1458.05 -102.734 1463.1 -100.361 1469.15 -98.191C1475.9 -95.8062 1481.99 -96.1401 1489.53 -96.7362C1503.34 -97.8452 1516.97 -99.4311 1530.71 -100.874C1544.45 -102.317 1558.39 -102.579 1572.22 -103.593C1585.82 -104.57 1600.21 -105.977 1613.66 -103.998C1621.32 -102.865 1629.62 -102.15 1636.12 -99.3476C1642.3 -96.6766 1646.6 -92.6344 1652.83 -90.0827C1659.39 -87.4117 1667.29 -85.8735 1674.04 -83.3695C1681.33 -80.6628 1683.96 -76.0363 1693.51 -75.8336" stroke="#D0D1DB" stroke-width="0.75" stroke-miterlimit="10"/>
<path d="M996.629 582.893C979.51 565.353 973.58 544.117 972.28 524.085C970.968 503.742 974.869 483.329 978.806 463.141C982.743 442.954 994.315 422.075 980.225 402.627C974.26 394.352 960.78 383.68 943.72 384.169C927.602 384.634 912.225 394.901 902.561 401.674C891.431 409.496 881.29 417.759 868.895 424.925C856.726 431.96 842.219 437.076 828.333 442.692C813.957 448.499 798.675 453.423 784.812 459.66C778.68 462.438 770.866 466.456 762.885 466.719C752.458 467.052 749.153 461.532 745.908 456.738C739.466 447.259 729.302 438.518 715.069 432.711C697.807 425.676 683.92 429.134 670.058 436.944C643.895 451.706 606.518 458.408 582.551 438.208C572.625 429.862 568.855 419.321 560.266 410.485C551.676 401.65 538.983 394.209 524.142 389.022C496.285 379.28 463.001 372.448 434.464 363.445C412.286 356.446 394.558 344.045 391.516 328.604C390.24 322.093 389.488 315.559 384.179 309.633C378.465 303.277 371.987 294.465 373.072 287.085C374.456 277.677 387.054 269.735 387.138 259.791C387.269 244.898 358.017 241.201 338.106 240.712C326.295 240.426 315.307 240.999 308.376 247.426C301.636 253.674 309.843 258.646 316.19 263.821C322.537 268.996 328.908 274.421 336.054 279.191C348.795 287.693 356.406 299.891 349.177 311.147C345.287 317.109 342.83 323.56 338.106 329.343C328.025 341.732 312.551 349.208 292.628 355.802C273.779 362.038 255.872 370.826 251.673 384.181C247.593 397.154 255.657 410.08 266.478 421.145C272.109 426.988 276.583 432.318 279.482 438.912C281.51 443.538 279.816 447.366 278.289 451.885C272.526 468.114 312.373 466.909 329.766 467.935C351.491 469.211 373.287 469.962 395.012 471.25C436.934 473.742 483.294 479.596 514.312 498.21C529.284 507.176 533.03 521.449 543.325 532.288C554.003 543.544 569.106 553.93 585.188 562.575C601.078 571.113 620.095 577.134 635.568 585.946" stroke="#D0D1DB" stroke-width="0.75" stroke-miterlimit="10"/>
</svg>
