<svg width="700" height="50" viewBox="0 0 700 50" fill="none" xmlns="http://www.w3.org/2000/svg">
<path d="M23.416 49H32.56V26.536C32.56 16.528 25.288 13.36 17.368 13.36C11.896 13.36 6.424 15.088 2.176 18.832L5.632 24.952C8.584 22.216 12.04 20.848 15.784 20.848C20.392 20.848 23.416 23.152 23.416 26.68V31.504C21.112 28.696 17.008 27.256 12.4 27.256C6.856 27.256 0.304 30.208 0.304 38.344C0.304 46.12 6.856 49.864 12.4 49.864C16.936 49.864 21.04 48.208 23.416 45.4V49ZM23.416 40.648C21.904 42.664 19.024 43.672 16.072 43.672C12.472 43.672 9.52 41.8 9.52 38.56C9.52 35.248 12.472 33.304 16.072 33.304C19.024 33.304 21.904 34.312 23.416 36.328V40.648ZM50.5577 49H60.8538V0.975996H51.9257L36.8057 16.168L42.6377 22.288L50.5577 14.152V49ZM66.9833 25.096C66.9833 38.632 73.1033 49.864 87.7193 49.864C98.6633 49.864 106.079 42.736 106.079 33.376C106.079 23.152 98.3753 17.896 89.7353 17.896C84.4793 17.896 79.6553 20.776 77.4233 24.016C77.3513 23.728 77.3513 23.368 77.3513 23.008C77.3513 15.376 82.1033 9.112 89.3753 9.112C93.6233 9.112 96.3593 10.48 98.9513 12.928L103.559 5.224C100.103 2.272 95.2073 0.255997 89.3753 0.255997C75.1913 0.255997 66.9833 10.552 66.9833 25.096ZM95.7113 33.808C95.7113 37.192 92.7593 40.936 87.2153 40.936C80.4473 40.936 77.8553 35.608 77.4233 31C79.7273 28.192 83.1833 26.392 86.7833 26.392C91.4633 26.392 95.7113 28.624 95.7113 33.808ZM110.284 49H138.652V41.008H122.452L138.364 20.848V14.224H110.284V22.216H125.98L110.284 42.16V49ZM162.727 49H172.951V31.792H185.191C195.559 31.792 201.319 24.808 201.319 16.456C201.319 8.032 195.631 0.975996 185.191 0.975996H162.727V49ZM190.879 16.384C190.879 20.416 187.855 23.008 183.823 23.008H172.951V9.76H183.823C187.855 9.76 190.879 12.424 190.879 16.384ZM221.293 49.864C232.813 49.864 239.725 41.512 239.725 31.576C239.725 21.712 232.813 13.36 221.293 13.36C209.845 13.36 202.933 21.712 202.933 31.576C202.933 41.512 209.845 49.864 221.293 49.864ZM221.293 41.728C215.605 41.728 212.437 37.048 212.437 31.576C212.437 26.176 215.605 21.496 221.293 21.496C226.981 21.496 230.221 26.176 230.221 31.576C230.221 37.048 226.981 41.728 221.293 41.728ZM269.333 49H278.549V0.975996H269.333V18.688C266.597 15.16 262.709 13.36 258.605 13.36C249.749 13.36 243.197 20.272 243.197 31.648C243.197 43.24 249.821 49.864 258.605 49.864C262.781 49.864 266.597 47.992 269.333 44.608V49ZM269.333 37.768C267.749 40.072 264.509 41.728 261.413 41.728C256.229 41.728 252.629 37.624 252.629 31.648C252.629 25.6 256.229 21.496 261.413 21.496C264.509 21.496 267.749 23.152 269.333 25.456V37.768ZM284.305 31.576C284.305 42.304 292.009 49.864 302.737 49.864C309.865 49.864 314.185 46.768 316.489 43.528L310.513 37.984C308.857 40.288 306.337 41.728 303.169 41.728C297.625 41.728 293.737 37.624 293.737 31.576C293.737 25.528 297.625 21.496 303.169 21.496C306.337 21.496 308.857 22.864 310.513 25.24L316.489 19.696C314.185 16.456 309.865 13.36 302.737 13.36C292.009 13.36 284.305 20.92 284.305 31.576ZM342.266 49H351.41V26.536C351.41 16.528 344.138 13.36 336.218 13.36C330.746 13.36 325.274 15.088 321.026 18.832L324.482 24.952C327.434 22.216 330.89 20.848 334.634 20.848C339.242 20.848 342.266 23.152 342.266 26.68V31.504C339.962 28.696 335.858 27.256 331.25 27.256C325.706 27.256 319.154 30.208 319.154 38.344C319.154 46.12 325.706 49.864 331.25 49.864C335.786 49.864 339.89 48.208 342.266 45.4V49ZM342.266 40.648C340.754 42.664 337.874 43.672 334.922 43.672C331.322 43.672 328.37 41.8 328.37 38.56C328.37 35.248 331.322 33.304 334.922 33.304C337.874 33.304 340.754 34.312 342.266 36.328V40.648ZM356.376 44.464C360.048 47.848 365.88 49.864 371.928 49.864C381.576 49.864 386.976 45.112 386.976 38.704C386.976 30.064 378.984 28.48 373.008 27.328C369.12 26.536 366.384 25.744 366.384 23.584C366.384 21.568 368.544 20.344 371.856 20.344C376.104 20.344 380.064 22.144 382.152 24.376L385.752 18.112C382.368 15.376 377.688 13.36 371.784 13.36C362.64 13.36 357.528 18.472 357.528 24.304C357.528 32.584 365.232 34.024 371.208 35.176C375.168 35.968 378.192 36.832 378.192 39.28C378.192 41.44 376.32 42.808 372.36 42.808C368.04 42.808 362.856 40.432 360.336 38.056L356.376 44.464ZM404.297 49.864C408.113 49.864 410.561 48.856 411.929 47.632L409.985 40.72C409.481 41.224 408.185 41.728 406.817 41.728C404.801 41.728 403.649 40.072 403.649 37.912V22.216H410.705V14.224H403.649V4.72H394.433V14.224H388.673V22.216H394.433V40.36C394.433 46.552 397.889 49.864 404.297 49.864ZM466.559 49H476.423V0.975996H466.199V32.08L443.951 0.975996H433.439V49H443.663V16.744L466.559 49ZM482.364 31.576C482.364 42.736 490.356 49.864 500.94 49.864C506.34 49.864 511.74 48.28 515.268 45.04L511.236 39.136C509.004 41.296 505.188 42.592 501.948 42.592C496.044 42.592 492.516 38.92 491.94 34.528H517.788V32.512C517.788 21.136 510.732 13.36 500.364 13.36C489.78 13.36 482.364 21.496 482.364 31.576ZM500.364 20.632C506.412 20.632 508.716 25.024 508.932 28.336H491.796C492.228 24.88 494.676 20.632 500.364 20.632ZM534.977 49.864C538.793 49.864 541.241 48.856 542.609 47.632L540.665 40.72C540.161 41.224 538.865 41.728 537.497 41.728C535.481 41.728 534.329 40.072 534.329 37.912V22.216H541.385V14.224H534.329V4.72H525.113V14.224H519.353V22.216H525.113V40.36C525.113 46.552 528.569 49.864 534.977 49.864ZM577.089 49H586.809L597.393 14.224H587.889L581.409 37.624L573.777 14.224H565.641L558.009 37.624L551.529 14.224H542.025L552.609 49H562.401L569.745 25.312L577.089 49ZM616.945 49.864C628.465 49.864 635.377 41.512 635.377 31.576C635.377 21.712 628.465 13.36 616.945 13.36C605.497 13.36 598.585 21.712 598.585 31.576C598.585 41.512 605.497 49.864 616.945 49.864ZM616.945 41.728C611.257 41.728 608.089 37.048 608.089 31.576C608.089 26.176 611.257 21.496 616.945 21.496C622.633 21.496 625.873 26.176 625.873 31.576C625.873 37.048 622.633 41.728 616.945 41.728ZM641.08 49H650.224V26.032C651.736 23.8 655.768 22.144 658.792 22.144C659.8 22.144 660.664 22.216 661.312 22.36V13.432C656.992 13.432 652.672 15.88 650.224 18.976V14.224H641.08V49ZM688.482 49H699.93L685.746 29.992L699.498 14.224H688.266L675.09 29.704V0.975996H665.946V49H675.09V40.072L679.266 35.608L688.482 49Z" fill="#4B5058"/>
<path d="M23.416 49H22.416V50H23.416V49ZM32.56 49V50H33.56V49H32.56ZM2.176 18.832L1.5148 18.0818L0.906618 18.6178L1.30525 19.3237L2.176 18.832ZM5.632 24.952L4.76125 25.4437L5.38355 26.5457L6.31176 25.6854L5.632 24.952ZM23.416 31.504L22.6429 32.1383L24.416 34.2992V31.504H23.416ZM23.416 45.4H24.416V42.6701L22.6526 44.7541L23.416 45.4ZM23.416 40.648L24.216 41.248L24.416 40.9813V40.648H23.416ZM23.416 36.328H24.416V35.9947L24.216 35.728L23.416 36.328ZM23.416 50H32.56V48H23.416V50ZM33.56 49V26.536H31.56V49H33.56ZM33.56 26.536C33.56 21.2574 31.6235 17.6427 28.5223 15.3864C25.4752 13.1694 21.4356 12.36 17.368 12.36V14.36C21.2204 14.36 24.7769 15.1346 27.3457 17.0036C29.8605 18.8333 31.56 21.8066 31.56 26.536H33.56ZM17.368 12.36C11.6908 12.36 5.97222 14.1532 1.5148 18.0818L2.8372 19.5822C6.87578 16.0228 12.1012 14.36 17.368 14.36V12.36ZM1.30525 19.3237L4.76125 25.4437L6.50275 24.4603L3.04675 18.3403L1.30525 19.3237ZM6.31176 25.6854C9.08802 23.1123 12.3043 21.848 15.784 21.848V19.848C11.7757 19.848 8.07998 21.3197 4.95224 24.2186L6.31176 25.6854ZM15.784 21.848C17.9327 21.848 19.6083 22.3861 20.7211 23.2358C21.8097 24.067 22.416 25.2332 22.416 26.68H24.416C24.416 24.5988 23.5103 22.849 21.9349 21.6462C20.3837 20.4619 18.2433 19.848 15.784 19.848V21.848ZM22.416 26.68V31.504H24.416V26.68H22.416ZM24.1891 30.8697C21.6251 27.7449 17.1761 26.256 12.4 26.256V28.256C16.8399 28.256 20.5989 29.6471 22.6429 32.1383L24.1891 30.8697ZM12.4 26.256C9.4716 26.256 6.21875 27.0323 3.67152 28.9501C1.08428 30.898 -0.696 33.9686 -0.696 38.344H1.304C1.304 34.5834 2.79972 32.11 4.87448 30.5479C6.98925 28.9557 9.7844 28.256 12.4 28.256V26.256ZM-0.696 38.344C-0.696 42.5455 1.0873 45.7047 3.6396 47.7938C6.16657 49.8622 9.42046 50.864 12.4 50.864V48.864C9.83554 48.864 7.04143 47.9938 4.9064 46.2462C2.7967 44.5193 1.304 41.9185 1.304 38.344H-0.696ZM12.4 50.864C17.1533 50.864 21.5688 49.1312 24.1794 46.0459L22.6526 44.7541C20.5112 47.2848 16.7187 48.864 12.4 48.864V50.864ZM22.416 45.4V49H24.416V45.4H22.416ZM22.616 40.048C21.3645 41.7166 18.8518 42.672 16.072 42.672V44.672C19.1962 44.672 22.4435 43.6114 24.216 41.248L22.616 40.048ZM16.072 42.672C14.4322 42.672 13.0163 42.244 12.0382 41.5252C11.0858 40.8253 10.52 39.8369 10.52 38.56H8.52C8.52 40.5231 9.43022 42.0907 10.8538 43.1368C12.2517 44.164 14.1118 44.672 16.072 44.672V42.672ZM10.52 38.56C10.52 37.2368 11.0952 36.2103 12.0499 35.4871C13.0281 34.746 14.4402 34.304 16.072 34.304V32.304C14.1038 32.304 12.2399 32.834 10.8421 33.8929C9.4208 34.9697 8.52 36.5712 8.52 38.56H10.52ZM16.072 34.304C18.8518 34.304 21.3645 35.2594 22.616 36.928L24.216 35.728C22.4435 33.3646 19.1962 32.304 16.072 32.304V34.304ZM22.416 36.328V40.648H24.416V36.328H22.416ZM50.5577 49H49.5577V50H50.5577V49ZM60.8538 49V50H61.8538V49H60.8538ZM60.8538 0.975996H61.8538V-0.024004H60.8538V0.975996ZM51.9258 0.975996V-0.024004H51.5101L51.217 0.270571L51.9258 0.975996ZM36.8057 16.168L36.097 15.4626L35.41 16.1528L36.0818 16.8579L36.8057 16.168ZM42.6377 22.288L41.9138 22.9779L42.6301 23.7295L43.3543 22.9855L42.6377 22.288ZM50.5577 14.152H51.5577V11.6911L49.8412 13.4545L50.5577 14.152ZM50.5577 50H60.8538V48H50.5577V50ZM61.8538 49V0.975996H59.8538V49H61.8538ZM60.8538 -0.024004H51.9258V1.976H60.8538V-0.024004ZM51.217 0.270571L36.097 15.4626L37.5145 16.8734L52.6345 1.68142L51.217 0.270571ZM36.0818 16.8579L41.9138 22.9779L43.3617 21.5981L37.5297 15.4781L36.0818 16.8579ZM43.3543 22.9855L51.2743 14.8495L49.8412 13.4545L41.9212 21.5905L43.3543 22.9855ZM49.5577 14.152V49H51.5577V14.152H49.5577ZM77.4233 24.016L76.4532 24.2585L76.9903 26.4072L78.2468 24.5833L77.4233 24.016ZM98.9513 12.928L98.2647 13.655L99.1702 14.5102L99.8095 13.4413L98.9513 12.928ZM103.559 5.224L104.418 5.73731L104.851 5.01231L104.209 4.46362L103.559 5.224ZM77.4233 31L76.6502 30.3657L76.3893 30.6837L76.4277 31.0933L77.4233 31ZM65.9833 25.096C65.9833 31.995 67.5402 38.4239 71.0688 43.1539C74.6291 47.9265 80.1209 50.864 87.7193 50.864V48.864C80.7018 48.864 75.8255 46.1855 72.6718 41.9581C69.4864 37.6881 67.9833 31.733 67.9833 25.096H65.9833ZM87.7193 50.864C99.1314 50.864 107.079 43.3689 107.079 33.376H105.079C105.079 42.1031 98.1952 48.864 87.7193 48.864V50.864ZM107.079 33.376C107.079 27.9905 105.039 23.8377 101.8 21.0447C98.5809 18.2686 94.2493 16.896 89.7353 16.896V18.896C93.8614 18.896 97.7017 20.1514 100.494 22.5593C103.267 24.9503 105.079 28.5375 105.079 33.376H107.079ZM89.7353 16.896C84.1506 16.896 79.0186 19.9376 76.5998 23.4487L78.2468 24.5833C80.292 21.6144 84.808 18.896 89.7353 18.896V16.896ZM78.3935 23.7735C78.3576 23.63 78.3513 23.4067 78.3513 23.008H76.3513C76.3513 23.3293 76.345 23.826 76.4532 24.2585L78.3935 23.7735ZM78.3513 23.008C78.3513 15.7484 82.8198 10.112 89.3753 10.112V8.112C81.3869 8.112 76.3513 15.0036 76.3513 23.008H78.3513ZM89.3753 10.112C93.3399 10.112 95.8368 11.362 98.2647 13.655L99.6379 12.201C96.8818 9.59797 93.9068 8.112 89.3753 8.112V10.112ZM99.8095 13.4413L104.418 5.73731L102.701 4.71068L98.0931 12.4147L99.8095 13.4413ZM104.209 4.46362C100.569 1.35461 95.4418 -0.744003 89.3753 -0.744003V1.256C94.9728 1.256 99.6376 3.18938 102.91 5.98437L104.209 4.46362ZM89.3753 -0.744003C82.0238 -0.744003 76.1398 1.93373 72.1062 6.56524C68.0871 11.1801 65.9833 17.6429 65.9833 25.096H67.9833C67.9833 18.0051 69.9835 12.0479 73.6144 7.87875C77.2308 3.72627 82.5428 1.256 89.3753 1.256V-0.744003ZM94.7113 33.808C94.7113 36.5917 92.2563 39.936 87.2153 39.936V41.936C93.2623 41.936 96.7113 37.7923 96.7113 33.808H94.7113ZM87.2153 39.936C84.1318 39.936 82.0774 38.7392 80.7199 37.066C79.3327 35.3561 78.6228 33.0807 78.4189 30.9067L76.4277 31.0933C76.6559 33.5273 77.458 36.2199 79.1667 38.326C80.9052 40.4688 83.5308 41.936 87.2153 41.936V39.936ZM78.1964 31.6343C80.3313 29.0324 83.5142 27.392 86.7833 27.392V25.392C82.8524 25.392 79.1233 27.3516 76.6502 30.3657L78.1964 31.6343ZM86.7833 27.392C88.9829 27.392 90.9861 27.9191 92.4115 28.9628C93.7967 29.9771 94.7113 31.5291 94.7113 33.808H96.7113C96.7113 30.9029 95.5019 28.7469 93.5931 27.3492C91.7245 25.9809 89.2637 25.392 86.7833 25.392V27.392ZM110.284 49H109.284V50H110.284V49ZM138.652 49V50H139.652V49H138.652ZM138.652 41.008H139.652V40.008H138.652V41.008ZM122.452 41.008L121.667 40.3884L120.389 42.008H122.452V41.008ZM138.364 20.848L139.149 21.4676L139.364 21.1951V20.848H138.364ZM138.364 14.224H139.364V13.224H138.364V14.224ZM110.284 14.224V13.224H109.284V14.224H110.284ZM110.284 22.216H109.284V23.216H110.284V22.216ZM125.98 22.216L126.766 22.8344L128.04 21.216H125.98V22.216ZM110.284 42.16L109.498 41.5416L109.284 41.8137V42.16H110.284ZM110.284 50H138.652V48H110.284V50ZM139.652 49V41.008H137.652V49H139.652ZM138.652 40.008H122.452V42.008H138.652V40.008ZM123.237 41.6276L139.149 21.4676L137.579 20.2284L121.667 40.3884L123.237 41.6276ZM139.364 20.848V14.224H137.364V20.848H139.364ZM138.364 13.224H110.284V15.224H138.364V13.224ZM109.284 14.224V22.216H111.284V14.224H109.284ZM110.284 23.216H125.98V21.216H110.284V23.216ZM125.194 21.5976L109.498 41.5416L111.07 42.7784L126.766 22.8344L125.194 21.5976ZM109.284 42.16V49H111.284V42.16H109.284ZM162.727 49H161.727V50H162.727V49ZM172.951 49V50H173.951V49H172.951ZM172.951 31.792V30.792H171.951V31.792H172.951ZM162.727 0.975996V-0.024004H161.727V0.975996H162.727ZM172.951 23.008H171.951V24.008H172.951V23.008ZM172.951 9.76V8.76H171.951V9.76H172.951ZM162.727 50H172.951V48H162.727V50ZM173.951 49V31.792H171.951V49H173.951ZM172.951 32.792H185.191V30.792H172.951V32.792ZM185.191 32.792C190.609 32.792 194.91 30.9611 197.857 27.9562C200.797 24.9578 202.319 20.8622 202.319 16.456H200.319C200.319 20.4018 198.961 23.9742 196.429 26.5558C193.904 29.1309 190.141 30.792 185.191 30.792V32.792ZM202.319 16.456C202.319 12.0198 200.819 7.88893 197.889 4.86146C194.95 1.82608 190.647 -0.024004 185.191 -0.024004V1.976C190.175 1.976 193.936 3.65391 196.452 6.25253C198.975 8.85907 200.319 12.4682 200.319 16.456H202.319ZM185.191 -0.024004H162.727V1.976H185.191V-0.024004ZM161.727 0.975996V49H163.727V0.975996H161.727ZM189.879 16.384C189.879 18.1352 189.23 19.518 188.188 20.47C187.138 21.4301 185.626 22.008 183.823 22.008V24.008C186.052 24.008 188.068 23.2899 189.538 21.946C191.017 20.594 191.879 18.6648 191.879 16.384H189.879ZM183.823 22.008H172.951V24.008H183.823V22.008ZM173.951 23.008V9.76H171.951V23.008H173.951ZM172.951 10.76H183.823V8.76H172.951V10.76ZM183.823 10.76C187.381 10.76 189.879 13.0518 189.879 16.384H191.879C191.879 11.7962 188.329 8.76 183.823 8.76V10.76ZM221.293 50.864C227.308 50.864 232.184 48.677 235.554 45.1353C238.915 41.6018 240.725 36.7752 240.725 31.576H238.725C238.725 36.3128 237.079 40.6302 234.105 43.7567C231.138 46.875 226.799 48.864 221.293 48.864V50.864ZM240.725 31.576C240.725 26.411 238.914 21.6025 235.553 18.0788C232.184 14.5468 227.308 12.36 221.293 12.36V14.36C226.799 14.36 231.139 16.3491 234.106 19.4592C237.08 22.5775 238.725 26.877 238.725 31.576H240.725ZM221.293 12.36C209.247 12.36 201.933 21.2074 201.933 31.576H203.933C203.933 22.2166 210.444 14.36 221.293 14.36V12.36ZM201.933 31.576C201.933 36.7751 203.743 41.6011 207.095 45.1342C210.455 48.6758 215.313 50.864 221.293 50.864V48.864C215.826 48.864 211.504 46.8762 208.546 43.7578C205.58 40.6309 203.933 36.3129 203.933 31.576H201.933ZM221.293 40.728C218.752 40.728 216.823 39.6953 215.509 38.0743C214.177 36.4314 213.437 34.1292 213.437 31.576H211.437C211.437 34.4948 212.281 37.2686 213.956 39.3337C215.647 41.4207 218.146 42.728 221.293 42.728V40.728ZM213.437 31.576C213.437 29.0615 214.176 26.7774 215.508 25.1426C216.822 23.5291 218.752 22.496 221.293 22.496V20.496C218.147 20.496 215.649 21.8029 213.957 23.8794C212.283 25.9346 211.437 28.6905 211.437 31.576H213.437ZM221.293 22.496C223.836 22.496 225.786 23.5303 227.119 25.1471C228.468 26.7835 229.221 29.0668 229.221 31.576H231.221C231.221 28.6852 230.355 25.9285 228.662 23.8749C226.953 21.8017 224.439 20.496 221.293 20.496V22.496ZM229.221 31.576C229.221 34.1239 228.466 36.4254 227.117 38.0697C225.785 39.694 223.836 40.728 221.293 40.728V42.728C224.439 42.728 226.954 41.422 228.663 39.3383C230.356 37.2746 231.221 34.5001 231.221 31.576H229.221ZM269.333 49H268.333V50H269.333V49ZM278.549 49V50H279.549V49H278.549ZM278.549 0.975996H279.549V-0.024004H278.549V0.975996ZM269.333 0.975996V-0.024004H268.333V0.975996H269.333ZM269.333 18.688L268.543 19.3008L270.333 21.6093V18.688H269.333ZM269.333 44.608H270.333V41.7806L268.556 43.9793L269.333 44.608ZM269.333 37.768L270.157 38.3345L270.333 38.0786V37.768H269.333ZM269.333 25.456H270.333V25.1454L270.157 24.8895L269.333 25.456ZM269.333 50H278.549V48H269.333V50ZM279.549 49V0.975996H277.549V49H279.549ZM278.549 -0.024004H269.333V1.976H278.549V-0.024004ZM268.333 0.975996V18.688H270.333V0.975996H268.333ZM270.123 18.0752C267.196 14.3008 263.015 12.36 258.605 12.36V14.36C262.403 14.36 265.998 16.0192 268.543 19.3008L270.123 18.0752ZM258.605 12.36C253.902 12.36 249.77 14.2031 246.826 17.581C243.891 20.9492 242.197 25.7711 242.197 31.648H244.197C244.197 26.1489 245.779 21.8268 248.334 18.895C250.88 15.9729 254.453 14.36 258.605 14.36V12.36ZM242.197 31.648C242.197 37.6318 243.909 42.4402 246.859 45.7666C249.817 49.1014 253.949 50.864 258.605 50.864V48.864C254.477 48.864 250.905 47.3146 248.355 44.4394C245.798 41.5558 244.197 37.2562 244.197 31.648H242.197ZM258.605 50.864C263.098 50.864 267.195 48.8436 270.111 45.2367L268.556 43.9793C266 47.1404 262.464 48.864 258.605 48.864V50.864ZM268.333 44.608V49H270.333V44.608H268.333ZM268.509 37.2015C267.127 39.2121 264.207 40.728 261.413 40.728V42.728C264.811 42.728 268.371 40.9319 270.157 38.3345L268.509 37.2015ZM261.413 40.728C259.102 40.728 257.184 39.8212 255.83 38.2713C254.468 36.7111 253.629 34.4381 253.629 31.648H251.629C251.629 34.8339 252.59 37.6009 254.324 39.5867C256.067 41.5828 258.54 42.728 261.413 42.728V40.728ZM253.629 31.648C253.629 28.8191 254.47 26.528 255.832 24.9598C257.185 23.4024 259.103 22.496 261.413 22.496V20.496C258.54 20.496 256.065 21.6416 254.322 23.6482C252.588 25.644 251.629 28.4289 251.629 31.648H253.629ZM261.413 22.496C264.207 22.496 267.127 24.0119 268.509 26.0225L270.157 24.8895C268.371 22.2921 264.811 20.496 261.413 20.496V22.496ZM268.333 25.456V37.768H270.333V25.456H268.333ZM316.489 43.528L317.304 44.1075L317.812 43.392L317.169 42.7949L316.489 43.528ZM310.513 37.984L311.193 37.2509L310.362 36.4802L309.701 37.4004L310.513 37.984ZM310.513 25.24L309.692 25.8118L310.35 26.7552L311.193 25.9731L310.513 25.24ZM316.489 19.696L317.169 20.4291L317.812 19.832L317.304 19.1165L316.489 19.696ZM283.305 31.576C283.305 42.8667 291.467 50.864 302.737 50.864V48.864C292.55 48.864 285.305 41.7413 285.305 31.576H283.305ZM302.737 50.864C310.195 50.864 314.816 47.6055 317.304 44.1075L315.674 42.9485C313.553 45.9305 309.534 48.864 302.737 48.864V50.864ZM317.169 42.7949L311.193 37.2509L309.832 38.7171L315.809 44.2611L317.169 42.7949ZM309.701 37.4004C308.224 39.4553 306 40.728 303.169 40.728V42.728C306.673 42.728 309.49 41.1207 311.325 38.5676L309.701 37.4004ZM303.169 40.728C300.654 40.728 298.568 39.8033 297.104 38.2373C295.637 36.6664 294.737 34.3844 294.737 31.576H292.737C292.737 34.8156 293.781 37.6096 295.643 39.6027C297.51 41.6007 300.139 42.728 303.169 42.728V40.728ZM294.737 31.576C294.737 28.7682 295.636 26.5062 297.101 24.9544C298.562 23.4066 300.649 22.496 303.169 22.496V20.496C300.144 20.496 297.515 21.6014 295.646 23.5816C293.781 25.5578 292.737 28.3358 292.737 31.576H294.737ZM303.169 22.496C306.014 22.496 308.226 23.7077 309.692 25.8118L311.333 24.6682C309.488 22.0203 306.659 20.496 303.169 20.496V22.496ZM311.193 25.9731L317.169 20.4291L315.809 18.9629L309.832 24.5069L311.193 25.9731ZM317.304 19.1165C314.816 15.6184 310.195 12.36 302.737 12.36V14.36C309.534 14.36 313.553 17.2935 315.674 20.2755L317.304 19.1165ZM302.737 12.36C291.469 12.36 283.305 20.3547 283.305 31.576H285.305C285.305 21.4853 292.548 14.36 302.737 14.36V12.36ZM342.266 49H341.266V50H342.266V49ZM351.41 49V50H352.41V49H351.41ZM321.026 18.832L320.365 18.0818L319.757 18.6178L320.156 19.3237L321.026 18.832ZM324.482 24.952L323.612 25.4437L324.234 26.5457L325.162 25.6854L324.482 24.952ZM342.266 31.504L341.493 32.1383L343.266 34.2992V31.504H342.266ZM342.266 45.4H343.266V42.6701L341.503 44.7541L342.266 45.4ZM342.266 40.648L343.066 41.248L343.266 40.9813V40.648H342.266ZM342.266 36.328H343.266V35.9947L343.066 35.728L342.266 36.328ZM342.266 50H351.41V48H342.266V50ZM352.41 49V26.536H350.41V49H352.41ZM352.41 26.536C352.41 21.2574 350.474 17.6427 347.373 15.3864C344.325 13.1694 340.286 12.36 336.218 12.36V14.36C340.071 14.36 343.627 15.1346 346.196 17.0036C348.711 18.8333 350.41 21.8066 350.41 26.536H352.41ZM336.218 12.36C330.541 12.36 324.823 14.1532 320.365 18.0818L321.688 19.5822C325.726 16.0228 330.952 14.36 336.218 14.36V12.36ZM320.156 19.3237L323.612 25.4437L325.353 24.4603L321.897 18.3403L320.156 19.3237ZM325.162 25.6854C327.938 23.1123 331.155 21.848 334.634 21.848V19.848C330.626 19.848 326.93 21.3197 323.803 24.2186L325.162 25.6854ZM334.634 21.848C336.783 21.848 338.459 22.3861 339.571 23.2358C340.66 24.067 341.266 25.2332 341.266 26.68H343.266C343.266 24.5988 342.361 22.849 340.785 21.6462C339.234 20.4619 337.094 19.848 334.634 19.848V21.848ZM341.266 26.68V31.504H343.266V26.68H341.266ZM343.039 30.8697C340.475 27.7449 336.026 26.256 331.25 26.256V28.256C335.69 28.256 339.449 29.6471 341.493 32.1383L343.039 30.8697ZM331.25 26.256C328.322 26.256 325.069 27.0323 322.522 28.9501C319.935 30.898 318.154 33.9686 318.154 38.344H320.154C320.154 34.5834 321.65 32.11 323.725 30.5479C325.84 28.9557 328.635 28.256 331.25 28.256V26.256ZM318.154 38.344C318.154 42.5455 319.938 45.7047 322.49 47.7938C325.017 49.8622 328.271 50.864 331.25 50.864V48.864C328.686 48.864 325.892 47.9938 323.757 46.2462C321.647 44.5193 320.154 41.9185 320.154 38.344H318.154ZM331.25 50.864C336.004 50.864 340.419 49.1312 343.03 46.0459L341.503 44.7541C339.362 47.2848 335.569 48.864 331.25 48.864V50.864ZM341.266 45.4V49H343.266V45.4H341.266ZM341.466 40.048C340.215 41.7166 337.702 42.672 334.922 42.672V44.672C338.047 44.672 341.294 43.6114 343.066 41.248L341.466 40.048ZM334.922 42.672C333.283 42.672 331.867 42.244 330.888 41.5252C329.936 40.8253 329.37 39.8369 329.37 38.56H327.37C327.37 40.5231 328.281 42.0907 329.704 43.1368C331.102 44.164 332.962 44.672 334.922 44.672V42.672ZM329.37 38.56C329.37 37.2368 329.945 36.2103 330.9 35.4871C331.878 34.746 333.29 34.304 334.922 34.304V32.304C332.954 32.304 331.09 32.834 329.692 33.8929C328.271 34.9697 327.37 36.5712 327.37 38.56H329.37ZM334.922 34.304C337.702 34.304 340.215 35.2594 341.466 36.928L343.066 35.728C341.294 33.3646 338.047 32.304 334.922 32.304V34.304ZM341.266 36.328V40.648H343.266V36.328H341.266ZM356.376 44.464L355.525 43.9383L355.092 44.6402L355.698 45.1994L356.376 44.464ZM373.008 27.328L372.808 28.3079L372.819 28.3099L373.008 27.328ZM382.152 24.376L381.422 25.0592L382.345 26.0465L383.019 24.8743L382.152 24.376ZM385.752 18.112L386.619 18.6103L387.044 17.8707L386.381 17.3344L385.752 18.112ZM371.208 35.176L371.404 34.1954L371.397 34.1941L371.208 35.176ZM360.336 38.056L361.022 37.3284L360.13 36.4873L359.485 37.5303L360.336 38.056ZM355.698 45.1994C359.594 48.789 365.687 50.864 371.928 50.864V48.864C366.073 48.864 360.503 46.907 357.054 43.7286L355.698 45.1994ZM371.928 50.864C376.906 50.864 380.905 49.6388 383.684 47.4762C386.485 45.297 387.976 42.2152 387.976 38.704H385.976C385.976 41.6007 384.767 44.099 382.456 45.8978C380.123 47.7132 376.598 48.864 371.928 48.864V50.864ZM387.976 38.704C387.976 36.3829 387.437 34.4793 386.488 32.9228C385.541 31.3708 384.221 30.2201 382.741 29.3468C379.821 27.6233 376.15 26.9153 373.197 26.3461L372.819 28.3099C375.842 28.8927 379.155 29.5527 381.725 31.0692C382.99 31.8159 384.042 32.7532 384.78 33.9642C385.516 35.1707 385.976 36.7051 385.976 38.704H387.976ZM373.208 26.3481C371.249 25.9491 369.714 25.5731 368.674 25.0691C367.659 24.577 367.384 24.1071 367.384 23.584H365.384C365.384 25.2209 366.477 26.227 367.802 26.8689C369.102 27.4989 370.879 27.9149 372.808 28.3079L373.208 26.3481ZM367.384 23.584C367.384 23.0011 367.67 22.4881 368.383 22.0712C369.13 21.6339 370.303 21.344 371.856 21.344V19.344C370.097 19.344 368.534 19.6661 367.373 20.3448C366.178 21.0439 365.384 22.1509 365.384 23.584H367.384ZM371.856 21.344C375.859 21.344 379.543 23.0511 381.422 25.0592L382.882 23.6928C380.585 21.2369 376.35 19.344 371.856 19.344V21.344ZM383.019 24.8743L386.619 18.6103L384.885 17.6137L381.285 23.8777L383.019 24.8743ZM386.381 17.3344C382.828 14.4619 377.928 12.36 371.784 12.36V14.36C377.448 14.36 381.908 16.2901 385.123 18.8896L386.381 17.3344ZM371.784 12.36C362.272 12.36 356.528 17.7524 356.528 24.304H358.528C358.528 19.1916 363.009 14.36 371.784 14.36V12.36ZM356.528 24.304C356.528 26.5362 357.05 28.3657 357.975 29.8603C358.897 31.3499 360.184 32.4483 361.628 33.2796C364.474 34.9183 368.073 35.5901 371.019 36.1579L371.397 34.1941C368.367 33.6099 365.126 32.9857 362.626 31.5464C361.397 30.8387 360.384 29.9526 359.675 28.8075C358.97 27.6673 358.528 26.2118 358.528 24.304H356.528ZM371.012 36.1566C373.005 36.5552 374.625 36.9489 375.74 37.5027C376.824 38.0408 377.192 38.5967 377.192 39.28H379.192C379.192 37.5153 378.048 36.4152 376.63 35.7113C375.243 35.0231 373.371 34.5888 371.404 34.1954L371.012 36.1566ZM377.192 39.28C377.192 40.0177 376.899 40.5814 376.225 41.01C375.49 41.4769 374.251 41.808 372.36 41.808V43.808C374.429 43.808 376.106 43.4551 377.297 42.698C378.549 41.9026 379.192 40.7023 379.192 39.28H377.192ZM372.36 41.808C370.368 41.808 368.125 41.2561 366.056 40.3991C363.985 39.5412 362.171 38.4121 361.022 37.3284L359.65 38.7836C361.021 40.0759 363.059 41.3228 365.29 42.2469C367.523 43.1719 370.032 43.808 372.36 43.808V41.808ZM359.485 37.5303L355.525 43.9383L357.227 44.9897L361.187 38.5817L359.485 37.5303ZM411.929 47.632L412.595 48.3772L413.06 47.9615L412.891 47.3613L411.929 47.632ZM409.985 40.72L410.947 40.4493L410.485 38.8055L409.277 40.0129L409.985 40.72ZM403.649 22.216V21.216H402.649V22.216H403.649ZM410.705 22.216V23.216H411.705V22.216H410.705ZM410.705 14.224H411.705V13.224H410.705V14.224ZM403.649 14.224H402.649V15.224H403.649V14.224ZM403.649 4.72H404.649V3.72H403.649V4.72ZM394.433 4.72V3.72H393.433V4.72H394.433ZM394.433 14.224V15.224H395.433V14.224H394.433ZM388.673 14.224V13.224H387.673V14.224H388.673ZM388.673 22.216H387.673V23.216H388.673V22.216ZM394.433 22.216H395.433V21.216H394.433V22.216ZM404.297 50.864C408.276 50.864 410.991 49.813 412.595 48.3772L411.262 46.8868C410.13 47.899 407.949 48.864 404.297 48.864V50.864ZM412.891 47.3613L410.947 40.4493L409.022 40.9907L410.966 47.9027L412.891 47.3613ZM409.277 40.0129C409.178 40.1122 408.89 40.3012 408.404 40.4659C407.941 40.6227 407.383 40.728 406.817 40.728V42.728C407.618 42.728 408.392 42.5813 409.045 42.3601C409.675 42.1468 410.287 41.8318 410.692 41.4271L409.277 40.0129ZM406.817 40.728C406.112 40.728 405.61 40.4524 405.261 40.0104C404.893 39.5437 404.649 38.8254 404.649 37.912H402.649C402.649 39.1586 402.98 40.3483 403.692 41.2496C404.423 42.1756 405.505 42.728 406.817 42.728V40.728ZM404.649 37.912V22.216H402.649V37.912H404.649ZM403.649 23.216H410.705V21.216H403.649V23.216ZM411.705 22.216V14.224H409.705V22.216H411.705ZM410.705 13.224H403.649V15.224H410.705V13.224ZM404.649 14.224V4.72H402.649V14.224H404.649ZM403.649 3.72H394.433V5.72H403.649V3.72ZM393.433 4.72V14.224H395.433V4.72H393.433ZM394.433 13.224H388.673V15.224H394.433V13.224ZM387.673 14.224V22.216H389.673V14.224H387.673ZM388.673 23.216H394.433V21.216H388.673V23.216ZM393.433 22.216V40.36H395.433V22.216H393.433ZM393.433 40.36C393.433 43.6388 394.351 46.3101 396.268 48.1546C398.179 49.993 400.93 50.864 404.297 50.864V48.864C401.255 48.864 399.074 48.079 397.655 46.7134C396.242 45.3539 395.433 43.2732 395.433 40.36H393.433ZM466.559 49L465.743 49.5788L466.042 50H466.559V49ZM476.423 49V50H477.423V49H476.423ZM476.423 0.975996H477.423V-0.024004H476.423V0.975996ZM466.199 0.975996V-0.024004H465.199V0.975996H466.199ZM466.199 32.08L465.385 32.6618L467.199 35.1969V32.08H466.199ZM443.951 0.975996L444.764 0.394223L444.465 -0.024004H443.951V0.975996ZM433.439 0.975996V-0.024004H432.439V0.975996H433.439ZM433.439 49H432.439V50H433.439V49ZM443.663 49V50H444.663V49H443.663ZM443.663 16.744L444.478 16.1652L442.663 13.6076V16.744H443.663ZM466.559 50H476.423V48H466.559V50ZM477.423 49V0.975996H475.423V49H477.423ZM476.423 -0.024004H466.199V1.976H476.423V-0.024004ZM465.199 0.975996V32.08H467.199V0.975996H465.199ZM467.012 31.4982L444.764 0.394223L443.137 1.55777L465.385 32.6618L467.012 31.4982ZM443.951 -0.024004H433.439V1.976H443.951V-0.024004ZM432.439 0.975996V49H434.439V0.975996H432.439ZM433.439 50H443.663V48H433.439V50ZM444.663 49V16.744H442.663V49H444.663ZM442.847 17.3228L465.743 49.5788L467.374 48.4212L444.478 16.1652L442.847 17.3228ZM515.268 45.04L515.944 45.7765L516.582 45.191L516.094 44.476L515.268 45.04ZM511.236 39.136L512.062 38.572L511.393 37.5926L510.54 38.4174L511.236 39.136ZM491.94 34.528V33.528H490.8L490.948 34.658L491.94 34.528ZM517.788 34.528V35.528H518.788V34.528H517.788ZM508.932 28.336V29.336H509.999L509.93 28.2709L508.932 28.336ZM491.796 28.336L490.803 28.212L490.663 29.336H491.796V28.336ZM481.364 31.576C481.364 37.4056 483.457 42.2465 486.991 45.6276C490.52 49.0034 495.422 50.864 500.94 50.864V48.864C495.874 48.864 491.487 47.1606 488.374 44.1824C485.266 41.2095 483.364 36.9064 483.364 31.576H481.364ZM500.94 50.864C506.502 50.864 512.176 49.2374 515.944 45.7765L514.591 44.3035C511.304 47.3226 506.177 48.864 500.94 48.864V50.864ZM516.094 44.476L512.062 38.572L510.41 39.7L514.442 45.604L516.094 44.476ZM510.54 38.4174C508.531 40.3619 504.983 41.592 501.948 41.592V43.592C505.392 43.592 509.476 42.2301 511.931 39.8546L510.54 38.4174ZM501.948 41.592C496.535 41.592 493.441 38.2819 492.931 34.398L490.948 34.658C491.591 39.5581 495.552 43.592 501.948 43.592V41.592ZM491.94 35.528H517.788V33.528H491.94V35.528ZM518.788 34.528V32.512H516.788V34.528H518.788ZM518.788 32.512C518.788 26.6183 516.958 21.5769 513.704 17.9973C510.442 14.4098 505.811 12.36 500.364 12.36V14.36C505.284 14.36 509.365 16.1982 512.224 19.3427C515.09 22.4951 516.788 27.0297 516.788 32.512H518.788ZM500.364 12.36C489.194 12.36 481.364 20.9781 481.364 31.576H483.364C483.364 22.0139 490.366 14.36 500.364 14.36V12.36ZM500.364 21.632C503.119 21.632 504.932 22.6207 506.091 23.9105C507.274 25.2272 507.838 26.9278 507.934 28.4011L509.93 28.2709C509.81 26.4322 509.113 24.2808 507.578 22.5735C506.02 20.8392 503.656 19.632 500.364 19.632V21.632ZM508.932 27.336H491.796V29.336H508.932V27.336ZM492.788 28.46C492.983 26.8961 493.635 25.1775 494.844 23.8657C496.03 22.5788 497.797 21.632 500.364 21.632V19.632C497.243 19.632 494.941 20.8092 493.373 22.5103C491.828 24.1865 491.04 26.3199 490.803 28.212L492.788 28.46ZM542.609 47.632L543.275 48.3772L543.74 47.9615L543.571 47.3613L542.609 47.632ZM540.665 40.72L541.627 40.4493L541.165 38.8055L539.957 40.0129L540.665 40.72ZM534.329 22.216V21.216H533.329V22.216H534.329ZM541.385 22.216V23.216H542.385V22.216H541.385ZM541.385 14.224H542.385V13.224H541.385V14.224ZM534.329 14.224H533.329V15.224H534.329V14.224ZM534.329 4.72H535.329V3.72H534.329V4.72ZM525.113 4.72V3.72H524.113V4.72H525.113ZM525.113 14.224V15.224H526.113V14.224H525.113ZM519.353 14.224V13.224H518.353V14.224H519.353ZM519.353 22.216H518.353V23.216H519.353V22.216ZM525.113 22.216H526.113V21.216H525.113V22.216ZM534.977 50.864C538.956 50.864 541.671 49.813 543.275 48.3772L541.942 46.8868C540.81 47.899 538.629 48.864 534.977 48.864V50.864ZM543.571 47.3613L541.627 40.4493L539.702 40.9907L541.646 47.9027L543.571 47.3613ZM539.957 40.0129C539.858 40.1122 539.57 40.3012 539.084 40.4659C538.621 40.6227 538.063 40.728 537.497 40.728V42.728C538.298 42.728 539.072 42.5813 539.725 42.3601C540.355 42.1468 540.967 41.8318 541.372 41.4271L539.957 40.0129ZM537.497 40.728C536.792 40.728 536.29 40.4524 535.941 40.0104C535.573 39.5437 535.329 38.8254 535.329 37.912H533.329C533.329 39.1586 533.66 40.3483 534.372 41.2496C535.103 42.1756 536.185 42.728 537.497 42.728V40.728ZM535.329 37.912V22.216H533.329V37.912H535.329ZM534.329 23.216H541.385V21.216H534.329V23.216ZM542.385 22.216V14.224H540.385V22.216H542.385ZM541.385 13.224H534.329V15.224H541.385V13.224ZM535.329 14.224V4.72H533.329V14.224H535.329ZM534.329 3.72H525.113V5.72H534.329V3.72ZM524.113 4.72V14.224H526.113V4.72H524.113ZM525.113 13.224H519.353V15.224H525.113V13.224ZM518.353 14.224V22.216H520.353V14.224H518.353ZM519.353 23.216H525.113V21.216H519.353V23.216ZM524.113 22.216V40.36H526.113V22.216H524.113ZM524.113 40.36C524.113 43.6388 525.031 46.3101 526.948 48.1546C528.859 49.993 531.61 50.864 534.977 50.864V48.864C531.935 48.864 529.754 48.079 528.335 46.7134C526.922 45.3539 526.113 43.2732 526.113 40.36H524.113ZM577.089 49L576.133 49.2961L576.352 50H577.089V49ZM586.809 49V50H587.55L587.765 49.2912L586.809 49ZM597.393 14.224L598.349 14.5152L598.742 13.224H597.393V14.224ZM587.889 14.224V13.224H587.128L586.925 13.9571L587.889 14.224ZM581.409 37.624L580.458 37.9341L581.487 41.0887L582.372 37.8909L581.409 37.624ZM573.777 14.224L574.727 13.9139L574.502 13.224H573.777V14.224ZM565.641 14.224V13.224H564.915L564.69 13.9139L565.641 14.224ZM558.009 37.624L557.045 37.8909L557.93 41.0887L558.959 37.9341L558.009 37.624ZM551.529 14.224L552.492 13.9571L552.289 13.224H551.529V14.224ZM542.025 14.224V13.224H540.675L541.068 14.5152L542.025 14.224ZM552.609 49L551.652 49.2912L551.868 50H552.609V49ZM562.401 49V50H563.138L563.356 49.2961L562.401 49ZM569.745 25.312L570.7 25.0159L569.745 21.935L568.789 25.0159L569.745 25.312ZM577.089 50H586.809V48H577.089V50ZM587.765 49.2912L598.349 14.5152L596.436 13.9328L585.852 48.7088L587.765 49.2912ZM597.393 13.224H587.889V15.224H597.393V13.224ZM586.925 13.9571L580.445 37.3571L582.372 37.8909L588.852 14.4909L586.925 13.9571ZM582.359 37.3139L574.727 13.9139L572.826 14.5341L580.458 37.9341L582.359 37.3139ZM573.777 13.224H565.641V15.224H573.777V13.224ZM564.69 13.9139L557.058 37.3139L558.959 37.9341L566.591 14.5341L564.69 13.9139ZM558.972 37.3571L552.492 13.9571L550.565 14.4909L557.045 37.8909L558.972 37.3571ZM551.529 13.224H542.025V15.224H551.529V13.224ZM541.068 14.5152L551.652 49.2912L553.565 48.7088L542.981 13.9328L541.068 14.5152ZM552.609 50H562.401V48H552.609V50ZM563.356 49.2961L570.7 25.6081L568.789 25.0159L561.445 48.7039L563.356 49.2961ZM568.789 25.6081L576.133 49.2961L578.044 48.7039L570.7 25.0159L568.789 25.6081ZM616.945 50.864C622.959 50.864 627.836 48.677 631.205 45.1353C634.567 41.6018 636.377 36.7752 636.377 31.576H634.377C634.377 36.3128 632.731 40.6302 629.756 43.7567C626.79 46.875 622.45 48.864 616.945 48.864V50.864ZM636.377 31.576C636.377 26.411 634.566 21.6025 631.204 18.0788C627.835 14.5468 622.959 12.36 616.945 12.36V14.36C622.45 14.36 626.79 16.3491 629.757 19.4592C632.732 22.5775 634.377 26.877 634.377 31.576H636.377ZM616.945 12.36C604.898 12.36 597.585 21.2074 597.585 31.576H599.585C599.585 22.2166 606.095 14.36 616.945 14.36V12.36ZM597.585 31.576C597.585 36.7751 599.394 41.6011 602.746 45.1342C606.106 48.6758 610.964 50.864 616.945 50.864V48.864C611.477 48.864 607.155 46.8762 604.197 43.7578C601.231 40.6309 599.585 36.3129 599.585 31.576H597.585ZM616.945 40.728C614.404 40.728 612.475 39.6953 611.16 38.0743C609.829 36.4314 609.089 34.1292 609.089 31.576H607.089C607.089 34.4948 607.933 37.2686 609.607 39.3337C611.299 41.4207 613.798 42.728 616.945 42.728V40.728ZM609.089 31.576C609.089 29.0615 609.827 26.7774 611.159 25.1426C612.473 23.5291 614.403 22.496 616.945 22.496V20.496C613.798 20.496 611.3 21.8029 609.608 23.8794C607.934 25.9346 607.089 28.6905 607.089 31.576H609.089ZM616.945 22.496C619.487 22.496 621.437 23.5303 622.77 25.1471C624.119 26.7835 624.873 29.0668 624.873 31.576H626.873C626.873 28.6852 626.006 25.9285 624.313 23.8749C622.604 21.8017 620.09 20.496 616.945 20.496V22.496ZM624.873 31.576C624.873 34.1239 624.118 36.4254 622.768 38.0697C621.436 39.694 619.487 40.728 616.945 40.728V42.728C620.09 42.728 622.605 41.422 624.315 39.3383C626.008 37.2746 626.873 34.5001 626.873 31.576H624.873ZM641.08 49H640.08V50H641.08V49ZM650.224 49V50H651.224V49H650.224ZM650.224 26.032L649.396 25.4712L649.224 25.7252V26.032H650.224ZM661.312 22.36L661.095 23.3362L662.312 23.6066V22.36H661.312ZM661.312 13.432H662.312V12.432H661.312V13.432ZM650.224 18.976H649.224V21.853L651.009 19.5962L650.224 18.976ZM650.224 14.224H651.224V13.224H650.224V14.224ZM641.08 14.224V13.224H640.08V14.224H641.08ZM641.08 50H650.224V48H641.08V50ZM651.224 49V26.032H649.224V49H651.224ZM651.052 26.5928C651.66 25.6951 652.856 24.8211 654.344 24.1663C655.817 23.5184 657.443 23.144 658.792 23.144V21.144C657.117 21.144 655.216 21.5976 653.539 22.3357C651.877 23.0669 650.3 24.1369 649.396 25.4712L651.052 26.5928ZM658.792 23.144C659.764 23.144 660.547 23.2143 661.095 23.3362L661.529 21.3838C660.782 21.2177 659.837 21.144 658.792 21.144V23.144ZM662.312 22.36V13.432H660.312V22.36H662.312ZM661.312 12.432C656.647 12.432 652.052 15.0529 649.44 18.3558L651.009 19.5962C653.293 16.7071 657.338 14.432 661.312 14.432V12.432ZM651.224 18.976V14.224H649.224V18.976H651.224ZM650.224 13.224H641.08V15.224H650.224V13.224ZM640.08 14.224V49H642.08V14.224H640.08ZM688.482 49L687.658 49.5669L687.956 50H688.482V49ZM699.93 49V50H701.924L700.731 48.4019L699.93 49ZM685.746 29.992L684.992 29.3347L684.461 29.9431L684.944 30.5901L685.746 29.992ZM699.498 14.224L700.251 14.8813L701.697 13.224H699.498V14.224ZM688.266 14.224V13.224H687.804L687.504 13.5758L688.266 14.224ZM675.09 29.704H674.09V32.4217L675.851 30.3522L675.09 29.704ZM675.09 0.975996H676.09V-0.024004H675.09V0.975996ZM665.946 0.975996V-0.024004H664.946V0.975996H665.946ZM665.946 49H664.946V50H665.946V49ZM675.09 49V50H676.09V49H675.09ZM675.09 40.072L674.359 39.3888L674.09 39.6772V40.072H675.09ZM679.266 35.608L680.089 35.0411L679.385 34.017L678.535 34.9248L679.266 35.608ZM688.482 50H699.93V48H688.482V50ZM700.731 48.4019L686.547 29.3939L684.944 30.5901L699.128 49.5981L700.731 48.4019ZM686.499 30.6493L700.251 14.8813L698.744 13.5667L684.992 29.3347L686.499 30.6493ZM699.498 13.224H688.266V15.224H699.498V13.224ZM687.504 13.5758L674.328 29.0558L675.851 30.3522L689.027 14.8722L687.504 13.5758ZM676.09 29.704V0.975996H674.09V29.704H676.09ZM675.09 -0.024004H665.946V1.976H675.09V-0.024004ZM664.946 0.975996V49H666.946V0.975996H664.946ZM665.946 50H675.09V48H665.946V50ZM676.09 49V40.072H674.09V49H676.09ZM675.82 40.7552L679.996 36.2912L678.535 34.9248L674.359 39.3888L675.82 40.7552ZM678.442 36.1749L687.658 49.5669L689.305 48.4331L680.089 35.0411L678.442 36.1749Z" fill="#4B5058"/>
</svg>
