<svg width="310" height="243" viewBox="0 0 310 243" fill="none" xmlns="http://www.w3.org/2000/svg">
<path d="M0.864777 269.327C7.67306 267.518 16.6366 263.36 21.6688 258.864C27.9175 253.282 26.9402 248.498 28.3595 242.877C29.0427 240.17 30.3646 237.565 31.9663 234.843C33.5316 232.187 35.0988 229.195 37.4771 226.679C39.8553 224.163 43.2229 222.091 45.587 219.525C47.9044 217.023 49.6865 213.911 49.8062 211.365C49.9359 208.62 48.5512 206.751 47.286 204.58C45.9763 202.335 45.4187 200.304 46.6778 197.336C49.0073 191.874 53.2002 186.379 56.8902 181.011C59.8463 176.71 64.7528 167.907 72.1632 167.143C75.7275 166.774 78.9817 167.868 81.9884 168.445C85.0763 169.037 88.2736 169.459 91.5602 169.751C104.714 170.92 117.905 173.615 125.587 180.477C129.32 183.812 131.218 188.989 136.672 190.964C143.857 193.567 144.798 180.361 144.915 177.831C145.157 172.685 145.28 167.296 142.74 163.101C141.523 161.095 139.551 159.286 137.608 157.717C135.534 156.041 134.593 154.894 132.219 153.496L127.781 147.652C127.781 147.652 126.238 144.535 128.876 143.019C131.514 141.502 139.903 140.121 139.903 140.121L146.189 136.936C148.926 132.493 157.194 133.556 159.868 132.686C162.542 131.817 162.542 135.193 167.832 132.486C173.122 129.779 171.915 129.105 172.467 124.518C173.018 119.93 172.11 118.382 172.138 114.163C172.167 109.945 173.179 107.755 175.141 104.022C177.104 100.289 176.435 97.5024 177.169 96.1478C177.903 94.7931 180.413 92.7189 182.572 92.2167C184.731 91.7145 188.981 89.5413 191.85 87.5274C194.497 85.6681 200.696 80.6674 204.704 79.3635C208.712 78.0596 209.487 72.1437 211.504 69.3765C213.521 66.6093 217.803 65.2909 220.403 63.1297C223.002 60.9686 230.495 49.3348 235.169 45.3748C239.842 41.4147 245.47 35.1197 247.295 33.6709C249.12 32.2221 252.82 30.4884 255.148 28.3587C257.475 26.229 259.971 25.4611 262.568 23.3024C265.165 21.1437 268.363 21.2403 270.494 20.4169C272.625 19.5935 273.764 20.4724 276.363 18.3113C278.962 16.1502 284.925 15.6552 289.28 15.6262C293.635 15.5973 297.563 17.5386 299.75 17.6835C301.938 17.8284 315.362 19.3158 315.362 19.3158" stroke="#E5E6E5" stroke-miterlimit="10"/>
<path d="M2.803 276.754C7.37498 274.39 11.4279 271.406 16.0992 269.1C18.5058 267.912 21.0564 267.168 23.4326 265.917C25.6629 264.746 27.7127 263.29 29.7381 261.904C34.0688 258.927 37.9231 256.029 39.7032 252.137C41.3678 248.503 41.6496 245.079 42.3734 241.554C43.1033 237.982 44.6036 234.276 46.8541 230.639C49.0256 227.114 52.2006 223.784 54.9641 220.377C60.4383 213.645 65.6063 205.933 66.7498 199.065C67.6419 193.702 64.6189 183.428 73.2966 178.541C77.7895 176.008 83.3184 177.428 87.3146 177.609C89.484 177.708 92.1805 177.041 94.2222 177.256C96.2132 177.466 97.7521 178.78 99.37 179.429C106.659 182.346 113.706 184.715 118.714 189.571C123.548 194.265 128.377 198.976 133.148 203.706C135.534 206.07 138.661 207.992 140.662 210.566C142.663 213.14 144.69 215.813 145.515 218.945C145.921 220.534 145.24 222.432 145.718 224.018C146.183 225.527 147.391 226.715 148.557 227.85C151.03 230.265 152.452 232.921 154.086 235.778C155.545 238.32 158.575 241.121 162.475 241.766C164.483 242.099 167.068 242.157 169.251 240.663C171.613 239.047 172.68 237.21 171.84 235.693C170.259 232.832 167.104 231.084 164.247 229.038C161.293 226.926 160.01 224.141 159.398 220.858C158.208 214.473 157.094 208.06 156.154 201.591C155.681 198.382 154.992 195.154 155.077 191.78C155.162 188.407 156.048 184.831 156.038 181.453C156.02 174.648 154.957 168.344 153.846 161.875C153.542 160.107 153.346 158.646 151.908 157.391C150.645 156.29 149.013 155.49 147.529 154.558C144.455 152.627 141.783 150.533 138.125 149.089C138.125 149.089 134.093 148.097 139.889 144.699C143.345 142.677 146.666 140.343 149.824 137.718L157.123 136.791L161.245 137.426L167.751 136.89C167.751 136.89 172.108 136.854 172.574 135.519C173.041 134.183 176.396 130.986 176.285 129.05C176.173 127.113 174.807 122.359 175.236 120.379C175.666 118.399 175.871 112.541 176.319 110.882C176.863 109.004 177.58 107.204 178.458 105.514C179.196 104.157 178.738 100.951 179.729 99.2482C180.721 97.5459 183.401 96.6621 184.701 95.5948C186 94.5275 188.401 93.6631 189.449 92.9387C190.497 92.2143 191.58 92.1129 193.131 90.6882C194.682 89.2636 200.633 88.2736 205.48 86.1004C207.102 85.376 212.516 84.5598 213.45 81.8868C214.385 79.2138 214.813 77.765 216.346 76.0168C217.878 74.2686 218.779 73.6021 220.565 71.5183C222.351 69.4344 226.978 66.2374 228.44 61.3767C229.155 58.9983 231.452 56.3856 233.685 52.6332C235.917 48.8809 237.853 49.3711 239.854 46.2875C241.855 43.204 251.454 34.9387 252.461 33.5695C253.469 32.2004 261.36 27.3228 262.116 26.2869C262.872 25.251 268.042 25.1496 269.593 23.725C271.144 22.3003 274.662 22.0082 275.716 21.2741C276.771 20.5401 279.67 19.0019 281.026 18.8908C282.383 18.7798 286.158 18.1447 289.449 18.5214C292.739 18.8981 297.946 19.4438 300.442 20.2117C302.937 20.9795 307.256 20.2986 310.021 21.0447C312.787 21.7909 316.481 24.4035 316.481 24.4035" stroke="#E5E6E5" stroke-miterlimit="10"/>
<path d="M5.66362 287.729C7.9709 286.28 8.83461 283.779 9.92134 281.934C11.0648 280.002 12.6159 278.152 14.5521 276.38C18.4672 272.804 23.9981 271.094 29.0405 268.974C34.0038 266.895 39.4009 264.901 43.9384 262.081C48.8389 259.033 51.3752 255.387 52.8776 251.432C54.3354 247.6 54.7267 243.946 55.7424 240.175C56.7582 236.403 58.4086 232.578 60.5638 228.775C64.8398 221.268 71.2202 213.488 79.8391 207.345C82.1017 205.732 83.8738 204.312 84.9585 202.274C85.9844 200.343 86.7589 198.37 88.0179 196.467C90.7125 192.386 95.8319 189.484 101.101 189.948C105.809 190.353 108.686 193.065 111.356 195.337C114.166 197.728 116.987 200.111 119.716 202.557C130.506 212.232 136.073 224.53 142.018 236.785C143.488 239.786 145.041 242.727 146.529 245.714C147.304 247.267 148.528 248.558 149.702 249.894C150.817 251.164 151.494 253.033 153.331 253.798C156.748 255.206 162.493 255.247 166.948 255.095C172.398 254.919 177.631 253.518 180.909 249.189C183.652 245.567 186.383 241.812 189.495 238.27C192.083 235.319 198.313 229.439 195.209 227.232C192.105 225.025 187.829 223.811 184.796 221.553C181.866 219.38 179.652 216.803 178.269 213.722C176.86 210.583 176.209 207.113 175.064 203.863C173.955 200.71 172.461 197.728 170.877 194.786C169.237 191.744 167.412 188.791 166.883 185.28C166.374 181.912 166.571 178.328 166.23 174.909C165.873 171.35 164.519 168.199 163.112 165.04C161.762 162.008 160.91 158.704 159.245 155.819C158.38 154.314 157.388 152.887 155.933 151.726C154.477 150.564 152.299 149.997 150.876 148.828C149.518 147.715 148.82 146.085 147.78 144.777C147.78 144.777 149.065 143.287 151.486 142.763C153.907 142.239 164.113 139.778 169.125 141.635C174.137 143.492 174.37 152.233 176.651 153.991C178.932 155.749 178.951 156.072 182.083 158.41C185.215 160.747 190.598 164.205 189.881 170.741C189.163 177.278 190.779 176.831 193.052 183.133C195.325 189.436 200.243 199.085 205.657 203.175C211.07 207.265 208.761 209.731 214.912 212.469C221.063 215.207 226.971 223.151 227.795 227.949C227.795 227.949 229.508 236.884 227.634 250.019" stroke="#E5E6E5" stroke-miterlimit="10"/>
<path d="M121.377 229.572L121.415 229.615" stroke="#E5E6E5" stroke-miterlimit="10"/>
<path d="M41.5054 419.536C43.689 418.811 46.3531 415.204 47.7764 413.74C48.6158 412.881 49.2869 411.951 50.4121 411.249C51.9449 410.3 52.468 410.217 53.4757 408.914C55.0287 406.902 56.677 404.618 56.4216 402.705C56.162 400.747 55.6106 399.279 57.1109 397.004C60.2312 392.277 62.7636 388.377 63.4874 383.642C64.1159 379.518 63.9922 374.708 59.4668 372.974C50.7852 369.644 34.7985 373.652 33.9348 363.759C33.5536 359.377 36.9071 355.627 40.8424 351.3C44.7392 347.019 49.4227 343.068 54.0433 339.108C58.1672 335.573 64.866 331.741 61.6241 328.187C58.9073 325.205 56.1175 322.15 52.3788 319.854C48.5144 317.485 43.5592 316.056 39.7658 313.667C35.8284 311.188 36.7813 306.366 32.5723 304.146C28.5842 302.043 23.5196 301.169 26.2628 295.937C27.5624 293.459 29.6953 291.349 31.8505 289.06C33.949 286.829 35.5568 284.984 38.45 283.141C41.1972 281.391 44.1127 280.35 47.1823 279.23C50.4851 278.022 52.7701 276.733 55.3288 274.593C60.0467 270.648 64.4707 266.49 69.071 262.469C71.3175 260.506 73.5599 258.471 75.6664 256.433C77.5479 254.622 80.0296 252.328 81.2278 250.367C81.7854 249.467 82.5802 248.291 82.8498 247.395C83.1904 246.267 82.5011 245.898 81.9902 245.086C80.9764 243.476 80.0114 241.595 79.6322 239.709C78.8009 235.568 81.2359 230.869 84.0318 226.366C86.7588 221.973 89.3945 217.26 95.037 213.809C98.6338 211.617 102.713 210.822 105.243 212.474C106.198 213.118 107.121 213.828 108.007 214.599C109.75 216.091 111.4 217.732 112.944 219.508C115.867 222.821 118.43 226.344 121.423 229.616C124.94 233.465 127.325 237.871 130.952 241.677C134.579 245.482 135.962 250.215 138.673 254.475C140.032 256.688 141.636 258.674 143.441 260.376C145.44 262.211 148.222 263.274 150.884 264.551C156.261 267.137 159.176 271.993 168.629 268.074C176.112 264.964 182.527 259.941 188.415 255.211C191.387 252.821 194.175 250.331 197.163 247.948C198.615 246.786 200.055 245.393 201.784 244.468C203.566 243.502 205.62 242.891 207.518 242.244C211.096 241.027 215.601 239.851 218.156 237.195C220.575 234.677 221.288 231.424 221.471 228.937C221.674 226.197 220.976 223.729 218.861 221.968C216.864 220.31 213.26 219.742 211.968 217.731C209.225 213.474 206.504 209.545 202.798 205.826C199.092 202.108 196.275 197.892 193.948 193.393C191.62 188.895 189.453 184.51 186.399 180.386C185.661 179.388 184.757 178.408 184.169 177.343C183.581 176.278 183.889 174.786 184.102 173.48C184.561 170.659 185.85 167.873 184.344 165.581C182.924 163.423 180.579 162.078 178.261 160.511C176.172 159.105 174.387 157.139 173.046 154.769C173.046 154.769 172.033 149.497 170.338 148.341C168.643 147.184 165.675 143.19 163.006 144.069C161.08 144.702 153.305 145.158 155.223 146.018C165.01 150.403 167.996 159.697 171.126 163.242C172.343 164.63 173.762 165.881 175.096 167.19C176.682 168.735 176.874 170.307 176.449 172.591C175.711 176.554 175.672 180.021 177.401 183.242C180.749 189.474 185.588 194.97 187.798 201.767C188.901 205.148 189.911 208.338 191.75 211.426C193.672 214.65 196.837 216.456 200.006 218.854C203.047 221.155 205.496 223.869 208.252 226.356C210.265 228.177 210.123 229.345 207.585 231.992C205.727 233.923 203.856 235.399 201.502 237.062C192.439 243.391 187.521 252.166 177.442 257.744C172.501 260.477 166.83 262.235 161.938 261.704C157.615 261.221 152.003 260.255 148.962 258.36C145.679 256.327 144.027 253.035 142.391 250.027C140.7 246.912 139.21 243.715 137.322 240.689C133.582 234.689 130.208 228.539 126.037 222.763C121.796 216.893 118.576 210.719 111.804 206.375C109.047 204.61 104.303 201.893 99.5907 202.581C94.666 203.306 89.2506 208.601 85.8039 211.453C77.5642 218.245 72.3839 226.45 69.3995 234.191C66.3137 242.198 67.2342 249.404 61.1071 257.551C58.2524 261.349 53.946 265.408 49.1774 268.253C44.2932 271.167 38.8372 272.635 33.4948 273.862C30.8266 274.473 28.1585 274.956 25.4883 275.605C23.0816 276.19 19.0003 278.561 20.0526 280.492C20.8372 281.941 24.2454 282.253 25.5511 283.421C27.2096 284.904 26.1837 287.454 24.2677 289.567C20.6872 293.51 16.9242 296.685 17.277 300.858C17.5953 304.625 21.1637 306.692 25.3869 307.904C26.5608 308.239 28.0956 308.428 29.0364 308.998C30.1636 309.686 29.7217 310.557 29.4703 311.772C29.081 313.651 28.6288 315.727 29.229 317.35C30.486 320.752 37.4423 319.856 41.1911 321.213C45.0981 322.623 48.3542 325.048 50.1607 327.962C52.4436 331.647 50.0289 335.245 45.9212 339.487C42.3873 343.138 38.6892 346.731 34.9059 350.295C33.0515 351.997 31.2832 353.827 29.6101 355.777C28.1341 357.549 25.5227 360.181 25.0382 361.973" stroke="#E5E6E5" stroke-miterlimit="10"/>
<path d="M53.1961 425.693C53.9037 422.964 56.8293 419.857 58.6703 417.184C60.5112 414.511 62.9969 411.647 63.7937 408.906C65.4157 403.297 65.0487 398.021 67.0052 392.337C68.9374 386.72 69.7525 381.229 69.4504 376.006C69.2943 373.3 69.4301 370.566 67.06 368.825C65.1116 367.396 60.3206 367.526 57.1517 367.553C50.386 367.611 40.8304 368.089 40.2648 362.257C39.7579 357.051 47.1744 350.822 52.3587 346.256C57.5977 341.639 65.959 336.085 67.65 330.592C69.2963 325.241 64.039 320.607 60.351 317.54C56.2352 314.107 50.1893 312.175 46.0451 308.763C41.83 305.293 40.1492 300.635 34.9832 297.786C33.6288 297.038 32.6779 295.642 34.4864 294.094C35.8712 292.909 38.0447 291.892 39.6342 290.817C42.8964 288.61 46.1789 286.531 49.6581 284.539C56.7867 280.468 63.0557 276.047 69.4767 271.326C75.6889 266.763 83.3488 262.848 88.6892 257.756C91.4242 255.148 94.1431 252.275 95.3069 249.358C96.4362 246.528 96.1179 243.959 95.613 241.5C94.5689 236.401 91.7791 231.972 95.903 225.805C98.1535 222.439 102.188 220.961 104.8 223.094C106.859 224.784 107.208 227.537 108.342 229.717C109.505 231.955 111.535 233.694 113.106 235.713C114.677 237.731 116.034 239.982 117.972 241.826C119.88 243.633 122.11 245.122 124.46 246.605C126.988 248.196 129.529 249.442 130.37 252.045C131.86 256.597 135.834 260.859 139.818 264.051C141.874 265.693 144.252 267.096 146.347 268.711C148.536 270.402 149.996 272.558 151.539 274.646C152.291 275.673 153.238 276.578 154.051 277.561C154.864 278.544 155.268 279.852 156.362 280.603C158.935 282.359 164.085 278.858 167.064 276.998C173.878 272.741 179.837 267.757 185.704 262.844C191.134 258.294 197.944 252.243 205.486 250.205C213.329 248.09 219.825 250.908 224.938 253.224C226.313 253.847 227.298 254.776 228.79 255.303C230.246 255.817 231.858 256.201 233.352 256.679C236.314 257.626 239.232 258.584 242.05 259.666C244.343 260.545 250.961 261.185 250.756 257.198C250.687 255.853 249.134 255.131 248.459 254.074C247.729 252.929 247.786 251.587 247.678 250.21C247.459 247.445 244.077 246.525 241.523 245.185C239.003 243.864 236.922 241.952 235.661 239.808C233.08 235.423 232.265 230.338 231.12 225.373C228.806 215.347 223.302 206.896 213.521 200.985C208.706 198.068 203.842 194.972 201.302 190.551C198.788 186.173 196.705 181.487 194.71 176.867C192.715 172.248 193.119 166.798 190.335 162.474C187.551 158.149 182.288 155.394 178.841 151.477C176.704 149.063 179.267 146.165 181.246 142.992C182.951 140.252 184.451 137.496 185.412 134.749C185.412 134.749 188.577 130.46 188.946 128.521C189.315 126.582 184.08 117.119 180.715 114.999C179.068 113.968 180.694 113.067 180.252 111.285C179.871 109.759 182.142 108.248 182.509 106.545C184.348 98.053 193.37 94.5252 204.568 91.7387C210.054 90.3744 214.119 90.0629 218.229 85.9653C221.773 82.4302 224.026 79.2042 226.067 75.4132C227.961 71.8854 231.325 68.2755 233.683 64.7501C236.164 61.046 238.366 57.7476 240.014 53.9711C241.663 50.1945 244.89 46.9685 248.112 43.4818C249.763 41.7022 251.107 39.8912 252.676 38.0923C254.128 36.4262 255.979 34.8832 257.481 33.2243C258.9 31.6524 265.36 27.7092 267.848 26.5092C272.138 24.4398 272.649 29.187 274.287 30.4306C277.922 33.1857 281.687 29.3029 287.202 27.2215C292.838 25.0942 295.008 26.6396 300.006 26.7627C304.492 26.8738 312.1 23.0296 313.815 26.6009C315.575 30.2736 319.654 31.4568 320.268 35.6148C320.755 38.9084 316.967 45.9978 318.924 48.6998C320.834 51.3342 323.202 53.7706 325.489 56.1853C327.464 58.2667 327.646 63.2602 331.592 63.847C336.322 64.5496 341.553 60.1767 345.056 57.4095C349.3 54.0556 350.53 50.7354 351.595 46.9347C352.609 43.3127 354.079 39.7632 355.447 36.1195C356.769 32.5893 357.971 28.9721 358.653 25.495C358.973 23.8627 359.476 22.1145 359.526 20.5401C359.656 16.4738 359.833 11.5335 365.179 7.50099C368.03 5.34711 370.542 5.62964 373.421 4.15911C375.026 3.3333 375.245 2.04144 376.541 1.18665" stroke="#E5E6E5" stroke-miterlimit="10"/>
<path d="M289.039 21.919C288.589 21.1825 283.693 20.9531 282.468 21.1221C279.092 21.6051 279.102 22.3295 276.965 24.3723C274.974 26.2702 273.361 26.5986 276.347 27.3688C277.827 27.7528 280.459 27.0622 282.196 26.5406C283.976 26.007 290.15 23.7396 289.039 21.919Z" stroke="#E5E6E5" stroke-miterlimit="10"/>
<path d="M81.7609 411.323C76.1021 413.533 71.7593 412.62 71.9722 408.551C72.1526 405.086 72.9433 401.561 73.4948 398.028C74.5312 391.191 75.0065 384.25 74.914 377.303C74.8836 373.954 75.133 370.354 74.3565 367.229C73.5272 363.892 68.5599 363.243 64.1785 363.013C59.6065 362.772 54.771 363.378 50.1666 363.274C44.1409 363.136 44.6924 359.56 48.6602 355.658C55.3509 349.093 63.6635 342.706 69.0728 335.703C75.1411 327.841 72.5054 321.858 67.976 316.69C63.5459 311.62 56.1781 308.804 51.4966 303.97C49.3008 301.705 47.5957 298.257 49.1974 294.72C50.9309 290.89 55.1826 287.958 59.3632 285.005C67.6374 279.172 76.2319 273.56 85.536 268.827C90.2479 266.434 94.6597 264.049 99.106 261.298C103.982 258.275 107.798 255.952 113.219 256.227C121.972 256.679 127.489 262.491 133.001 266.128C135.957 268.079 139.52 269.641 141.922 271.993C144.384 274.407 145.977 277.259 147.678 280.084C149.321 282.815 151.494 285.573 155.677 286.432C160.026 287.328 165.409 285.312 169.758 282.569C178.421 277.109 184.212 269.552 191.577 263.302C195.044 260.354 199.708 256.65 204.527 255.414C209.346 254.177 214.155 255.414 216.945 257.249C218.431 258.229 219.534 259.49 220.911 260.55C222.33 261.641 224.066 262.312 225.763 263.155C229.279 264.948 232.938 266.312 236.685 267.226C240.409 268.124 245.008 269.469 249.795 268.417C255.115 267.246 257.424 262.114 258.227 258.946C259.164 255.262 257.469 252.449 256.258 249.44C255.03 246.383 253.772 243.577 251.595 240.976C247.386 235.935 242.99 230.849 240.914 224.714C239.878 221.652 239.647 218.288 238.848 215.14C237.956 211.617 238.335 208.806 241.028 204.815C242.528 202.588 243.4 200.821 240.782 199.949C238.87 199.312 236.421 199.428 234.372 198.971C230.367 198.08 226.738 196.508 223.064 195.245C219.307 193.953 215.765 192.563 212.663 190.657C209.48 188.69 207.814 186.108 206.354 183.126C204.934 180.229 203.568 177.309 202.502 174.26C201.435 171.21 201.313 167.783 200.287 164.734C199.775 163.208 198.432 162.056 197.585 160.689C196.737 159.323 195.841 157.9 194.917 156.531C193.112 153.856 190.779 151.342 189.951 148.201C189.124 145.059 190.878 141.198 192.257 137.634C193.737 133.816 194.803 130.53 194.164 127.08C193.526 123.629 192.806 120.925 189.445 118.812C187.798 117.781 186.146 117.032 185.704 115.26C185.323 113.734 185.686 111.949 186.055 110.247C187.891 101.757 196.914 98.2293 208.112 95.4428C213.598 94.0761 217.663 93.7646 221.773 89.6669C225.319 86.1343 227.571 82.9059 229.611 79.1149C231.505 75.5895 234.868 71.9771 237.226 68.4541C239.708 64.7501 241.912 61.4517 243.558 57.6727C245.204 53.8938 248.424 50.6702 251.656 47.1859C253.308 45.4038 254.65 43.5953 256.222 41.7939C257.673 40.1302 259.522 38.5849 261.025 36.926C262.444 35.354 263.127 32.0677 265.615 30.8676C269.905 28.7983 270.416 33.5455 272.054 34.789C275.69 37.5441 285.233 33.007 290.748 30.9256C296.382 28.7983 298.553 30.3436 303.549 30.4668C308.036 30.5754 312.774 28.4747 314.498 32.0484C316.257 35.7211 319.013 39.0147 319.627 43.1703C320.116 46.4639 320.519 49.6898 322.478 52.4015C324.386 55.0383 326.754 57.4723 329.041 59.8869C331.016 61.9708 331.198 66.9643 335.146 67.5486C339.874 68.2513 345.105 63.8808 348.608 61.1112C352.852 57.7572 354.082 54.4371 355.147 50.6364C356.16 47.0144 357.63 43.4649 358.999 39.8212C360.321 36.2933 361.525 32.6762 362.206 29.1967C362.527 27.5644 363.027 25.8161 363.078 24.2418C363.208 20.1755 363.386 15.2327 368.733 11.2026C371.581 9.04636 374.095 9.33129 376.972 7.85835C378.578 7.03496 378.797 5.7431 380.093 4.88832" stroke="#E5E6E5" stroke-miterlimit="10"/>
<path d="M165.018 381.041C166.208 379.392 166.966 377.583 166.765 376.055C166.386 373.157 163.154 370.515 160.107 369.238C152.656 366.116 138.533 371.305 130.206 376.482C120.608 382.439 111.235 388.275 100.655 392.936C97.0383 394.532 89.0256 398.226 86.1872 396.591C83.3487 394.957 82.7202 390.678 81.972 388C81.0211 384.593 80.5528 380.997 80.2162 377.39C79.8939 373.826 80.1595 369.905 79.018 366.606C77.8765 363.308 75.7011 361.118 71.7191 359.642C68.4427 358.435 62.8772 358.066 61.0728 355.743C60.0063 354.369 60.1482 353.524 60.9146 351.594C61.6567 349.723 63.5118 347.62 65.1156 345.835C68.4852 342.093 72.1813 338.55 74.7035 334.595C79.975 326.315 78.2212 320.151 73.7384 314.413C71.5508 311.612 68.9779 309.038 66.2205 306.592C63.5199 304.195 59.7083 302.246 57.5835 299.503C55.2701 296.504 59.0372 292.742 63.007 289.649C67.3567 286.24 71.8538 283.107 76.4796 280.26C85.4431 274.798 97.385 268.81 107.587 267.559C112.93 266.905 117.346 268.016 121.701 269.008C126.056 270.001 130.257 271.237 134.042 272.872C137.969 274.579 139.84 277.426 141.679 280.495C143.492 283.518 145.424 286.399 148.338 288.799C150.973 290.972 154.917 293.259 159.908 292.826C164.977 292.384 170.928 289.32 175.09 286.326C184.226 279.756 188.22 271.242 196.547 264.336C200.88 260.745 205.829 258.657 210.723 259.637C214.912 260.477 217.59 263.445 219.924 265.814C222.598 268.54 225.027 270.498 229.678 271.563C234.003 272.55 238.38 273.736 243.104 274.171C247.79 274.613 252.696 274.011 256.81 270.307C260.429 267.047 263.182 263.276 264.608 259.639C266.072 255.904 264.583 253.057 263.093 250.237C261.453 247.141 259.865 244.045 258.554 240.817C257.242 237.589 255.918 234.37 254.596 231.139C253.274 227.908 251.384 224.88 250.758 221.41C250.115 217.868 251.243 213.797 253.848 209.88C256.305 206.188 259.474 202.793 260.249 199.046C260.97 195.554 258.554 193.115 255.052 191.802C251.08 190.31 246.058 190.735 241.833 189.66C239.562 189.083 238.149 188.762 235.424 188.866C232.936 188.962 230.368 188.991 228.07 188.718C223.476 188.17 219.435 186.304 216.794 183.904C211.409 178.983 209.669 171.743 207.556 165.238C205.379 158.521 200.46 152.996 199.244 145.878C198.635 142.311 199.302 138.453 200.038 134.579C200.764 130.767 200.868 127.142 200.75 123.515C200.639 120.041 199.718 116.3 201.608 112.471C203.635 108.366 208.73 105.338 213.9 103.201C216.506 102.124 219.31 101.308 221.795 99.9677C224.281 98.6276 226.444 96.8287 228.594 95.2181C232.9 92.0018 236.314 88.2905 240.398 84.9462C242.425 83.2897 244.57 81.9109 246.216 80.0492C247.903 78.1392 248.118 76.5552 248.396 74.6694C248.933 71.0232 249.935 67.155 252.264 63.3833C254.391 59.94 258.446 55.6129 262.185 52.6864C264.393 50.9621 266.778 49.5825 269.281 48.5814C271.899 47.4876 273.253 45.9615 275.591 44.718C277.821 43.5348 280.633 42.5448 282.993 41.5789C285.616 40.5141 288.133 39.5096 290.829 38.8625C293.242 38.2805 295.529 38.3167 297.889 38.0632C300.525 37.7807 302.891 37.998 304.835 38.7876C306.593 39.4975 307.217 40.7024 308.409 41.7987C309.778 43.0567 311.424 44.066 312.606 45.4714C314.877 48.1734 316.207 51.3921 318.267 54.2148C322.46 59.9593 324.542 66.433 325.471 73.5248C325.876 76.6011 328.271 79.221 332.64 79.4601C337.352 79.7184 342.52 76.6615 345.906 73.4234C349.387 70.096 352.1 65.938 354.484 62.357C356.813 58.8794 358.636 54.9617 359.877 50.7667C361.019 47.0047 361.564 42.9094 364.113 39.1136C365.504 37.0624 367.117 35.2396 368.91 33.6927C369.897 32.8451 371.085 32.1086 371.922 31.1862" stroke="#E5E6E5" stroke-miterlimit="10"/>
<path d="M179.78 374.333C178.223 371.254 173.292 370.325 169.845 368.618C166.125 366.775 162.771 363.699 157.865 363.064C153.137 362.453 145.915 365.331 140.852 367.215C128.736 371.725 118.992 379.855 107.085 384.764C101.837 386.938 96.3633 388.145 92.3752 386.392C88.7258 384.779 87.0653 381.418 86.0414 378.262C83.7483 371.194 85.1391 363.131 78.8195 357.865C76.056 355.561 71.7415 354.096 69.493 351.486C67.2446 348.875 73.4608 343.539 75.8958 340.414C82.0959 332.446 86.4246 324.297 83.0549 317.511C79.8332 311.026 73.7933 305.977 70.7014 299.423C67.3703 292.363 80.3218 283.327 89.7597 278.998C95.3576 276.431 101.329 274.651 106.872 274.62C109.524 274.605 111.65 275.332 114.234 275.409C116.727 275.484 119.355 275.248 121.853 275.337C126.646 275.504 130.952 276.573 133.878 278.829C137.099 281.308 138.521 284.865 140.903 287.838C145.309 293.341 149.232 301.456 161.695 298.81C173.831 296.236 184.368 289.967 190.323 281.142C193.247 276.815 200.837 259.753 209.764 263.457C213.497 265.005 214.955 268.018 216.709 270.838C218.736 274.093 222.335 275.59 227.326 276.317C234.952 277.428 246.397 283.428 256.174 276.626C260.812 273.4 264.261 268.846 267.325 265.002C269.898 261.771 273.701 256.551 272.618 253.557C272.065 252.026 270.453 250.794 269.374 249.517C268.109 248.008 266.879 246.494 265.857 244.85C263.762 241.469 263.035 237.644 262.749 233.575C262.477 229.676 262.248 225.824 261.159 222.195C260.17 218.902 259.928 215.495 263.625 211.665C267.183 207.983 270.224 204.37 273.466 200.596C275.163 198.621 276.9 196.68 278.802 194.774C280.436 193.14 282.154 190.773 281.969 189.078C281.578 185.456 275.258 185.249 271.495 184.372C269.561 183.923 267.523 183.648 265.615 183.165C263.509 182.638 261.234 181.899 258.941 181.639C256.648 181.378 253.884 182.081 251.348 182.53C248.558 183.025 245.748 183.346 243.021 183.582C237.486 184.065 231.69 184.44 227.582 182.617C219.419 178.995 217.434 171.058 214.628 164.282C211.609 156.992 207.226 150.159 206.571 141.951C206.251 137.924 206.739 133.693 206.977 129.53C207.202 125.619 206.788 121.719 207.944 117.631C209.055 113.697 211.897 110.01 216.822 107.052C221.944 103.978 227.742 101.762 232.866 98.6445C237.837 95.6165 241.478 91.5309 246.367 88.3895C251.22 85.2697 256.788 83.2076 261.467 79.9382C263.73 78.3541 265.218 76.6204 266.333 74.6476C267.359 72.827 266.779 70.9291 266.739 69.2581C266.656 65.7641 265.832 62.5744 267.971 58.6916C269.109 56.6271 270.346 55.0527 273.01 53.6087C275.57 52.2227 277.782 51.0082 280.14 49.4386C284.114 46.7922 290.61 44.7469 295.008 44.4548C300.227 44.0974 303.104 46.0678 306.433 47.9271C310.082 49.9723 312.515 53.3552 314.543 56.4411C318.746 62.8496 319.611 70.4679 322.03 77.6249C323.153 80.9426 325.68 83.0313 328.774 85.1949C331.754 87.2811 332.966 91.473 336.952 92.7044C341.64 94.1677 347.386 88.9714 350.845 85.9869C354.648 82.7029 353.768 78.5521 354.766 75.1378C357.187 66.8387 361.862 58.3342 364.652 49.9892C365.901 46.2537 366.9 42.2623 370.88 38.7852" stroke="#E5E6E5" stroke-miterlimit="10"/>
<path d="M191.448 383.074C195.48 374.732 186.131 369.794 178.654 367.164C174.724 365.819 170.901 364.066 167.227 361.927C163.76 359.896 159.401 358.626 153.791 359.71C142.514 361.883 132.03 366.976 121.95 372.701C117.045 375.487 111.924 378.397 106.524 380.237C100.337 382.343 96.1234 381.135 93.143 378.305C87.683 373.102 90.1261 364.242 86.3631 358.186C84.4958 355.183 81.2944 352.835 79.8306 349.629C78.2938 346.248 80.9335 341.902 83.4294 337.976C85.9252 334.049 88.5447 330.133 90.7506 326.175C93.0984 321.964 92.0461 318.349 89.8889 315.394C85.8745 309.898 78.8959 304.231 80.0009 296.591C81.1788 288.441 93.3823 280.229 104.274 279.613C106.936 279.461 109.193 279.942 111.731 280.019C114.269 280.096 116.946 279.7 119.535 279.65C124.845 279.548 129.078 280.804 132.05 283.322C134.964 285.79 136.75 289.118 138.457 292.257C140.164 295.396 142.011 298.349 143.952 301.336C144.886 302.784 145.789 304.197 146.606 305.682C147.573 307.457 148.621 307.92 151.826 307.075C157.301 305.627 162.742 304.192 168.207 302.925C173.713 301.65 179.169 300.737 184.664 299.544C190.949 298.175 193.773 294.447 197.394 290.467C199.219 288.47 200.952 286.587 203.081 284.72C205.693 282.429 207.053 281.854 210.315 281.869C215.485 281.893 220.733 281.893 225.826 282.098C230.649 282.291 234.58 284.148 239.114 284.844C243.471 285.51 249.671 286.367 254.695 283.262C259.342 280.391 262.908 275.958 266.252 272.411C269.779 268.663 273.636 264.821 276.49 260.91C279.345 256.998 279.937 252.746 277.64 249.947C275.29 247.074 271.707 245.045 269.597 241.959C267.486 238.873 268.249 234.991 269.173 230.997C270.063 227.157 270.852 223.05 270.544 219.46C270.382 217.571 270.045 215.883 271.314 213.734C272.435 211.841 274.915 209.668 276.636 207.864C280.261 204.071 283.732 200.584 288.051 197.1C292.009 193.903 296.562 190.109 297.075 186.299C297.592 182.539 294.15 179.874 289.669 179.243C284.878 178.567 280.006 178.171 275 177.819C270.134 177.473 265.471 176.669 260.343 176.812C250.547 177.087 236.304 182.94 230.112 177.502C227.302 175.035 226.077 171.502 224.566 168.353C223.001 165.086 221.359 161.855 219.674 158.644C216.351 152.308 213.505 145.832 213.348 138.288C213.271 134.553 213.515 130.74 213.49 126.993C213.468 123.318 212.842 119.304 214.804 115.299C217.014 110.786 221.16 108.055 226.947 105.555C229.568 104.43 232.35 103.546 234.884 102.238C237.471 100.902 239.513 99.0986 241.648 97.3938C245.999 93.8974 250.366 90.4034 255.688 87.7545C260.806 85.2071 266.57 84.8883 271.705 84.2122C274.309 83.8694 277.097 83.314 278.283 81.049C279.27 79.1656 278.485 77.5043 278.473 75.8141C278.473 73.9041 278.895 71.9965 278.23 70.2604C277.565 68.5242 276.235 67.3434 276.49 65.2717C277.032 61.0412 278.463 57.5761 283.037 53.5726C287.137 49.9869 293.927 49.1828 298.278 49.7889C302.88 50.4288 306.402 53.2781 308.746 55.8786C311.223 58.6289 312.821 61.7632 314.266 65.0302C317.158 71.5715 317.139 79.3998 321.229 85.3954C323.325 88.4524 324.969 91.3499 325.657 95.0589C325.987 96.8336 325.89 98.7533 326.265 100.506C326.64 102.259 327.81 103.715 328.953 105.094C330.097 106.473 331.232 107.91 332.568 109.218C333.665 110.291 334.62 112.406 337.424 111.5C342.217 109.952 343.817 103.918 345.415 101.117C347.645 97.2103 350.889 93.1489 354.336 89.4834C358.06 85.4968 359.767 81.8241 361.363 77.6733C362.902 73.6626 363.662 69.5528 364.404 65.6314C365.146 61.71 366.527 57.7476 368.139 53.7513C369.582 50.1752 370.957 45.0996 375.622 42.1175" stroke="#E5E6E5" stroke-miterlimit="10"/>
<path d="M389.057 150.75C386.17 152.6 382.782 154.437 380.239 156.545C377.603 158.736 376.413 161.15 375.006 163.577C373.731 165.777 372.243 168.534 369.652 170.314C368.267 171.303 366.784 172.083 365.238 172.634C363.506 173.219 361.88 173.153 360.169 173.793C356.597 175.124 353.803 176.375 350.08 176.901C346.719 177.384 343.807 177.319 340.348 178.396C337.147 179.393 333.982 180.489 330.767 181.402C327.297 182.387 324.449 183.749 321.104 185.154C317.272 186.765 314.488 187.023 312.14 185.427C310.175 184.089 308.949 182.274 307.659 180.513C306.406 178.804 304.951 177.205 303.647 175.525C302.003 173.405 300.969 172.579 297.096 172.598C290.772 172.627 284.252 173.262 278.08 172.931C272.099 172.613 266.347 172.096 259.914 172.716C253.55 173.332 246.271 175.049 240.316 174.648C236.815 174.407 235.834 173.272 234.725 171.108C233.741 169.191 233.103 167.119 232.089 165.214C228.046 157.562 221.461 151.236 220.214 142.318C219.587 137.849 220.214 133.121 220.37 128.449C220.528 123.931 219.381 119.756 220.321 115.071C220.802 112.671 222.856 110.042 226.392 108.839C229.78 107.685 233.255 107.183 236.529 105.512C242.522 102.457 247.145 97.4588 252.534 93.8006C259.273 89.2128 264.823 89.8672 271.619 89.6957C274.534 89.6257 278.38 89.2901 280.507 86.7643C282.389 84.5284 282.804 81.7515 282.817 79.6338C282.841 75.0122 281.872 70.6393 281.754 66.0659C281.645 61.8644 284.739 55.3207 292.188 54.1689C299.095 53.104 303.521 56.3252 306.435 59.5656C307.899 61.2245 308.823 63.0645 309.742 64.9672C310.66 66.87 312.128 68.6303 312.783 70.6537C314.143 74.8166 314.19 79.501 315.759 83.5891C317.302 87.6046 318.731 91.4826 318.971 95.9762C319.447 104.91 322.012 113.251 324.266 121.608C325.033 124.45 328.512 131.706 334.951 127.009C337.636 125.054 339.097 122.238 341.056 119.995C343.015 117.752 345.054 115.569 346.621 113.202C349.805 108.402 351.372 103.43 353.807 98.5841C356.191 93.8417 358.946 88.8844 362.525 84.2579C366.174 79.5373 370.479 74.9277 371.738 70.0114C372.94 65.3005 371.13 60.8019 373.336 56.0064C374.755 52.9374 378.149 52.5004 379.594 54.6035C380.608 56.0885 379.87 59.1214 380.138 61.0072C380.484 63.2537 381.115 65.4243 382.009 67.4447" stroke="#E5E6E5" stroke-miterlimit="10"/>
<path d="M288.812 256.252C285.724 255.87 285.029 252.994 284.021 251.113C282.928 249.07 281.862 247.136 280.185 245.402C278.545 243.712 276.795 242.073 275.116 240.397C273.166 238.443 273.273 236.471 274.149 233.573C275.651 228.628 276.763 223.598 278.843 218.602C280.941 213.568 285.56 208.176 291.115 203.981C295.92 200.359 304.158 195.516 310.301 194.528C317.233 193.413 320.7 198.935 322.061 202.622C323.628 206.867 323.8 211.58 324.052 216.255C324.169 218.547 324.434 220.826 324.844 223.069C325.26 225.317 326.225 227.476 326.209 229.855C326.189 232.866 323.94 234.838 320.218 237.149C317.073 239.098 314.135 240.735 311.408 243.055C308.779 245.294 306.498 247.75 303.659 249.865C300.689 252.079 297.196 253.315 293.844 255.01C292.192 255.848 290.122 257.145 288.808 256.252" stroke="#E5E6E5" stroke-miterlimit="10"/>
<path d="M385.071 147.573C382.421 149.263 379.617 150.953 377.176 152.832C374.599 154.807 373.538 157.036 371.781 159.26C368.314 163.64 364.076 167.984 357.572 170.159C354.444 171.205 351.49 171.466 348.519 171.623C345.6 171.775 342.7 171.529 339.598 172.651C333.66 174.796 327.894 178.826 321.696 179.412C315.411 180.016 312.85 175.836 310.07 173.084C307.341 170.391 302.923 167.24 297.139 167.653C294.244 167.858 291.162 168.643 288.242 168.834C285.378 169.03 282.506 169.013 279.644 168.785C273.944 168.315 268.634 167.779 262.396 168.341C256.253 168.897 250.612 170.126 245.833 168.22C241.493 166.489 239.865 162.039 237.35 159.028C234.751 155.913 231.925 153.083 229.735 149.717C227.46 146.218 225.826 142.637 225.962 138.192C226.088 134.002 227.533 129.567 227.706 125.382C227.848 122.002 225.117 115.859 230.362 112.657C233.091 110.988 236.197 109.87 238.93 108.192C241.663 106.514 244.145 104.652 246.667 102.829C249.189 101.006 251.691 99.1468 254.276 97.3648C257.333 95.2592 259.371 94.3489 262.866 94.2716C265.772 94.2112 268.647 94.2209 271.54 94.1871C274.253 94.1557 277.979 94.233 280.706 92.463C285.718 89.2081 286.241 83.1087 286.308 79.6388C286.391 75.319 285.574 71.2913 286.195 66.8411C286.482 64.7669 286.928 62.3668 289.136 60.3216C291.614 58.03 294.848 58.1242 297.309 58.7206C302.465 59.9594 304.762 63.7648 306.2 67.4689C306.93 69.3499 308.545 70.7553 309.275 72.6315C309.975 74.4328 310.086 76.4563 310.664 78.3059C311.867 82.1983 313.036 86.1246 313.428 90.3019C313.811 94.3899 312.775 98.8232 313.172 102.899C313.57 106.975 314.764 110.962 315.887 114.803C317.01 118.645 317.594 122.74 318.865 126.534C320.082 130.226 321.426 134.362 325.274 136.617C327.065 137.668 329.879 138.667 332.776 138.185C336.628 137.545 337.415 135 338.53 132.701C340.716 128.188 343.088 123.767 346.68 119.374C350.273 114.982 352.52 110.515 354.938 106.002C356.177 103.689 357.635 101.385 358.971 99.0768C360.242 96.8819 360.796 94.6628 361.86 92.4582C364.074 87.8583 367.381 83.5505 373.741 80.5998C377.316 78.941 379.651 79.0593 382.595 79.6122" stroke="#E5E6E5" stroke-miterlimit="10"/>
<path d="M289.568 249.399C288.007 246.289 286.61 243.167 284.337 240.414C282.107 237.722 280.485 234.706 281.529 230.806C283.492 223.528 286.991 214.386 295.823 208.084C300.082 205.044 306.092 202.75 310.8 203.269C315.609 203.798 317.563 207.179 318.052 210.562C318.551 214.022 318.188 217.743 318.273 221.324C318.354 224.721 319.333 228.669 317.294 232.417C314.988 236.647 308.146 240.03 304.178 243.715C299.906 247.684 294.332 252.765 289.568 249.399Z" stroke="#E5E6E5" stroke-miterlimit="10"/>
<path d="M272.212 163.99L271.874 163.97" stroke="#E5E6E5" stroke-miterlimit="10"/>
<path d="M296.981 236.794C294.562 236.176 292.236 234.667 291.026 233.068C289.815 231.47 290.673 228.915 291.567 226.812C293.439 222.4 294.677 217.32 298.663 213.061C303.138 208.275 311.787 206.097 312.408 211.563C312.872 215.705 310.184 220.705 309.902 225.03C309.742 227.512 309.415 229.915 306.933 232.465C304.906 234.558 299.837 237.451 296.981 236.794Z" stroke="#E5E6E5" stroke-miterlimit="10"/>
<path d="M349.135 164.915C345.151 164.876 341.911 163.43 337.753 163.794C333.268 164.188 329.035 165.518 325.167 164.55C321.669 163.674 317.665 163.872 314.344 162.647C310.832 161.348 308.685 159.668 303.73 160.197C299.533 160.641 295.178 161.966 291.001 162.307C287.125 162.594 283.233 162.337 279.406 161.544C275.666 160.82 272.353 159.711 268.296 159.397C264.443 159.1 260.437 158.982 257.288 157.719C254.14 156.456 251.839 154.486 249.584 152.53C247.329 150.574 244.353 148.988 242.309 146.856C238.011 142.374 237.401 136.955 238.599 130.482C239.181 127.343 239.763 124.334 239.836 121.284C239.868 120.014 239.457 118.283 240.29 116.904C241.123 115.525 243.643 114.007 245.156 112.864C252.538 107.275 260.202 103.257 269.433 101.414C278.03 99.6973 287.883 98.1834 292.165 90.6883C293.053 89.1421 293.855 87.5289 294.568 85.8589C295.219 84.3281 296.484 82.6861 296.255 81.2711C296.026 79.8561 294.787 78.7913 294.174 77.5284C293.562 76.2655 293.493 74.824 293.552 73.3559C293.621 71.6656 294.399 70.8543 295.999 69.2751C299.089 70.5211 300.774 72.786 300.796 75.7077C300.808 77.1179 300.226 78.8468 300.403 80.1869C300.565 81.3943 302.266 82.2853 302.937 83.3429C304.559 85.8879 305.046 88.0249 304.415 91.3571C303.854 94.332 302.771 97.4252 302.422 100.361C301.739 106.12 304.306 111.416 305.682 116.552C307.083 121.818 308.906 126.935 310.415 132.158C311.177 134.794 311.438 137.591 312.14 140.242C312.809 142.772 313.176 145.861 314.656 148.034C316.373 150.543 320.284 150.523 324.195 150.75C328.009 150.992 331.677 151.439 335.985 150.439C339.886 149.533 344.64 147.172 347.59 144.656C350.853 141.874 350.954 138.67 350.914 135.912C350.869 132.983 350.267 130.409 351.319 127.251C352.321 124.216 354.062 121.132 355.859 118.095C357.655 115.057 359.346 111.993 361.1 108.945C362.853 105.898 365.138 102.909 366.914 99.8446C368.591 96.9639 369.627 93.4361 372.575 90.78C375.712 87.9549 380.888 87.8824 384.519 87.6579" stroke="#E5E6E5" stroke-miterlimit="10"/>
<path d="M292.913 159.414C284.601 160.047 278.762 157.784 272.15 155.978C268.906 155.09 265.054 155.065 261.745 154.235C258.83 153.499 256.062 152.096 253.594 150.106C249.081 146.568 244.305 143.014 243.903 137.308C243.499 131.384 244.354 125.434 246.391 120.007C248.718 113.874 257.084 108.562 265.005 105.867C269.06 104.493 273.156 103.633 277.219 102.672C281.332 101.706 285.59 100.289 289.676 99.4848C294.58 98.519 295.961 100.806 297.043 103.426C298.057 105.881 298.826 108.441 299.582 110.993C301.117 116.17 302.552 121.35 304.34 126.428C306.129 131.506 307.824 136.465 308.294 141.992C308.525 144.675 308.714 147.573 307.751 150.509C306.648 153.86 303.209 156.063 298.965 157.813C296.958 158.641 294.933 159.298 292.924 159.417" stroke="#E5E6E5" stroke-miterlimit="10"/>
<path d="M292.463 156.304C285.438 157.381 279.564 155.063 274.552 153.192C269.253 151.212 262.59 151.337 258.091 148.469C253.85 145.767 250.352 142.224 249.335 137.716C248.321 133.247 249.209 127.768 250.957 122.721C252.797 117.409 257.359 112.355 264.707 109.385C271.02 106.833 279.461 104.343 285.699 104.095C293.086 103.802 294.483 109.383 295.634 113.661C296.851 118.199 298.012 122.695 299.892 126.976C301.704 131.124 303.965 135.142 304.338 139.848C304.679 144.195 304.338 150.596 297.633 154.6C296.021 155.567 294.264 156.146 292.463 156.304Z" stroke="#E5E6E5" stroke-miterlimit="10"/>
<path d="M283.935 152.878C278.814 151.852 275.014 149.512 269.652 148.773C264.251 148.02 260.275 145.875 257.357 142.872C254.5 139.933 253.708 135.77 254.21 131.547C254.693 127.456 255.776 122.552 258.73 118.327C262.189 113.376 268.204 111.524 274.522 109.443C277.348 108.511 280.724 107.27 283.404 107.405C286.433 107.567 288.09 108.873 289.274 110.597C291.53 113.874 291.504 118.281 292.621 122.05C293.758 125.872 295.865 129.214 297.844 132.648C299.823 136.081 301.619 139.771 300.439 144.258C299.146 149.162 294.815 153.532 287.83 153.339C286.525 153.297 285.223 153.146 283.935 152.888" stroke="#E5E6E5" stroke-miterlimit="10"/>
<path d="M283.832 149.63C280.029 148.273 276.588 146.563 272.292 145.75C267.965 144.929 264.604 144.038 261.982 141.582C256.843 136.77 259.726 128.301 263.949 121.282C266.329 117.327 271.084 114.98 276.136 112.985C282.64 110.419 284.678 112.406 285.327 116.332C285.866 119.604 286.119 122.989 287.47 125.962C288.798 128.891 290.683 131.542 292.966 133.959C295.494 136.644 298.221 139.834 296.792 144.033C296.312 145.344 295.602 146.518 294.71 147.475C293.818 148.433 292.764 149.153 291.62 149.587C288.944 150.598 285.9 150.115 283.832 149.628" stroke="#E5E6E5" stroke-miterlimit="10"/>
<path d="M284.722 146.013C283.163 144.188 281.289 142.787 279.232 141.908C276.823 140.942 274.017 141.171 271.195 140.821C264.845 140.034 263.162 136.023 266.817 130.808C268.298 128.697 271.075 125.882 274.319 125.862C277.024 125.845 278.603 128.335 279.637 129.757C282.188 133.268 283.844 136.709 289.014 138.414C291.524 139.237 294.332 141.06 293.039 143.748C291.374 147.22 287.455 146.921 284.726 146.008" stroke="#E5E6E5" stroke-miterlimit="10"/>
<path d="M385.18 141.459C381.107 145.907 375.302 149.41 371.474 154.015C367.647 158.62 364.102 163.41 357.239 166.088C354.157 167.262 350.946 167.887 347.71 167.943C344.578 168.018 342.033 167.296 338.587 168.252C335.103 169.218 331.792 171.256 328.672 172.994C327.062 173.89 324.929 175.315 323.105 175.375C321.385 175.431 320.708 174.243 319.861 173.477C316.118 170.109 312.27 166.286 305.853 165.207C302.621 164.664 298.943 165.328 295.484 165.277C291.632 165.221 287.78 165.185 283.95 165.096C281.472 165.036 279.49 165.132 277.219 164.707C274.722 164.228 272.203 163.921 269.676 163.79C265.068 163.567 259.975 164.33 255.539 163.775C250.807 163.181 247.952 159.187 245.253 156.792C239.576 151.738 231.341 146.392 231.781 138.334C231.998 134.319 233.097 130.168 233.553 126.111C233.991 122.2 232.288 117.868 236.979 113.797C241.113 110.184 247.078 106.76 251.958 103.744C257.658 100.229 262.639 98.7943 268.868 98.1182C274.403 97.5145 280.955 97.4831 285.325 92.9508C289.075 89.0704 290.268 84.3353 290.075 80.6095C289.872 76.6833 289.142 72.7618 290.075 68.5652C290.454 66.8556 291.423 63.4533 294.608 63.2288C295.695 63.1435 296.784 63.33 297.807 63.7762C298.829 64.2224 299.762 64.9185 300.545 65.8197C303.051 68.6666 305.052 72.4817 305.968 76.0772C306.903 79.7595 308.578 83.2125 308.977 87.0711C309.383 90.9973 308.679 95.0733 307.678 99.2868C306.623 103.727 308.47 106.924 309.338 110.773C310.173 114.465 311.445 117.996 312.227 121.692C313.038 125.532 313.868 129.359 315.153 133.024C315.773 134.792 315.437 136.927 316.455 138.511C317.446 140.053 318.703 141.773 320.24 142.987C323.153 145.286 329.593 146.143 334.872 145.189C336.688 144.86 338.432 144.105 340.002 142.968C342.325 141.278 342.544 139.16 343.067 137.31C343.84 134.61 344.775 131.979 345.865 129.439C350.528 118.491 359.535 107.825 364.425 96.9036C365.609 94.2619 366.337 91.1398 368.885 88.6334C371.564 85.9942 375.838 84.5888 379.475 84.2339C381.366 84.0431 382.883 84.2339 384.649 84.2556" stroke="#E5E6E5" stroke-miterlimit="10"/>
</svg>
