<svg width="335" height="224" viewBox="0 0 335 224" fill="none" xmlns="http://www.w3.org/2000/svg">
<path d="M311.215 222.597C310.955 220.853 311.739 219.545 311.863 217.862C311.983 216.249 311.994 214.874 312.5 213.309C312.982 211.799 313.729 210.423 314.693 209.27C315.657 208.116 316.817 207.209 318.099 206.607C320.665 205.36 323.28 204.652 325.755 203.134C328.59 201.393 330.843 201.592 333.91 202.546" stroke="#E5E6E5" stroke-miterlimit="10"/>
<path d="M287.487 222.597C287.754 216.786 293.296 212.544 291.767 206.335C290.348 200.569 291.724 194.364 296.808 191.524C299.262 190.152 301.846 192.299 303.923 193.613C306.122 195.003 308.635 196.113 311.177 196.109C313.474 196.109 316.638 195.951 318.667 194.602C320.569 193.332 321.056 190.879 322.007 188.818C324.561 183.288 327.193 180.901 332.22 179.083" stroke="#E5E6E5" stroke-miterlimit="10"/>
<path d="M307.405 146.288C312.273 142.295 317.562 145.951 320.83 150.536C322.427 152.756 323.892 155.101 325.214 157.553C325.897 158.849 326.658 160.088 327.321 161.39C327.984 162.692 328.274 164.141 328.925 165.386C329.958 167.364 332.667 170.798 330.81 173.296C329.567 174.971 327.204 174.253 325.713 173.465C323.163 172.118 321.814 169.042 319.417 167.514C317.36 166.204 314.951 166.32 312.731 165.256C309.627 163.771 307.679 161.978 307.068 158.001C306.587 154.862 305.417 148.964 307.405 146.288Z" stroke="#E5E6E5" stroke-miterlimit="10"/>
<path d="M239.378 222.597C240.379 219.545 242.103 216.9 243.986 214.471C245.798 212.143 247.814 209.279 250.823 209.556C253.299 209.783 256.203 212.711 258.292 214.117C260.713 215.744 263.139 217.338 265.684 218.701C268.229 220.064 271.334 221.419 273.944 219.344C275.166 218.373 275.705 216.666 276.574 215.348C277.416 214.074 278.285 212.815 279.137 211.545C280.893 208.927 282.057 206.146 282.546 202.895C283.034 199.643 283.558 196.514 285.064 193.668C286.494 190.972 288.798 188.616 290.915 186.629C293.06 184.614 295.193 182.399 297.663 180.906C298.904 180.152 300.192 179.507 301.515 178.977C302.922 178.428 304.322 178.303 305.46 177.101C307.778 174.66 307.513 171.116 305.635 168.467C303.812 165.901 301.852 163.747 300.243 160.963C298.73 158.347 297.377 155.346 296.523 152.366C295.651 149.297 294.794 146.044 294.254 142.879C293.617 139.174 294.827 136.572 297.92 135.113C303.097 132.672 309.283 135.849 314.285 137.855C316.903 138.909 319.462 140.407 322.004 141.705C324.622 143.041 327.427 143.601 330.103 144.728C331.416 145.292 332.69 145.976 333.911 146.773" stroke="#E5E6E5" stroke-miterlimit="10"/>
<path d="M228.792 222.597C229.419 219.441 229.618 215.934 230.487 212.876C231.051 210.894 232.201 210.461 233.815 209.824C235.241 209.266 236.203 208.131 237.399 207.1C242.173 202.978 247.297 200.559 253.291 199.775C256.027 199.417 259.346 199.869 261.858 198.461C264.578 196.935 265.827 193.737 266.92 190.697C267.52 189.017 268.372 187.939 269.29 186.486C270.42 184.698 270.872 183.516 273.005 183.878C276.009 184.386 278.688 184.724 281.587 183.453C284.333 182.248 286.677 180.604 288.709 178.126C290.536 175.901 292.837 172.651 293.247 169.565C293.664 166.353 292.364 162.766 291.761 159.651C291.147 156.473 290.817 153.151 289.758 150.113C288.66 146.97 286.991 144.372 284.83 142.071C283.015 140.136 279.814 137.511 279.744 134.386C279.569 127.062 291.788 130.081 295.361 129.953C298.284 129.847 301.04 129.76 303.941 130.338C306.764 130.899 309.502 131.965 312.32 132.559C318.08 133.768 323.796 135.265 329.657 135.448C331.078 135.493 332.499 135.609 333.918 135.721" stroke="#E5E6E5" stroke-miterlimit="10"/>
<path d="M219.882 222.596C221.999 219.376 222.355 216.568 221.786 212.686C221.231 208.906 221.612 205.846 223.649 202.717C227.75 196.41 234.252 195.957 240.435 194.376C246.244 192.893 252.686 190.406 256.21 184.584C258.13 181.424 259.247 178.277 262.227 176.193C264.893 174.338 267.759 172.901 270.748 171.921C273.771 170.904 276.693 170.542 279.275 168.259C281.766 166.059 283.063 162.825 283.904 159.433C284.674 156.335 285.799 151.45 283.604 148.961C281.408 146.473 279.032 144.282 276.833 141.857C274.796 139.605 272.279 136.885 271.518 133.668C270.645 129.965 272.513 126.979 275.259 125.225C281.047 121.526 287.302 124.543 293.39 125.278C296.45 125.646 299.51 125.502 302.551 126.092C305.42 126.659 308.459 128.201 311.362 128.189C314.406 128.175 317.471 127.729 320.536 127.703C323.648 127.676 326.591 127.176 329.612 126.358C331.085 125.976 332.523 125.431 333.906 124.731" stroke="#E5E6E5" stroke-miterlimit="10"/>
<path d="M196.379 222.597C195.487 220.599 195.476 217.584 195.829 215.393C196.276 212.626 198.273 211.861 200.474 211.598C204.22 211.153 209.079 211.661 211.645 207.781C214.074 204.103 215.761 199.782 218.195 196.059C219.417 194.187 220.541 192.266 221.636 190.295C222.711 188.358 223.05 185.886 224.107 184.059C225.485 181.679 228.309 183.361 230.042 184.263C231.931 185.249 233.92 186.151 235.996 186.448C239.996 187.021 244.009 185.145 247.49 183.066C249.291 181.99 251.111 181.066 252.304 179.134C253.496 177.201 254.599 175.227 255.995 173.478C258.722 170.06 262.279 167.523 265.791 165.274C269.207 163.081 273.106 160.912 275.065 156.817C277.423 151.883 274.822 148.117 271.474 145.017C268.365 142.148 264.841 139.835 261.666 137.062C259.921 135.546 259.357 133.361 258.327 131.239C257.331 129.188 256.315 127.341 254.871 125.671C253.597 124.196 251.667 122.051 251.454 119.887C251.207 117.364 253.407 115.547 255.421 115.547C257.435 115.547 259.464 116.577 261.417 117.012C263.501 117.476 265.353 117.695 267.467 117.313C271.361 116.607 275.461 115.482 279.428 115.862C283.429 116.245 287.108 119.099 290.934 120.359C295.069 121.722 298.88 120.623 303.043 121.083C305.327 121.335 306.996 122.285 309.304 121.476C311.297 120.778 313.367 120.157 315.469 120.241C319.483 120.401 323.744 121.461 327.512 119.301C331.564 116.971 333.098 112.994 332.435 108.003C332.105 105.531 332.518 103.678 333.913 101.719" stroke="#E5E6E5" stroke-miterlimit="10"/>
<path d="M186.248 222.597C185.532 217.201 186.381 209.755 189.041 205.157C192.338 199.446 197.524 199.245 202.655 197.108C205.131 196.079 207.26 194.598 209.41 192.883C211.505 191.208 213.935 189.471 215.586 187.221C217.237 184.971 218.071 182.075 219.775 179.823C221.433 177.622 223.907 175.699 226.427 175.119C229.146 174.491 231.545 175.158 234.207 175.677C236.959 176.212 239.213 176.232 241.74 174.717C246.378 171.933 250.352 167.765 254.388 163.993C257.62 160.971 264.663 155.633 262.672 149.995C261.713 147.281 259.395 145.082 257.697 142.966C255.959 140.795 254.327 138.51 252.81 136.124C246.727 126.603 239.09 117.348 229.311 112.982C224.558 110.86 218.632 110.455 214.605 106.793C209.302 101.971 222.264 98.7237 224.771 98.1459C229.867 96.972 235.254 95.8408 240.429 96.911C242.904 97.4237 245.463 98.5386 247.771 99.6738C250.232 100.895 251.977 102.907 254.271 104.396C263.696 110.499 275.068 106.75 285.017 111.148C287.576 112.28 289.65 113.871 291.858 115.681C292.98 116.603 293.877 117.339 295.247 116.878C296.546 116.44 297.839 115.848 298.766 114.688C300.48 112.542 301.173 109.159 303.507 107.623C305.5 106.312 309.155 108.089 311.243 108.748C313.732 109.521 316.158 110.55 318.492 111.822C321.075 113.246 323.266 114.509 325.966 112.957C328.82 111.315 327.38 108.095 327.174 105.153C326.994 102.103 327.622 99.0616 328.973 96.441C330.322 93.8633 332.307 92.0404 333.916 89.7068" stroke="#E5E6E5" stroke-miterlimit="10"/>
<path d="M178.037 222.597C178.716 218.751 180.21 215.171 180.793 211.262C181.095 209.25 180.896 207.216 181.268 205.214C181.617 203.334 182.315 201.533 182.963 199.765C184.335 195.981 185.84 192.561 189.091 190.492C192.134 188.555 195.48 187.684 198.765 186.468C202.099 185.237 205.248 183.405 208.096 181.038C210.838 178.747 213.01 175.748 215.41 173.038C220.155 167.675 226.001 162.359 232.499 160.184C237.572 158.487 249.053 158.739 250.752 151.364C251.625 147.546 248.134 143.721 246.465 140.795C245.557 139.208 245.22 137.078 244.245 135.607C243.292 134.173 241.394 133.288 240.138 132.214C234.481 127.376 229.464 122.611 222.699 119.84C216.167 117.162 209.624 114.507 203.071 111.875C199.796 110.562 196.695 108.619 193.354 107.631C190.013 106.642 186.559 105.669 183.097 105.667C181.328 105.667 179.683 106.54 177.903 106.481C176.208 106.428 174.56 105.763 172.982 105.122C169.622 103.755 166.413 103.218 162.93 102.557C159.823 101.967 155.872 100.264 153.767 97.4968C152.683 96.0726 151.66 94.1683 152.351 92.262C153.098 90.199 154.552 89.0536 156.395 89.3831C159.871 89.9935 162.808 92.0016 165.934 93.7228C169.167 95.5029 172.45 95.916 175.988 95.7349C182.869 95.3829 189.749 94.9679 196.621 94.4226C200.032 94.152 203.544 94.0401 206.92 93.324C210.295 92.6078 213.563 91.261 216.972 90.6161C223.838 89.314 230.586 88.8827 237.523 88.4554C239.418 88.3394 240.965 88.2031 242.759 89.0271C244.341 89.7494 245.756 90.8053 247.249 91.7228C250.338 93.6292 253.447 95.2039 256.267 97.6351C259.287 100.237 262.028 101.539 265.815 100.605C267.561 100.176 269.187 99.5048 270.997 99.8426C272.691 100.158 274.441 100.797 276.072 101.401C279.304 102.599 282.594 103.435 285.988 103.73C289.784 104.054 292.702 103.12 296.197 101.586C299.4 100.162 302.819 100.003 306.184 100.65C309.468 101.283 313.356 102.367 316.648 101.283C320.066 100.16 321.97 96.447 322.855 92.7787C323.698 89.2896 323.344 84.0894 325.742 81.4221C328.045 78.8586 331.178 76.757 333.913 74.8486" stroke="#E5E6E5" stroke-miterlimit="10"/>
<path d="M107.858 213.624C108.294 213.737 108.701 213.973 109.041 214.312C111.757 216.914 108.104 223.296 105.477 219.632C105.304 219.389 105.147 219.131 105.007 218.861C103.705 216.361 105.688 213.103 107.858 213.624Z" stroke="#E5E6E5" stroke-miterlimit="10"/>
<path d="M57.2842 222.596C57.9929 219.301 56.3242 213.602 54.8563 210.821C52.2276 205.844 49.2411 209.303 48.9374 214.033C48.8676 215.128 48.2602 216.135 47.7488 217.03C46.6055 219.028 45.6123 221.042 45.6123 223.481" stroke="#E5E6E5" stroke-miterlimit="10"/>
<path d="M94.6754 222.597C94.5742 220.625 95.6791 219.014 96.4331 217.327C97.1872 215.641 97.7911 213.834 98.6603 212.194C100.312 209.081 102.916 205.865 106.091 204.835C109.058 203.873 113.324 205.102 115.652 207.358C118.208 209.834 119.611 213.565 122.35 215.879C123.877 217.167 125.705 217.846 127.262 219.042C128.115 219.7 128.862 219.895 129.721 220.395C130.634 220.928 130.681 221.423 130.171 222.597" stroke="#E5E6E5" stroke-miterlimit="10"/>
<path d="M165.908 222.596C166.518 220.605 168.701 219.482 170.164 218.324C171.678 217.11 172.989 215.584 174.032 213.82C176.177 210.227 175.837 205.798 176.095 201.651C176.346 197.582 176.339 193.188 177.491 189.279C178.734 185.06 181.464 182.476 184.889 180.598C188.205 178.767 191.748 177.78 195.169 176.299C198.579 174.812 201.83 172.871 204.859 170.517C210.833 165.899 216.293 159.665 219.273 152.091C220.055 150.103 220.826 148.516 222.47 147.318C224.025 146.186 225.734 145.23 227.183 143.928C230.29 141.143 231.306 136.789 228.883 132.972C226.719 129.56 222.914 127.953 219.632 126.413C216.176 124.785 212.72 123.158 209.24 121.614C195.463 115.488 180.987 113.738 166.423 111.704C162.854 111.205 159.305 110.617 155.741 110.092C153.887 109.82 152.128 109.16 150.346 108.55C148.647 107.968 146.506 107.828 145.057 106.613C142.364 104.355 140.187 100.103 138.672 96.7744C136.818 92.7054 136.279 88.553 139.421 85.2855C142.05 82.5532 144.811 79.7924 147.223 76.8118C149.234 74.3257 152.838 68.5721 156.218 70.4458C159.567 72.3034 162.419 75.2534 165.818 77.0661C169.079 78.8293 172.568 79.9513 176.144 80.3865C179.834 80.8239 183.574 80.6367 187.276 80.8564C190.869 81.07 194.433 81.601 197.988 82.2073C201.664 82.8319 205.319 83.6132 209.058 83.3283C212.643 83.0537 216.18 82.2155 219.754 81.8065C223.476 81.3834 227.157 81.7781 230.864 82.2134C234.425 82.6203 238.071 82.6203 241.602 83.2978C243.44 83.6478 245.249 84.1116 246.963 84.9621C248.677 85.8125 250.059 87.32 251.761 88.1501C253.389 88.9416 255.292 89.143 256.997 89.6618C258.743 90.1887 260.535 91.2243 262.304 91.4725C264.124 91.7309 265.983 91.2304 267.811 91.3036C269.698 91.3756 271.567 91.7634 273.359 92.4551C276.889 93.8569 279.659 96.5852 283.553 96.7398C287.892 96.9148 289.744 93.5701 292.217 90.1968C293.485 88.4695 295.035 87.2712 297.094 87.9121C298.759 88.4289 300.156 90.1928 301.632 91.1876C304.542 93.1448 308.478 95.4601 311.931 94.5161C316.469 93.2791 315.697 88.4797 315.664 84.2663C315.628 79.6683 317.813 76.6124 320.791 73.813C323.768 71.0135 326.191 68.4927 327.703 64.3729C328.375 62.5418 329.017 60.6843 329.64 58.8329C329.907 58.0415 330.139 56.4952 330.89 56.0904C331.641 55.6855 333.17 56.5074 333.899 56.7394" stroke="#E5E6E5" stroke-miterlimit="10"/>
<path d="M34.401 222.597C34.0013 220.485 34.682 218.513 35.738 216.794C36.2233 216.003 36.8359 215.401 37.384 214.68C38.0944 213.742 38.138 212.945 38.6285 211.919C39.3616 210.383 41.0966 208.764 42.2067 207.476C43.4614 206.032 44.9205 204.851 46.5198 203.985C49.5394 202.325 53.472 201.543 56.6278 203.159C60.0786 204.915 61.9148 208.263 63.3304 212.129C64.0682 214.239 65.1943 216.135 66.6293 217.683C68.1339 219.288 70.0068 220.328 70.8411 222.607" stroke="#E5E6E5" stroke-miterlimit="10"/>
<path d="M83.8643 222.596C85.491 221.891 87.1684 219.447 88.4025 218.011C89.6968 216.461 90.8839 214.794 91.9528 213.026C94.1241 209.535 96.3793 206.109 98.7409 202.774C101.485 198.909 104.211 196.427 108.777 197.405C112.472 198.234 115.948 200.064 118.924 202.748C121.678 205.262 123.369 210.591 127.267 210.866C129.128 210.996 131.051 210.255 132.8 209.608C133.93 209.187 134.645 208.691 135.759 209.405C136.682 209.987 137.443 211.089 138.22 211.893C141.013 214.792 144.43 217.036 148.344 216.544C152.681 216.001 154.477 212.597 157.118 209.183C158.534 207.352 160.721 206.101 162.833 207.043C164.498 207.785 166.085 210.249 167.835 210.552C170.174 210.959 171.043 207.476 170.736 205.58C170.387 203.474 169.886 201.405 169.514 199.307C168.757 195.11 168.204 190.787 169.321 186.602C170.41 182.519 172.895 178.543 175.66 175.693C181.595 169.589 189.195 168.869 196.114 165.034C202.804 161.325 209.143 155.901 212.917 148.483C214.5 145.369 217.831 140.333 216.717 136.545C215.651 132.915 211.146 129.929 208.339 128.228C201.437 124.049 194.014 122.855 186.52 120.847C179.142 118.871 171.684 117.561 164.243 115.948C160.492 115.134 156.713 114.65 152.941 113.999C149.3 113.368 145.366 112.778 142.093 110.743C139.059 108.851 135.966 104.88 133.889 101.767C131.512 98.2332 131.17 93.6922 132.085 89.5092C133.945 80.9643 140.959 75.6217 143.968 67.6912C144.753 65.6221 145.539 63.9517 146.797 62.198C148.52 59.8054 149.644 59.4738 152.229 60.6152C155.765 62.1756 159.412 63.4635 162.866 65.2742C166.465 67.1602 169.467 69.156 173.429 69.9535C177.224 70.7205 180.804 70.8548 184.634 71.0176C192.314 71.3411 199.645 73.8659 207.183 75.1415C211.074 75.8007 214.556 75.1008 218.274 73.7906C220.417 73.0338 222.074 72.871 224.223 73.7479C226.043 74.4905 227.825 75.286 229.681 75.9268C236.837 78.3947 244.613 78.5269 252.035 78.238C256.109 78.0794 259.561 77.9308 263.403 79.711C266.906 81.3386 270.036 83.7007 273.338 85.7474C274.899 86.7097 276.63 87.2367 278.264 88.0139C281.111 89.3688 283.204 92.034 285.562 88.0891C286.539 86.4493 286.459 84.5247 287.733 82.9662C289.177 81.2044 291.557 80.2095 293.523 79.5076C298.195 77.8535 303.036 79.2573 306.963 75.1334C308.649 73.3613 309.792 71.0176 311.25 69.0299C311.986 68.0289 312.763 66.7573 313.645 65.9272C314.896 64.7472 315.739 64.4502 315.977 62.4381C316.291 59.7566 315.858 57.01 316.217 54.3163C316.577 51.6226 318.043 49.3053 319.789 47.4763C321.73 45.4418 324.126 44.0624 326.158 42.1479C328.465 39.9751 330.899 38.6649 333.913 38.7747" stroke="#E5E6E5" stroke-miterlimit="10"/>
<path d="M181.385 125.604L181.326 125.585" stroke="#E5E6E5" stroke-miterlimit="10"/>
<path d="M333.91 25.4998C332.751 25.9779 331.265 26.2261 330.3 27.1009C329.399 27.9147 328.572 29.2066 327.795 30.173C326.05 32.3398 324.919 35.833 322.616 37.1758C320.227 38.5674 317.637 39.3771 315.319 40.9681C310.344 44.3861 307.909 49.4723 306.043 55.5128C305.158 58.3713 304.195 61.3356 302.292 63.5349C300.419 65.7016 297.494 66.5866 294.972 67.3374C292.216 68.1613 289.735 67.0423 287.009 67.3374C284.282 67.6324 283.183 70.4013 281.135 72.1164C276.438 76.0552 270.703 74.4866 266.74 69.9558C264.896 67.8439 263.23 65.1462 260.342 65.37C257.606 65.5734 255.165 67.1176 252.719 68.3811C247.615 71.0259 243.363 74.0146 237.506 72.857C234.791 72.3239 232.233 71.5284 229.771 70.1002C227.34 68.6903 225.108 67.2112 222.402 66.5764C219.533 65.903 217.206 67.3903 214.534 68.2814C213.291 68.6883 211.893 69.2132 210.608 68.9812C209.323 68.7493 207.99 68.2631 206.707 67.909C201.411 66.4442 196.169 65.6833 190.779 64.8288C185.389 63.9743 180.106 62.7088 174.95 60.6743C169.794 58.6398 164.845 57.3906 159.53 56.1801C157.02 55.6084 155.106 53.047 152.688 51.8873C150.126 50.6666 147.38 50.6239 144.692 51.3014C142.248 51.9117 139.239 53.0734 137.604 55.3521C135.878 57.7589 136.382 61.3233 136.492 64.2103C136.548 65.7403 136.684 67.3821 136.387 68.8897C136.099 70.3484 135.233 71.6871 134.603 72.9872C133.312 75.6544 131.846 78.2098 130.545 80.875C127.972 86.1525 125.298 91.8776 124.96 98.0279C124.532 105.785 130.514 107.016 135.13 110.497C137.414 112.223 139.517 114.08 142.112 115.207C144.614 116.292 147.214 117.024 149.838 117.61C155.144 118.794 160.417 118.904 165.617 120.865C170.817 122.826 176.135 123.728 181.326 125.591C185.74 127.176 190.247 128.395 194.675 129.921C196.972 130.714 199.25 131.583 201.465 132.631C202.525 133.131 203.586 133.648 204.607 134.258C207.225 135.815 207.939 138.991 207.068 142.079C205.703 146.925 201.933 149.79 198.515 152.658C195.024 155.6 191.184 158.312 186.706 158.498C184.662 158.581 182.408 158.231 180.406 157.789C179.397 157.568 178.767 157.128 177.758 157.598C176.957 157.973 176.069 158.79 175.367 159.376C173.85 160.642 172.45 162.927 171.326 164.666C170.068 166.619 168.851 168.674 167.711 170.719C165.374 174.904 162.824 178.985 160.614 183.245C159.412 185.554 158.965 187.497 158.981 190.179C158.996 192.671 159.031 195.031 158.282 197.407C157.504 199.906 156.244 201.454 154.779 203.44C153.273 205.474 151.943 207.468 149.93 208.911C145.682 211.962 142.914 208.369 139.306 205.82C135.499 203.131 130.994 204.77 127.026 202.331C123.204 199.981 119.917 196.585 116.087 194.179C112.384 191.851 108.261 190.374 104.241 188.938C99.4479 187.223 98.0847 192.927 96.0599 196.669C93.7908 200.86 91.5566 205.094 88.6923 208.809C85.8001 212.562 83.2691 215.773 78.71 216.336C68.4117 217.608 66.4917 204.988 59.9008 199.196C56.464 196.179 51.5732 197.017 47.6494 198.28C43.1478 199.731 40.1596 202.361 36.5569 205.588C34.8254 207.138 33.1393 207.012 31.0674 207.2C29.0462 207.381 27.3583 209.043 25.9096 210.583C24.9705 211.58 25.084 211.985 24.6965 213.303C24.412 214.278 23.7243 214.953 23.1709 215.744C22.2336 217.079 19.5892 219.75 19.68 221.51" stroke="#E5E6E5" stroke-miterlimit="10"/>
<path d="M1 220.735C3.48555 219.685 13.5517 215.097 15.6707 208.335C16.5434 205.531 19.6364 204.062 22.1027 202.937C27.1488 200.646 32.6052 199.906 37.6059 197.356C42.5572 194.838 47.7938 193.165 53.1546 192.388C55.9473 191.981 58.6458 191.35 61.285 192.771C63.4528 193.938 65.1075 197.515 66.2613 199.869C68.7259 204.894 71.8084 212.076 77.8948 211.36C83.3337 210.727 86.8456 204.036 89.5162 199.303C92.2164 194.53 94.695 187.259 99.6032 184.944C104.384 182.69 111.015 185.69 115.476 187.823C120.463 190.217 124.663 194.321 129.641 196.728C134.703 199.179 140.032 199.525 144.827 202.803C146.085 203.663 147.844 204.097 148.731 202.459C149.412 201.202 149.625 199.395 150.115 198.009C151.127 195.193 151.99 192.308 152.7 189.369C154.146 183.3 156.266 177.799 158.635 172.128C160.921 166.635 162.011 160.21 165.151 155.269C166.76 152.736 168.642 150.166 171.148 148.74C173.58 147.356 176.289 147.098 178.956 146.994C184.484 146.791 189.989 147.995 194.665 143.739C197.22 141.42 197.203 138.14 194.082 136.618C191.616 135.418 188.706 135.69 186.084 135.273C183.394 134.844 180.884 133.676 178.264 132.901C175.601 132.114 172.869 131.556 170.284 130.46C167.753 129.396 165.42 128.031 163.046 126.572C160.499 125.007 158.298 123.363 155.366 123.243C150.231 123.04 144.441 120.914 139.749 118.576C137.326 117.37 135.027 115.878 132.617 114.639C130.097 113.341 127.381 112.67 124.698 111.938C123.389 111.604 122.135 111.075 120.83 110.668C119.57 110.261 118.067 110.21 116.901 109.543C114.171 107.976 115.782 103.482 116.552 100.917C118.297 95.043 121.107 89.6699 123.869 84.366C126.426 79.4567 129.992 73.2474 129.231 67.2639C128.44 61.0424 123.176 56.774 118.933 53.4292C117.793 52.53 116.489 51.9786 115.401 50.9777C114.314 49.9767 113.351 48.876 112.312 47.8608C110.254 45.8507 108.201 43.8772 106.058 41.9933C104.312 40.4633 101.206 35.6863 105.3 35.0637C106.681 34.8603 107.988 35.8775 109.305 36.1624C110.732 36.4818 112.062 36.1807 113.481 35.9976C116.349 35.6253 118.543 37.9527 120.84 39.5885C123.179 41.228 125.758 42.3483 128.447 42.8925C133.83 43.9566 139.257 43.5782 144.689 43.4683C155.657 43.2445 166.229 45.69 175.845 51.7935C180.581 54.7985 185.513 57.8055 190.917 58.8329C196.267 59.8501 201.767 60.4869 207.168 61.0708C212.605 61.6588 217.911 60.3038 223.308 61.5327C228.705 62.7615 233.442 66.1266 238.677 67.9251C241.918 69.038 243.863 66.5844 246.332 64.501C248.46 62.7086 250.679 61.0647 253.089 59.8217C258.593 56.9835 263.496 58.7861 268.256 62.4502C270.699 64.3301 272.776 66.7858 275.868 65.2151C278.454 63.9008 280.421 61.7789 283.178 60.7128C288.028 58.8329 295.174 61.3903 297.665 54.6581C298.176 53.2787 298.138 51.6531 297.855 50.2127C297.529 48.5383 296.494 47.5515 295.995 46.0297C295.106 43.3218 298.368 40.3331 299.691 38.2986C302.945 33.3181 307.073 29.3061 311.124 25.1618C313.044 23.2046 314.907 21.2088 316.806 19.2353C318.782 17.1825 321.169 15.8234 322.7 13.2457C323.452 11.9721 323.95 10.8511 324.952 9.78704C325.954 8.72299 327.046 7.72404 328.031 6.62948C328.931 5.63257 329.602 4.28573 330.539 3.35392C331.52 2.3794 332.873 1.97046 333.904 1" stroke="#E5E6E5" stroke-miterlimit="10"/>
</svg>
