<svg width="49" height="65" viewBox="0 0 49 65" fill="none" xmlns="http://www.w3.org/2000/svg">
<path fill-rule="evenodd" clip-rule="evenodd" d="M5.91647 60.5831L5.02249 58.4985H5.01121L4.12914 60.5831H5.91647ZM1.08321 63.2849L4.76446 54.7847C4.79956 54.7093 4.88169 54.646 4.96444 54.646H5.08168C5.1638 54.646 5.24655 54.7093 5.28166 54.7847L8.96291 63.2849C9.03312 63.4492 8.93908 63.6134 8.76292 63.6134H7.45768C7.24579 63.6134 7.15175 63.538 7.0458 63.2977L6.62263 62.2999H3.42349L3.00032 63.3105C2.94139 63.462 2.81224 63.6134 2.57652 63.6134H1.2832C1.10703 63.6134 1.01237 63.4492 1.08321 63.2849Z" fill="#4B5058"/>
<path fill-rule="evenodd" clip-rule="evenodd" d="M18.2064 54.646C19.3825 54.646 20.2527 55.0378 21.0526 55.8209C21.1586 55.9219 21.1586 56.0734 21.0645 56.1743L20.1467 57.1971C20.0646 57.2859 19.9354 57.2859 19.8527 57.1971C19.4176 56.7803 18.8415 56.5534 18.2653 56.5534C16.9363 56.5534 15.9602 57.7404 15.9602 59.155C15.9602 60.5567 16.9482 61.7188 18.2773 61.7188C18.8296 61.7188 19.4295 61.5041 19.8527 61.1129C19.9354 61.0368 20.0878 61.0368 20.1586 61.1257L21.0758 62.174C21.1586 62.2622 21.1466 62.4265 21.0645 62.5147C20.2646 63.3482 19.2534 63.74 18.2064 63.74C15.8542 63.74 13.9609 61.7316 13.9609 59.2055C13.9609 56.6793 15.8542 54.646 18.2064 54.646Z" fill="#4B5058"/>
<path fill-rule="evenodd" clip-rule="evenodd" d="M27.9905 54.848C28.0024 54.7342 28.1083 54.646 28.2024 54.646H28.3904C28.4494 54.646 28.5547 54.6965 28.5904 54.7719L31.3188 60.2282H31.3426L34.0709 54.7719C34.106 54.6965 34.212 54.646 34.2703 54.646H34.459C34.553 54.646 34.6583 54.7342 34.6703 54.848L35.9993 63.3354C36.0231 63.4997 35.9172 63.6134 35.7761 63.6134H34.3881C34.2822 63.6134 34.1762 63.5124 34.165 63.4115L33.6352 59.5084H33.612L31.636 63.6006C31.6009 63.6767 31.4949 63.74 31.436 63.74H31.2247C31.1539 63.74 31.0599 63.6767 31.0247 63.6006L29.0374 59.5084H29.0136L28.4964 63.4115C28.4845 63.5124 28.3904 63.6134 28.2726 63.6134H26.8852C26.7435 63.6134 26.6382 63.4997 26.6614 63.3354L27.9905 54.848Z" fill="#4B5058"/>
<path fill-rule="evenodd" clip-rule="evenodd" d="M42.209 55.0121C42.209 54.8856 42.303 54.7725 42.4328 54.7725H47.3014C47.4306 54.7725 47.5246 54.8856 47.5246 55.0121V56.389C47.5246 56.5149 47.4306 56.6287 47.3014 56.6287H44.0433V58.1948H46.7253C46.8425 58.1948 46.9485 58.3085 46.9485 58.4351V59.812C46.9485 59.9507 46.8425 60.0517 46.7253 60.0517H44.0433V61.7564H47.3014C47.4306 61.7564 47.5246 61.8702 47.5246 61.9968V63.3736C47.5246 63.4995 47.4306 63.6133 47.3014 63.6133H42.4328C42.303 63.6133 42.209 63.4995 42.209 63.3736V55.0121Z" fill="#4B5058"/>
<path fill-rule="evenodd" clip-rule="evenodd" d="M22.5539 8.45258C23.5407 8.45258 24.3413 7.59347 24.3413 6.53305C24.3413 5.47263 23.5407 4.61353 22.5539 4.61353C21.5665 4.61353 20.7666 5.47263 20.7666 6.53305C20.7666 7.59347 21.5665 8.45258 22.5539 8.45258Z" fill="#4B5058"/>
<path fill-rule="evenodd" clip-rule="evenodd" d="M27.306 4.76303C28.4457 4.76303 29.3698 3.77061 29.3698 2.54658C29.3698 1.32256 28.4457 0.330811 27.306 0.330811C26.1663 0.330811 25.2422 1.32256 25.2422 2.54658C25.2422 3.77061 26.1663 4.76303 27.306 4.76303Z" fill="#4B5058"/>
<path fill-rule="evenodd" clip-rule="evenodd" d="M29.9868 39.8911H18.5819C17.3061 39.8911 16.5551 38.3533 17.2804 37.2263L23.1139 28.1592C23.7508 27.1688 25.1188 27.1843 25.7357 28.1888L31.3071 37.2559C32.0017 38.3857 31.2469 39.8911 29.9868 39.8911ZM36.9266 37.5601L28.82 23.1802V15.1493H29.0168C30.1898 15.1493 31.1408 14.1272 31.1408 12.8675C31.1408 11.6078 30.1898 10.5864 29.0168 10.5864H19.5673C18.3944 10.5864 17.4434 11.6078 17.4434 12.8675C17.4434 14.1272 18.3944 15.1493 19.5673 15.1493H19.7642V23.1802L11.6576 37.5601C10.237 40.6236 12.3121 44.2223 15.4987 44.2223H33.0849C36.2721 44.2223 38.3466 40.6236 36.9266 37.5601Z" fill="#4B5058"/>
</svg>
