<svg width="92" height="53" viewBox="0 0 92 53" fill="none" xmlns="http://www.w3.org/2000/svg">
<path fill-rule="evenodd" clip-rule="evenodd" d="M26.5837 20.3677L27.7171 28.7734H25.4503L26.5837 20.3677ZM24.9762 31.9043H28.1706L28.8862 36.8047H32.1036L28.704 15.4841H24.495L21.0469 36.8047H24.2326L24.9762 31.9043Z" fill="#4B5058"/>
<path fill-rule="evenodd" clip-rule="evenodd" d="M38.3771 36.8047C39.6888 36.8047 40.8143 36.3229 41.7525 35.3592C42.6906 34.3949 43.1606 33.2212 43.1606 31.8357V28.928H40.0248V31.8025C40.0248 32.3009 39.854 32.7253 39.513 33.0738C39.1714 33.4229 38.761 33.5977 38.2812 33.5977C37.8014 33.5977 37.3934 33.4229 37.0574 33.0738C36.7213 32.7253 36.5536 32.3009 36.5536 31.8025V20.4028C36.5536 19.9044 36.7213 19.478 37.0574 19.1232C37.3934 18.769 37.8014 18.5916 38.2812 18.5916C38.761 18.5916 39.1714 18.769 39.513 19.1232C39.854 19.478 40.0248 19.9044 40.0248 20.4028V22.8459H43.1606V20.4692C43.1606 19.0957 42.6961 17.9214 41.7684 16.9463C40.8407 15.9717 39.7103 15.4841 38.3771 15.4841C37.0543 15.4841 35.9244 15.9685 34.9857 16.938C34.0469 17.9074 33.5781 19.0849 33.5781 20.4692V31.8357C33.5781 33.2097 34.0444 34.3815 34.9777 35.3509C35.9109 36.3203 37.0438 36.8047 38.3771 36.8047" fill="#4B5058"/>
<path fill-rule="evenodd" clip-rule="evenodd" d="M48.3902 23.4412L51.3127 36.8047H53.7402L56.3591 23.4072V36.8047H59.3772V15.4841H55.2165L52.516 30.8001L49.7033 15.4841H45.3721V36.8047H48.3902V23.4412Z" fill="#4B5058"/>
<path fill-rule="evenodd" clip-rule="evenodd" d="M70.4335 33.5745H65.1734V27.7599H69.0166V24.529H65.1734V18.7143H70.4335V15.4841H62.3252V36.8047H70.4335V33.5745Z" fill="#4B5058"/>
<path fill-rule="evenodd" clip-rule="evenodd" d="M4.19828 48.5819H88.0194V3.70702H4.19828V48.5819ZM1.14453 51.8081H91.0726V0.480713H1.14453V51.8081Z" fill="#4B5058"/>
<rect x="0.881456" y="0.953966" width="90.637" height="51.092" stroke="#4B5058" stroke-width="0.946506"/>
</svg>
