<svg width="150" height="57" viewBox="0 0 150 57" fill="none" xmlns="http://www.w3.org/2000/svg">
<path fill-rule="evenodd" clip-rule="evenodd" d="M46.188 32.4968C47.5539 32.4968 48.8522 31.4005 49.2627 30.6697V28.3311C49.0575 28.1852 48.1008 27.7468 46.8712 27.7468C45.2312 27.7468 44.104 28.6601 44.104 30.1583C44.104 31.4735 44.9243 32.4968 46.188 32.4968ZM46.598 25.4813C48.0327 25.4813 49.297 25.9197 49.297 25.9197C49.3305 23.6176 48.9206 22.7044 47.1783 22.7044C45.6071 22.7044 44.0701 23.1428 43.3527 23.3616C42.9428 23.471 42.7035 23.1792 42.6012 22.7773L42.3278 21.425C42.2255 20.9501 42.4642 20.6941 42.7717 20.5847C43.011 20.4746 44.958 19.7444 47.4865 19.7444C51.859 19.7444 52.2688 22.5943 52.2688 26.2486V34.0309C52.2688 34.397 51.9607 34.726 51.6197 34.726H50.6629C50.3554 34.726 50.219 34.5794 50.0826 34.214L49.7409 33.2278C48.9888 33.9951 47.657 35.0907 45.5389 35.0907C42.9769 35.0907 41.1323 33.2278 41.1323 30.1948C41.1323 27.5273 43.1133 25.4813 46.598 25.4813Z" fill="#4B5058"/>
<path fill-rule="evenodd" clip-rule="evenodd" d="M62.7212 19.7441C64.8052 19.7441 66.4104 20.6574 67.6747 22.338C67.9134 22.6676 67.8452 23.106 67.5377 23.3614L66.4104 24.4577C66.0006 24.8596 65.7613 24.5678 65.4884 24.3118C64.8734 23.5809 63.8825 22.923 62.7553 22.923C60.535 22.923 58.7926 24.9332 58.7926 27.4177C58.7926 29.9386 60.5009 31.9488 62.7212 31.9488C64.4635 31.9488 65.1809 30.9984 65.8983 30.2682C66.2058 29.9386 66.5127 29.9386 66.8203 30.1946L67.7429 30.9984C68.0845 31.2909 68.2209 31.6563 67.9822 32.0218C66.8885 33.8854 65.0445 35.0912 62.6871 35.0912C58.8608 35.0912 55.5474 31.8387 55.5474 27.4541C55.5474 23.1425 58.9297 19.7441 62.7212 19.7441Z" fill="#4B5058"/>
<path fill-rule="evenodd" clip-rule="evenodd" d="M71.3979 20.8037C71.3979 20.4383 71.7055 20.1093 72.0465 20.1093H73.0032C73.3114 20.1093 73.4819 20.2924 73.5842 20.5477L73.9599 21.7906C74.2675 21.461 75.8387 19.7439 78.4695 19.7439C80.4505 19.7439 81.8853 20.5842 82.8761 22.0824C83.2518 21.6805 85.2329 19.7439 87.829 19.7439C91.9969 19.7439 93.4657 22.8863 93.4657 26.6865V34.0311C93.4657 34.3965 93.1923 34.7255 92.8165 34.7255H90.9037C90.528 34.7255 90.2546 34.3965 90.2546 34.0311V26.5406C90.2546 24.2386 89.2644 22.9227 87.4191 22.9227C85.3358 22.9227 84.1397 24.4946 83.9004 24.7134C83.9692 25.0424 84.0033 25.7368 84.0033 26.4677V34.0311C84.0033 34.3965 83.6958 34.7255 83.3541 34.7255H81.5436C81.1679 34.7255 80.8945 34.3965 80.8945 34.0311V26.5406C80.8945 24.2014 79.9036 22.9227 77.9908 22.9227C75.9416 22.9227 74.7796 24.6405 74.6091 25.1154V34.0311C74.6091 34.3965 74.3016 34.7255 73.9599 34.7255H72.0465C71.7055 34.7255 71.3979 34.3965 71.3979 34.0311V20.8037Z" fill="#4B5058"/>
<path fill-rule="evenodd" clip-rule="evenodd" d="M106.685 25.8098C106.583 24.0562 105.216 22.558 103.543 22.558C101.698 22.558 100.263 23.9826 100.058 25.8098H106.685ZM103.577 19.7439C107.129 19.7439 109.862 22.5944 109.862 26.5042C109.862 26.7595 109.828 27.235 109.794 27.4904C109.76 27.8565 109.486 28.1118 109.179 28.1118H99.887C99.9899 30.0849 101.595 32.0215 103.816 32.0215C105.046 32.0215 106.173 31.4372 106.856 30.9617C107.266 30.7064 107.505 30.5598 107.778 30.9252L108.735 32.314C108.974 32.6065 109.077 32.899 108.667 33.2637C107.676 34.1777 105.899 35.0909 103.61 35.0909C99.4771 35.0909 96.7446 31.6196 96.7446 27.4174C96.7446 23.2882 99.4771 19.7439 103.577 19.7439Z" fill="#4B5058"/>
<path fill-rule="evenodd" clip-rule="evenodd" d="M126.804 19.7439C128.888 19.7439 130.493 20.6572 131.758 22.3378C131.996 22.6674 131.928 23.1058 131.621 23.3611L130.493 24.4574C130.084 24.8594 129.844 24.5675 129.571 24.3115C128.956 23.5807 127.966 22.9227 126.838 22.9227C124.618 22.9227 122.876 24.933 122.876 27.4174C122.876 29.9383 124.584 31.9486 126.804 31.9486C128.547 31.9486 129.264 30.9982 129.981 30.268C130.289 29.9383 130.596 29.9383 130.903 30.1943L131.826 30.9982C132.168 31.2907 132.304 31.6561 132.065 32.0215C130.971 33.8852 129.128 35.0909 126.77 35.0909C122.944 35.0909 119.63 31.8385 119.63 27.4539C119.63 23.1423 123.013 19.7439 126.804 19.7439Z" fill="#4B5058"/>
<path fill-rule="evenodd" clip-rule="evenodd" d="M141.356 31.9486C143.509 31.9486 145.216 29.9019 145.216 27.3809C145.216 24.933 143.509 22.9227 141.356 22.9227C139.204 22.9227 137.496 24.933 137.496 27.3809C137.496 29.9019 139.204 31.9486 141.356 31.9486ZM141.356 19.7439C145.182 19.7439 148.257 23.2524 148.257 27.3809C148.257 31.5831 145.182 35.0909 141.356 35.0909C137.53 35.0909 134.456 31.5831 134.456 27.3809C134.456 23.2524 137.53 19.7439 141.356 19.7439Z" fill="#4B5058"/>
<mask id="mask0_2002_25631" style="mask-type:luminance" maskUnits="userSpaceOnUse" x="0" y="0" width="28" height="57">
<path fill-rule="evenodd" clip-rule="evenodd" d="M27.3421 0.115479H0.568848L0.568848 56.0228H27.3421V0.115479V0.115479Z" fill="white"/>
</mask>
<g mask="url(#mask0_2002_25631)">
<path fill-rule="evenodd" clip-rule="evenodd" d="M13.7422 27.4176C11.7625 27.3926 10.1395 25.6566 10.1162 23.5376C10.0934 21.4199 11.6804 19.7231 13.6601 19.7468C15.6405 19.7704 17.2641 21.5077 17.2868 23.6261C17.3102 25.7451 15.7233 27.4419 13.7422 27.4176ZM21.7753 35.3221C21.7753 35.3221 24.924 11.108 14.5004 2.04024L13.9365 0.383951C13.8165 0.0320229 13.3536 0.0239171 13.2235 0.372468L12.6097 2.01255C2.37119 10.8229 5.96885 35.1282 5.96885 35.1282C-1.94638 41.7818 -0.020933 39.2886 4.49619 51.0231C5.35692 53.2637 6.86621 52.7355 7.54886 51.1183C8.23088 49.5033 9.73764 45.9353 9.73764 45.9353H10.4531L13.2185 55.3861C13.4667 56.2351 14.5901 56.2351 14.8389 55.3861L17.6036 45.9353H18.2604C18.2604 45.9353 19.896 49.6465 20.6133 51.2798C21.3307 52.9138 22.8507 53.4785 23.6648 51.2588C27.9305 39.6324 29.8351 42.1715 21.7753 35.3221Z" fill="#4B5058"/>
</g>
</svg>
