<svg width="153" height="43" viewBox="0 0 153 43" fill="none" xmlns="http://www.w3.org/2000/svg">
<path fill-rule="evenodd" clip-rule="evenodd" d="M17.6095 22.5732V19.6381C17.6095 18.283 18.6866 17.1801 20.0108 17.1801C21.3357 17.1801 22.4129 18.283 22.4129 19.6381V22.5732H17.6095ZM20.0109 13.6035C16.9295 13.6035 14.3959 16.0368 14.1396 19.1236C14.1278 19.2089 14.1143 19.2936 14.1143 19.3821V27.6086C14.1143 28.5958 14.8968 29.3966 15.8622 29.3966C16.8269 29.3966 17.6095 28.5958 17.6095 27.6086V26.1498H22.4129V27.6086C22.4129 28.5958 23.1948 29.3966 24.1602 29.3966C25.1256 29.3966 25.9081 28.5958 25.9081 27.6086V19.3821C25.9081 19.2936 25.8945 19.2089 25.8822 19.1236C25.6258 16.0368 23.0929 13.6035 20.0109 13.6035Z" fill="#4B5058"/>
<path fill-rule="evenodd" clip-rule="evenodd" d="M20.3798 39.2222C11.0887 39.2222 3.53038 31.2724 3.53038 21.5001C3.53038 11.7278 11.0887 3.77796 20.3798 3.77796C29.6708 3.77796 37.2292 11.7278 37.2292 21.5001C37.2292 31.2724 29.6708 39.2222 20.3798 39.2222ZM20.3791 0.179443C9.20175 0.179443 0.108398 9.7438 0.108398 21.5001C0.108398 33.2563 9.20175 42.8207 20.3791 42.8207C31.5564 42.8207 40.6497 33.2563 40.6497 21.5001C40.6497 9.7438 31.5564 0.179443 20.3791 0.179443Z" fill="#4B5058"/>
<path fill-rule="evenodd" clip-rule="evenodd" d="M59.6252 22.5732V19.6381C59.6252 18.283 60.7024 17.1801 62.0266 17.1801C63.3515 17.1801 64.4286 18.283 64.4286 19.6381V22.5732H59.6252ZM62.0265 13.6035C58.9451 13.6035 56.4115 16.0368 56.1552 19.1236C56.1435 19.2089 56.1299 19.2936 56.1299 19.3821V27.6086C56.1299 28.5958 56.9124 29.3966 57.8778 29.3966C58.8426 29.3966 59.6251 28.5958 59.6251 27.6086V26.1498H64.4285V27.6086C64.4285 28.5958 65.2104 29.3966 66.1758 29.3966C67.1412 29.3966 67.9237 28.5958 67.9237 27.6086V19.3821C67.9237 19.2936 67.9102 19.2089 67.8978 19.1236C67.6415 16.0368 65.1085 13.6035 62.0265 13.6035Z" fill="#4B5058"/>
<path fill-rule="evenodd" clip-rule="evenodd" d="M96.7272 13.6035C95.1255 13.6035 93.6737 14.2735 92.6171 15.3555C91.5611 14.2735 90.1087 13.6035 88.5069 13.6035C85.4546 13.6035 82.9456 16.0362 82.6911 19.1236C82.6795 19.2083 82.666 19.2936 82.666 19.3821V27.6079C82.666 28.5958 83.4412 29.3966 84.3974 29.3966C85.3537 29.3966 86.1282 28.5958 86.1282 27.6079V19.6375C86.1282 18.2824 87.1952 17.1801 88.5069 17.1801C89.8193 17.1801 90.8863 18.2824 90.8863 19.6375V24.0313C90.8863 25.0192 91.6608 25.8199 92.6171 25.8199C93.5733 25.8199 94.3485 25.0192 94.3485 24.0313V19.6375C94.3485 18.2824 95.4155 17.1801 96.7272 17.1801C98.0389 17.1801 99.1059 18.2824 99.1059 19.6375V27.6079C99.1059 28.5958 99.8811 29.3966 100.837 29.3966C101.794 29.3966 102.568 28.5958 102.568 27.6079V19.3821C102.568 19.2936 102.555 19.2083 102.543 19.1236C102.289 16.0362 99.7801 13.6035 96.7272 13.6035Z" fill="#4B5058"/>
<path fill-rule="evenodd" clip-rule="evenodd" d="M80.3328 23.9738C79.5113 23.4822 78.4588 23.7729 77.9837 24.6217C77.562 25.3752 76.7775 25.8435 75.9359 25.8435C74.6331 25.8435 73.5734 24.7479 73.5734 23.4018V19.6014C73.5734 19.6002 73.574 19.5989 73.574 19.5976C73.574 18.2515 74.6337 17.1565 75.9365 17.1565C76.7228 17.1565 77.4556 17.5596 77.8968 18.2339C78.2292 18.7425 78.7712 19.0162 79.3229 19.0162C79.6541 19.0162 79.9889 18.9177 80.2842 18.7117C81.0711 18.1624 81.2777 17.058 80.746 16.2449C79.6644 14.5911 77.8664 13.6035 75.9365 13.6035C72.9251 13.6035 70.4441 15.9875 70.1633 19.0244C70.1481 19.1198 70.1348 19.2159 70.1348 19.3164V23.9349C70.1348 24.1452 70.1767 24.3448 70.2417 24.5319C70.7552 27.2983 73.1116 29.3966 75.9359 29.3966C78.0001 29.3966 79.9257 28.2488 80.9599 26.4011C81.4357 25.5516 81.1549 24.4654 80.3328 23.9738Z" fill="#4B5058"/>
<path fill-rule="evenodd" clip-rule="evenodd" d="M137.828 23.9738C137.006 23.4815 135.954 23.7729 135.479 24.6217C135.057 25.3752 134.273 25.8435 133.431 25.8435C132.128 25.8435 131.069 24.7479 131.069 23.4018V19.6014C131.069 19.6002 131.069 19.5989 131.069 19.5976C131.069 18.2515 132.129 17.1565 133.432 17.1565C134.218 17.1565 134.95 17.5596 135.392 18.2339C135.724 18.7425 136.266 19.0162 136.818 19.0162C137.149 19.0162 137.484 18.9177 137.779 18.7117C138.566 18.1624 138.773 17.058 138.241 16.2449C137.159 14.5911 135.361 13.6035 133.432 13.6035C130.42 13.6035 127.939 15.9875 127.658 19.0244C127.643 19.1198 127.63 19.2159 127.63 19.3164V23.9349C127.63 24.1452 127.672 24.3448 127.737 24.5319C128.25 27.2983 130.607 29.3966 133.431 29.3966C135.495 29.3966 137.421 28.2488 138.455 26.4011C138.931 25.5516 138.65 24.4654 137.828 23.9738Z" fill="#4B5058"/>
<path fill-rule="evenodd" clip-rule="evenodd" d="M146.795 25.8314C146.767 25.8314 146.741 25.8383 146.714 25.8396C145.428 25.7956 144.394 24.7207 144.394 23.4029V19.5987C144.394 18.2526 145.471 17.157 146.795 17.157C147.594 17.157 148.339 17.5601 148.788 18.235C149.056 18.6375 149.197 19.109 149.197 19.5987V23.3903C149.197 23.8794 149.056 24.3509 148.788 24.754C148.339 25.4283 147.594 25.8314 146.795 25.8314ZM152.676 19.154C152.676 19.1446 152.674 19.1352 152.674 19.1257C152.667 19.0673 152.666 19.0064 152.654 18.9499C152.551 17.9824 152.224 17.0576 151.684 16.2458C150.585 14.5914 148.758 13.6038 146.795 13.6038C143.732 13.6038 141.209 15.9915 140.927 19.0316C140.911 19.1251 140.898 19.2187 140.898 19.3166V23.9351C140.898 24.1461 140.94 24.3451 141.007 24.5322C141.528 27.2985 143.924 29.3968 146.795 29.3968C146.856 29.3968 146.913 29.3849 146.971 29.3786C148.866 29.3215 150.618 28.347 151.684 26.7429C152.128 26.0761 152.427 25.3333 152.577 24.5535C152.648 24.3602 152.692 24.1536 152.692 23.9351V19.3166C152.692 19.2607 152.681 19.2086 152.676 19.154Z" fill="#4B5058"/>
<path fill-rule="evenodd" clip-rule="evenodd" d="M113.786 19.2211H109.044C109.223 18.0535 110.216 17.1566 111.414 17.1566C112.213 17.1566 112.958 17.5598 113.406 18.235C113.604 18.5327 113.732 18.8687 113.786 19.2211ZM116.302 16.2449C115.202 14.5911 113.375 13.6035 111.414 13.6035C108.297 13.6035 105.744 16.076 105.537 19.192C105.53 19.2599 105.517 19.3264 105.517 19.3961V24.0152C105.517 24.2708 105.572 24.5131 105.669 24.7329C106.266 27.3987 108.612 29.3966 111.414 29.3966C111.416 29.3966 111.419 29.3959 111.421 29.3959C113.516 29.3928 115.469 28.2463 116.52 26.4011C117.003 25.5522 116.718 24.4654 115.883 23.9738C115.047 23.4822 113.978 23.7722 113.495 24.6211C113.065 25.3745 112.268 25.8429 111.414 25.8429C111.413 25.8429 111.411 25.8435 111.41 25.8435C110.087 25.8417 109.012 24.7473 109.012 23.4024V22.7733H115.563C116.528 22.7733 117.31 21.9778 117.31 20.9965V18.9541C117.31 18.6935 117.252 18.4487 117.154 18.2258C116.991 17.5226 116.706 16.852 116.302 16.2449Z" fill="#4B5058"/>
</svg>
