<svg width="136" height="28" viewBox="0 0 136 28" fill="none" xmlns="http://www.w3.org/2000/svg">
<path fill-rule="evenodd" clip-rule="evenodd" d="M69.5036 23.6206V6.16697L85.4408 17.2336C85.7611 17.456 86.1274 17.5672 86.4938 17.5672C86.8602 17.5672 87.2265 17.456 87.5468 17.2336L103.484 6.16697V23.6206H69.5036ZM98.907 4.42834L86.4933 13.048L74.0796 4.42834H98.907ZM103.484 0.307739H69.5035H67.5725H65.6421V23.6206V27.7413H69.5035H103.484H107.345V23.6206V0.307739H105.415H103.484Z" fill="#4B5058"/>
<path fill-rule="evenodd" clip-rule="evenodd" d="M9.59043 17.2834L13.4468 5.9263L17.3032 17.2834H9.59043ZM10.1463 0.307739L0.57959 26.7012H6.58683L8.14391 22.2299H18.7491L20.2696 26.7012H26.2768L16.7467 0.307739H10.1463Z" fill="#4B5058"/>
<path fill-rule="evenodd" clip-rule="evenodd" d="M47.2222 5.29334C49.7812 5.29334 52.0059 6.99475 53.0438 9.13162L57.5678 6.75747C55.825 3.47328 52.673 0.307739 47.2222 0.307739C39.8057 0.307739 34.0581 5.84744 34.0581 13.9595C34.0581 22.0715 39.8057 27.6112 47.2222 27.6112C52.673 27.6112 55.7878 24.4059 57.5678 21.1217L53.0438 18.7873C52.0059 20.9633 49.7812 22.6256 47.2222 22.6256C42.7354 22.6256 39.4722 18.9451 39.4722 13.9595C39.4722 8.97321 42.7354 5.29334 47.2222 5.29334Z" fill="#4B5058"/>
<path fill-rule="evenodd" clip-rule="evenodd" d="M135.574 5.25424V0.307739H118.072V26.7019H135.574V21.7554H123.337V15.7802H135.315V10.8337H123.337V5.25424H135.574Z" fill="#4B5058"/>
</svg>
