<svg width="102" height="53" viewBox="0 0 102 53" fill="none" xmlns="http://www.w3.org/2000/svg">
<path fill-rule="evenodd" clip-rule="evenodd" d="M53.873 32.2509C54.868 32.2509 55.8132 31.4614 56.1118 30.9346V29.2502C55.9625 29.1448 55.2656 28.8288 54.3702 28.8288C53.1768 28.8288 52.3557 29.4869 52.3557 30.5665C52.3557 31.514 52.9525 32.2509 53.873 32.2509ZM54.1717 27.1971C55.2158 27.1971 56.1364 27.5132 56.1364 27.5132C56.1609 25.8548 55.8629 25.1967 54.5939 25.1967C53.4502 25.1967 52.3305 25.5127 51.8082 25.6701C51.5101 25.7495 51.3362 25.5387 51.2612 25.2493L51.0621 24.2751C50.9877 23.9331 51.1616 23.749 51.3853 23.6697C51.5599 23.591 52.9776 23.0642 54.8182 23.0642C58.0021 23.0642 58.3002 25.1173 58.3002 27.7499V33.3565C58.3002 33.6199 58.0765 33.8566 57.8276 33.8566H57.1313C56.9076 33.8566 56.808 33.7512 56.7085 33.4879L56.4596 32.777C55.9127 33.3305 54.9423 34.1193 53.4004 34.1193C51.5347 34.1193 50.1919 32.777 50.1919 30.5925C50.1919 28.6708 51.6342 27.1971 54.1717 27.1971Z" fill="#4B5058"/>
<path fill-rule="evenodd" clip-rule="evenodd" d="M65.5655 23.0642C67.0337 23.0642 68.1647 23.7224 69.0554 24.9326C69.2237 25.17 69.1755 25.4861 68.9591 25.6701L68.1647 26.4596C67.8757 26.749 67.7074 26.539 67.5153 26.3543C67.0818 25.8282 66.3838 25.3541 65.5899 25.3541C64.0255 25.3541 62.7976 26.8017 62.7976 28.5921C62.7976 30.4079 64.0011 31.8561 65.5655 31.8561C66.7929 31.8561 67.2983 31.1714 67.8037 30.6452C68.0202 30.4079 68.2366 30.4079 68.4536 30.5925L69.103 31.1714C69.3444 31.3821 69.4401 31.6454 69.2718 31.9088C68.5018 33.2511 67.202 34.1193 65.5412 34.1193C62.8457 34.1193 60.5112 31.7768 60.5112 28.6181C60.5112 25.5121 62.8939 23.0642 65.5655 23.0642Z" fill="#4B5058"/>
<path fill-rule="evenodd" clip-rule="evenodd" d="M72.3052 23.8463C72.3052 23.5765 72.5309 23.334 72.7821 23.334H73.4849C73.7112 23.334 73.8365 23.4686 73.9116 23.6571L74.1882 24.5744C74.414 24.3313 75.5688 23.0642 77.5015 23.0642C78.9578 23.0642 80.0121 23.6844 80.7403 24.7896C81.0163 24.4932 82.472 23.0642 84.3798 23.0642C87.4425 23.0642 88.5217 25.3832 88.5217 28.1871V33.6064C88.5217 33.8762 88.3214 34.1193 88.0447 34.1193H86.6393C86.3633 34.1193 86.1623 33.8762 86.1623 33.6064V28.0798C86.1623 26.3804 85.4342 25.4098 84.0784 25.4098C82.547 25.4098 81.6688 26.5696 81.4926 26.7308C81.5429 26.974 81.5683 27.4863 81.5683 28.0259V33.6064C81.5683 33.8762 81.3425 34.1193 81.0913 34.1193H79.761C79.4849 34.1193 79.284 33.8762 79.284 33.6064V28.0798C79.284 26.3538 78.5559 25.4098 77.1504 25.4098C75.6439 25.4098 74.7904 26.6775 74.6651 27.0279V33.6064C74.6651 33.8762 74.4388 34.1193 74.1882 34.1193H72.7821C72.5309 34.1193 72.3052 33.8762 72.3052 33.6064V23.8463Z" fill="#4B5058"/>
<path fill-rule="evenodd" clip-rule="evenodd" d="M97.9948 27.4354C97.9202 26.1714 96.922 25.092 95.6994 25.092C94.3516 25.092 93.3034 26.1187 93.1536 27.4354H97.9948ZM95.7239 23.0642C98.319 23.0642 100.315 25.1173 100.315 27.934C100.315 28.118 100.291 28.4607 100.265 28.6448C100.241 28.9082 100.041 29.0922 99.8166 29.0922H93.029C93.1036 30.5138 94.2763 31.9088 95.8984 31.9088C96.7967 31.9088 97.6204 31.4874 98.1198 31.1453C98.4189 30.9613 98.594 30.8559 98.7931 31.1187L99.4923 32.1189C99.6668 32.3302 99.7414 32.5403 99.4423 32.8037C98.7185 33.4618 97.4207 34.1193 95.7486 34.1193C92.7293 34.1193 90.7329 31.6194 90.7329 28.5921C90.7329 25.6174 92.7293 23.0642 95.7239 23.0642Z" fill="#4B5058"/>
<mask id="mask0_2002_26365" style="mask-type:luminance" maskUnits="userSpaceOnUse" x="0" y="1" width="38" height="50">
<path fill-rule="evenodd" clip-rule="evenodd" d="M37.8384 1.85327H0.805176L0.805176 50.8022H37.8384V1.85327V1.85327Z" fill="white"/>
</mask>
<g mask="url(#mask0_2002_26365)">
<path fill-rule="evenodd" clip-rule="evenodd" d="M34.365 36.8193C34.365 40.2264 31.7626 43.0136 28.5814 43.0136H10.0615C6.88023 43.0136 4.27783 40.2264 4.27783 36.8193V19.7372C4.27783 18.1918 5.45814 16.9277 6.90107 16.9277H31.7418C33.1847 16.9277 34.365 18.1918 34.365 19.7372V36.8193ZM34.4434 12.9369H22.573L28.6306 4.14741C29.0713 3.5077 28.9444 2.60649 28.3471 2.13452C27.7498 1.66255 26.9084 1.79777 26.4677 2.43748L19.2322 12.9369H18.832L14.1185 7.88872C13.5938 7.32619 12.7429 7.32619 12.2176 7.88872C11.693 8.45062 11.693 9.36203 12.2176 9.92393L15.0308 12.9369H4.2002C2.33267 12.9369 0.805176 14.5728 0.805176 16.573V37.6611C0.805176 42.7991 4.73021 47.0029 9.52768 47.0029H14.2829L12.6845 48.1279C12.064 48.5642 11.8919 49.4571 12.2992 50.121C12.7071 50.7856 13.5397 50.9706 14.1602 50.5343L19.1786 47.0029H19.4632L24.5114 50.5649C24.7389 50.7257 24.9956 50.8022 25.2493 50.8022C25.6864 50.8022 26.1145 50.5745 26.373 50.1542C26.7815 49.4909 26.61 48.598 25.9901 48.1605L24.3494 47.0029H29.1159C33.9134 47.0029 37.8384 42.7991 37.8384 37.6611V16.573C37.8384 14.5728 36.3109 12.9369 34.4434 12.9369Z" fill="#4B5058"/>
</g>
</svg>
