<svg width="61" height="81" viewBox="0 0 61 81" fill="none" xmlns="http://www.w3.org/2000/svg">
<mask id="mask0_2002_26333" style="mask-type:luminance" maskUnits="userSpaceOnUse" x="0" y="0" width="61" height="64">
<path fill-rule="evenodd" clip-rule="evenodd" d="M60.7072 0.393066H0.893555L0.893555 63.7181H60.7072V0.393066V0.393066Z" fill="white"/>
</mask>
<g mask="url(#mask0_2002_26333)">
<path fill-rule="evenodd" clip-rule="evenodd" d="M50.9128 46.2097C51.1649 44.8525 51.2984 43.4504 51.2984 42.0164C51.2984 38.4277 50.4704 35.04 49.0076 32.0548C50.4704 29.0703 51.2984 25.6826 51.2984 22.0939C51.2984 20.6592 51.1649 19.2578 50.9128 17.9005C54.8314 21.2281 57.347 26.3353 57.347 32.0548C57.347 37.775 54.8314 42.8815 50.9128 46.2097ZM30.8004 60.1599C25.3974 60.1599 20.574 57.4965 17.4303 53.348C18.7123 53.6148 20.0366 53.7562 21.3912 53.7562C24.7815 53.7562 27.9807 52.8795 30.8004 51.331C33.6201 52.8795 36.8194 53.7562 40.2096 53.7562C41.5642 53.7562 42.8885 53.6148 44.1705 53.348C41.0268 57.4965 36.2034 60.1599 30.8004 60.1599ZM4.25368 32.0548C4.25368 26.3353 6.76934 21.2281 10.6879 17.9005C10.4358 19.2578 10.3023 20.6592 10.3023 22.0939C10.3023 25.6826 11.1303 29.0703 12.5931 32.0548C11.1303 35.04 10.3023 38.4277 10.3023 42.0164C10.3023 43.4504 10.4358 44.8525 10.6879 46.2097C6.76934 42.8815 4.25368 37.775 4.25368 32.0548ZM41.5036 36.2482C41.7556 34.8909 41.8892 33.4895 41.8892 32.0548C41.8892 30.6208 41.7556 29.2187 41.5042 27.8614C42.9035 29.0504 44.1232 30.4653 45.1139 32.0548C44.1232 33.645 42.9035 35.0598 41.5036 36.2482ZM26.8394 43.3871C28.1214 43.654 29.4457 43.7954 30.8003 43.7954C32.1548 43.7954 33.4791 43.654 34.7611 43.3871C33.6387 44.8685 32.3023 46.1605 30.8003 47.2087C29.2983 46.1605 27.9619 44.8685 26.8394 43.3871ZM20.097 27.8614C19.8449 29.2187 19.7114 30.6208 19.7114 32.0548C19.7114 33.4895 19.8449 34.8909 20.097 36.2482C18.6971 35.0598 17.4774 33.645 16.4867 32.0548C17.4774 30.4653 18.6971 29.0504 20.097 27.8614ZM38.5292 32.0548C38.5292 34.4743 38.0759 36.7825 37.2605 38.8949C35.2653 39.7581 33.0851 40.2374 30.8003 40.2374C28.5156 40.2374 26.3354 39.7581 24.3401 38.8949C23.5247 36.7825 23.0714 34.4743 23.0714 32.0548C23.0714 29.6359 23.5247 27.3278 24.3401 25.2154C26.3354 24.3522 28.5156 23.8729 30.8003 23.8729C33.0851 23.8729 35.2653 24.3522 37.2605 25.2154C38.0759 27.3278 38.5292 29.6359 38.5292 32.0548ZM34.7611 20.7232C33.4791 20.4564 32.1548 20.315 30.8003 20.315C29.4457 20.315 28.1214 20.4564 26.8394 20.7232C27.9619 19.2412 29.2983 17.9499 30.8003 16.901C32.3023 17.9499 33.6387 19.2412 34.7611 20.7232ZM13.6628 22.0939C13.6628 19.6744 14.1155 17.3662 14.9309 15.2539C16.9261 14.3913 19.1063 13.9113 21.3911 13.9113C23.5229 13.9113 25.5635 14.3292 27.4481 15.0856C25.0829 17.0827 23.1433 19.6219 21.7972 22.5239C19.0567 23.9484 16.6583 26.0019 14.7713 28.5059C14.0569 26.5113 13.6628 24.3509 13.6628 22.0939ZM13.6628 42.0164C13.6628 39.7594 14.0569 37.599 14.7713 35.6044C16.6583 38.1084 19.0567 40.1619 21.7972 41.5864C23.1433 44.4884 25.0829 47.0269 27.4481 49.0247C25.5635 49.7811 23.5229 50.199 21.3911 50.199C19.1063 50.199 16.9261 49.719 14.9309 48.8558C14.1155 46.7434 13.6628 44.4353 13.6628 42.0164ZM47.938 42.0164C47.938 44.4353 47.4853 46.7434 46.6699 48.8558C44.6747 49.719 42.4945 50.199 40.2097 50.199C38.0779 50.199 36.0373 49.7811 34.1527 49.0247C36.5178 47.0269 38.4574 44.4884 39.8035 41.5864C42.544 40.1619 44.9424 38.1084 46.8295 35.6044C47.5439 37.599 47.938 39.7594 47.938 42.0164ZM47.938 22.0939C47.938 24.3509 47.5439 26.5113 46.8295 28.5059C44.9424 26.0019 42.544 23.9484 39.8035 22.5239C38.4574 19.6219 36.5178 17.0827 34.1527 15.0856C36.0373 14.3292 38.0779 13.9113 40.2097 13.9113C42.4945 13.9113 44.6747 14.3913 46.6699 15.2539C47.4853 17.3662 47.938 19.6744 47.938 22.0939ZM30.8004 3.95044C36.2034 3.95044 41.0268 6.61313 44.1705 10.7617C42.8885 10.4948 41.5642 10.3541 40.2096 10.3541C36.8194 10.3541 33.6201 11.2301 30.8004 12.7793C27.9807 11.2301 24.7815 10.3541 21.3912 10.3541C20.0366 10.3541 18.7123 10.4948 17.4303 10.7617C20.574 6.61313 25.3974 3.95044 30.8004 3.95044ZM60.7072 32.0552C60.7072 23.5072 56.0137 16.0983 49.212 12.5627C45.8731 5.36176 38.875 0.392822 30.8004 0.392822C22.7257 0.392822 15.7276 5.36176 12.3887 12.5627C5.58699 16.0983 0.893555 23.5072 0.893555 32.0552C0.893555 40.6038 5.58699 48.0127 12.3887 51.5483C15.7276 58.7492 22.7257 63.7182 30.8004 63.7182C38.875 63.7182 45.8731 58.7492 49.212 51.5483C56.0137 48.0127 60.7072 40.6038 60.7072 32.0552Z" fill="#4B5058"/>
</g>
<path fill-rule="evenodd" clip-rule="evenodd" d="M5.74104 79.3223C6.45574 79.3223 7.13489 78.7788 7.34942 78.4167V77.2582C7.24215 77.1855 6.74138 76.9681 6.09839 76.9681C5.24087 76.9681 4.65091 77.4212 4.65091 78.1632C4.65091 78.8155 5.07997 79.3223 5.74104 79.3223ZM5.9556 75.8461C6.70585 75.8461 7.36692 76.0635 7.36692 76.0635C7.385 74.9231 7.17047 74.4701 6.25931 74.4701C5.43735 74.4701 4.63286 74.6875 4.25803 74.7961C4.0435 74.8505 3.91876 74.7058 3.86513 74.5068L3.72171 73.8365C3.66807 73.6014 3.79342 73.4751 3.95431 73.4207C4.07906 73.3664 5.09747 73.0044 6.42021 73.0044C8.70713 73.0044 8.92167 74.4158 8.92167 76.2264V80.0816C8.92167 80.2629 8.76077 80.4259 8.58179 80.4259H8.08162C7.92072 80.4259 7.84961 80.3532 7.7779 80.1719L7.59953 79.6835C7.20602 80.0639 6.5094 80.6066 5.40119 80.6066C4.06158 80.6066 3.09619 79.6835 3.09619 78.1812C3.09619 76.8595 4.13269 75.8461 5.9556 75.8461Z" fill="#4B5058"/>
<path fill-rule="evenodd" clip-rule="evenodd" d="M14.3887 73.0042C15.4788 73.0042 16.3183 73.4565 16.98 74.2892C17.1047 74.4522 17.0691 74.6695 16.9082 74.7959L16.3183 75.3392C16.1037 75.5382 15.979 75.3935 15.8362 75.2665C15.5144 74.9045 14.9961 74.5792 14.4068 74.5792C13.2449 74.5792 12.3338 75.5748 12.3338 76.8055C12.3338 78.0546 13.2275 79.0502 14.3887 79.0502C15.2999 79.0502 15.6753 78.5796 16.0507 78.2176C16.211 78.0546 16.3719 78.0546 16.5328 78.1809L17.0155 78.5796C17.1939 78.7242 17.2656 78.9049 17.1402 79.0862C16.5684 80.0093 15.6036 80.6063 14.3706 80.6063C12.3693 80.6063 10.6362 78.9959 10.6362 76.8239C10.6362 74.6878 12.4055 73.0042 14.3887 73.0042Z" fill="#4B5058"/>
<path fill-rule="evenodd" clip-rule="evenodd" d="M18.9272 73.5292C18.9272 73.3485 19.0881 73.1848 19.2665 73.1848H19.7667C19.9282 73.1848 20.0174 73.2758 20.071 73.4022L20.2675 74.0181C20.4284 73.8551 21.2503 73.0042 22.6261 73.0042C23.662 73.0042 24.4128 73.4205 24.9311 74.1628C25.1275 73.9638 26.164 73.0042 27.5217 73.0042C29.702 73.0042 30.4697 74.5608 30.4697 76.4435V80.0813C30.4697 80.2626 30.3269 80.4256 30.1305 80.4256H29.1301C28.9337 80.4256 28.7908 80.2626 28.7908 80.0813V76.3709C28.7908 75.2305 28.2726 74.5792 27.3072 74.5792C26.2177 74.5792 25.5922 75.3575 25.4668 75.4656C25.503 75.6292 25.5205 75.9729 25.5205 76.3349V80.0813C25.5205 80.2626 25.3596 80.4256 25.1812 80.4256H24.2339C24.0374 80.4256 23.8946 80.2626 23.8946 80.0813V76.3709C23.8946 75.2122 23.3764 74.5792 22.376 74.5792C21.304 74.5792 20.6959 75.4295 20.6067 75.6652V80.0813C20.6067 80.2626 20.4458 80.4256 20.2675 80.4256H19.2665C19.0881 80.4256 18.9272 80.2626 18.9272 80.0813V73.5292Z" fill="#4B5058"/>
<path fill-rule="evenodd" clip-rule="evenodd" d="M37.3842 76.01C37.3306 75.141 36.6159 74.3984 35.7403 74.3984C34.7755 74.3984 34.0253 75.1043 33.918 76.01H37.3842ZM35.7586 73.0042C37.6164 73.0042 39.0464 74.4162 39.0464 76.3532C39.0464 76.4796 39.0284 76.7146 39.0103 76.8416C38.9928 77.0229 38.85 77.1492 38.6891 77.1492H33.829C33.8826 78.1266 34.7221 79.0863 35.8833 79.0863C36.5269 79.0863 37.1169 78.7963 37.4736 78.5613C37.6881 78.4343 37.8135 78.3622 37.9563 78.5429L38.4565 79.2309C38.5818 79.3756 38.6355 79.5203 38.4209 79.7016C37.9027 80.154 36.9734 80.6063 35.776 80.6063C33.6145 80.6063 32.1851 78.8872 32.1851 76.8055C32.1851 74.7599 33.6145 73.0042 35.7586 73.0042Z" fill="#4B5058"/>
<path fill-rule="evenodd" clip-rule="evenodd" d="M47.9082 73.0042C48.9984 73.0042 49.8378 73.4565 50.4995 74.2892C50.6242 74.4522 50.5887 74.6695 50.4278 74.7959L49.8378 75.3392C49.6233 75.5382 49.4986 75.3935 49.3557 75.2665C49.0339 74.9045 48.5157 74.5792 47.9263 74.5792C46.7645 74.5792 45.8533 75.5748 45.8533 76.8055C45.8533 78.0546 46.747 79.0502 47.9082 79.0502C48.8194 79.0502 49.1948 78.5796 49.5703 78.2176C49.7306 78.0546 49.8915 78.0546 50.0524 78.1809L50.535 78.5796C50.7134 78.7242 50.7851 78.9049 50.6598 79.0862C50.0879 80.0093 49.1231 80.6063 47.8902 80.6063C45.8889 80.6063 44.1558 78.9959 44.1558 76.8239C44.1558 74.6878 45.925 73.0042 47.9082 73.0042Z" fill="#4B5058"/>
<path fill-rule="evenodd" clip-rule="evenodd" d="M55.5194 79.0506C56.645 79.0506 57.5387 78.0366 57.5387 76.7882C57.5387 75.5752 56.645 74.5795 55.5194 74.5795C54.3937 74.5795 53.5 75.5752 53.5 76.7882C53.5 78.0366 54.3937 79.0506 55.5194 79.0506ZM55.5192 73.0039C57.5205 73.0039 59.1289 74.7419 59.1289 76.7876C59.1289 78.8693 57.5205 80.6067 55.5192 80.6067C53.5179 80.6067 51.9102 78.8693 51.9102 76.7876C51.9102 74.7419 53.5179 73.0039 55.5192 73.0039Z" fill="#4B5058"/>
</svg>
