<svg width="142" height="43" viewBox="0 0 142 43" fill="none" xmlns="http://www.w3.org/2000/svg">
<path fill-rule="evenodd" clip-rule="evenodd" d="M5.13926 32.8576H3.50913C2.15838 32.8576 1.06299 31.6878 1.06299 30.2453V11.9075C1.06299 10.465 2.15838 9.29517 3.50913 9.29517H4.87126C6.22201 9.29517 7.3174 10.465 7.3174 11.9075V30.5315C7.3174 31.816 6.3421 32.8576 5.13926 32.8576" fill="#4B5058"/>
<path fill-rule="evenodd" clip-rule="evenodd" d="M39.4962 41.9406H37.8661C36.5153 41.9406 35.4199 40.7708 35.4199 39.3283V2.82426C35.4199 1.38173 36.5153 0.211914 37.8661 0.211914H39.2282C40.5789 0.211914 41.6743 1.38173 41.6743 2.82426V39.6145C41.6743 40.8991 40.699 41.9406 39.4962 41.9406" fill="#4B5058"/>
<path fill-rule="evenodd" clip-rule="evenodd" d="M16.5914 41.9406H14.9613C13.6105 41.9406 12.5151 40.7708 12.5151 39.3283V2.82426C12.5151 1.38173 13.6105 0.211914 14.9613 0.211914H16.3234C17.6742 0.211914 18.7695 1.38173 18.7695 2.82426V39.6145C18.7695 40.8991 17.7943 41.9406 16.5914 41.9406" fill="#4B5058"/>
<path fill-rule="evenodd" clip-rule="evenodd" d="M50.9483 32.8576H49.3182C47.9675 32.8576 46.8721 31.6878 46.8721 30.2453V11.9075C46.8721 10.465 47.9675 9.29517 49.3182 9.29517H50.6803C52.0311 9.29517 53.1265 10.465 53.1265 11.9075V30.5315C53.1265 31.816 52.1512 32.8576 50.9483 32.8576" fill="#4B5058"/>
<path fill-rule="evenodd" clip-rule="evenodd" d="M28.044 33.5964H26.4139C25.0632 33.5964 23.9678 32.4266 23.9678 30.9841V13.1668C23.9678 11.7236 25.0632 10.5544 26.4139 10.5544H27.776C29.1268 10.5544 30.2222 11.7236 30.2222 13.1668V31.2703C30.2222 32.5549 29.2469 33.5964 28.044 33.5964" fill="#4B5058"/>
<path fill-rule="evenodd" clip-rule="evenodd" d="M80.6923 23.0688L79.4035 20.0798H79.3864L78.1141 23.0688H80.6923ZM73.7205 26.9455L79.0299 14.7538C79.0811 14.6451 79.2 14.5547 79.3182 14.5547H79.4882C79.6064 14.5547 79.7252 14.6451 79.7764 14.7538L85.0859 26.9455C85.1876 27.181 85.0517 27.4166 84.7976 27.4166H82.9147C82.6094 27.4166 82.4735 27.3079 82.3205 26.9637L81.7099 25.5326H77.0964L76.4858 26.9819C76.4011 27.1993 76.214 27.4166 75.8752 27.4166H74.0087C73.7546 27.4166 73.6187 27.181 73.7205 26.9455Z" fill="#4B5058"/>
<path fill-rule="evenodd" clip-rule="evenodd" d="M98.4185 14.5547C100.115 14.5547 101.37 15.1163 102.524 16.2396C102.676 16.3847 102.676 16.6014 102.54 16.7465L101.217 18.214C101.098 18.3409 100.912 18.3409 100.793 18.214C100.166 17.6159 99.3344 17.2899 98.5032 17.2899C96.5867 17.2899 95.1785 18.993 95.1785 21.0221C95.1785 23.0323 96.6038 24.699 98.5203 24.699C99.3173 24.699 100.183 24.3912 100.793 23.8295C100.912 23.7209 101.133 23.7209 101.234 23.8478L102.557 25.351C102.676 25.478 102.659 25.7135 102.54 25.8404C101.387 27.0359 99.9285 27.5975 98.4185 27.5975C95.0261 27.5975 92.2949 24.7172 92.2949 21.0943C92.2949 17.4715 95.0261 14.5547 98.4185 14.5547" fill="#4B5058"/>
<path fill-rule="evenodd" clip-rule="evenodd" d="M112.531 14.8448C112.548 14.6814 112.7 14.5552 112.836 14.5552H113.107C113.192 14.5552 113.345 14.6274 113.396 14.7361L117.331 22.5617H117.365L121.3 14.7361C121.351 14.6274 121.504 14.5552 121.589 14.5552H121.86C121.996 14.5552 122.148 14.6814 122.165 14.8448L124.082 27.0182C124.116 27.2538 123.964 27.4164 123.76 27.4164H121.758C121.605 27.4164 121.453 27.272 121.436 27.1268L120.672 21.5295H120.639L117.789 27.3989C117.738 27.5076 117.585 27.598 117.501 27.598H117.195C117.094 27.598 116.958 27.5076 116.907 27.3989L114.041 21.5295H114.007L113.26 27.1268C113.243 27.272 113.107 27.4164 112.938 27.4164H110.936C110.732 27.4164 110.58 27.2538 110.614 27.0182L112.531 14.8448Z" fill="#4B5058"/>
<path fill-rule="evenodd" clip-rule="evenodd" d="M133.039 15.0801C133.039 14.8992 133.175 14.7358 133.361 14.7358H140.384C140.57 14.7358 140.706 14.8992 140.706 15.0801V17.0546C140.706 17.2355 140.57 17.3988 140.384 17.3988H135.685V19.6453H139.553C139.723 19.6453 139.875 19.808 139.875 19.9896V21.964C139.875 22.1631 139.723 22.3083 139.553 22.3083H135.685V24.7539H140.384C140.57 24.7539 140.706 24.9166 140.706 25.0975V27.0726C140.706 27.2535 140.57 27.4169 140.384 27.4169H133.361C133.175 27.4169 133.039 27.2535 133.039 27.0726V15.0801Z" fill="#4B5058"/>
</svg>
