<svg width="182" height="51" viewBox="0 0 182 51" fill="none" xmlns="http://www.w3.org/2000/svg">
<g clip-path="url(#clip0_2002_26479)">
<path d="M36.9894 12.9338C30.4934 12.9338 25.4177 17.8739 25.4177 24.4872C25.4177 31.1006 30.3651 35.9984 36.9894 35.9984C43.6136 35.9984 48.6471 31.016 48.6471 24.4449C48.6471 17.9162 43.6996 12.9338 36.9894 12.9338ZM37.0332 31.2323C33.3339 31.2323 30.6232 28.3541 30.6232 24.4888C30.6232 20.5797 33.2901 17.7031 36.9894 17.7031C40.7324 17.7031 43.4415 20.6236 43.4415 24.4888C43.4415 28.3541 40.7324 31.2323 37.0332 31.2323ZM50.0658 17.9601H53.2927V35.5707H58.4544V13.3631H50.0658V17.9601ZM12.4273 17.7015C15.138 17.7015 17.2887 19.3764 18.1052 21.8676H23.5689C22.5787 16.5421 18.1912 12.9338 12.4711 12.9338C5.97512 12.9338 0.899414 17.8739 0.899414 24.4888C0.899414 31.1038 5.84689 36 12.4711 36C18.063 36 22.5365 32.3917 23.5266 27.0223H18.1052C17.3309 29.5135 15.1802 31.2323 12.4695 31.2323C8.72642 31.2323 6.10335 28.3541 6.10335 24.4888C6.10498 20.5797 8.68584 17.7015 12.4273 17.7015ZM148.142 22.3408L144.357 21.783C142.55 21.5261 141.26 20.9244 141.26 19.5065C141.26 17.9601 142.938 17.1877 145.217 17.1877C147.712 17.1877 149.304 18.2609 149.648 20.022H154.638C154.078 15.5551 150.637 12.9354 145.347 12.9354C139.883 12.9354 136.27 15.7274 136.27 19.6788C136.27 23.4579 138.637 25.6499 143.41 26.3361L147.196 26.8938C149.046 27.1508 150.078 27.8825 150.078 29.2566C150.078 31.0176 148.272 31.7478 145.777 31.7478C142.722 31.7478 141.002 30.5022 140.744 28.6126H135.668C136.142 32.9511 139.539 36 145.733 36C151.369 36 155.11 33.4226 155.11 28.998C155.11 25.0466 152.401 22.9847 148.142 22.3408ZM55.8735 4.21465C53.9809 4.21465 52.5606 5.5887 52.5606 7.47823C52.5606 9.36775 53.9793 10.7418 55.8735 10.7418C57.7662 10.7418 59.1865 9.36775 59.1865 7.47823C59.1865 5.5887 57.7662 4.21465 55.8735 4.21465ZM131.624 20.9667C131.624 16.1567 128.699 12.9354 122.505 12.9354C116.655 12.9354 113.386 15.8998 112.74 20.4529H117.86C118.118 18.6918 119.494 17.2316 122.419 17.2316C125.044 17.2316 126.334 18.391 126.334 19.8089C126.334 21.6562 123.968 22.1278 121.043 22.4286C117.086 22.8579 112.182 24.2319 112.182 29.3867C112.182 33.382 115.151 35.9577 119.882 35.9577C123.582 35.9577 125.904 34.4113 127.067 31.9624C127.239 34.1528 128.873 35.5707 131.154 35.5707H134.165V30.9754H131.626V20.9667H131.624ZM126.549 26.5507C126.549 29.5151 123.968 31.7055 120.827 31.7055C118.891 31.7055 117.256 30.8892 117.256 29.172C117.256 26.9817 119.881 26.38 122.289 26.1231C124.612 25.9084 125.903 25.393 126.549 24.4043V26.5507ZM99.1477 12.9338C96.2649 12.9338 93.8561 14.1371 92.1355 16.1551V4H86.9738V35.5707H92.0495V32.6502C93.7701 34.7544 96.2227 36 99.1477 36C105.342 36 110.031 31.1038 110.031 24.4888C110.031 17.8739 105.256 12.9338 99.1477 12.9338ZM98.3735 31.2323C94.6742 31.2323 91.9635 28.3541 91.9635 24.4888C91.9635 20.6236 94.7164 17.7031 98.4157 17.7031C102.159 17.7031 104.782 20.5813 104.782 24.4888C104.782 28.3541 102.073 31.2323 98.3735 31.2323ZM74.6278 12.9338C71.2727 12.9338 69.0782 14.3078 67.7877 16.2413V13.3631H62.6682V35.5691H67.8299V23.5002C67.8299 20.1065 69.9807 17.7015 73.1637 17.7015C76.1325 17.7015 77.9813 19.8057 77.9813 22.8562V35.5707H83.1431V22.4709C83.1447 16.8852 80.2635 12.9338 74.6278 12.9338ZM179.716 23.7587C179.716 17.4023 175.071 12.9354 168.833 12.9354C162.209 12.9354 157.347 17.9178 157.347 24.4888C157.347 31.4046 162.553 36 168.919 36C174.296 36 178.512 32.821 179.586 28.3118H174.209C173.434 30.2875 171.542 31.4046 169.003 31.4046C165.69 31.4046 163.195 29.3428 162.637 25.7344H179.715V23.7587H179.716ZM162.939 22.0399C163.757 18.9471 166.08 17.4446 168.747 17.4446C171.672 17.4446 173.908 19.1195 174.425 22.0399H162.939Z" fill="#4B5058"/>
</g>
<defs>
<clipPath id="clip0_2002_26479">
<rect width="178.817" height="32" fill="white" transform="translate(0.899414 4)"/>
</clipPath>
</defs>
</svg>
