<svg width="182" height="31" viewBox="0 0 182 31" fill="none" xmlns="http://www.w3.org/2000/svg">
<g clip-path="url(#clip0_2002_25842)">
<path d="M19.4484 0.983215H0.853027V6.38468H19.4484V0.983215Z" fill="#4B5058"/>
<path d="M7.49256 24.0845V17.6104H18.6733V12.2108H7.49256V6.39566H19.4357V0.996028H7.49256V0.983215H0.853192V0.996028H0.840332V6.39566H0.853192V12.2108H0.840332V17.6104H0.853192V24.0845V29.4841H7.49256H19.4486V24.0845H7.49256Z" fill="#4B5058"/>
<path d="M69.6262 0.999512H62.5368L51.8521 29.484H58.9415L60.9127 23.5462H70.9416L73.0855 29.484H80.4505L69.6262 0.999512ZM62.3292 18.606L65.8913 8.51141L69.6262 18.606H62.3292Z" fill="#4B5058"/>
<path d="M158.544 12.7654L160.8 18.6061H181.159L178.97 12.7654H158.544Z" fill="#4B5058"/>
<path d="M160.763 18.606H154.073H146.775H140.379L136.298 29.4839H143.388L145.359 23.548H155.388L157.532 29.4839H164.897L160.763 18.606Z" fill="#4B5058"/>
<path d="M148.836 12.7652L150.337 8.51141L151.912 12.7652H158.544L154.072 0.999512H146.983L142.57 12.7652H148.836Z" fill="#4B5058"/>
<path d="M42.0502 17.9218C45.324 16.5289 47.602 13.4428 47.602 9.8571C47.602 4.96632 43.3656 0.999872 38.1408 0.999872C38.1317 0.999872 38.1243 0.999872 38.1151 0.999872H33.0373V0.983398H26.3979V29.4861H33.0373V18.7143H35.2731L41.2327 29.4861H49.2205L42.0484 17.9236L42.0502 17.9218ZM39.1917 12.7546C39.1917 12.7546 38.2841 13.5069 36.8714 13.5069H33.0392V6.20732H37.1286C38.3429 6.29334 39.0612 6.84063 39.3258 7.0859C40.1507 7.89859 40.6246 8.8449 40.6246 9.8571C40.6246 10.9224 40.0992 11.9145 39.1898 12.7546H39.1917Z" fill="#4B5058"/>
<path d="M123.366 0.873592C123.366 0.873592 110.71 0.470908 108.566 12.7656H115.62C115.62 12.7656 116.68 9.02246 120.245 7.50141C120.658 7.34034 121.936 6.934 124.156 7.01819C126.417 7.10971 129.448 7.7174 131.39 10.0383L133.742 4.8016C133.742 4.8016 129.869 0.873592 123.368 0.873592H123.366Z" fill="#4B5058"/>
<path d="M123.366 30.498C123.366 30.498 110.71 30.9007 108.566 18.606H115.62C115.62 18.606 116.68 22.3491 120.245 23.8701C120.658 24.0312 121.936 24.4376 124.156 24.3534C126.417 24.2618 129.448 23.6542 131.39 21.3332L133.742 26.57C133.742 26.57 129.869 30.498 123.368 30.498H123.366Z" fill="#4B5058"/>
<path d="M103.63 19.483C103.326 16.3713 101.408 14.4091 98.5958 13.2285C97.5302 12.7819 96.4335 12.4122 95.3606 11.9857C94.2014 11.5263 93.0219 11.1035 91.9087 10.5544C90.6631 9.93935 90.2314 8.99487 90.4316 7.72275C90.5767 6.8039 91.4163 5.93081 92.6086 5.80451C93.7054 5.68736 94.9105 5.59218 95.9228 5.92165C97.5413 6.4488 99.0422 7.33654 100.694 8.11995L102.384 5.37803C102.542 5.13276 102.7 4.88932 102.865 4.64588C102.948 4.52324 103.005 4.41342 103.042 4.31092L103.319 3.86064L102.672 3.43599C102.648 3.41769 102.625 3.40121 102.599 3.38291C102.309 3.1834 102.018 2.99487 101.726 2.81549L101.713 2.80634C97.5247 0.23831 93.0697 -0.33094 88.431 1.84356C83.039 4.37132 82.3042 11.8283 87.0825 14.9985C88.0856 15.6648 89.2228 16.1517 90.3398 16.6203C92.1016 17.3616 93.9221 17.9656 95.6729 18.7289C96.7293 19.1883 97.3392 20.109 97.2492 21.2749C97.15 22.5745 96.3674 23.4458 95.1016 23.8137C93.3545 24.3225 91.6349 24.0809 90.0476 23.292C88.5945 22.569 87.235 21.6648 85.7782 20.8082C84.8118 22.2267 83.7922 23.7203 82.644 25.4043C84.1395 26.3286 85.4842 27.3536 86.9833 28.0473C91.1481 29.9711 95.379 30.0626 99.4188 27.7362C102.553 25.9314 103.98 23.0705 103.631 19.4848L103.63 19.483Z" fill="#4B5058"/>
<path d="M160.332 1.18297H161.289V4.35869H161.656V1.18297H162.615V0.816895H160.332V1.18297Z" fill="#4B5058"/>
<path d="M166.352 0.820536C166.267 0.804062 166.181 0.849822 166.146 0.928528L164.891 3.90107L163.543 0.924868C163.508 0.846161 163.422 0.802232 163.337 0.820536C163.253 0.83884 163.192 0.913885 163.192 0.999913V4.35867H163.559V1.85104L164.73 4.43554C164.759 4.50144 164.825 4.54354 164.897 4.54354H164.899C164.972 4.54354 165.036 4.49778 165.066 4.43188L166.131 1.90961V4.3605H166.499V0.999913C166.499 0.912055 166.436 0.837009 166.352 0.820536Z" fill="#4B5058"/>
</g>
<defs>
<clipPath id="clip0_2002_25842">
<rect width="180.319" height="30" fill="white" transform="translate(0.840332 0.5)"/>
</clipPath>
</defs>
</svg>
