<svg width="1416" height="360" viewBox="0 0 1416 360" fill="none" xmlns="http://www.w3.org/2000/svg">
<g clip-path="url(#clip0_2309_4788)">
<path d="M0 0V2000M80 0V2000" stroke="#184C7C"/>
<path d="M1280 0V2000M1360 0V2000" stroke="#184C7C"/>
<path d="M640 0V2000M720 0V2000" stroke="#184C7C"/>
<path d="M320 0V2000M400 0V2000" stroke="#184C7C"/>
<path d="M960 0V2000M1040 0V2000" stroke="#184C7C"/>
<path d="M159 0V2000M239 0V2000" stroke="#184C7C"/>
<path d="M799 0V2000M879 0V2000" stroke="#184C7C"/>
<path d="M479 0V2000M559 0V2000" stroke="#184C7C"/>
<path d="M1119 0V2000M1199 0V2000" stroke="#184C7C"/>
<path d="M2000 0L1.90735e-05 -8.74228e-05M2000 80L1.55766e-05 79.9999" stroke="#184C7C"/>
<path d="M2000 320L1.90735e-05 320M2000 400L1.55766e-05 400" stroke="#184C7C"/>
<path d="M2000 159L1.90735e-05 159M2000 239L1.55766e-05 239" stroke="#184C7C"/>
</g>
<defs>
<clipPath id="clip0_2309_4788">
<rect width="1416" height="360" fill="white"/>
</clipPath>
</defs>
</svg>
