<svg width="196" height="41" viewBox="0 0 196 41" fill="none" xmlns="http://www.w3.org/2000/svg">
<path d="M189.697 1.6341C188.14 1.60079 186.288 1.93553 184.19 2.62447C183.875 2.73439 183.626 2.90801 183.402 3.1277C181.269 5.12242 179.193 7.23706 177.231 9.42333L177.08 9.58928C177.039 9.63629 177.034 9.70632 177.064 9.76059C177.096 9.81555 177.158 9.84392 177.22 9.83021L177.441 9.78471C180.602 9.11158 183.795 8.59484 186.926 8.25363C187.132 8.23102 187.345 8.30132 187.499 8.441C187.652 8.58209 187.742 8.78336 187.738 8.99241C187.686 12.0873 187.797 15.1975 188.074 18.2378L188.093 18.4359C188.1 18.4966 188.142 18.5455 188.203 18.5617C188.214 18.5644 188.224 18.5671 188.238 18.5671C188.284 18.5678 188.331 18.546 188.359 18.5056L188.474 18.3423C190.239 15.8355 192.159 13.3985 194.178 11.0938C194.404 10.8374 194.464 10.6761 194.506 10.4434C195.142 6.39212 194.161 3.39598 193.283 2.63805C192.521 1.98001 191.415 1.67102 189.697 1.63428L189.697 1.6341ZM184.854 9.8409L184.66 9.86763C181.639 10.2819 178.581 10.8559 175.57 11.5727C175.271 11.6557 175.08 11.8489 175.038 11.8939C172.784 14.5817 170.649 17.4106 168.691 20.3095C168.594 20.4561 168.584 20.8074 168.584 20.8074C168.584 20.8074 169.075 24.5835 169.794 27.3653C168.013 32.4632 166.426 39.1803 166.426 39.1803C166.413 39.2239 166.421 39.2694 166.447 39.3061C166.474 39.3429 166.516 39.3663 166.563 39.3677H167.576C167.64 39.3687 167.696 39.33 167.718 39.2713L167.788 39.0813C168.822 36.2723 170.001 33.4994 171.304 30.7969C171.607 30.1673 172.248 28.8964 172.248 28.8964C172.353 28.6901 172.844 27.752 172.954 27.542L172.973 27.5046C176.254 21.3412 180.254 15.5278 184.857 10.2263L184.983 10.0818C185.022 10.0358 185.03 9.96902 185.002 9.91585C184.971 9.86227 184.913 9.83294 184.854 9.84089L184.854 9.8409ZM186.246 11.0026C186.189 10.9813 186.124 10.9957 186.085 11.0427L185.958 11.19C180.591 17.3712 176.081 24.2318 172.551 31.5812L172.468 31.7525C172.441 31.8068 172.451 31.8721 172.492 31.9158C172.52 31.9445 172.557 31.9609 172.597 31.9613C172.615 31.962 172.638 31.9585 172.656 31.9503L172.834 31.8753C175.848 30.6317 178.927 29.5541 181.986 28.674C182.169 28.6211 182.321 28.4946 182.408 28.326C183.749 25.7237 186.862 20.6867 186.862 20.6867C186.942 20.5731 186.923 20.4029 186.923 20.4029C186.923 20.4029 186.377 14.3781 186.343 11.3289L186.34 11.1362C186.337 11.0757 186.302 11.0225 186.246 11.0023L186.246 11.0026ZM178.287 31.2359L178.037 31.3215C176.417 31.8577 174.019 32.6818 171.869 33.6663C171.753 33.7202 171.678 33.8698 171.678 33.8698C171.638 33.9615 171.589 34.076 171.533 34.2044L171.524 34.2204C171.283 34.7665 170.949 35.5884 170.807 35.9228L170.696 36.1878C170.679 36.2297 170.69 36.2766 170.723 36.3082C170.743 36.3272 170.766 36.3366 170.796 36.3377C170.811 36.3377 170.828 36.335 170.844 36.3267L171.105 36.2037C171.693 35.9249 172.439 35.5027 173.22 35.133L173.247 35.1193C174.732 34.4176 176.409 33.6257 177.419 33.1465C177.419 33.1459 177.581 33.0592 177.663 32.8976L178.419 31.3879C178.439 31.3485 178.433 31.3012 178.405 31.2675C178.374 31.2346 178.329 31.2216 178.287 31.2354L178.287 31.2359Z" fill="#4B5058"/>
<path d="M39.6562 5.31213V30.3689H42.7231V28.6183H42.793C43.965 29.957 46.1032 30.8855 47.9645 30.8855C52.7903 30.8855 55.8911 27.1089 55.8911 21.2734C55.8911 15.6095 52.6507 11.6613 48.0317 11.6613C46.2048 11.6613 44.2763 12.5554 43.0699 13.9285H43V5.31213H39.6562ZM58.5118 5.31213V8.84808H62.1297V5.31213H58.5118ZM84.157 5.31213V30.3689H87.5007V18.9393C87.5007 16.4678 89.2935 14.7502 91.8443 14.7502C94.3606 14.7502 95.809 16.398 95.809 19.2471V30.3689H99.1527V18.4254C99.1527 14.2718 96.6358 11.6613 92.6372 11.6613C90.6035 11.6613 88.5357 12.6223 87.5706 13.9954H87.5007V5.31213H84.157ZM151.892 5.31213V13.9285H151.822C150.615 12.5211 148.719 11.6613 146.892 11.6613C142.273 11.6613 138.998 15.6781 138.998 21.2734C138.998 27.1089 142.101 30.8855 146.927 30.8855C148.789 30.8855 150.924 29.957 152.096 28.6183H152.166V30.3689H155.233V5.31213H151.892ZM1.29199 6.34266V30.3689H4.73787V20.8612H9.66746C13.4592 20.8612 14.839 22.372 14.839 26.5599V30.3689H18.1827V26.5599C18.1827 22.7242 17.0067 20.4469 14.4546 19.5094C17.0709 18.5967 18.8708 16.4483 18.8708 13.3102C18.8708 9.05365 15.6982 6.34266 10.7346 6.34266H1.29199ZM4.73787 9.46639H10.4254C13.7001 9.46639 15.39 10.8723 15.39 13.6528C15.39 16.3303 13.6661 17.807 10.4604 17.807H4.73787V9.46639ZM28.7972 11.6613C23.8335 11.6613 20.4217 15.6095 20.4217 21.2734C20.4217 27.0746 23.7301 30.8855 28.7972 30.8855C33.7953 30.8855 37.0705 27.0746 37.0705 21.2734C37.0705 15.6095 33.6919 11.6613 28.7972 11.6613ZM74.1257 11.6613C72.1954 11.6613 70.1286 12.5897 69.129 13.9285H69.0591V12.1779H65.7852V30.3689H69.1289V18.9393C69.1289 16.3648 70.8184 14.7502 73.4726 14.7502C76.0923 14.7502 77.3324 16.263 77.3324 19.4211V30.3689H80.7111V18.4575C80.7111 14.2696 78.1587 11.6613 74.1257 11.6613H74.1257ZM109.939 11.6613C104.976 11.6613 101.564 15.6095 101.564 21.2734C101.564 27.0746 104.872 30.8855 109.939 30.8855C114.937 30.8855 118.213 27.0746 118.213 21.2734C118.213 15.6095 114.834 11.6613 109.939 11.6613ZM128.658 11.6613C123.694 11.6613 120.282 15.6095 120.282 21.2734C120.282 27.0746 123.591 30.8855 128.658 30.8855C133.656 30.8855 136.931 27.0746 136.931 21.2734C136.931 15.6095 133.552 11.6613 128.658 11.6613ZM58.6489 12.1779V30.3689H61.9926V12.1779H58.6489ZM28.7972 14.7181C31.8305 14.7181 33.7617 17.2915 33.7617 21.2734C33.7617 25.2896 31.8305 27.8635 28.7972 27.8635C25.6604 27.8635 23.7305 25.3239 23.7305 21.2734C23.7305 17.2228 25.6604 14.7181 28.7972 14.7181ZM47.4458 14.7181C50.7204 14.7181 52.5474 17.0855 52.5474 21.2734C52.5474 25.4956 50.7204 27.8635 47.4458 27.8635C44.9294 27.8635 43 26.1487 43 23.8832V19.0089C43 16.5717 44.9294 14.7181 47.4458 14.7181ZM109.939 14.7181C112.973 14.7181 114.904 17.2915 114.904 21.2734C114.904 25.2896 112.973 27.8635 109.939 27.8635C106.802 27.8635 104.873 25.3239 104.873 21.2734C104.873 17.2228 106.802 14.7181 109.939 14.7181ZM128.658 14.7181C131.691 14.7181 133.622 17.2915 133.622 21.2734C133.622 25.2896 131.691 27.8635 128.658 27.8635C125.521 27.8635 123.591 25.3239 123.591 21.2734C123.591 17.2228 125.521 14.7181 128.658 14.7181ZM147.443 14.7181C149.96 14.7181 151.892 16.5717 151.892 19.0089V23.8832C151.892 26.1487 149.96 27.8635 147.443 27.8635C144.169 27.8635 142.342 25.4956 142.342 21.2734C142.342 17.0855 144.169 14.7181 147.443 14.7181Z" fill="#4B5058"/>
</svg>
