<svg width="176" height="31" viewBox="0 0 176 31" fill="none" xmlns="http://www.w3.org/2000/svg">
<path d="M34.8262 0.5L28.5567 24.3167L52.7063 30.5L58.9759 6.68329L34.8262 0.5ZM0.100098 3.14749V27.856H11.1823V18.7078C12.7475 18.7078 13.8966 19.4525 14.6298 20.9421C15.3741 22.4317 15.8504 24.7363 16.0583 27.856H27.5674C27.0419 23.0092 25.4275 19.064 22.7239 16.0199C24.6284 14.7031 25.5808 12.8788 25.5808 10.5472C25.5808 8.43125 24.7709 6.6719 23.1509 5.26876C21.5311 3.85458 19.3035 3.14766 16.4687 3.14766L0.100098 3.14749ZM61.463 3.14749V27.856H78.9481C81.6625 27.856 83.7695 27.2353 85.2691 25.9939C86.7795 24.7527 87.5346 23.0957 87.5346 21.0231C87.5346 19.6953 87.2011 18.5891 86.5333 17.7039C85.8657 16.808 84.886 16.0253 83.5945 15.356C85.7726 14.1361 86.8618 12.3661 86.8618 10.0453C86.8618 7.91867 86.0408 6.24008 84.399 5.00954C82.7682 3.76829 80.3491 3.14766 77.1423 3.14766L61.463 3.14749ZM90.8848 3.14749V27.856H111.703V21.6546H101.983V3.14766L90.8848 3.14749ZM143.118 3.14749L152.903 15.356L143.118 27.856H155.169L158.994 22.95L162.967 27.856H175.1L165.02 15.2913L174.493 3.14766H162.458L158.929 7.69741L155.234 3.14766L143.118 3.14749ZM115.162 3.19685V27.8033H140.112V3.19685H115.162ZM72.5616 8.11835H73.2347C75.183 8.11835 76.1572 8.91726 76.1572 10.5147C76.1572 11.3999 75.9052 12.0259 75.4019 12.393C74.8984 12.7492 74.0448 12.9273 72.8408 12.9273H72.5616V8.11835ZM11.1821 8.23174H11.8554C12.7967 8.23174 13.4697 8.47992 13.8747 8.97646C14.2796 9.46229 14.4823 10.0292 14.4823 10.6768C14.4823 12.2204 13.4862 12.992 11.4942 12.992H11.1823L11.1821 8.23174ZM42.0395 12.6029L46.7036 13.7972L45.4926 18.3971L40.8289 17.2028L42.0395 12.6029ZM125.228 13.1239H130.046V17.8761H125.228L125.228 13.1239ZM72.5618 17.0724H73.3334C75.4019 17.0724 76.4365 18.0005 76.4365 19.8572C76.4365 20.7963 76.1628 21.4602 75.6157 21.8489C75.0792 22.2269 74.1762 22.4155 72.9067 22.4155H72.5618V17.0724Z" fill="#4B5058"/>
</svg>
