<svg width="168" height="41" viewBox="0 0 168 41" fill="none" xmlns="http://www.w3.org/2000/svg">
<g clip-path="url(#clip0_2002_26509)">
<path fill-rule="evenodd" clip-rule="evenodd" d="M22.1065 13.3502C21.7723 14.1138 21.2591 14.7201 20.5819 15.1523C19.984 15.5337 19.3176 15.7397 18.6011 15.7648C18.3072 15.772 18.0403 15.5334 18.0299 15.2237C18.0195 14.9143 18.2579 14.6544 18.563 14.6439C19.082 14.6256 19.5635 14.4772 19.9941 14.2026C20.4821 13.8911 20.8534 13.4509 21.0968 12.8943C21.2412 12.566 21.217 12.2002 21.0311 11.8907C20.848 11.5852 20.5434 11.3985 20.1963 11.3782C19.451 11.3347 18.8346 11.5623 18.3496 12.0547C17.5655 12.8507 17.2455 14.2711 17.1088 14.8775C16.9911 15.3973 15.6865 21.0225 15.1589 23.296C15.0762 23.654 14.7655 23.9045 14.4026 23.9049H14.4022C14.0396 23.9049 13.7285 23.6545 13.645 23.2961L13.4544 22.474C12.8556 19.892 11.801 15.3429 11.6967 14.8815C11.5589 14.2711 11.2388 12.8507 10.4543 12.0544C9.96952 11.5623 9.34765 11.3356 8.60815 11.3782C8.26059 11.3985 7.95636 11.5852 7.77298 11.8907C7.5873 12.2001 7.56327 12.566 7.70678 12.8943C7.95092 13.4509 8.32252 13.8913 8.81024 14.2026C9.24077 14.4772 9.72236 14.6256 10.2414 14.6439C10.5464 14.6544 10.7849 14.9143 10.7744 15.2237C10.764 15.5331 10.5018 15.7736 10.2033 15.7648C9.48676 15.7397 8.82029 15.5337 8.22257 15.1523C7.54559 14.7206 7.03233 14.1143 6.69748 13.3502C6.40838 12.69 6.45761 11.9262 6.82955 11.3067C7.19918 10.6913 7.84023 10.2994 8.54483 10.2583C9.60231 10.1944 10.5291 10.5437 11.2356 11.2614C12.2449 12.2855 12.6149 13.9266 12.7729 14.6272C12.8707 15.0602 13.7928 19.0378 14.4022 21.6655C15.0118 19.0373 15.9337 15.0603 16.0307 14.6307C16.1895 13.9266 16.5596 12.2855 17.5684 11.2614C18.2756 10.5435 19.205 10.1952 20.2596 10.2583C20.9642 10.2994 21.6051 10.6913 21.9749 11.307C22.3468 11.9265 22.396 12.6903 22.1065 13.3502ZM17.167 4.48059C16.4265 4.48059 15.6725 4.60857 14.9266 4.86124C14.5871 4.97631 14.217 4.97607 13.8781 4.86147C13.1318 4.60857 12.378 4.48059 11.6373 4.48059C7.38556 4.48059 3.79346 8.79508 3.79346 13.9024C3.79346 19.588 8.07756 24.6076 14.2119 26.1091C14.3357 26.1394 14.4687 26.1394 14.5924 26.1091C20.7268 24.6076 25.011 19.588 25.011 13.9024C25.011 8.79508 21.4188 4.48059 17.167 4.48059Z" fill="#4B5058"/>
<path fill-rule="evenodd" clip-rule="evenodd" d="M14.8511 27.1995C14.7047 27.2355 14.5537 27.2537 14.4018 27.2537C14.2501 27.2537 14.099 27.2355 13.9526 27.1995C7.32012 25.5762 2.68822 20.1083 2.68822 13.9026C2.68822 8.18728 6.78641 3.35901 11.637 3.35901C12.4969 3.35901 13.3682 3.50657 14.2271 3.79737C14.34 3.83537 14.4634 3.83549 14.577 3.79713C15.4356 3.50657 16.3067 3.35901 17.1667 3.35901C22.0174 3.35901 26.1156 8.18728 26.1156 13.9026C26.1156 20.1083 21.4835 25.5762 14.8511 27.1995ZM25.4656 25.6575C25.4656 25.9675 25.2181 26.2186 24.9132 26.2186C24.6081 26.2186 24.3606 25.9675 24.3606 25.6575V24.875C24.3606 24.5651 24.6081 24.3141 24.9132 24.3141C25.2181 24.3141 25.4656 24.5651 25.4656 24.875V25.6575ZM25.4656 29.2146C25.4656 29.5243 25.2181 29.7754 24.9132 29.7754C24.6081 29.7754 24.3606 29.5243 24.3606 29.2146V28.4319C24.3606 28.1219 24.6081 27.871 24.9132 27.871C25.2181 27.871 25.4656 28.1219 25.4656 28.4319V29.2146ZM21.9617 30.9931C21.9617 31.3029 21.7141 31.554 21.4091 31.554C21.1041 31.554 20.8567 31.3029 20.8567 30.9931V30.2105C20.8567 29.9006 21.1041 29.6497 21.4091 29.6497C21.7141 29.6497 21.9617 29.9006 21.9617 30.2105V30.9931ZM21.9617 34.55C21.9617 34.8599 21.7141 35.1108 21.4091 35.1108C21.1041 35.1108 20.8567 34.8599 20.8567 34.55V33.7673C20.8567 33.4575 21.1041 33.2065 21.4091 33.2065C21.7141 33.2065 21.9617 33.4575 21.9617 33.7673V34.55ZM18.458 32.7716C18.458 33.0815 18.2105 33.3324 17.9055 33.3324C17.6005 33.3324 17.353 33.0815 17.353 32.7716V31.9889C17.353 31.679 17.6005 31.4281 17.9055 31.4281C18.2105 31.4281 18.458 31.679 18.458 31.9889V32.7716ZM18.458 36.3284C18.458 36.6383 18.2105 36.8893 17.9055 36.8893C17.6005 36.8893 17.353 36.6383 17.353 36.3284V35.5457C17.353 35.236 17.6005 34.9849 17.9055 34.9849C18.2105 34.9849 18.458 35.236 18.458 35.5457V36.3284ZM14.9544 30.9931C14.9544 31.3029 14.7069 31.554 14.4018 31.554C14.0969 31.554 13.8494 31.3029 13.8494 30.9931V30.2105C13.8494 29.9006 14.0969 29.6497 14.4018 29.6497C14.7069 29.6497 14.9544 29.9006 14.9544 30.2105V30.9931ZM14.9544 34.55C14.9544 34.8599 14.7069 35.1108 14.4018 35.1108C14.0969 35.1108 13.8494 34.8599 13.8494 34.55V33.7673C13.8494 33.4575 14.0969 33.2065 14.4018 33.2065C14.7069 33.2065 14.9544 33.4575 14.9544 33.7673V34.55ZM11.4507 32.7716C11.4507 33.0815 11.2033 33.3324 10.8982 33.3324C10.5932 33.3324 10.3458 33.0815 10.3458 32.7716V31.9889C10.3458 31.679 10.5932 31.4281 10.8982 31.4281C11.2033 31.4281 11.4507 31.679 11.4507 31.9889V32.7716ZM11.4507 36.3284C11.4507 36.6383 11.2033 36.8893 10.8982 36.8893C10.5932 36.8893 10.3458 36.6383 10.3458 36.3284V35.5457C10.3458 35.236 10.5932 34.9849 10.8982 34.9849C11.2033 34.9849 11.4507 35.236 11.4507 35.5457V36.3284ZM7.94673 30.9931C7.94673 31.3029 7.69923 31.554 7.39418 31.554C7.08926 31.554 6.84176 31.3029 6.84176 30.9931V30.2105C6.84176 29.9006 7.08926 29.6497 7.39418 29.6497C7.69923 29.6497 7.94673 29.9006 7.94673 30.2105V30.9931ZM7.94673 34.55C7.94673 34.8599 7.69923 35.1108 7.39418 35.1108C7.08926 35.1108 6.84176 34.8599 6.84176 34.55V33.7673C6.84176 33.4575 7.08926 33.2065 7.39418 33.2065C7.69923 33.2065 7.94673 33.4575 7.94673 33.7673V34.55ZM4.44302 25.6575C4.44302 25.9675 4.19563 26.2186 3.89059 26.2186C3.58555 26.2186 3.33816 25.9675 3.33816 25.6575V24.875C3.33816 24.5651 3.58555 24.3141 3.89059 24.3141C4.19563 24.3141 4.44302 24.5651 4.44302 24.875V25.6575ZM4.44302 29.2146C4.44302 29.5243 4.19563 29.7754 3.89059 29.7754C3.58555 29.7754 3.33816 29.5243 3.33816 29.2146V28.4319C3.33816 28.1219 3.58555 27.871 3.89059 27.871C4.19563 27.871 4.44302 28.1219 4.44302 28.4319V29.2146ZM14.4018 0.500122C6.81599 0.500122 0.666504 6.74306 0.666504 14.4442V26.491C0.666504 34.192 6.81599 40.435 14.4018 40.435C21.9877 40.435 28.1372 34.192 28.1372 26.491V14.4442C28.1372 6.74306 21.9877 0.500122 14.4018 0.500122Z" fill="#4B5058"/>
<path fill-rule="evenodd" clip-rule="evenodd" d="M44.0005 19.8591C41.4838 19.2166 40.448 18.8225 40.448 17.3916C40.448 16.3558 41.3855 15.5658 43.0138 15.5658C44.6913 15.5658 45.7272 16.2566 46.5172 17.2933L48.5405 15.615C47.2572 13.9383 45.5297 13 42.9647 13C39.7572 13 37.6347 14.8258 37.6347 17.49C37.6347 20.3525 39.5597 21.5858 42.7672 22.4741C45.5797 23.2633 46.7147 23.8558 46.7147 25.2875C46.7147 26.6183 45.5297 27.4575 43.458 27.4575C41.2863 27.4575 39.658 26.4716 38.6713 24.8425L36.5005 26.3716C37.9805 28.6425 40.3488 30.0233 43.458 30.0233C47.3063 30.0233 49.6255 28.1983 49.6255 25.1383C49.6255 22.1775 47.4547 20.7466 44.0005 19.8591Z" fill="#4B5058"/>
<path fill-rule="evenodd" clip-rule="evenodd" d="M61.072 27.359C57.8645 27.359 55.7428 24.9415 55.7428 21.5365C55.7428 18.0823 57.8645 15.6648 61.072 15.6648C64.2303 15.6648 66.302 18.0823 66.302 21.5365C66.302 24.9415 64.2303 27.359 61.072 27.359ZM66.2036 16.1582C65.0686 14.1348 63.1445 12.9998 60.4795 12.9998C55.9895 12.9998 52.5845 16.6515 52.5845 21.5365C52.5845 26.3715 55.9895 30.0232 60.4795 30.0232C63.1445 30.0232 65.0686 28.889 66.2036 26.8657V29.629H69.2136V13.3948H66.2036V16.1582Z" fill="#4B5058"/>
<path fill-rule="evenodd" clip-rule="evenodd" d="M92.6996 12.9995C90.0838 12.9995 88.2588 13.987 86.9755 16.0095C85.9888 13.987 84.2621 12.9995 82.0905 12.9995C79.8696 12.9995 78.143 13.9378 77.2546 15.6153V13.3953H74.2446V29.6286H77.2546V20.3028C77.2546 17.342 78.7846 15.7145 81.4496 15.7145C83.768 15.7145 84.9038 17.0953 84.9038 19.6611V29.6286H87.913V20.2045C87.913 17.342 89.3938 15.7145 92.108 15.7145C94.3771 15.7145 95.5613 17.0453 95.5613 19.6128V29.6286H98.5713V19.267C98.5713 15.3186 96.1046 12.9995 92.6996 12.9995Z" fill="#4B5058"/>
<path fill-rule="evenodd" clip-rule="evenodd" d="M109.424 19.859C106.908 19.2165 105.871 18.8223 105.871 17.3915C105.871 16.3557 106.809 15.5657 108.437 15.5657C110.115 15.5657 111.151 16.2565 111.941 17.2932L113.964 15.6148C112.681 13.9382 110.953 12.9998 108.388 12.9998C105.18 12.9998 103.058 14.8257 103.058 17.4898C103.058 20.3523 104.983 21.5857 108.191 22.474C111.003 23.2632 112.138 23.8557 112.138 25.2873C112.138 26.6182 110.953 27.4573 108.881 27.4573C106.71 27.4573 105.082 26.4715 104.095 24.8423L101.924 26.3715C103.404 28.6423 105.773 30.0232 108.881 30.0232C112.73 30.0232 115.049 28.1982 115.049 25.1382C115.049 22.1773 112.878 20.7465 109.424 19.859Z" fill="#4B5058"/>
<path fill-rule="evenodd" clip-rule="evenodd" d="M126.496 27.359C123.288 27.359 121.167 24.9415 121.167 21.5365C121.167 18.0823 123.288 15.6648 126.496 15.6648C129.654 15.6648 131.726 18.0823 131.726 21.5365C131.726 24.9415 129.654 27.359 126.496 27.359ZM131.627 16.1582C130.492 14.1348 128.568 12.9998 125.904 12.9998C121.413 12.9998 118.008 16.6515 118.008 21.5365C118.008 26.3715 121.413 30.0232 125.904 30.0232C128.568 30.0232 130.492 28.889 131.627 26.8657V29.629H134.637V13.3948H131.627V16.1582Z" fill="#4B5058"/>
<path fill-rule="evenodd" clip-rule="evenodd" d="M159.018 27.359C155.811 27.359 153.689 24.9415 153.689 21.5365C153.689 18.0823 155.811 15.6648 159.018 15.6648C162.177 15.6648 164.248 18.0823 164.248 21.5365C164.248 24.9415 162.177 27.359 159.018 27.359ZM164.15 13.3948V16.1582C163.015 14.1348 161.091 12.9998 158.427 12.9998C153.936 12.9998 150.531 16.6515 150.531 21.5365C150.531 26.3715 153.936 30.0232 158.427 30.0232C161.091 30.0232 163.015 28.889 164.15 26.8657V29.629H167.16V13.3948H164.15Z" fill="#4B5058"/>
<path fill-rule="evenodd" clip-rule="evenodd" d="M142.678 17.1441V13.395H139.668V29.6283H142.678V21.1733L149.342 15.2516L147.341 12.9991L142.678 17.1441Z" fill="#4B5058"/>
</g>
<defs>
<clipPath id="clip0_2002_26509">
<rect width="166.667" height="40" fill="white" transform="translate(0.666504 0.5)"/>
</clipPath>
</defs>
</svg>
