<svg width="159" height="41" viewBox="0 0 159 41" fill="none" xmlns="http://www.w3.org/2000/svg">
<path d="M156.749 18.3169C156.749 9.34691 150.499 3.03857 141.737 3.03857C130.584 3.03857 123.109 11.1419 123.109 22.7136C123.109 31.7436 129.419 37.9919 138.329 37.9919C146.432 37.9919 152.472 34.0752 154.954 27.8252H145.954C144.757 29.7702 142.215 30.9952 139.107 30.9952C134.322 30.9952 131.332 27.8252 131.062 23.3402H156.24C156.569 21.6369 156.749 20.1719 156.749 18.3169ZM131.75 17.2702C132.557 13.1452 136.565 9.85524 141.409 9.85524C145.595 9.85524 148.764 12.9052 148.764 17.2719H131.75V17.2702ZM98.9186 37.1836L100.534 28.5736C105.467 29.5602 106.215 26.7786 107.5 20.0819L108.129 16.7619C109.922 7.40357 113.54 2.73857 123.887 3.99524L122.27 12.6069C117.337 11.6202 116.47 15.3569 115.365 21.1569L114.737 24.4769C112.942 33.9552 109.204 38.4402 98.9203 37.1852L98.9186 37.1836ZM86.8386 37.2152L92.9386 3.84524H100.982L94.9119 37.2152H86.8386ZM40.7603 3.84524H48.5653L51.1069 27.9752L61.3336 3.84524H69.0769L71.8003 28.2152L81.6669 3.84524H89.4419L75.2986 37.2152H66.4486L63.5753 14.2502L53.8003 37.2169H45.2486L40.7603 3.84524Z" fill="#4B5058"/>
<path d="M11.6067 12.695L2.33838 21.545H18.095L19.74 17.69H11.7567L16.75 12.695L13.85 7.70164H27.395L14.895 37.215H19.59L33.7334 3.84497H6.40505L11.6067 12.695Z" fill="#4B5058"/>
</svg>
