<svg width="24" height="24" viewBox="0 0 24 24" fill="none" xmlns="http://www.w3.org/2000/svg">
<path d="M22.907 22.2176L16.2005 15.5237C17.5935 13.9799 18.4496 11.9445 18.4496 9.7083C18.4496 4.90659 14.5356 1 9.7248 1C4.91397 1 1 4.90659 1 9.70835C1 14.5101 4.91397 18.4167 9.7248 18.4167C11.9653 18.4167 14.0044 17.5622 15.5511 16.1718L22.2577 22.8657C22.3474 22.9552 22.4649 23 22.5824 23C22.6999 23 22.8174 22.9552 22.9071 22.8657C23.0864 22.6867 23.0864 22.3966 22.907 22.2176ZM9.7248 17.5C5.42071 17.5 1.91843 14.0048 1.91843 9.70835C1.91843 5.41195 5.42071 1.91665 9.7248 1.91665C14.0289 1.91665 17.5312 5.4119 17.5312 9.70835C17.5312 14.0048 14.0289 17.5 9.7248 17.5Z" stroke="#93CA15"/>
</svg>
