<svg width="177" height="70" viewBox="0 0 177 70" fill="none" xmlns="http://www.w3.org/2000/svg">
<g clip-path="url(#clip0_2002_18945)">
<path d="M88.4058 54.3641H97.5603C97.1345 58.2148 94.0372 61.3105 88.6668 61.3105C87.3935 61.3463 86.1257 61.1308 84.9359 60.6764C83.746 60.2219 82.6575 59.5375 81.7326 58.6622C80.8076 57.7869 80.0644 56.738 79.5454 55.5753C79.0264 54.4127 78.7418 53.1592 78.708 51.8865C78.6741 50.6139 78.8917 49.347 79.3481 48.1585C79.8045 46.9699 80.491 45.883 81.3681 44.9598C82.2452 44.0366 83.2958 43.2953 84.4598 42.7784C85.6238 42.2614 86.8784 41.9789 88.1517 41.9469H88.6668C90.2854 41.9174 91.8812 42.3317 93.2808 43.1449C94.6805 43.9581 95.8304 45.1391 96.6057 46.5596L98.6659 45.3721C97.6537 43.6278 96.1954 42.184 94.4407 41.1888C92.6859 40.1937 90.6979 39.683 88.6805 39.7092C87.1123 39.6683 85.5515 39.937 84.0873 40.4998C82.6231 41.0627 81.2844 41.9086 80.1477 42.9893C79.0111 44.0699 78.0989 45.3641 77.4633 46.7976C76.8278 48.231 76.4813 49.7758 76.4438 51.3432C76.4064 52.9107 76.6786 54.4702 77.2449 55.9324C77.8112 57.3946 78.6606 58.7308 79.7442 59.8645C80.8279 60.9982 82.1247 61.9071 83.5603 62.5392C84.9959 63.1713 86.5422 63.5142 88.1105 63.5482C88.2959 63.5482 88.4882 63.5482 88.6805 63.5482C95.7678 63.5482 99.9502 58.8738 99.9502 53.3756V52.1882H88.4058V54.3641ZM109.111 46.4292C107.003 46.4292 105.06 47.1156 103.906 49.4219V46.6763H101.729V63.1501H103.906V54.0003C103.906 49.8818 106.474 48.509 109.111 48.509V46.4292ZM142.474 60.3564L138.154 46.69H135.977L131.665 60.3564L127.613 46.69H125.408L130.483 63.1638H132.853L137.083 49.8818L141.334 63.157H143.703L148.778 46.6832H146.54L142.474 60.3564ZM169.944 46.2919C168.839 46.2379 167.74 46.4853 166.765 47.0076C165.79 47.53 164.976 48.3076 164.409 49.2572V39.6475L162.232 40.3339V63.205H164.409V54.5288C164.409 50.1152 166.847 48.406 169.745 48.406C172.643 48.406 174.23 50.1152 174.23 53.0462V63.157H176.4V53.0462C176.434 48.9277 173.996 46.2919 169.979 46.2919H169.944ZM117.284 46.2919C115.014 46.3137 112.846 47.2329 111.253 48.8484C109.659 50.4639 108.771 52.6444 108.782 54.9128C108.793 57.1812 109.702 59.353 111.311 60.9532C112.919 62.5534 115.097 63.4517 117.366 63.4517C119.636 63.4517 121.813 62.5534 123.422 60.9532C125.031 59.353 125.94 57.1812 125.951 54.9128C125.962 52.6444 125.073 50.4639 123.48 48.8484C121.887 47.2329 119.718 46.3137 117.449 46.2919H117.284ZM117.284 61.4409C115.994 61.4477 114.73 61.0719 113.654 60.361C112.577 59.6502 111.735 58.6361 111.235 57.4472C110.735 56.2583 110.599 54.9479 110.844 53.6816C111.089 52.4154 111.705 51.2503 112.612 50.3335C113.52 49.4168 114.679 48.7896 115.943 48.5314C117.207 48.2731 118.52 48.3953 119.715 48.8826C120.909 49.3698 121.933 50.2002 122.655 51.2688C123.378 52.3374 123.767 53.5961 123.774 54.8857V54.9269C123.798 56.6286 123.145 58.2702 121.959 59.4915C120.773 60.7127 119.151 61.4138 117.449 61.4409H117.284ZM155.742 42.1666L153.565 42.853V46.7175H150.131V48.8248H153.565V58.7502C153.565 62.6971 156.037 63.7885 160.488 63.1295V61.2213C157.287 61.3517 155.742 61.5782 155.742 58.7502V48.7973H160.488V46.69H155.742V42.1666Z" fill="#3C3E43"/>
<path d="M14.0029 0C10.2919 0.00906223 6.73548 1.48653 4.11138 4.10931C1.48728 6.73208 0.0090668 10.2867 0 13.9959V56.0041C0.0090668 59.7133 1.48728 63.2679 4.11138 65.8907C6.73548 68.5135 10.2919 69.9909 14.0029 70H57.866C61.5717 69.9819 65.1201 68.5006 67.7379 65.879C70.3557 63.2574 71.8307 59.708 71.8415 56.0041V0H14.0029Z" fill="#93CA15"/>
<path d="M21.3585 47.7125C20.0505 46.7658 18.5062 46.1989 16.8961 46.0741C15.2861 45.9494 13.6728 46.2718 12.2345 47.0058C10.7962 47.7397 9.58878 48.8566 8.74554 50.2332C7.90231 51.6097 7.45605 53.1924 7.45605 54.8065C7.45605 56.4206 7.90231 58.0033 8.74554 59.3799C9.58878 60.7565 10.7962 61.8734 12.2345 62.6073C13.6728 63.3412 15.2861 63.6637 16.8961 63.5389C18.5062 63.4142 20.0505 62.8472 21.3585 61.9006V63.1704H24.9983V46.5868H21.3585V47.7125ZM21.3585 54.8443C21.3485 56.1991 20.8018 57.4946 19.838 58.4473C18.8743 59.4 17.572 59.9321 16.2166 59.9271C14.8611 59.9221 13.5628 59.3804 12.6061 58.4207C11.6494 57.4609 11.1123 56.1613 11.1123 54.8065C11.1123 53.4517 11.6494 52.1522 12.6061 51.1924C13.5628 50.2327 14.8611 49.691 16.2166 49.686C17.572 49.681 18.8743 50.2131 19.838 51.1658C20.8018 52.1184 21.3485 53.414 21.3585 54.7688V54.8443ZM42.0711 46.8408H41.1508L45.9169 40.6631H41.5491L34.7983 49.7031C33.5001 51.3127 32.7946 53.3191 32.7999 55.3866C32.82 56.5008 33.0646 57.5996 33.5188 58.6173C33.9731 59.635 34.6278 60.5509 35.4439 61.3103C37.0375 62.788 39.1349 63.603 41.3088 63.5891H41.556C43.7976 63.5494 45.9319 62.6221 47.4899 61.0107C49.048 59.3994 49.9025 57.2359 49.8657 54.9953C49.8145 52.9104 48.9874 50.9195 47.546 49.4116C46.1046 47.9037 44.1525 46.987 42.0711 46.8408ZM41.5354 60.2463C40.9102 60.284 40.2839 60.1951 39.6939 59.9852C39.1039 59.7753 38.5623 59.4485 38.1016 59.0245C37.1298 58.0585 36.5621 56.7591 36.5137 55.39C36.4652 54.021 36.9396 52.6848 37.8406 51.6525C38.2596 51.2012 38.7647 50.8382 39.326 50.5847C39.8874 50.3313 40.4938 50.1926 41.1096 50.1767H41.3362C42.5218 50.169 43.6667 50.6076 44.5434 51.4054C45.0409 51.8691 45.4411 52.4271 45.7205 53.047C46 53.6669 46.1531 54.3362 46.171 55.0159C46.2579 56.3111 45.8286 57.5881 44.9768 58.568C44.125 59.548 42.92 60.1513 41.6247 60.2463H41.5354ZM55.6825 59.8414L63.8275 50.0326V46.7103H51.2392V50.0326H59.3636L51.2392 59.8414V63.1636H63.8343V59.8414H55.6825ZM25.067 44.0059H27.4569V63.1636H31.1242V40.6974H25.067V44.0059Z" fill="white"/>
</g>
<defs>
<clipPath id="clip0_2002_18945">
<rect width="176.4" height="70" fill="white"/>
</clipPath>
</defs>
</svg>
