<svg width="163" height="45" viewBox="0 0 163 45" fill="none" xmlns="http://www.w3.org/2000/svg">
<g clip-path="url(#clip0_2002_25828)">
<path d="M53.6577 34.3208H35.3438V44.2784H53.6577V34.3208Z" fill="#4B5058"/>
<path d="M35.2988 24.3184H25.2959V34.276H35.2988V24.3184Z" fill="#4B5058"/>
<path d="M27.1463 36.0012C25.978 36.3143 24.7491 36.4854 23.4812 36.4854C15.7231 36.4854 9.43218 30.225 9.43218 22.5C9.43218 14.775 15.7231 8.51456 23.4812 8.51456C31.2393 8.51456 37.5302 14.775 37.5302 22.5C37.5302 23.7175 37.3739 24.9 37.0789 26.026C38.6966 27.6286 42.2542 31.1682 43.6863 32.5938C45.22 29.5579 46.0835 26.1291 46.0835 22.5C46.0835 10.0743 35.9634 0 23.4812 0C10.999 0 0.878906 10.0743 0.878906 22.5C0.878906 34.9257 10.999 45 23.4812 45C27.1893 45 30.6884 44.1112 33.7752 42.5359L27.1463 36.0012Z" fill="#4B5058"/>
<path d="M59.2861 44.1851V37.9985H61.8455C63.215 37.9985 64.1821 38.6423 64.1821 39.9901C64.1821 40.9936 63.6214 41.5343 62.9415 41.7754L64.3208 44.187H62.623L61.3727 42.0166H60.8647V44.187H59.2881L59.2861 44.1851ZM61.7263 40.6844C62.2948 40.6844 62.6055 40.4529 62.6055 40.0406C62.6055 39.6283 62.3632 39.3366 61.7185 39.3366H60.8569V40.6746L61.7283 40.6824L61.7263 40.6844ZM66.7512 39.3794V40.3926H69.3027V41.7307H66.7512V42.7945H69.5782V44.1851H65.2V37.9985H69.5606V39.3794H66.7512ZM74.6734 44.1851H73.7083L72.1747 40.521H72.1571V44.1851H70.6488V37.9985H72.5361L74.1909 41.8941L75.7851 37.9985H77.7427V44.1851H76.209V40.4704H76.1915L74.6734 44.1851ZM78.3288 44.1851L80.726 37.9985H82.4921L84.8893 44.1851H83.2248L82.793 43.0435H80.388L79.9738 44.1851H78.3268H78.3288ZM80.8549 41.7229H82.3554L81.5973 39.7489L80.8569 41.7229H80.8549ZM85.4832 37.9985H87.0599V40.6494L88.9901 37.9985H90.8344L88.6873 40.9333L90.9809 44.1773H89.0331L87.0599 41.2425V44.1851H85.4832V37.9985ZM91.569 44.1851V37.9985H93.1456V44.1851H91.569ZM95.9902 44.1851H94.4292V37.9985H96.1621L98.4558 41.4818H98.4636V37.9985H100.025V44.1851H98.4382L95.9902 40.4529H95.9824V44.1851H95.9902ZM104.231 42.8723C104.842 42.8723 105.438 42.5378 105.557 42.0477H103.764V40.803H107.195V41.404C107.195 43.0085 106.022 44.2785 104.221 44.2785C102.42 44.2785 100.955 42.9229 100.955 41.0869C100.955 39.3541 102.394 37.8954 104.213 37.8954C105.446 37.8954 106.575 38.5295 107.023 39.638L105.696 40.2818C105.446 39.7158 104.964 39.3035 104.205 39.3035C103.276 39.3035 102.541 40.0328 102.541 41.0714C102.541 42.1099 103.231 42.8743 104.231 42.8743V42.8723ZM114.005 44.1851H113.04L111.506 40.521H111.489V44.1851H109.981V37.9985H111.868L113.523 41.8941L115.117 37.9985H117.074V44.1851H115.541V40.4704H115.523L114.005 44.1851ZM119.927 39.3794V40.3926H122.478V41.7307H119.927V42.7945H122.754V44.1851H118.376V37.9985H122.728V39.3794H119.927ZM125.891 37.9985C127.839 37.9985 129.383 39.0118 129.383 41.0694C129.383 43.1271 127.832 44.1851 125.901 44.1851H123.832V37.9985H125.891ZM125.891 42.7342C126.935 42.7342 127.761 42.1761 127.761 41.0772C127.761 39.9784 126.917 39.4299 125.899 39.4299H125.391V42.742H125.891V42.7342ZM130.33 44.1851V37.9985H131.907V44.1851H130.33ZM136.105 37.8954C137.416 37.8954 138.485 38.5392 138.915 39.6886L137.528 40.3401C137.285 39.7644 136.838 39.3541 136.08 39.3541C135.175 39.3541 134.451 40.1262 134.451 41.0792C134.451 42.0321 135.105 42.8043 136.08 42.8043C136.805 42.8043 137.287 42.3842 137.545 41.8007L138.95 42.462C138.503 43.6114 137.399 44.2804 136.07 44.2804C134.269 44.2804 132.847 42.9423 132.847 41.0889C132.847 39.2354 134.251 37.8974 136.105 37.8974V37.8954ZM139.751 44.1851V37.9985H141.328V44.1851H139.751ZM144.172 44.1851H142.611V37.9985H144.352L146.646 41.4818H146.653V37.9985H148.214V44.1851H146.628L144.18 40.4529H144.172V44.1851ZM151.051 39.3794V40.3926H153.603V41.7307H151.051V42.7945H153.878V44.1851H149.5V37.9985H153.861V39.3794H151.051Z" fill="#4B5058"/>
<path d="M154.075 14.9248V15.765H155.343V19.1199H156.205V15.765H157.473V14.9248H154.077H154.075ZM161.566 14.9248L160.386 17.739L159.196 14.9248H158.074V19.1199H158.928V16.3737H158.936L160.1 19.1199H160.686L161.851 16.3484H161.859V19.1199H162.72V14.9248H161.566Z" fill="#4B5058"/>
<path d="M95.367 22.3036L95.4021 25.6234L99.4971 29.1242C98.0142 30.0849 96.2735 30.6431 94.4116 30.6431C89.0155 30.6431 84.6451 26.0105 84.6451 20.2946C84.6451 14.5786 89.0155 9.94599 94.4018 9.94599C99.7882 9.94599 104.168 14.5786 104.168 20.2946C104.168 21.8135 103.858 23.2643 103.297 24.5596L107.218 27.9067C108.554 25.676 109.322 23.0757 109.322 20.2868C109.322 12.0659 102.643 5.39893 94.4018 5.39893C86.1612 5.39893 79.4815 12.0659 79.4815 20.2946C79.4815 28.5232 86.1612 35.1902 94.4018 35.1902C97.6938 35.1902 100.745 34.1263 103.211 32.3157L106.073 34.7526L109.236 34.7448V31.2266L98.7977 22.3036H95.367ZM59.2861 5.82096V34.772L78.0338 34.7468V30.3358H64.2427V10.2474H78.0338V5.81901H59.2861V5.82096ZM117.063 23.9684V10.3427H122.684C125.2 10.3427 128.191 11.1324 128.191 14.9073C128.191 19.1724 123.977 19.5069 122.684 19.5069H119.478L117.065 23.9684H117.063ZM117.063 34.8479V23.9684V34.8479ZM122.234 23.9684L128.484 34.8479H134.062L127.165 23.1088C130.993 21.7882 133.173 18.7678 133.173 14.7945C133.181 9.1486 129.432 5.77623 123.156 5.77623H112.141V34.8479H117.063V23.9684" fill="#4B5058"/>
<path d="M76.7732 17.7818H66.6023L64.2402 22.218H76.7732V17.7818ZM147.894 14.9248L144.084 20.8021L140.221 14.9248H134.421L141.04 24.6471L134.057 34.8498H139.79L143.978 28.5174L148.124 34.8498H153.925L146.995 24.6218L153.563 14.9248H147.892H147.894Z" fill="#4B5058"/>
</g>
<defs>
<clipPath id="clip0_2002_25828">
<rect width="161.842" height="45" fill="white" transform="translate(0.878906)"/>
</clipPath>
</defs>
</svg>
