<svg width="374" height="608" viewBox="0 0 374 608" fill="none" xmlns="http://www.w3.org/2000/svg">
<mask id="mask0_1220_7411" style="mask-type:alpha" maskUnits="userSpaceOnUse" x="0" y="0" width="374" height="608">
<rect width="374" height="608" fill="#00A4B1"/>
</mask>
<g mask="url(#mask0_1220_7411)">
<path d="M-23.0018 -495.669C-18.9062 -494.28 -13.4039 -487.519 -9.63939 -483.662C-5.50927 -479.325 -1.6663 -474.741 1.86688 -469.94C9.23516 -460.175 16.755 -450.579 24.4279 -441.471C33.3276 -430.855 41.169 -424.455 50.4437 -429.724C57.7947 -433.883 64.3581 -441.714 68.7107 -451.261C72.8806 -460.406 72.6055 -477.759 80.9501 -480.51C84.9356 -481.827 89.6857 -480.476 94.0227 -479.317C96.8203 -478.572 98.7561 -477.382 100.667 -480.102C102.261 -482.364 103.113 -486.149 104.211 -489.023C108.184 -499.385 113.998 -508.007 122.944 -508.405C132.868 -508.837 139.351 -499.161 147.689 -489.865C152.151 -484.887 157.893 -482.06 161.819 -486.018C164.917 -489.137 166.556 -497.558 170.164 -499.354C174.998 -501.751 179.507 -491.357 180.238 -485.346C181.062 -478.658 181.491 -471.983 182.226 -465.301C183.705 -451.904 185.714 -438.223 191.288 -425.799C196.5 -414.277 203.985 -403.839 213.33 -395.063C230.904 -378.973 248.107 -380.49 266.144 -371.979C283.58 -363.754 301.51 -350.028 315.331 -328.866C321.127 -319.978 332.183 -305.987 332.574 -293.7C332.939 -281.921 325.295 -270.455 320.403 -263.803C308.39 -247.466 292.996 -240.135 278.045 -230.241C263.342 -220.511 247.971 -212.799 232.834 -204.148C225.215 -199.795 217.287 -196.439 209.506 -192.579C201.983 -188.843 193.8 -185.095 188.142 -177.163C182.928 -169.818 179.084 -155.982 176.835 -145.308C174.294 -133.241 176.93 -118.986 182.062 -106.438C192.515 -80.8463 211.88 -67.7255 224.404 -44.5866C227.268 -39.0443 230.731 -33.8079 234.736 -28.9643C240.299 -22.3842 243.015 -21.9062 247.829 -26.7093C254.417 -33.2773 261.44 -39.052 267.685 -46.3583C274.17 -53.9702 279.257 -61.6233 287.381 -66.0556C295.088 -70.2943 302.875 -72.4593 311.153 -74.8344C327.742 -79.592 341.968 -91.0133 357.54 -98.6187C365.578 -102.57 373.737 -102.104 382.868 -99.8479C388.137 -98.5531 391.885 -98.8599 395.944 -102.629C399.382 -105.824 402.695 -109.175 406.286 -112.059C420.14 -123.212 437.096 -127.422 453.585 -130.166C462.633 -131.663 470.323 -132.891 477.417 -140.294C483.889 -147.055 488.94 -155.909 494.677 -163.875C497.378 -167.628 500.779 -170.108 503.753 -173.308C508.978 -178.9 511.586 -188.193 519.699 -177.108C523.067 -172.507 524.324 -166.488 528.286 -162.281C532.764 -157.525 538.727 -155.595 543.561 -154.405C555.042 -151.556 564.609 -158.259 576.293 -147.424C581.309 -142.754 585.567 -136.051 590.247 -130.601C592.65 -127.869 595.256 -124.292 597.814 -122.15C601.457 -119.089 603.549 -118.59 605.558 -112.494C608.246 -104.332 609.353 -95.599 612.151 -87.4193C614.755 -79.9998 619.207 -73.3066 625.117 -67.9238C630.892 -62.5669 637.18 -59.4666 643.065 -54.5208C649.747 -48.9126 656.06 -46.0361 662.587 -47.8528" stroke="#038E9F" stroke-width="0.75" stroke-miterlimit="10"/>
<path d="M169.787 368.765L168.619 366.598" stroke="#038E9F" stroke-width="0.75" stroke-miterlimit="10"/>
<path d="M672.475 -6.65378C669.575 -7.56962 666.134 -7.61707 663.369 -9.8567C660.784 -11.9346 658.005 -15.5402 655.585 -18.1592C650.149 -24.0285 645.052 -34.2911 638.994 -37.342C632.722 -40.4878 626.435 -41.7321 620.162 -45.533C606.718 -53.7075 597.564 -68.2819 588.961 -86.1126C584.887 -94.5537 580.565 -103.267 574.748 -109.161C568.931 -115.054 561.947 -116.26 555.858 -117.372C549.195 -118.583 544.597 -113.903 538.389 -113.477C532.182 -113.05 527.72 -121.111 521.943 -125.426C508.707 -135.344 497.296 -127.675 491.99 -111.682C489.515 -104.233 487.883 -95.0576 481.38 -94.3383C475.226 -93.6548 468.72 -97.2273 462.41 -99.9449C449.252 -105.629 437.69 -112.837 425.709 -106.411C419.857 -103.409 414.767 -99.1984 410.803 -94.0819C406.52 -88.5235 402.73 -82.8398 397.273 -79.5482C391.479 -76.0637 385.264 -79.5499 378.738 -80.9927C375.706 -81.6607 372.245 -82.5859 369.612 -81.2343C366.979 -79.8826 364.397 -77.7361 361.854 -76.0097C351.352 -68.8797 340.406 -63.9525 329.228 -58.6541C317.673 -53.3483 307.015 -46.3954 297.615 -38.0299C287.87 -29.2376 277.9 -22.9065 267.15 -16.5528C262.076 -13.5565 259.781 -4.6698 255.346 0.107841C250.647 5.17092 244.652 6.62532 238.248 5.83566C232.439 5.12341 224.974 3.00787 219.686 -3.26392C214.096 -9.88018 212.555 -21.1793 210.63 -30.192C209.613 -34.9633 208.685 -40.1241 206.917 -44.6439C205.189 -49.0301 202.293 -52.7607 199.94 -56.4784C195.116 -64.1221 189.995 -71.33 185.156 -78.962C175.568 -94.0698 165.431 -110.517 160.102 -129.43C153.369 -153.273 165.59 -160.005 173.106 -173.055C176.788 -179.512 180.049 -186.305 184.897 -191.073C189.432 -195.418 194.521 -199.192 200.042 -202.305C210.795 -208.575 222.274 -211.462 232.224 -220.09C242.174 -228.719 253.146 -234.114 263.144 -242.433C271.634 -249.51 280.615 -255.494 289.182 -262.394C293.756 -266.01 298.062 -269.929 302.069 -274.122C304.087 -276.212 305.979 -278.412 307.736 -280.711C312.297 -286.819 311.509 -297.017 307.289 -306.174C300.682 -320.535 290.268 -327.579 280.656 -334.81C270.789 -342.228 260.366 -348.766 250.398 -347.14C245.854 -346.404 241.164 -344.241 237.11 -341.867C235.063 -340.688 234.008 -339.016 231.454 -339.984C229.42 -340.748 226.863 -342.85 224.885 -344.324C220.626 -347.515 215.841 -353.908 212.07 -358.771C207.853 -364.215 203.653 -369.99 199.626 -375.77C191.374 -387.614 182.754 -399.023 174.711 -411.157C170.342 -417.743 167.92 -423.528 165.944 -431.883C164.085 -439.608 162.439 -446.953 159.043 -453.957C155.47 -461.334 151.548 -465.516 146.851 -470.963C142.017 -476.546 137.626 -482.06 132.135 -485.548C120.543 -492.918 117.157 -480.444 111.138 -470.786C104.798 -460.577 93.7022 -463.454 86.8159 -453.955C80.1873 -444.799 75.5159 -432.66 68.8799 -423.318C62.4928 -414.283 54.5575 -407.692 46.8089 -401.268C37.5777 -393.607 30.33 -410.631 23.1005 -421.233C15.0033 -433.119 6.93971 -445.157 -2.11126 -455.277C-11.2592 -465.51 -19.2033 -474.222 -29.6292 -473.736C-53.1497 -472.65 -47.9466 -432.573 -58.0856 -411.386C-63.3704 -400.346 -74.6808 -400.562 -84.2619 -402.55C-95.2274 -404.851 -103.734 -411.548 -114.044 -419.791C-118.997 -423.727 -122.604 -422.545 -127.29 -422.105C-131.975 -421.665 -136.801 -426.015 -141.129 -430.073C-143.93 -432.716 -143.983 -434.024 -145.82 -437.923C-147.167 -440.798 -149.181 -442.567 -150.952 -444.742C-154.012 -448.428 -161.804 -455.418 -162.926 -460.914" stroke="#038E9F" stroke-width="0.75" stroke-miterlimit="10"/>
<path d="M-180.516 -432.547C-174.281 -430.501 -167.724 -422.908 -161.927 -418.077C-156.13 -413.246 -150.037 -406.75 -143.817 -404.475C-131.041 -399.839 -118.518 -400.204 -105.65 -394.749C-92.9108 -389.357 -80.1791 -386.753 -67.8157 -386.948C-61.3896 -387.045 -54.9966 -386.446 -50.2686 -392.112C-46.3853 -396.792 -45.4283 -408.698 -44.6494 -416.558C-42.9918 -433.35 -41.5945 -457.099 -27.7149 -457.884C-15.3156 -458.582 -2.61235 -439.524 6.77026 -426.176C16.2473 -412.69 27.1236 -391.36 39.62 -386.577C51.7806 -381.922 64.0842 -394.477 72.259 -403.264C81.4347 -413.114 87.5753 -427.924 96.7127 -437.824C106.023 -447.914 117.411 -451.579 125.49 -464.099C127.606 -467.385 131.157 -469.563 134.312 -464.941C136.739 -461.383 138.56 -455.883 140.663 -451.824C144.999 -443.492 149.043 -435.137 152.788 -426.286C160.49 -408.171 169.241 -392.154 178.65 -375.721C187.766 -359.819 194.952 -340.404 205.531 -326.618C210.942 -319.55 216.994 -312.499 223.558 -309.301C229.916 -306.2 236.049 -306.719 241.982 -307.706C254.257 -309.754 265.429 -316.202 278.87 -305.322C286.196 -299.395 288.615 -289.199 282.901 -282.952C278.397 -278.025 271.805 -277.454 266.37 -274.872C260.793 -272.226 256.156 -267.378 250.993 -263.698C245.831 -260.019 240.161 -256.889 235.307 -252.254C230.453 -247.618 226.443 -242.339 222.33 -236.659C217.917 -230.551 214.315 -224.38 207.968 -222.536C196.859 -219.378 185.744 -209.97 177.201 -200.429C172.792 -195.506 168.86 -189.757 164.503 -184.728C159.929 -179.508 154.474 -176.065 149.125 -172.47C146.512 -170.711 144.136 -168.468 141.587 -166.589C139.037 -164.71 135.867 -163.81 133.813 -161.176C128.995 -154.978 135.852 -141.823 139.473 -134.247C147.693 -116.885 157.857 -101.595 167.87 -86.4983C177.142 -72.5214 189.597 -55.0036 192.397 -36.0805C195.309 -16.4012 186.975 -0.589903 180.143 11.854C178.328 15.1904 175.864 17.5374 174.227 21.1786C172.59 24.8198 171.305 28.6931 169.777 32.352C166.765 39.601 163.739 46.7188 160.449 53.6098C157.773 59.2049 154.516 75.5555 163.964 75.4649C167.144 75.4445 169.262 71.6624 171.924 70.1029C174.817 68.4161 177.965 68.6969 181.21 68.5783C187.781 68.3226 190.84 60.0381 194.667 53.8171C198.493 47.596 203.497 42.7505 208.875 39.8545C219.892 33.9201 232.076 32.438 244.061 30.1266C268.246 25.456 289.614 12.7026 306.172 -10.9319C314.315 -22.5678 322.888 -34.3077 333.975 -40.1317C345.062 -45.9558 356.536 -50.5724 367.918 -55.0257C379.3 -59.4791 392.05 -57.8868 402.967 -64.345C413.884 -70.8031 421.759 -83.5551 431.898 -91.6878C438.172 -96.7325 444.27 -90.0701 451.241 -84.8204C457.248 -80.2795 463.342 -76.2792 469.553 -73.6069C483.732 -67.5283 493.14 -75.5064 500.856 -89.1722C504.805 -96.1932 507.561 -104.83 515.484 -101.464C522.138 -98.6555 528.036 -93.0406 534.871 -91.0785C546.917 -87.624 560.679 -99.0511 571.179 -79.3922C573.336 -75.3622 574.457 -70.3033 574.921 -65.6941C575.449 -60.3434 573.917 -56.7759 573.959 -51.8124C574.033 -42.9834 583.416 -35.2895 587.836 -29.6556C598.686 -15.7953 610.736 -5.3611 622.713 5.49267C628.372 10.6233 633.946 15.9072 639.56 21.0986C645.426 26.5106 651.699 29.5471 656.962 36.7991C659.578 40.416 661.49 43.6101 664.51 46.4059C667.531 49.2017 670.634 51.7606 673.619 54.6987C676.343 57.3505 678.814 61.2012 681.563 63.6292C684.444 66.1705 687.714 66.7769 690.701 69.2862" stroke="#038E9F" stroke-width="0.75" stroke-miterlimit="10"/>
<path d="M-154.234 -360.15C-157.944 -374.443 -154.644 -385.1 -145.119 -384.141C-137.008 -383.329 -128.912 -380.985 -120.743 -379.244C-104.811 -375.939 -88.6013 -374.029 -72.3116 -373.538C-64.3907 -373.263 -56.0066 -372.259 -48.4405 -373.821C-40.3582 -375.522 -37.5203 -387.772 -35.8193 -398.618C-34.0397 -409.936 -34.1834 -421.992 -32.7238 -433.405C-30.8027 -448.341 -22.5288 -446.599 -14.3941 -436.334C-0.695698 -419.051 12.1338 -397.728 27.1919 -383.571C44.108 -367.678 58.8944 -373.579 72.2594 -384.262C85.334 -394.738 93.9463 -412.695 106.574 -423.793C112.488 -428.993 121.043 -432.9 128.96 -428.508C137.521 -423.797 143.31 -412.942 149.146 -402.256C160.702 -381.11 171.632 -359.195 180.302 -335.608C184.686 -323.666 189.138 -312.454 194.443 -301.145C200.269 -288.727 204.728 -279.011 202.64 -265.6C199.267 -243.932 184.119 -230.868 174.054 -217.569C168.663 -210.487 164.058 -201.773 157.883 -196.062C151.566 -190.218 144.409 -186.556 137.304 -182.644C130.438 -178.862 123.373 -173.767 120.237 -163.483C116.981 -152.786 120.301 -139.212 125.61 -128.14C136.208 -106.041 152.444 -90.8705 165.24 -71.9336C171.261 -63.0194 178.757 -51.0572 180.393 -38.9644C182.029 -26.8717 177.891 -15.1293 172.8 -8.43309C170.093 -4.84746 166.835 -2.24769 163.973 1.05345C161.11 4.3546 158.995 8.69054 156.551 12.7887C151.44 21.2306 147.26 30.1641 144.08 39.4432C140.976 48.5944 136.593 59.8623 137.808 71.8388C139.156 85.1635 150.625 91.4431 157.872 93.7753C166.31 96.4887 173.38 92.5768 180.783 89.9013C188.185 87.2257 195.245 84.3578 201.939 79.2446C214.925 69.3431 228.07 58.9777 243.105 54.474C250.593 52.2247 258.572 52.0163 266.195 50.3668C274.726 48.5318 281.247 49.7741 289.928 56.8349C294.774 60.7946 298.699 63.1449 301.454 56.7849C303.468 52.1357 303.838 46.0217 305.453 40.9827C308.607 31.207 313.254 22.4091 317.194 13.3989C321.233 4.21565 325.44 -4.45064 330.765 -11.9132C336.245 -19.6034 342.762 -23.459 350.178 -26.7676C357.288 -30.0623 364.599 -32.9381 372.071 -35.3792C379.558 -37.704 387.637 -37.6407 395.089 -39.8569C398.82 -40.9659 401.905 -44.174 405.327 -46.1299C408.748 -48.0857 412.36 -50.1595 415.824 -52.3012C422.6 -56.4919 429.149 -61.9927 436.759 -63.7318C444.37 -65.4709 453.008 -60.6936 461.026 -56.8954C469.627 -52.8155 477.078 -49.8148 485.372 -51.0344C493.666 -52.2539 500.227 -53.7504 506.094 -61.863C508.954 -65.861 511.153 -69.8541 515.445 -70.7691C519.14 -71.5511 523.243 -70.4584 527.129 -69.3593C546.665 -63.9041 552.589 -41.1414 556.185 -13.0716C557.952 0.688895 557.569 10.8125 566.166 21.4372C572.498 29.4813 580.2 36.4351 588.945 42.0036C596.747 47.0766 604.363 55.8031 612.038 62.0551C620.107 68.6055 627.301 74.4188 635.748 78.911C644.195 83.4032 650.973 91.7286 658.301 100.091C662.055 104.378 665.958 107.901 669.786 111.987C673.315 115.77 676.465 120.519 679.979 124.423C683.305 128.125 690.862 130.152 693.034 136.456C696.765 147.317 685.454 148.075 682.097 152.007C674.6 160.744 682.802 184.888 686.245 198.796C689.759 212.998 685.553 218.22 683.942 230.601C682.498 241.717 686.184 253.697 677.341 257.567C668.209 261.544 659.717 268.033 649.771 269.1C641.856 269.974 634.16 270.632 627.282 275.198C620.569 279.652 614.232 285.265 607.943 290.683C602.523 295.361 590.721 295.279 588.29 305.011C585.378 316.665 594.328 330.101 599.887 339.093C606.662 349.981 614.153 353.367 622.824 356.432C631.076 359.355 639.023 363.362 647.263 367.102C655.222 370.763 663.423 374.125 671.408 376.192C675.134 377.167 679.14 378.584 682.852 378.882C692.389 379.636 703.976 380.606 712.08 394.297C716.402 401.591 715.069 407.802 717.775 415.095C719.296 419.166 722.272 419.855 723.947 423.152C727.431 430.011 725.761 437.54 729.159 443.83C732.558 450.12 736.784 449.111 740.847 449.204C745.385 449.31 749.628 448.086 754.219 448.558C758.416 449.025 766.328 444.077 769.71 450.917C772.148 455.858 771.457 464.808 773.748 470.883C775.795 476.306 781.027 490.067 785.25 484.698C788.252 480.887 784.525 475.519 783.597 471.156C782.343 465.219 777.585 445.49 780.613 442.656" stroke="#038E9F" stroke-width="0.75" stroke-miterlimit="10"/>
<path d="M-104.957 -150.396C-101.394 -147.267 -97.3248 -145.193 -93.6786 -145.527C-86.7706 -146.16 -79.6788 -153.899 -75.8718 -161.325C-66.5466 -179.474 -75.0232 -215.058 -84.9881 -236.264C-96.4827 -260.708 -107.761 -284.578 -115.941 -311.315C-118.744 -320.459 -125.325 -340.732 -120.728 -347.595C-116.131 -354.458 -105.881 -355.568 -99.373 -357.137C-91.1266 -359.135 -82.5223 -359.937 -73.9661 -360.358C-65.4099 -360.779 -56.3012 -359.702 -48.2254 -362.192C-40.1496 -364.681 -34.4244 -369.83 -29.8955 -379.551C-26.1732 -387.547 -23.8419 -401.322 -17.8942 -405.547C-14.3684 -408.013 -12.4289 -407.606 -8.09044 -405.498C-3.75202 -403.391 0.546693 -398.621 4.35733 -394.464C12.2862 -385.707 19.6459 -376.159 28.295 -369.485C46.4004 -355.504 61.3723 -359.221 76.0808 -369.725C83.3937 -375.096 90.2191 -381.055 96.4833 -387.538C102.836 -393.995 108.415 -403.236 115.463 -408.218C123.131 -413.633 131.02 -403.884 137.23 -393.71C144.101 -382.592 150.304 -371.105 155.809 -359.304C166.303 -336.443 177.241 -306.222 177.482 -280.781C177.609 -267.453 173.827 -256.621 170.337 -245.922C167.076 -235.546 162.933 -225.446 157.95 -215.725C152.887 -206.195 145.693 -201.819 137.985 -197.58C130.278 -193.342 123.085 -188.924 116.663 -181.956C110.874 -175.625 104.42 -166.104 104.12 -153.681C103.817 -141.013 109.463 -125.967 115.411 -115.323C128.46 -91.9648 147.472 -81.1426 161.521 -59.7551C168.825 -48.6239 172.439 -36.1488 168.831 -24.0879C165.743 -13.7811 158.05 -7.45379 151.854 -1.93925C144.724 4.40536 139.473 10.2215 135.714 21.6526C132.239 32.2725 128.313 43.01 126.015 54.6779C123.718 66.3457 123.891 78.4876 131.497 89.0978C138.218 98.4187 146.372 105.647 154.561 109.576C162.962 113.583 170.065 110.209 177.093 106.811C184.804 103.092 192.52 99.5068 200.476 96.5566C208.432 93.6064 216.359 90.6796 224.308 87.7729C232.258 84.8663 239.891 80.4675 248.22 79.2823C256.735 78.0724 266.019 81.2942 274.553 88.178C282.599 94.6665 289.754 102.891 298.376 105.21C306.401 107.369 312.789 101.635 316.814 93.0851C321.377 83.3985 321.702 70.8937 325.349 60.5208C327.316 54.9497 328.412 51.488 328.911 44.7152C329.238 38.5952 330.006 32.5043 331.209 26.4866C333.715 15.1418 339.154 5.31886 345.545 -0.978522C358.555 -13.8256 376.058 -17.359 391.957 -21.9038C408.355 -26.5852 422.66 -38.1839 439.74 -40.4301C448.301 -41.5578 457.21 -39.4956 466.137 -37.2525C474.6 -35.2496 483.289 -34.264 492.004 -34.3179C500.213 -34.2247 509.272 -36.1104 517.786 -31.0116C526.958 -25.5386 532.693 -12.5874 536.36 0.472222C538.203 7.04189 539.382 14.0789 541.889 20.3996C544.397 26.7203 548.061 32.2623 551.305 37.7635C557.724 48.8065 565.574 57.7076 572.34 68.1608C575.709 73.3485 578.399 78.8306 582.337 83.1186C586.275 87.4066 590.053 88.2021 594.422 89.0928C602.865 90.8137 611.714 93.7126 619.974 99.893C627.498 105.515 636.613 116.049 642.519 125.611C645.997 131.233 648.632 137.3 650.347 143.631C652.224 150.235 655.463 153.755 657.773 159.691C660.006 165.342 661.546 172.433 663.147 178.393C664.958 185.012 666.652 191.363 667.469 198.128C668.199 204.173 667.521 209.877 667.479 215.724C667.45 222.274 666.313 228.139 663.953 232.874C661.817 237.164 658.816 238.581 655.913 241.387C652.563 244.654 649.802 248.63 646.113 251.435C639.151 256.776 631.215 259.739 624.03 264.55C609.402 274.339 593.606 278.802 576.658 280.363C569.306 281.037 562.476 286.709 560.791 297.51C558.928 309.173 564.763 322.321 571.484 331.062C578.404 340.053 587.469 347.221 595.277 353.519C602.983 359.743 611.717 364.681 621.118 368.128C629.672 371.361 639.18 373.155 647.444 379.898C651.861 383.52 655.729 387.718 658.938 392.371C660.676 394.915 662.094 397.942 664.039 400.113C674.395 411.664 667.798 427.407 675.919 438.415C678.732 442.232 681.02 441.478 680.234 447.533C679.818 450.986 676.143 451.419 676.54 455.682C677.182 462.738 683.191 461.087 685.831 460.96C691.231 460.697 700.629 457.173 702.598 466.949C703.314 470.469 701.044 473.73 702.181 478.382C704.041 486.108 707.989 490.15 708.901 499.052C709.735 507.048 709.674 515.134 713.046 521.892C716.676 529.181 725.823 535.096 727.664 543.069" stroke="#038E9F" stroke-width="0.75" stroke-miterlimit="10"/>
<path d="M-93.0672 -113.071C-85.3995 -116.603 -81.9121 -128.73 -76.9806 -137.104C-71.6577 -146.137 -63.5261 -154.124 -60.7403 -166.229C-58.0472 -177.884 -62.9075 -196.121 -65.9775 -208.877C-73.3881 -239.414 -89.9641 -264.447 -98.369 -294.511C-102.107 -307.756 -103.547 -321.463 -98.3435 -331.175C-93.5737 -340.076 -85.2237 -343.82 -77.4828 -346.033C-60.2369 -350.962 -41.6148 -346.656 -27.5368 -361.774C-21.4438 -368.332 -16.8354 -378.92 -10.0907 -384.22C-3.34606 -389.521 7.57272 -373.526 14.2823 -367.151C31.3841 -350.921 49.4498 -339.317 66.3218 -346.96C82.4389 -354.259 95.9332 -368.684 112.179 -375.667C129.694 -383.176 147.544 -350.094 155.239 -326.206C159.8 -312.044 162.415 -297.044 161.02 -283.293C160.351 -276.718 158.077 -271.515 157.209 -265.113C156.374 -258.938 156.237 -252.397 155.367 -246.222C153.703 -234.351 150.042 -223.782 143.956 -216.797C137.254 -209.069 128.517 -205.92 120.865 -200.324C106.77 -189.99 86.5909 -181.114 89.5265 -149.915C92.3862 -119.539 104.352 -92.7387 123.54 -77.0163C132.956 -69.296 171.121 -48.6577 160.038 -26.8991C155.401 -17.8092 147.929 -14.5135 140.821 -10.4672C132.616 -5.79813 128.141 2.9868 125.106 15.2895C120.475 34.0887 103.321 61.8463 116.751 86.8245C123.094 98.6741 132.932 107.712 141.159 115.714C148.095 122.45 159.374 132.434 166.711 130.067C170.47 128.86 173.798 124.992 177.1 122.467C180.874 119.465 184.858 116.716 189.023 114.239C197.528 109.402 206.723 108.007 216.396 107.732C225.645 107.467 234.771 107.313 243.619 105.021C251.632 102.924 259.717 102.683 267.751 112.241C275.48 121.437 283.222 129.38 291.216 137.829C295.422 142.25 299.527 146.761 303.514 151.685C306.931 155.913 312.049 160.425 316.092 160.145C324.68 159.566 326.881 143.904 329.937 134.663C331.509 129.919 332.717 124.895 334.312 120.205C336.112 115.032 338.446 109.463 339.668 103.806C340.89 98.1489 339.973 91.2215 339.58 84.8745C339.159 77.9037 339.141 70.902 339.305 64.1117C339.652 50.325 340.292 35.9019 345.681 25.9134C356.392 6.05236 375.586 1.96548 392.282 -4.26926C410.243 -10.9792 427.496 -21.1351 446.997 -21.8799C456.563 -22.2405 466.396 -20.5858 476.132 -19.548C485.286 -18.5735 494.549 -19.1774 503.904 -15.8789C512.872 -12.7041 520.8 -5.25681 526.46 7.27426C532.344 20.3014 536.028 34.9196 542.013 47.9663C547.824 60.615 556.483 70.0834 562.556 82.5559C568.63 95.0283 572.001 108.96 578.482 120.914C581.068 125.945 584.906 130.284 589.655 133.543C593.665 136.277 598.29 135.044 602.253 135.118C610.505 135.286 618.231 133.588 626.823 139.3C631.386 142.34 634.766 145.576 637.459 152.343C640.052 158.837 642.329 164.454 645.392 170.474C650.561 180.603 653.645 196.934 653.188 207.872C652.647 220.854 647.247 227.787 641.987 235.848C636.209 244.697 627.598 250.364 619.803 255.075C603.595 264.822 585.419 266.103 567.937 271.396C559.798 273.84 554.271 279.886 548.328 287.319C542.614 294.473 532.466 297.055 528.479 306.815C523.794 318.284 534.506 333.091 540.617 341.985C547.337 351.776 557.384 350.006 565.133 352.865C584.038 359.763 602.822 372.249 621.732 380.07C630.201 383.566 639.322 386.471 646.473 396.713C653.972 407.456 656.203 419.845 649.787 428.323C643.82 436.164 638.484 441.411 637.986 455.223C637.689 463.454 640.856 466.243 642.938 473.44C645.238 481.403 645.181 490.303 646.831 498.428C648.382 506.07 651.24 512.288 652.503 520.003C653.919 528.676 654.13 537.205 656.511 545.831C657.647 549.971 658.249 554.683 656.936 557.824C656.227 559.581 655.81 561.434 655.701 563.316" stroke="#038E9F" stroke-width="0.75" stroke-miterlimit="10"/>
<path d="M-116.738 -85.044C-98.1621 -74.1497 -84.0345 -96.8222 -75.8889 -115.086C-71.6482 -124.77 -66.521 -134.071 -60.5677 -142.88C-53.8211 -152.633 -50.7266 -164.306 -51.794 -175.977C-53.938 -204.177 -63.1467 -230.727 -73.9642 -256.346C-79.2236 -268.807 -84.7205 -281.82 -87.6249 -295.411C-90.9101 -310.983 -86.9311 -321.321 -79.4863 -328.39C-65.7952 -341.381 -45.5674 -334.392 -30.3226 -343.066C-22.7563 -347.383 -16.3807 -355.088 -8.43938 -358.354C-0.0553352 -361.811 9.43901 -354.781 18.0421 -348.189C26.6452 -341.598 35.1638 -334.669 43.9008 -328.755C53.1963 -322.478 61.9912 -324.699 69.5148 -329.737C83.5265 -339.111 98.714 -355.821 116.413 -352.266C135.296 -348.472 151.403 -317.337 149.973 -290.246C149.62 -283.623 147.891 -278.08 147.04 -271.792C146.188 -265.503 146.408 -258.823 145.842 -252.397C144.654 -239.204 140.602 -228.842 133.883 -221.732C127.302 -214.771 119.022 -210.699 111.175 -206.79C103.327 -202.881 95.8937 -198.628 88.3429 -194.138C84.7091 -191.975 81.12 -189.882 77.3802 -188.014C72.9455 -185.807 71.5444 -183.252 72.7195 -175.215C74.6566 -161.509 76.623 -147.827 78.1542 -134.14C79.6853 -120.452 80.3925 -106.708 81.7842 -92.9476C83.3426 -77.2254 91.376 -69.81 99.784 -60.4034C104.099 -55.7349 108.116 -50.8179 111.811 -45.6798C116.518 -38.9591 117.511 -35.5183 116.613 -27.43C115.186 -14.6122 113.805 -1.60298 111.973 11.0195C110.239 22.9648 104.825 32.5221 101.988 43.6887C99.2657 54.4264 95.6058 69.7162 101.591 82.5107C107.128 94.3469 116.614 103.664 124.087 112.339C131.957 121.504 139.985 131.474 148.436 138.956C156.887 146.438 166.754 148.379 173.954 142.977C181.348 137.438 187.065 128.772 194.887 123.886C202.709 119 211.653 121.281 220.805 123.986C229.612 126.601 239.072 128.994 247.613 128.618C252.112 128.455 256.136 127.767 260.891 131.134C265.094 134.095 269.519 140.475 273.307 144.939C281.286 154.341 288.575 163.375 295.636 174.401C302.114 184.566 309.856 196.246 318.678 197.942C327.499 199.637 334.551 191.37 337.256 180.308C340.112 168.499 342.336 156.452 344.496 144.068C346.594 132.041 349.719 120.55 350.74 107.822C352.686 83.4897 342.672 47.5352 357.109 32.7487C363.664 26.0451 372.31 23.3863 380.12 19.9731C388.231 16.4339 396.272 12.7089 404.283 8.86436C420.084 1.30055 436.083 -5.07284 453.89 -4.65879C462.668 -4.4489 471.636 -3.44971 480.449 -3.09632C489.107 -2.76733 498.723 -3.89531 507.634 1.40066C517.676 7.36858 523.039 17.9413 527.352 32.5621C529.306 39.1912 530.631 46.187 533.05 52.6114C535.502 59.1714 539.194 64.4299 542.667 69.9052C549.719 81.0759 556.783 92.2944 561.657 105.765C566.303 118.724 565.529 133.059 565.763 145.851C565.877 152.345 566.448 159.324 571.514 162.495C575.644 165.153 579.812 163.358 583.789 163.53C588.286 163.72 592.673 164.976 596.877 163.518C601.082 162.059 604.294 158.907 609.073 159.798C618.895 161.59 626.68 165.507 634.899 177.283C642.249 187.808 642.376 204.723 639.728 215.478C637.005 226.829 629.373 235.259 622.624 240.796C615.489 246.654 607.686 250.276 599.601 253.49C583.427 259.97 565.001 259.089 549.799 268.594C542.023 273.453 534.765 277.239 525.881 278.548C521.617 279.179 517.121 278.737 512.892 279.479C508.663 280.22 504.918 282.937 501.376 285.659C497.669 288.324 494.107 291.171 490.704 294.188C487.893 296.797 482.657 298.939 484.04 305.989C486.421 318.058 500.208 322.654 506.366 326.917C514.974 332.877 523.648 341.359 531.405 350.273C539.839 359.934 547.997 364.566 557.355 368.964C566.389 373.208 575.869 375.538 584.896 377.801C593.924 380.063 602.936 383.858 611.868 388.335C619.916 392.294 631.498 396.247 637.283 408.137C643.293 420.489 629.753 427.616 624.995 431.71C619.663 436.318 609.447 441.334 608.117 451.585C606.466 464.235 615.234 477.349 616.513 489.589C617.228 496.402 620.168 500.896 621.532 507.505C622.717 513.264 624.77 519.761 625.077 525.388C625.478 532.859 627.424 538.406 628.789 545.561C629.542 549.526 629.502 550.627 631.397 554.044C632.945 556.848 633.968 558.452 633.989 562.093" stroke="#038E9F" stroke-width="0.75" stroke-miterlimit="10"/>
<path d="M403.616 613.522C398.695 600.037 388.95 578.294 391.796 564.773C394.685 551.101 403.619 540.574 403.613 524.883C403.608 509.378 401.906 490.268 397.272 474.677C392.639 459.086 384.909 443.976 378.027 429.886C374.433 422.531 371.001 413.93 366.689 407.398C362.224 400.632 356.86 397.418 351.516 393.67C346.675 390.273 340.576 386.29 337.071 379.671C335.109 376.147 333.661 372.38 332.771 368.475C331.853 364.118 332.435 360.082 331.389 355.771C329.221 346.762 326.989 339.699 326.733 330.407C326.513 322.056 327.413 314.807 325.79 306.105C324.285 298.04 322.545 290.087 321.247 282.01C319.841 273.301 317.41 266.065 314.965 257.647C312.19 247.967 312.317 241.025 316.71 235.417C320.38 230.684 324.975 227.837 329.467 224.819C333.818 221.9 337.974 218.461 342.273 215.403C347.699 211.547 349.921 209.069 350.901 199.467C352.499 183.772 352.728 167.533 355.142 152.253C357.479 137.451 360.212 123.241 360.458 107.218C360.692 91.3647 358.571 73.1219 361.083 58.3569C362.559 49.6947 365.502 47.3835 370.924 44.8555C375.7 42.6146 380.74 41.2554 385.502 38.9587C404.589 29.7464 421.224 14.0834 442.564 11.9539C453.25 10.8814 464.223 12.9205 475.174 13.8217C485.77 14.6932 495.91 12.2975 506.697 15.1255C512.213 16.5753 517.862 21.9518 519.76 30.8529C521.584 39.3756 521.842 48.0291 524.91 56.3502C530.522 71.5465 541.055 83.5453 548.258 97.3031C557.244 114.511 554.264 128.204 552.846 145.086C552.24 152.319 552.005 161.898 557.397 167.441C562.166 172.35 568.593 173.672 573.574 173.914C584.451 174.47 594.998 172.496 605.805 172.724C615.728 172.905 630.318 181.27 631.047 199.857C631.709 217.114 622.964 227.7 614.573 234.611C610.37 238.068 605.784 240.158 601.068 242.209C596.351 244.261 591.809 247.76 586.862 249.182C576.702 252.112 565.658 251.735 555.616 255.192C545.752 258.593 536.242 261.722 525.616 261.882C504.418 262.106 484.133 267.57 463.853 272.294C456.959 273.891 438.953 281.753 448.277 298.23C452.181 305.096 458.423 309.022 463.186 314.125C467.949 319.229 472.554 324.511 477.703 328.646C488.175 337.055 499.45 341.438 510.227 348.031C520.769 354.45 531.714 361.813 541.652 371.197C551.81 380.768 561.521 391.926 572.826 395.562C583.603 399.039 594.67 395.017 605.357 401.018C612.217 404.864 612.343 413.329 607.007 416.686C603.214 419.06 596.295 416.89 591.782 417.359C586.407 417.968 581.145 419.285 576.143 421.275C572.575 422.659 565.832 425.103 564.301 430.636C562.206 438.142 568.444 447.159 571.843 453.088C575.69 459.79 579.099 466.994 582.859 473.841C590.881 488.457 597.782 503.618 603.507 519.202C606.235 526.549 606.951 534.453 609.481 542.029C612.119 549.908 614.573 557.82 615.983 566.217" stroke="#038E9F" stroke-width="0.75" stroke-miterlimit="10"/>
<path d="M-89.1168 -60.0717C-85.5915 -68.2333 -82.2584 -76.7216 -78.7076 -84.9224C-75.0081 -93.484 -70.8429 -101.452 -67.3417 -110.222C-65.5797 -114.613 -64.0429 -119.433 -62.0385 -123.543C-60.034 -127.652 -56.8481 -129.572 -54.2732 -132.834C-31.562 -161.109 -50.5619 -221.705 -65.9458 -260.822C-70.1521 -271.519 -75.0353 -282.997 -76.7023 -294.637C-78.504 -307.273 -74.1527 -316.064 -67.6348 -320.566C-61.4743 -324.813 -53.9391 -324.654 -46.6303 -323.948C-38.5886 -323.171 -32.1561 -324.656 -25.449 -329.243C-19.2133 -333.54 -13.145 -338.387 -6.0398 -340.232C1.06538 -342.077 8.921 -339.099 16.4541 -334.017C24.5423 -328.61 31.7047 -322.022 37.6831 -314.491C44.112 -306.272 51.1645 -299.016 58.9261 -297.916C66.6876 -296.816 71.3502 -305.945 76.3616 -311.884C81.6379 -318.101 87.0516 -323.819 93.3346 -327.992C105.719 -336.223 123.77 -337.299 135.686 -315.201C141.468 -304.486 140.95 -293.585 139.89 -282.722C138.83 -271.859 138.706 -260.264 136.863 -249.933C132.854 -227.391 118.903 -221.282 104.92 -216.433C98.0131 -214.053 91.4144 -210.901 84.7245 -207.729C78.7736 -204.932 69.5312 -204.425 65.3126 -197.731C60.049 -189.358 62.3056 -177.588 63.6926 -165.515C65.0474 -153.83 66.3582 -142.11 66.3299 -130.696C66.4237 -120.121 65.0885 -109.579 62.3578 -99.3344C60.9321 -94.3796 59.1115 -89.8323 57.8573 -84.7812C56.7459 -80.3333 53.9473 -75.6435 54.3873 -70.189C55.2642 -59.9094 67.7501 -53.3945 73.0016 -49.1978C80.2192 -43.4318 87.4816 -35.2313 91.2138 -23.8579C98.5139 -1.6122 92.6244 22.7262 87.9784 40.6636C85.4175 50.475 82.2936 60.0506 82.6206 71.7801C83.0158 85.8968 88.6751 91.3887 96.7442 98.0821C110.806 109.731 126.06 126.406 136.992 145.137C142.367 154.346 147.917 166.818 142.796 175.058C138.358 182.391 133.471 189.464 128.161 196.239C117.357 209.729 103.09 212.75 87.5664 209.567C72.6224 206.474 57.0492 201.781 42.4704 202.344C28.2547 202.893 13.2122 207.44 1.20447 215.822C-4.81722 220.029 -7.54379 232.053 -10.733 240.45" stroke="#038E9F" stroke-width="0.75" stroke-miterlimit="10"/>
<path d="M417.629 610.397C411.635 606.635 409.759 601.341 406.803 592.793C404.319 585.594 401.619 576.838 401.366 569.334C401.114 561.83 403.986 555.704 405.952 549.73C408.056 543.507 409.735 537.159 410.978 530.725C413.462 517.151 410.571 500.424 413.037 486.484C414.248 479.586 416.697 473.84 418.446 467.402C420.649 459.292 417.416 453.259 411.161 450.873C406.359 449.054 400.993 447.21 397.008 441.278C393.023 435.345 389.896 427.138 386.585 420.342C383.273 413.545 380.048 406.452 376.291 400.2C372.327 393.591 367.361 390.725 362.589 386.127C353.189 377.059 344.083 366.095 340.674 349.718C339.042 341.85 339.21 334.496 339.598 327.118C339.987 319.74 341.362 312.688 339.535 304.879C336.055 289.913 328.094 275.182 328.323 259.742C328.602 244.114 339.12 238.173 346.354 231.57C353.434 225.086 362.023 214.468 362.59 200.069C362.872 192.866 361.828 185.118 362.155 177.88C362.456 170.726 363.254 163.6 364.544 156.548C367.167 142.464 369.827 129.329 370.15 113.809C370.473 98.5075 369.074 84.388 374.823 72.7399C380.052 62.1572 390.957 58.5832 398.715 52.6699C406.73 46.5564 414.148 39.8454 422.64 34.7344C431.486 29.4606 440.352 25.795 450.781 26.5942C460.618 27.3577 470.667 31.4002 480.482 32.2944C488.41 32.9963 503.615 26.8757 509.745 40.2344C512.952 47.1802 514.767 55.008 517.995 61.966C521.223 68.924 524.95 75.275 528.571 81.7254C532.192 88.1759 535.915 94.5784 539.416 101.148C543.563 108.951 545.163 114.147 544.423 122.788C543.802 129.999 543.022 137.129 542.332 144.305C541.693 151.042 540.522 160.283 543.975 167.233C550.307 180.017 564.54 181.968 572.687 182.495C582.839 183.154 592.536 181.563 602.873 183.576C607.68 184.511 613.218 185.872 617.434 191.568C622.174 197.954 621.101 205.972 619.048 212.016C614.744 224.669 605.187 229.958 596.072 233.1C591.452 234.718 587.711 238.576 583.1 240.193C578.679 241.733 573.889 241.81 569.373 243.027C559.885 245.596 550.34 248.111 540.406 248.646C530.671 249.137 520.511 246.119 510.809 246.677C501.108 247.236 491.4 249.762 482.058 252.139C472.716 254.517 462.948 255.561 453.648 258.256C444.635 260.913 434.537 263.778 428.207 273.086C425.269 277.412 422.175 284.284 422.531 291.53C423.022 301.148 428.812 303.377 433.959 306.379C444.004 312.287 453.816 318.642 463.185 328.019C472.555 337.396 482.504 343.452 492.485 349.929C497.604 353.248 502.643 357.106 507.726 360.676C512.555 364.06 517.657 365.678 522.545 368.544C532.799 374.524 542.066 383.184 547.328 399.282C550.289 408.324 549.393 414.102 547.314 421.344C545.309 428.318 546.405 435.483 549.408 443.247C554.823 457.261 562.403 470.372 569.053 483.388C572.803 490.7 574.571 497.975 577.556 505.626C580.461 513.093 581.84 520.488 584.619 527.723C586.061 531.467 585.743 533.806 586.419 537.629C587.215 541.585 588.241 545.496 589.491 549.342C591.721 556.45 592.883 563.829 592.94 571.254" stroke="#038E9F" stroke-width="0.75" stroke-miterlimit="10"/>
<path d="M-77.5683 -49.1396C-76.3367 -57.8976 -74.188 -66.5132 -71.1549 -74.8549C-65.685 -89.9855 -59.5589 -107.43 -50.1977 -117.271C-47.7547 -119.848 -44.882 -121.329 -43.0409 -124.957C-41.1847 -128.807 -39.8155 -132.857 -38.9627 -137.022C-36.9125 -146.379 -35.8822 -155.916 -35.8884 -165.479C-35.9181 -184.314 -40.1018 -206.339 -44.787 -225.371C-49.8207 -245.778 -57.9965 -264.519 -63.7238 -284.545C-66.8304 -295.386 -67.44 -304.591 -60.9584 -309.027C-54.8691 -313.207 -48.6135 -311.511 -41.5124 -307.063C-38.5348 -305.207 -35.168 -299.993 -32.5279 -300.809C-29.8878 -301.624 -27.4319 -306.288 -25.5861 -308.808C-21.479 -314.409 -16.2065 -319.126 -10.1036 -322.66C1.51865 -329.452 15.6287 -323.912 27.5112 -309.896C33.4522 -302.871 37.5484 -292.813 43.5822 -286.019C48.9813 -279.94 57.2358 -279.185 63.0743 -278.605C77.7294 -277.219 83.0107 -295.962 92.0559 -307.152C96.5489 -312.707 102.526 -316.484 109.098 -315.791C114.848 -315.183 123.391 -311.997 127.718 -303.697C131.961 -295.571 130.219 -282.028 130.135 -273.676C130.029 -263.925 129.97 -253.764 127.298 -245.574C121.337 -227.444 106.616 -230.697 94.5415 -226.946C88.4502 -225.059 82.9458 -221.168 77.1612 -218.333C71.2142 -215.411 65.2752 -212.927 60.8791 -206.571C52.0023 -193.738 54.9835 -170.907 55.7784 -151.613C56.6064 -131.637 54.5989 -112.019 46.946 -98.0906C40.9391 -87.1496 19.8636 -80.2911 28.8405 -57.932C32.6245 -48.5191 39.8329 -42.247 46.074 -38.145C52.6965 -33.8003 59.215 -28.7268 65.9961 -25.8624C69.6477 -24.3246 72.4967 -23.1118 73.837 -17.0349C74.9196 -12.1017 74.8163 -7.05533 74.881 -2.29C74.9888 6.71624 76.5661 19.2169 74.6307 27.1668C72.431 36.1584 67.9826 41.7537 67.3667 52.3578C66.8232 62.3994 68.6028 72.4318 72.577 81.7309C81.2778 101.783 94.9442 108.597 107.336 121.248C119.57 133.75 132.484 151.98 126.113 171.924C114.58 208.096 81.9183 196.261 57.2486 194.966C32.8364 193.689 2.01245 196.631 -11.6422 225.221" stroke="#038E9F" stroke-width="0.75" stroke-miterlimit="10"/>
<path d="M-67.1628 -8.1899C-64.262 -19.9251 -63.0768 -32.479 -60.9093 -44.7227C-58.7747 -56.7407 -54.6185 -68.5542 -49.495 -77.509C-44.2137 -86.7509 -37.5513 -92.0671 -30.5083 -98.0142C-22.5254 -104.734 -19.1684 -113.631 -18.2514 -128.351C-16.5777 -155.193 -20.2446 -181.744 -25.3467 -209.688C-27.7984 -223.102 -30.15 -237.841 -29.3117 -250.712C-28.4174 -264.294 -22.0591 -272.07 -16.3463 -280.426C-10.8524 -288.421 -5.17487 -298.592 3.077 -300.894C12.4151 -303.505 20.7744 -292.996 27.6363 -281.455C33.7675 -271.138 43.3777 -259.092 47.0471 -246.638C50.8686 -233.697 45.4359 -219.717 43.2753 -209.004C40.894 -197.141 38.3144 -184.579 37.6273 -171.623C36.9355 -158.869 37.5232 -145.475 36.4094 -132.878C35.2093 -119.733 30.9124 -108.577 23.762 -102.278C17.1714 -96.4827 7.85116 -93.0351 4.12929 -82.3181C2.36084 -77.228 1.77124 -69.343 1.922 -63.0597C2.08526 -56.3254 6.11578 -49.9496 8.3754 -43.498C12.9232 -30.6937 17.0169 -16.15 15.1167 -3.52066C14.1746 2.75443 12.3595 8.48495 11.8962 15.0817C11.5164 21.8409 11.5066 28.6147 11.8667 35.3749C12.4288 48.5892 15.4338 62.8884 22.5399 73.8119C29.4827 84.5281 39.8405 89.9971 48.1468 96.8055C56.7547 103.816 64.799 112.69 73.3147 120.006C81.8305 127.322 91.5962 131.89 99.4816 141.338C109.775 153.684 104.355 166.41 96.0659 170.66C88.3387 174.635 78.16 171.47 69.7443 172.909C61.3285 174.349 53.312 176.868 44.9216 178.159C27.2494 180.882 11.4423 185.625 -3.45456 197.195C-11.325 203.194 -17.9202 210.598 -22.8792 219" stroke="#038E9F" stroke-width="0.75" stroke-miterlimit="10"/>
<path d="M355.264 329.355C356.378 319.479 360.668 311.593 360.91 301.215C361.165 290.053 359.154 279.413 362.462 269.914C365.451 261.334 366.043 251.357 369.806 243.277C373.79 234.702 378.311 229.553 378.368 217.208C378.425 206.746 376.461 195.793 376.762 185.402C377.129 175.684 378.763 166.049 381.624 156.723C384.349 147.521 387.811 139.424 389.619 129.386C391.346 119.845 392.68 109.937 396.481 102.269C400.282 94.6002 405.529 89.0957 410.747 83.6899C415.965 78.2841 420.474 71.0878 426.028 66.2455C437.728 56.0763 450.66 55.1247 465.575 58.7878C472.811 60.5343 479.741 62.3491 486.901 62.8357C489.876 63.0123 494.065 62.2127 497.094 64.427C500.123 66.6413 503.029 73.058 505.337 76.9198C516.546 95.8242 523.983 115.267 525.875 138.358C527.648 159.87 528.599 184.489 545.115 195.893C548.541 198.274 552.123 200.438 555.839 202.373C559.263 204.129 562.796 207.458 566.169 207.041C569.543 206.625 572.399 203.661 575.54 202.281C578.681 200.9 582.089 200.879 585.53 201.179C589.479 201.524 591.196 203.544 594.487 207.682C590.737 215.239 584.96 219.156 578.074 218.902C574.752 218.803 570.813 217.162 567.634 217.442C564.733 217.719 562.192 221.848 559.529 223.399C553.103 227.125 547.944 228.133 540.265 226.216C533.411 224.502 526.41 221.485 519.591 220.309C506.206 218.002 493.063 223.806 480.602 226.677C467.867 229.609 455.341 233.586 442.649 236.769C436.239 238.384 429.594 238.731 423.164 240.19C417.018 241.561 409.674 242.157 404.15 245.606C397.76 249.551 396.777 259.322 395.182 268.976C393.631 278.411 391.585 287.461 392.795 298.254C393.897 308.022 398.203 320.074 403.361 327.651C409.046 336.044 416.563 336.636 423.068 336.832C429.976 337.03 436.201 335.81 443.365 338.74C450.238 341.551 457.047 346.198 463.727 351C470.407 355.803 477.171 360.3 483.884 364.986C490.597 369.672 497.063 375.647 503.779 380.383C510.092 384.855 518.148 387.797 523.623 395.388C529.45 403.463 528.224 416.32 527.823 425.347C527.383 435.089 531.76 446.495 534.603 456.168C537.757 466.373 540.324 476.737 542.293 487.214C544.125 497.726 546.029 508.104 546.571 518.551C547.034 527.403 543.411 538.056 540.637 544.663C533.598 561.253 516.672 556.123 503.688 550.693C495.899 547.441 489.091 542.344 483.898 535.878C477.496 527.881 471.147 525.214 464.28 527.795C456.716 530.633 455.53 538.147 454.945 549.458C454.441 559.365 452.659 569.44 446.449 573.084C441.096 576.226 432.377 573.433 427.197 565.617C420.548 555.65 421.99 546.155 424.202 536.816C426.414 527.477 426.607 517.799 428.041 508.239C429.441 498.788 433.002 490.811 436.668 483.635C440.335 476.458 444.576 469.641 446.854 460.682C449.776 449.11 441.577 443.328 436.137 434.864C430.417 425.966 423.739 423.239 416.848 418.576C409.444 413.597 403.029 407.38 397.907 400.219C392.086 392.277 386.598 385.101 379.995 378.845C373.581 372.791 366.849 367.739 361.741 358.554C356.894 349.799 354.099 338.947 355.332 329.348" stroke="#038E9F" stroke-width="0.75" stroke-miterlimit="10"/>
<path d="M-62.8027 20.8015C-60.2913 12.5972 -57.7654 5.07013 -56.6194 -4.2745C-55.5254 -13.2547 -54.8911 -22.4769 -53.9641 -31.5711C-52.159 -49.4546 -46.6305 -66.8075 -37.135 -76.0903C-32.5207 -80.597 -26.2112 -84.4064 -19.6941 -81.6596C-12.4871 -78.6213 -8.80931 -68.1262 -5.83522 -58.6335C-2.80679 -48.9513 0.092763 -39.4419 0.611293 -29.4184C1.16221 -18.7889 -2.74304 -13.0039 -3.76335 -3.53607C-4.2802 1.56895 -2.48115 5.99795 -1.34357 11.1961C-0.316291 15.8759 0.262732 20.6367 0.386231 25.4184C0.604659 35.5004 -0.361997 44.3935 2.04892 54.8098C4.32996 64.6503 5.34571 74.0926 6.29233 83.9366C6.93379 90.2282 7.8481 92.9392 12.0676 96.0388C15.2374 98.3309 18.6467 99.6959 21.8648 101.137C35.0442 107.052 47.7089 114.056 59.3194 128.066C64.648 134.506 72.0486 144.078 67.527 151.907C64.1682 157.642 59.1725 162.33 53.1315 165.416C41.9852 171.43 28.9196 170.992 17.3797 175.841C5.95968 180.681 -4.38797 189.759 -14.1316 198.736" stroke="#038E9F" stroke-width="0.75" stroke-miterlimit="10"/>
<path d="M362.473 327.552C366.346 320.615 372.097 304.548 380.561 311.288C383.796 313.851 387.007 322.988 388.891 327.768C391.324 333.996 393.162 340.836 397.324 345.259C404.783 353.188 415.157 351.505 422.738 351.713C431.023 351.941 439.243 351.645 447.766 354.785C465.33 361.259 480.934 375.109 497.742 387.397C505.155 392.817 516.96 398.35 519.607 411.923C520.898 418.557 520.155 425.081 521.188 431.731C522.141 438.155 523.886 444.57 525.404 450.951C528.545 464.002 531.523 476.846 532.788 490.046C533.947 502.111 534.967 517.231 530.621 526.298C525.549 536.879 518.22 538.303 508.945 536.171C504.134 535.031 499.683 532.78 495.977 529.613C491.999 526.392 488.539 521.586 484.437 518.796C475.617 512.791 467.422 513.115 459.368 515.658C454.946 517.048 438.819 528.515 437.514 514.206C436.937 507.892 439.628 502.974 441.173 498.152C442.934 492.925 445.008 487.801 447.385 482.806C451.451 473.81 456.074 461.976 450.808 448.618C448.459 442.665 444.326 438.076 440.917 433.519C437.391 428.803 433.985 423.355 430.289 419.021C422.771 410.197 413.757 405.63 406.356 396.309C398.84 386.838 393.54 375.008 384.448 369.139C376.387 363.931 366.279 359.137 362.133 345.319C360.214 338.943 361.089 332.825 362.518 327.592" stroke="#038E9F" stroke-width="0.75" stroke-miterlimit="10"/>
<path d="M383.082 190.493C383.798 169.787 390.672 155.561 396.669 139.355C399.617 131.372 400.697 121.824 403.522 113.726C406.107 106.452 410.144 99.7335 415.405 93.9485C424.932 83.1297 434.564 71.6576 448.094 71.2698C461.924 70.8543 475.658 73.6011 488.171 79.2849C501.997 85.711 512.302 107.026 516.542 126.964C518.713 137.148 519.65 147.423 520.834 157.6C522.032 167.909 524.236 178.624 525.046 188.842C526.025 201.107 520.271 204.322 513.818 206.702C507.746 208.839 501.563 210.675 495.295 212.201C482.7 215.455 470.123 218.462 457.69 222.359C445.258 226.257 433.158 229.905 420.015 230.484C413.641 230.762 406.766 230.918 400.108 228.202C392.506 225.118 388.24 216.35 385.233 205.63C383.806 200.572 382.79 195.481 383.052 190.475" stroke="#038E9F" stroke-width="0.75" stroke-miterlimit="10"/>
<path d="M-56.9208 49.3451C-56.4102 43.0333 -55.4156 36.7664 -53.9451 30.5957C-52.4241 24.5864 -49.9802 19.438 -48.4796 13.4164C-45.6481 1.86466 -46.3279 -13.3982 -44.956 -26.0106C-43.5841 -38.6229 -41.5375 -53.6538 -35.3688 -61.674C-32.2847 -65.7218 -28.5213 -69.7027 -23.5597 -67.7261C-18.8602 -65.8592 -14.3531 -60.2952 -11.7951 -53.6918C-6.00275 -38.7625 -9.68951 -26.558 -11.0972 -13.3329C-12.5049 -0.107748 -7.5176 14.6315 -7.18425 28.636C-7.0207 35.6978 -7.00947 42.7431 -5.91473 49.9752C-4.81999 57.2073 -3.78453 63.7219 -4.0742 70.6411C-4.35504 76.7267 -7.10311 84.5638 -5.83903 90.8677C-4.62806 96.9147 1.59953 103.027 5.03982 106.334C13.814 114.761 23.2593 118.106 32.4203 124.296C39.6537 129.184 55.7666 144.895 46.4495 155.608C43.337 159.175 38.1733 159.26 34.1971 160.399C29.8374 161.648 25.3755 162.618 21.1537 164.223C12.7083 167.425 5.68386 173.485 -1.5035 179.775C-8.69085 186.066 -15.9615 191.828 -22.9543 198.31" stroke="#038E9F" stroke-width="0.75" stroke-miterlimit="10"/>
<path d="M371.151 331.767C374.944 331.064 378.855 330.562 381.52 337.427C384.078 344.03 383.151 350.587 378.689 351.591C375.93 352.206 370.819 349.028 368.452 345.322C365.457 340.563 369.193 334.657 371.118 331.775" stroke="#038E9F" stroke-width="0.75" stroke-miterlimit="10"/>
<path d="M390.55 189.685C389.872 172.145 396.848 157.829 402.627 145.578C408.686 132.643 410.155 116.12 418.108 105.249C425.587 95.0216 434.846 86.7154 445.735 84.6736C456.624 82.6319 469.191 85.4241 480.628 90.3334C492.65 95.4648 503.34 107.32 508.38 125.869C512.713 141.804 516.348 163.002 515.281 178.512C514.016 196.863 500.507 199.733 490.121 202.124C479.118 204.67 468.227 207.065 457.652 211.246C447.403 215.296 437.342 220.488 426.166 220.905C415.847 221.291 400.853 219.762 393.195 202.703C391.349 198.613 390.447 194.185 390.552 189.726" stroke="#038E9F" stroke-width="0.75" stroke-miterlimit="10"/>
<path d="M-50.0758 65.3832C-48.8979 56.7875 -48.0333 47.8332 -46.383 39.5689C-44.7327 31.3046 -41.8954 24.1282 -39.7661 16.2947C-37.6368 8.46125 -37.1878 -0.660779 -35.5846 -8.83055C-34.9257 -12.7521 -33.9156 -16.6113 -32.5657 -20.3653C-30.9952 -24.4284 -31.2723 -28.7348 -31.3213 -33.7976C-31.3931 -41.6023 -31.6586 -54.5635 -25.3736 -54.9569C-17.0055 -55.4705 -15.1021 -43.8993 -18.3017 -35.7264C-21.0537 -28.7033 -22.3115 -18.9894 -19.6858 -9.96495C-18.3537 -5.37303 -16.603 -0.782039 -15.7972 3.94404C-15.0527 8.52418 -15.2392 13.1523 -15.0008 17.6605C-14.014 36.2655 -8.30645 55.5566 -11.7015 72.7446C-13.2217 80.4255 -17.1997 89.7884 -12.4223 98.4338C-8.07173 106.393 -2.66477 112.723 2.60897 119.006C8.02624 125.451 13.8774 131.051 19.1681 137.767C27.6122 148.485 17.2201 150.416 13.2985 154.247C4.11187 163.218 -4.04353 174.587 -13.6981 182.629C-23.1457 190.515 -36.1328 193.268 -39.7794 210.571" stroke="#038E9F" stroke-width="0.75" stroke-miterlimit="10"/>
<path d="M-43.6338 88.0467C-43.1226 81.5401 -42.5984 75.4506 -41.6116 69.216C-39.7767 57.6932 -39.8111 43.8069 -34.6496 35.2637C-31.6117 30.2265 -29.8284 26.0319 -23.9601 30.9059C-20.5259 33.7523 -17.6077 42.7954 -16.4985 48.3107C-13.717 61.9709 -20.1897 72.3186 -19.69 85.5636C-19.1187 100.557 -13.4676 110.62 -6.69181 122.818C-3.7998 128.054 -0.622414 133.931 0.310962 140.275C1.24434 146.619 -1.13892 153.325 -3.08249 157.832C-7.30542 167.628 -13.3652 175.666 -20.8374 179.793" stroke="#038E9F" stroke-width="0.75" stroke-miterlimit="10"/>
<path d="M434.897 604.355C425.918 595.622 414.714 579.455 413.702 563.72C412.691 547.985 417.691 533.513 419.046 518.729C420.495 502.991 422.281 490.035 428.176 477.901C430.917 472.249 434.417 467.571 436.823 461.541C440.422 452.632 436.593 448.471 431.241 441.138C428.975 438.031 427.601 434.935 424.776 433.675C422.147 432.506 419.328 432.798 416.677 431.936C411.1 430.122 405.942 426.896 400.966 421.302C391.578 410.728 384.855 395.956 374.998 385.931C365.141 375.907 354.823 366.649 350.307 349.335C348.35 341.534 347.729 333.478 348.468 325.485C349.115 317.696 351.49 311.463 350.144 302.825C348.799 294.187 344.867 285.648 341.607 277.722C339.915 273.63 337.13 268.187 337.472 263.658C337.796 259.386 340.773 257.831 342.798 255.801C351.782 246.859 361.801 237.72 366.012 221.929C368.146 213.968 367.559 204.783 368.59 196.195C369.741 186.656 370.844 177.094 372.069 167.606C372.86 161.465 373.161 156.551 374.761 150.944C376.554 144.842 377.952 138.639 378.949 132.37C380.689 120.961 380.237 108.243 382.726 97.2966C385.372 85.6266 395.515 78.963 401.882 72.5282C415.287 58.9632 430.06 39.1203 448.911 41.0406C458.306 42.0032 467.788 45.1727 477.222 46.7315C486.313 48.2409 496.969 44.4702 505.322 56.5519C512.692 67.1899 519.202 82.3455 524.999 94.7955C531.775 109.312 533.824 121.817 533.777 137.36C533.737 151.153 532.073 167.41 541.588 178.736C544.892 182.802 549.112 186.092 553.93 188.357C558.747 190.622 564.037 191.804 569.399 191.814C578.698 191.722 588.13 190.333 597.759 193.1C601.686 194.224 609.438 196.989 609.128 204.913C608.991 207.711 608.237 210.449 606.916 212.944C605.595 215.44 603.738 217.637 601.468 219.389C594.028 225.327 585.277 229.551 575.884 231.739C566.983 233.665 558.382 237.456 549.194 238.043C539.839 238.626 530.429 236.44 520.769 233.512C510.602 230.428 502.579 234.662 493.287 236.414C484.377 238.082 475.726 240.868 466.803 242.412C457.589 244.014 448.331 245.691 439.347 248.468C435.029 249.817 430.086 248.752 426.088 251.105C422.09 253.458 417.802 256.313 414.549 260.02C408.374 267 404.639 282.886 405.486 296.088C405.782 300.629 407.105 305.053 409.365 309.049C412.747 315.016 417.657 315.76 421.874 317.256C427.992 319.445 433.941 322.048 439.677 325.047C464.214 337.795 486.958 361.259 511.38 374.58C517.285 377.791 524.45 379.931 529.675 386.519C535.183 393.448 537.34 404.19 537.237 413.26C537.183 417.968 536.348 421.715 535.813 426.094C535.243 430.975 536.453 434.99 538.08 439.936C541.072 448.996 544.365 457.855 547.578 466.816C550.79 475.776 553.213 485.048 556.141 494.131C559.008 503.068 562.301 512.473 563.089 521.764C563.534 527.058 564.372 532.717 563.471 537.496C562.61 542.04 560.493 545.536 559.722 550.093C558.922 554.892 559.123 560.408 558.47 565.308C557.762 570.598 554.972 573.077 556.367 579.486" stroke="#038E9F" stroke-width="0.75" stroke-miterlimit="10"/>
<path d="M-13.2931 215.821C-3.86243 201.663 9.93575 194.412 23.6418 190.44C37.5613 186.412 52.3689 185.857 67.025 185.361C81.681 184.865 98.0455 189.364 109.289 176.936C114.078 171.668 119.323 161.006 116.239 149.681C113.324 138.982 103.719 130.296 97.4604 124.888C90.2367 118.661 82.8658 113.164 75.8942 105.991C69.0502 98.9489 63.1637 90.0468 57.0291 81.6369C50.6833 72.9296 44.8046 63.4797 38.2431 55.1818C35.3269 51.5143 31.2789 46.9148 29.813 41.6219C27.9041 34.7057 31.2076 31.6422 34.0154 28.7312C39.5641 22.9577 44.0007 14.8113 45.7454 4.40075C47.8559 -8.22507 43.2205 -16.9693 35.5657 -25.0235C21.1037 -40.2204 10.4374 -64.16 20.6138 -83.3054C24.8154 -91.2314 31.5311 -95.3834 36.2872 -102.492C41.0433 -109.601 44.1703 -119.236 45.3864 -129.957C47.6733 -150.082 47.0661 -173.383 48.73 -193.848C50.0251 -209.753 55.7881 -223.521 66.0251 -227.945C70.3422 -229.807 74.7603 -231.321 78.0231 -235.787C81.5188 -240.59 86.5979 -246.284 91.8996 -246.702C98.6574 -247.234 106.2 -240.046 113.121 -241.53C123.488 -243.749 121.351 -263.87 118.488 -277.252C116.787 -285.189 114.622 -292.443 109.043 -296.079C103.619 -299.616 101.485 -293.361 98.911 -288.318C96.337 -283.275 93.5929 -278.177 91.4291 -272.663C87.5726 -262.832 80.3234 -255.856 71.3416 -258.943C66.5747 -260.619 61.6984 -261.262 56.9214 -263.523C46.6942 -268.341 39.0123 -277.523 31.2276 -289.816C23.864 -301.446 14.8796 -312.052 4.92739 -312.789C-4.74056 -313.506 -12.4221 -306.115 -18.3683 -297.17C-21.5213 -292.502 -24.5042 -288.686 -28.6184 -285.728C-31.5059 -283.656 -34.4372 -284.195 -37.822 -284.516C-50.0217 -285.852 -42.7766 -259.411 -40.6914 -247.628C-38.0836 -232.913 -35.0999 -218.231 -32.5004 -203.514C-27.4891 -175.113 -24.0998 -143.225 -32.0407 -119.614C-35.8613 -108.219 -45.1735 -103.505 -51.0467 -94.946C-57.1484 -86.0671 -61.9337 -74.3653 -65.3523 -62.2794C-68.7271 -50.3377 -69.8515 -36.6969 -73.4839 -24.9917" stroke="#038E9F" stroke-width="0.75" stroke-miterlimit="10"/>
</g>
</svg>
