<svg width="1015" height="766" viewBox="0 0 1015 766" fill="none" xmlns="http://www.w3.org/2000/svg">
<g clip-path="url(#clip0_1220_7660)">
<mask id="mask0_1220_7660" style="mask-type:alpha" maskUnits="userSpaceOnUse" x="-1008" y="-173" width="3412" height="1757">
<path opacity="0.35" d="M-1006.85 445.612C-958.211 420.09 -907.047 394.863 -850.722 385.338C-758.613 369.775 -695.007 431.029 -600.786 399.948C-523.155 374.354 -452.112 317.006 -365.892 318.596C-284.791 320.079 -216.431 352.919 -132.229 322.084C-42.3567 289.179 33.324 225.656 131.911 211.736C225.145 198.572 316.819 237.135 408.989 217.573C497.005 198.881 563.487 131.581 651.192 111.629C755.265 87.9498 860.427 136.863 965.006 115.332C1038.67 100.164 1099.69 54.9073 1170.37 30.5342C1260.93 -0.679385 1328.76 40.0721 1417.13 28.6659C1493.23 18.8368 1551.85 -31.5266 1623.57 -52.6619C1715.01 -79.6086 1842.89 -49.361 1936.18 -66.3034C2056.61 -88.1808 2103.03 -121.099 2196.48 -172.253" stroke="white" stroke-width="1.35" stroke-miterlimit="10"/>
<path opacity="0.4" d="M-1000.09 480.917C-951.151 454.808 -899.599 428.973 -842.612 419.229C-750.788 403.582 -686.755 463.994 -592.851 433.492C-514.746 408.24 -443.649 350.904 -357.37 351.652C-275.803 352.227 -206.746 385.302 -122.187 354.772C-32.5014 322.311 42.7596 258.742 140.866 244.583C234.551 230.967 326.767 269.962 419.492 250.408C508.232 231.689 574.076 164.298 662.545 144.42C766.011 121.054 869.087 169.846 974.483 148.15C1048 133.012 1108.58 87.8113 1179 63.4598C1270.28 31.8373 1338.05 72.7156 1427.54 60.9874C1503.48 51.0901 1562.29 0.200093 1633.7 -20.4941C1724.44 -46.8567 1850.33 -16.7651 1942.84 -33.2265C2062.69 -54.483 2110.2 -87.9757 2202.78 -139.516" stroke="white" stroke-width="1.92" stroke-miterlimit="10"/>
<path opacity="0.45" d="M-993.328 516.223C-944.102 489.513 -892.157 463.083 -834.493 453.115C-742.947 437.397 -678.509 496.96 -584.911 467.017C-506.328 442.121 -435.182 384.782 -348.85 384.673C-266.817 384.341 -197.064 417.65 -112.147 387.427C-22.6483 355.409 52.1931 291.793 149.818 277.395C243.949 263.315 336.733 302.763 429.979 283.215C519.442 264.469 584.662 196.981 673.861 177.173C776.711 154.141 877.73 202.801 983.924 180.931C1057.28 165.822 1117.43 120.699 1187.6 96.3345C1279.59 64.3031 1347.31 105.302 1437.91 93.2578C1513.67 83.284 1572.69 31.8901 1643.78 11.6084C1733.81 -14.1643 1857.73 15.7742 1949.44 -0.194516C2068.71 -20.8303 2117.3 -54.8977 2209.03 -106.824" stroke="white" stroke-width="2.5" stroke-miterlimit="10"/>
<path opacity="0.55" d="M-986.577 551.535C-937.055 524.237 -884.703 497.208 -826.388 486.992C-735.127 471.189 -670.338 529.725 -577.001 500.538C-498.003 475.842 -426.737 418.838 -340.339 417.701C-257.838 416.628 -187.399 450.025 -102.115 420.087C-12.7894 388.506 61.618 324.85 158.762 310.213C253.344 295.683 346.671 335.561 440.471 316.022C530.658 297.249 595.24 229.67 685.189 209.941C787.438 187.237 886.364 235.761 993.376 213.726C1066.59 198.641 1126.3 153.595 1196.21 129.238C1288.94 96.7917 1356.59 137.918 1448.3 125.557C1523.89 115.501 1583.09 63.6003 1653.87 43.7598C1743.21 18.5711 1865.13 48.3537 1956.06 32.866C2074.76 12.8308 2124.44 -21.7966 2215.3 -74.103" stroke="white" stroke-width="3.07" stroke-miterlimit="10"/>
<path opacity="0.65" d="M-979.809 586.856C-929.998 558.956 -877.252 531.333 -818.26 520.892C-727.264 505.013 -662.086 562.656 -569.053 534.078C-489.6 509.68 -418.259 452.779 -331.805 450.751C-248.841 448.805 -177.702 482.403 -92.0605 452.77C-2.91647 421.647 71.0797 357.924 167.728 343.055C262.762 328.073 356.646 368.377 450.986 348.852C541.902 330.067 605.854 262.376 696.534 242.718C798.161 220.333 895.021 268.745 1002.84 246.531C1075.91 231.475 1135.18 186.492 1204.83 162.136C1298.28 129.295 1365.86 170.533 1458.69 157.851C1534.11 147.718 1593.51 95.2993 1663.98 75.8856C1752.62 51.2809 1872.54 80.922 1962.69 65.9068C2080.8 46.4924 2131.57 11.2903 2221.55 -41.3964" stroke="white" stroke-width="3.64" stroke-miterlimit="10"/>
<path opacity="0.7" d="M-973.049 622.162C-922.942 593.674 -869.809 565.443 -810.14 554.777C-719.424 538.828 -653.848 595.558 -561.122 567.622C-481.207 543.538 -409.803 486.712 -323.287 483.807C-239.84 480.997 -168.022 514.786 -82.0224 485.459C6.93439 454.78 80.5292 391.219 176.693 375.896C272.217 360.682 366.604 401.199 461.498 381.682C553.139 362.87 616.494 295.271 707.882 275.509C808.955 253.65 903.69 301.723 1012.31 279.334C1085.23 264.303 1144.07 219.396 1213.45 195.047C1307.64 161.792 1375.16 203.157 1469.09 190.158C1544.33 179.949 1603.94 127.026 1674.11 108.039C1762.02 84.0103 1879.97 113.504 1969.32 98.9757C2086.85 80.1677 2138.72 44.3851 2227.83 -8.66743" stroke="white" stroke-width="4.22" stroke-miterlimit="10"/>
<path opacity="0.75" d="M-966.287 657.468C-915.89 628.378 -862.363 599.553 -802.024 588.648C-711.592 572.614 -645.616 628.48 -553.186 601.132C-472.81 577.361 -401.336 520.623 -314.771 516.814C-230.859 513.13 -158.357 547.126 -71.991 518.084C16.7786 487.848 89.9655 424.269 185.642 408.693C281.319 393.117 376.547 433.976 471.996 414.468C564.36 395.629 627.089 327.968 719.23 308.25C819.698 286.754 912.35 334.671 1021.78 312.103C1094.55 297.101 1152.95 252.272 1222.08 227.91C1316.99 194.245 1384.45 235.731 1479.49 222.416C1554.56 212.125 1614.37 158.69 1684.21 140.135C1771.43 116.69 1887.38 146.022 1975.95 131.981C2092.89 113.794 2145.85 77.4364 2234.11 23.9978" stroke="white" stroke-width="4.79" stroke-miterlimit="10"/>
<path opacity="0.8" d="M-959.536 692.781C-908.864 663.095 -854.915 633.664 -793.928 622.546C-703.775 606.442 -637.396 661.409 -545.27 634.669C-464.433 611.212 -392.895 554.548 -306.268 549.862C-221.879 545.3 -148.625 579.708 -61.9683 550.765C26.6898 521.159 99.3787 457.382 194.577 441.532C291.007 425.466 386.496 466.804 482.465 447.302C575.553 428.436 637.655 360.712 730.529 341.031C830.387 319.882 920.97 367.638 1031.21 344.911C1103.83 329.933 1161.79 285.166 1230.66 260.826C1326.3 226.746 1393.69 268.365 1489.85 254.728C1564.74 244.374 1624.75 190.407 1694.28 172.279C1780.8 149.418 1894.76 178.609 1982.54 165.04C2098.9 147.473 2152.95 110.535 2240.33 56.7224" stroke="white" stroke-width="5.36" stroke-miterlimit="10"/>
<path opacity="0.8" d="M-952.767 728.101C-901.8 697.827 -847.464 667.788 -785.805 656.431C-695.938 640.242 -629.144 694.34 -537.336 668.213C-456.037 645.07 -384.421 588.475 -297.748 582.918C-212.896 577.483 -138.936 612.105 -51.9275 583.453C36.555 554.319 108.824 490.496 203.53 474.379C300.423 457.891 396.443 499.631 492.966 480.137C586.778 461.245 648.262 393.437 741.866 373.827C841.114 353.026 929.619 400.641 1040.67 377.734C1113.15 362.8 1170.66 318.096 1239.28 293.743C1335.63 259.255 1402.97 300.994 1500.24 287.041C1574.95 276.61 1635.17 222.139 1704.39 204.438C1790.2 182.167 1902.18 211.196 1989.18 198.123C2104.97 181.157 2160.1 143.664 2246.62 89.4653" stroke="white" stroke-width="5.94" stroke-miterlimit="10"/>
<path opacity="0.85" d="M-946.005 763.407C-894.747 732.531 -840.036 701.772 -777.683 690.316C-688.135 673.874 -620.906 727.277 -529.393 701.737C-447.613 678.916 -375.946 622.367 -289.22 615.953C-203.889 609.64 -129.247 644.503 -41.8783 616.122C46.4228 587.445 118.272 523.575 212.491 507.205C309.827 490.287 406.412 532.432 503.476 512.953C598.011 494.033 658.868 426.163 753.205 406.589C851.843 386.136 938.265 433.596 1050.13 410.524C1122.47 395.613 1179.54 350.972 1247.9 326.64C1345 291.752 1412.26 333.604 1510.64 319.334C1585.18 308.821 1645.59 253.837 1714.5 236.564C1799.61 214.876 1909.57 243.574 1995.81 231.163C2110.97 214.585 2167.24 176.745 2252.89 122.166" stroke="white" stroke-width="6.51" stroke-miterlimit="10"/>
<path opacity="0.85" d="M-939.261 798.719C-887.708 767.256 -832.615 735.874 -769.58 724.208C-680.302 707.675 -612.673 760.214 -521.484 735.274C-439.237 712.78 -367.512 656.291 -280.724 649.001C-194.922 641.794 -119.584 676.892 -31.8625 648.802C56.2573 620.583 127.687 556.667 221.419 540.044C319.218 522.704 416.334 565.251 513.952 545.78C609.211 526.833 669.436 458.886 764.517 439.378C862.54 419.258 946.904 466.586 1059.57 443.34C1131.75 428.458 1188.38 383.894 1256.49 359.549C1354.3 324.252 1421.48 366.021 1521.02 351.633C1595.36 340.883 1656.04 285.691 1724.58 268.715C1809.04 247.796 1916.97 276.148 2002.41 264.229C2116.99 248.238 2174.35 209.858 2259.13 154.892" stroke="white" stroke-width="7.08" stroke-miterlimit="10"/>
<path opacity="0.9" d="M-932.487 834.04C-880.644 801.974 -825.144 769.993 -761.452 758.093C-672.46 741.476 -604.409 793.159 -513.531 768.813C-430.817 746.647 -359.025 690.197 -272.19 682.037C-185.916 673.937 -109.896 709.276 -21.8081 681.471C66.1446 653.704 137.14 589.747 230.4 572.865C328.656 555.088 426.323 598.046 524.467 578.596C620.45 559.622 680.042 491.598 775.882 472.148C873.309 452.371 955.575 499.549 1069.06 476.138C1141.1 461.28 1197.3 416.793 1265.14 392.455C1363.69 356.743 1430.78 398.631 1531.44 383.935C1605.6 373.108 1666.5 317.412 1734.72 300.849C1818.47 280.534 1924.41 308.71 2009.08 297.272C2123.08 281.882 2181.52 242.947 2265.43 187.601" stroke="white" stroke-width="7.66" stroke-miterlimit="10"/>
<path opacity="0.9" d="M-925.728 869.346C-873.59 836.693 -817.702 804.104 -753.333 791.979C-664.626 775.277 -596.169 826.111 -505.592 802.337C-422.411 780.5 -350.553 724.09 -263.665 715.073C-176.904 706.074 -100.202 741.653 -11.7624 714.14C76.0089 686.831 146.579 622.812 239.358 605.692C338.066 587.465 436.281 630.868 534.973 611.411C631.694 592.405 690.64 524.31 787.218 504.911C884.029 485.467 964.223 532.518 1078.51 508.913C1150.4 494.085 1206.15 449.661 1273.74 425.325C1373.01 389.203 1440.05 431.197 1541.82 416.2C1615.82 405.291 1676.89 349.088 1744.82 332.96C1827.88 313.229 1931.83 341.244 2015.7 330.299C2129.11 315.514 2188.65 276.013 2271.69 220.288" stroke="white" stroke-width="8.23" stroke-miterlimit="10"/>
<path opacity="0.95" d="M-918.965 904.651C-866.537 871.397 -810.262 838.199 -745.225 825.87C-656.796 809.097 -587.925 859.061 -497.678 835.873C-414.024 814.377 -342.111 757.979 -255.151 748.114C-167.918 738.222 -90.5331 774.042 -1.72717 746.813C85.8628 719.962 156.013 655.897 248.305 638.523C347.456 619.866 446.236 663.674 545.469 644.232C642.914 625.199 701.241 557.021 798.55 537.692C894.745 518.583 972.876 565.487 1087.97 541.722C1159.71 526.918 1215.03 482.57 1282.36 458.241C1382.36 421.706 1449.33 463.826 1552.21 448.513C1626.03 437.527 1687.31 380.821 1754.91 365.111C1837.26 345.984 1939.22 373.808 2022.31 363.378C2135.13 349.201 2195.77 309.139 2277.94 253.013" stroke="white" stroke-width="8.8" stroke-miterlimit="10"/>
<path opacity="0.95" d="M-912.217 939.964C-859.513 906.113 -802.831 872.316 -737.123 859.747C-648.979 842.89 -579.696 892.019 -489.75 869.404C-405.623 848.25 -333.65 791.877 -246.637 781.156C-158.937 770.357 -80.8505 806.426 8.29308 779.494C95.6958 753.086 165.427 688.975 257.238 671.362C356.84 652.254 456.162 696.493 555.949 677.06C654.118 658 711.807 589.73 809.86 570.467C905.454 551.685 981.498 598.468 1097.4 574.524C1168.99 559.749 1223.89 515.473 1290.95 491.137C1391.67 454.206 1458.58 496.419 1562.57 480.804C1636.21 469.741 1697.7 412.531 1765 397.248C1846.65 378.705 1946.61 406.388 2028.92 396.425C2141.17 382.848 2202.89 342.212 2284.2 285.72" stroke="white" stroke-width="9.37" stroke-miterlimit="10"/>
<path d="M-905.445 975.285C-852.446 940.846 -795.361 906.434 -728.991 893.647C-641.126 876.72 -571.422 924.993 -481.813 902.949C-397.212 882.137 -325.17 825.77 -238.113 814.213C-149.947 802.506 -71.1724 838.829 18.3375 812.183C107.848 785.537 174.864 722.061 266.194 704.209C366.253 684.665 466.113 729.321 566.44 709.901C665.332 690.814 722.389 622.468 821.186 603.27C916.164 584.821 990.145 631.457 1106.85 607.354C1178.3 592.603 1232.74 548.395 1299.55 524.075C1401.02 486.73 1467.84 529.075 1572.96 513.138C1646.42 501.993 1708.11 444.27 1775.1 429.414C1856.03 411.461 1954.02 438.977 2035.53 429.506C2147.19 416.535 2210 375.339 2290.44 318.467" stroke="white" stroke-width="9.95" stroke-miterlimit="10"/>
<path d="M-898.68 1010.59C-845.391 975.55 -787.913 940.545 -720.866 927.532C-633.286 910.52 -563.17 957.958 -473.868 936.473C-388.794 916.004 -316.698 859.647 -229.587 847.234C-140.941 834.614 -61.4844 871.178 28.3834 844.837C118.251 818.496 184.298 755.097 275.152 737.022C375.663 717.027 476.079 762.107 576.946 742.702C676.562 723.589 732.995 655.145 832.528 636.032C926.899 617.897 998.8 664.426 1116.32 640.143C1187.61 625.422 1241.63 581.285 1308.17 556.958C1410.35 519.203 1477.13 561.67 1583.35 545.416C1656.64 534.195 1718.54 475.969 1785.2 461.545C1865.44 444.176 1961.42 471.536 2042.16 462.546C2153.25 450.176 2217.15 408.42 2296.72 351.167" stroke="white" stroke-width="10.52" stroke-miterlimit="10"/>
<path d="M-891.916 1045.9C-838.332 1010.27 -780.467 974.655 -712.748 961.403C-625.448 944.321 -554.911 990.904 -465.945 969.989C-380.407 949.882 -308.253 893.502 -221.078 880.261C-131.966 866.734 -51.8127 903.532 38.413 877.497C125.274 852.428 193.72 788.154 284.094 769.84C385.05 749.38 486.02 794.92 587.436 775.509C687.776 756.369 743.571 687.834 843.863 668.779C937.617 650.978 1007.44 697.367 1125.78 672.918C1196.92 658.226 1250.5 614.167 1316.79 589.841C1419.7 551.672 1486.42 594.265 1593.74 577.695C1666.85 566.411 1728.96 507.653 1795.3 493.656C1874.84 476.871 1968.85 504.069 2048.78 495.572C2159.29 483.823 2224.28 441.492 2302.98 383.853" stroke="white" stroke-width="11.09" stroke-miterlimit="10"/>
<path opacity="0.95" d="M-885.172 1081.21C-831.297 1044.98 -773.039 1008.77 -704.644 995.295C-617.622 978.142 -546.674 1023.89 -458.015 1003.53C-371.998 983.783 -299.781 927.395 -212.562 913.317C-125.343 899.24 -42.1421 935.936 48.45 910.186C139.042 884.436 203.145 821.225 293.057 802.681C394.48 781.765 495.992 827.736 597.948 808.339C699.012 789.172 754.183 720.539 855.21 701.57C948.358 684.083 1016.11 730.345 1135.25 705.736C1206.25 691.069 1259.39 647.072 1325.42 622.753C1429.05 584.175 1495.69 626.895 1604.14 609.989C1677.08 598.622 1739.38 539.351 1805.42 525.796C1884.25 509.6 1976.27 536.651 2055.42 528.641C2165.34 517.513 2231.43 474.601 2309.25 416.588" stroke="white" stroke-width="11.67" stroke-miterlimit="10"/>
<path opacity="0.68" d="M-878.402 1116.53C-824.232 1079.71 -765.581 1042.91 -696.535 1029.19C-609.793 1011.96 -538.418 1056.87 -450.086 1037.06C-363.591 1017.67 -291.33 961.263 -204.047 946.358C-113.985 930.976 -32.4641 968.304 58.4858 942.86C144.967 918.663 212.573 854.296 302.005 835.512C403.873 814.132 505.933 860.548 608.444 841.16C710.232 821.965 764.764 753.242 866.536 734.338C959.062 717.169 1024.75 763.319 1144.69 738.517C1215.54 723.878 1268.24 679.959 1334.01 655.626C1438.38 616.634 1504.96 659.481 1614.51 642.258C1687.28 630.83 1749.76 571.032 1815.51 557.897C1893.64 542.286 1983.66 569.196 2062.03 561.652C2171.39 551.139 2238.55 507.658 2315.51 449.259" stroke="white" stroke-width="12.24" stroke-miterlimit="10"/>
<path opacity="0.7" d="M-871.642 1151.84C-817.182 1114.42 -758.123 1077.01 -688.415 1063.07C-601.951 1045.78 -530.164 1089.85 -442.16 1070.59C-354.156 1051.34 -282.868 995.127 -195.54 979.386C-105.018 963.082 -22.8152 1000.65 68.5127 975.52C154.821 951.761 222.002 887.333 310.95 868.346C413.263 846.5 515.886 893.355 618.923 873.988C721.434 854.766 775.337 785.931 877.851 767.126C969.763 750.257 1033.38 796.294 1154.13 771.333C1224.84 756.718 1277.11 712.876 1342.61 688.551C1447.7 649.164 1514.23 692.117 1624.88 674.578C1697.47 663.073 1760.17 602.771 1825.59 590.07C1903.01 575.028 1991.05 601.796 2068.63 594.739C2177.4 584.847 2245.64 540.791 2321.75 482.006" stroke="white" stroke-width="12.81" stroke-miterlimit="10"/>
<path opacity="0.72" d="M-864.892 1187.15C-810.157 1149.13 -750.69 1111.13 -680.305 1096.96C-594.121 1079.6 -521.916 1122.85 -434.224 1104.14C-346.766 1085.47 -274.417 1029 -187.019 1012.44C-96.0215 995.21 -13.1308 1033.03 78.5491 1008.19C164.664 984.865 231.42 920.376 319.898 901.178C422.658 878.868 525.829 926.168 629.42 906.809C732.655 887.561 785.914 818.62 889.184 799.909C980.475 783.359 1042.03 829.284 1163.59 804.143C1234.14 789.558 1285.97 745.778 1351.22 721.454C1457.04 681.652 1523.53 724.97 1635.27 706.877C1707.7 695.451 1770.58 634.476 1835.69 622.201C1912.4 607.749 1998.47 634.364 2075.26 627.78C2183.45 618.508 2252.79 573.872 2328.02 514.707" stroke="white" stroke-width="13.39" stroke-miterlimit="10"/>
<path opacity="0.75" d="M-858.125 1222.47C-803.094 1183.86 -743.234 1145.27 -672.184 1130.85C-586.279 1113.41 -513.662 1155.83 -426.298 1137.67C-338.369 1119.38 -265.968 1062.87 -178.491 1045.48C-87.0254 1027.3 -3.44096 1065.4 88.5969 1040.86C174.525 1017.98 240.855 953.426 328.858 934.005C432.063 911.229 535.803 958.983 639.928 939.624C743.887 920.349 796.516 851.297 900.536 832.665C991.219 816.428 1050.69 862.232 1173.07 836.926C1243.48 822.365 1294.87 778.662 1359.86 754.345C1466.4 714.134 1532.84 757.574 1645.68 739.164C1717.95 727.655 1781.01 666.154 1845.81 654.32C1921.82 640.438 2005.9 666.925 2081.9 660.814C2189.5 652.162 2259.93 606.952 2334.29 547.407" stroke="white" stroke-width="13.96" stroke-miterlimit="10"/>
<path opacity="0.78" d="M-851.361 1257.77C-796.04 1218.57 -735.763 1179.52 -664.06 1164.73C-578.398 1147.4 -505.399 1188.82 -418.354 1171.19C-329.935 1153.29 -257.494 1096.71 -169.961 1078.51C-78.0407 1059.4 6.24605 1097.75 98.6475 1073.53C184.397 1051.07 250.301 986.458 337.821 966.832C441.48 943.571 545.759 991.791 650.439 972.44C755.122 953.138 807.121 883.974 911.883 865.442C1001.95 849.505 1059.36 895.21 1182.54 869.73C1252.79 855.198 1303.74 811.558 1368.48 787.243C1475.76 746.618 1542.11 790.189 1656.08 771.458C1728.16 759.872 1791.43 697.852 1855.92 686.466C1931.23 673.168 2013.31 699.514 2088.52 693.875C2195.55 685.858 2267.06 640.039 2340.56 580.128" stroke="white" stroke-width="14.53" stroke-miterlimit="10"/>
<path opacity="0.8" d="M-844.597 1293.08C-788.981 1253.29 -728.302 1213.63 -655.937 1198.62C-570.554 1181.21 -497.131 1221.83 -410.405 1204.73C-321.515 1187.2 -249.015 1130.57 -161.426 1111.56C-69.0362 1091.51 15.9242 1130.11 108.704 1106.21C194.26 1084.18 259.745 1019.52 346.804 999.667C450.902 975.927 555.75 1024.6 660.955 1005.27C766.362 985.941 817.718 916.671 923.229 898.218C1012.69 882.58 1068.01 928.179 1192.01 902.534C1262.12 888.026 1312.63 844.463 1377.11 820.155C1485.1 779.12 1551.41 822.813 1666.48 803.765C1738.4 792.097 1801.86 729.565 1866.03 718.605C1940.63 705.883 2020.74 732.096 2095.17 726.938C2201.62 719.542 2274.22 673.148 2346.85 612.851" stroke="white" stroke-width="15.11" stroke-miterlimit="10"/>
<path opacity="0.82" d="M-837.847 1328.39C-781.941 1288 -720.869 1247.74 -647.833 1232.5C-562.735 1215.01 -488.888 1254.82 -402.495 1238.25C-313.115 1221.11 -240.589 1164.41 -152.935 1144.58C-60.0771 1123.59 25.5712 1162.45 118.714 1138.87C204.077 1117.26 269.137 1052.54 355.727 1032.48C460.265 1008.26 565.667 1057.39 671.427 1038.07C777.557 1018.71 828.277 949.316 934.536 930.977C1023.37 915.644 1076.65 961.139 1201.44 935.32C1271.4 920.842 1321.47 877.356 1385.7 853.034C1494.43 811.6 1560.66 855.391 1676.84 836.041C1748.58 824.296 1812.24 761.232 1876.11 750.727C1950.01 738.575 2028.13 764.675 2101.76 759.975C2207.63 753.214 2281.33 706.226 2353.08 645.554" stroke="white" stroke-width="15.68" stroke-miterlimit="10"/>
<path opacity="0.85" d="M-831.08 1363.71C-774.878 1322.73 -713.413 1281.88 -639.72 1266.4C-554.887 1248.84 -480.631 1287.85 -394.563 1271.8C-304.706 1255.05 -232.132 1198.26 -144.417 1177.64C-51.0954 1155.69 35.2054 1194.63 128.753 1171.55C213.888 1150.21 278.572 1085.59 364.678 1065.32C469.67 1040.62 575.612 1090.22 681.926 1070.9C788.795 1051.52 838.865 982 945.871 963.774C1034.09 948.74 1085.29 994.129 1210.89 968.13C1280.72 953.69 1330.34 910.252 1394.31 885.953C1503.76 844.109 1569.92 888.026 1687.23 868.355C1758.78 856.534 1822.63 792.824 1886.2 782.879C1959.37 771.155 2035.53 797.269 2108.37 793.042C2213.66 786.916 2288.44 739.339 2359.33 678.28" stroke="white" stroke-width="16.25" stroke-miterlimit="10"/>
<path opacity="0.88" d="M-824.316 1399.02C-767.825 1357.43 -705.966 1315.99 -631.603 1300.27C-547.054 1282.62 -472.369 1320.84 -386.64 1305.31C-296.301 1288.97 -223.693 1232.1 -135.908 1210.67C-42.1373 1187.77 44.8632 1226.99 138.783 1204.22C223.745 1183.31 287.978 1118.61 373.62 1098.14C479.046 1072.94 585.568 1123.02 692.416 1103.71C800.009 1084.3 849.443 1014.65 957.206 996.522C1044.81 981.788 1093.93 1027.08 1220.35 1000.91C1290.02 986.495 1339.21 943.134 1402.91 918.827C1513.08 876.575 1579.19 920.613 1697.6 900.626C1769 888.736 1833.03 824.5 1896.3 814.996C1968.76 803.856 2042.94 829.975 2114.99 826.068C2219.7 820.779 2295.58 772.405 2365.59 710.967" stroke="white" stroke-width="16.82" stroke-miterlimit="10"/>
<path opacity="0.9" d="M-817.566 1434.33C-760.799 1392.15 -698.519 1350.1 -623.493 1334.16C-539.223 1316.44 -464.114 1353.85 -378.704 1338.86C-287.884 1322.92 -215.247 1265.96 -127.385 1243.72C-33.1521 1219.87 54.548 1259.38 148.826 1236.9C233.601 1216.44 297.366 1151.5 382.575 1130.99C488.388 1105.1 595.516 1155.85 702.919 1136.55C811.235 1117.1 859.993 1047.15 968.545 1029.32C1055.51 1014.73 1102.59 1060.07 1229.82 1033.73C1299.34 1019.34 1348.1 976.059 1411.53 951.759C1522.43 909.092 1588.48 953.257 1708 932.953C1779.21 920.987 1843.46 856.233 1906.41 847.156C1978.18 836.6 2050.35 862.563 2121.61 859.143C2225.75 854.474 2302.71 805.526 2371.86 743.687" stroke="white" stroke-width="17.4" stroke-miterlimit="10"/>
<path opacity="0.93" d="M-810.806 1469.64C-753.743 1426.87 -691.076 1384.21 -615.373 1368.05C-531.383 1350.26 -455.864 1386.87 -370.778 1372.39C-279.476 1356.85 -206.841 1299.64 -118.88 1276.75C-24.2328 1251.77 64.2223 1291.74 158.852 1269.56C243.44 1249.54 306.786 1184.55 391.513 1163.81C497.778 1137.47 605.463 1188.64 713.392 1169.36C822.432 1149.89 870.566 1079.84 979.847 1062.08C1066.19 1047.82 1111.21 1093.03 1239.24 1066.52C1308.61 1052.16 1356.93 1008.94 1420.11 984.64C1531.73 941.564 1597.71 985.856 1718.37 965.224C1789.41 953.176 1853.86 887.923 1916.48 879.279C1987.53 869.299 2057.74 895.128 2128.23 892.189C2231.78 888.121 2309.82 838.619 2378.1 776.399" stroke="white" stroke-width="17.97" stroke-miterlimit="10"/>
<path opacity="0.95" d="M-804.034 1504.96C-746.682 1461.59 -683.621 1418.33 -607.247 1401.93C-523.542 1384.06 -447.57 1420.02 -362.833 1405.91C-271.031 1390.91 -198.368 1333.52 -110.348 1309.78C-15.2347 1283.9 73.9025 1324.11 168.905 1302.23C253.305 1282.65 316.231 1217.62 400.492 1196.63C507.203 1169.82 615.436 1221.44 723.919 1202.17C833.683 1182.67 881.178 1112.53 991.21 1094.85C1076.95 1080.91 1119.89 1125.99 1248.73 1099.31C1317.96 1084.98 1365.84 1041.84 1428.75 1017.54C1541.11 974.068 1607.03 1018.47 1728.79 997.525C1799.65 985.4 1864.3 919.629 1926.62 911.411C1996.97 902.015 2065.19 927.683 2134.88 925.237C2237.85 921.79 2316.99 871.707 2384.39 809.107" stroke="white" stroke-width="18.54" stroke-miterlimit="10"/>
<path opacity="0.97" d="M-797.271 1540.26C-739.623 1496.31 -676.175 1452.45 -599.124 1435.82C-515.698 1417.87 -439.305 1452.98 -354.884 1439.45C-262.603 1424.81 -189.892 1367.41 -101.813 1342.84C-6.23359 1316.04 83.6002 1356.49 178.96 1334.92C263.188 1315.78 325.68 1250.7 409.46 1229.47C516.622 1202.21 625.412 1254.26 734.435 1235C844.922 1215.48 891.794 1145.24 1002.56 1127.64C1087.68 1114.03 1128.56 1158.99 1258.21 1132.13C1327.28 1117.83 1374.72 1074.76 1437.38 1050.46C1550.46 1006.57 1616.32 1051.1 1739.19 1029.83C1809.88 1017.63 1874.73 951.343 1936.74 943.566C2006.4 934.754 2072.62 960.266 2141.51 958.307C2243.91 955.48 2324.12 904.808 2390.68 841.837" stroke="white" stroke-width="19.12" stroke-miterlimit="10"/>
<path d="M-790.526 1575.57C-732.588 1531.02 -668.732 1486.56 -591.034 1469.72C-507.892 1451.69 -431.087 1485.95 -346.988 1472.99C-254.228 1458.7 -181.468 1401.31 -93.3158 1375.88C2.7439 1348.18 93.2656 1388.88 188.964 1367.6C273.009 1348.92 335.071 1283.77 418.375 1262.31C525.988 1234.61 635.326 1287.1 744.899 1267.83C856.11 1248.28 902.343 1177.95 1013.87 1160.41C1098.38 1147.12 1137.17 1191.95 1267.64 1164.93C1336.56 1150.66 1383.57 1107.65 1445.97 1083.37C1559.79 1039.07 1625.57 1083.72 1749.56 1062.14C1820.07 1049.85 1885.13 983.067 1946.82 975.703C2015.77 967.48 2080 992.845 2148.12 991.352C2249.93 989.133 2331.25 937.894 2396.93 874.543" stroke="white" stroke-width="19.69" stroke-miterlimit="10"/>
</mask>
<g mask="url(#mask0_1220_7660)">
<rect x="168.998" y="212" width="494" height="373" fill="#005A59"/>
</g>
</g>
<defs>
<clipPath id="clip0_1220_7660">
<rect width="900.469" height="545.843" fill="white" transform="translate(0.919922 239.799) rotate(-15.4215)"/>
</clipPath>
</defs>
</svg>
