<svg width="19" height="18" viewBox="0 0 19 18" fill="none" xmlns="http://www.w3.org/2000/svg">
<path opacity="0.7" fill-rule="evenodd" clip-rule="evenodd" d="M9.87938 0C14.8035 0 18.7959 4.02975 18.7959 9C18.7959 10.0789 18.6075 11.1139 18.262 12.0735C18.6008 12.6574 18.7959 13.3369 18.7959 14.0625C18.7959 16.0459 17.3425 17.6861 15.4522 17.9595V10.1644C16.0084 10.2454 16.5266 10.4434 16.9814 10.7347C17.075 10.2645 17.124 9.7785 17.124 9.28125C17.124 5.2425 13.8807 1.96875 9.87938 1.96875C5.87811 1.96875 2.63473 5.2425 2.63473 9.28125C2.63473 9.77962 2.68489 10.2656 2.77851 10.7347C3.23325 10.4445 3.75041 10.2454 4.30658 10.1655V17.9595C2.41628 17.6873 0.962891 16.0459 0.962891 14.0625C0.962891 13.3369 1.15794 12.6574 1.49677 12.0735C1.15125 11.115 0.962891 10.08 0.962891 9C0.962891 4.02975 4.95525 0 9.87938 0ZM5.97882 10.125H4.86426V18H5.97882C6.28532 18 6.5361 17.7469 6.5361 17.4375V10.6875C6.5361 10.3781 6.28532 10.125 5.97882 10.125ZM13.7799 10.125C13.4734 10.125 13.2227 10.3781 13.2227 10.6875V17.4375C13.2227 17.7469 13.4734 18 13.7799 18H14.8945V10.125H13.7799Z" fill="#1B332D"/>
</svg>
