<?xml version="1.0" encoding="utf-8"?>
<!-- Generator: Adobe Illustrator 25.2.0, SVG Export Plug-In . SVG Version: 6.00 Build 0)  -->
<svg version="1.1" id="Layer_1" xmlns="http://www.w3.org/2000/svg" xmlns:xlink="http://www.w3.org/1999/xlink" x="0px" y="0px"
	 viewBox="0 0 27.7 26.1" style="enable-background:new 0 0 27.7 26.1;" xml:space="preserve">
<style type="text/css">
	.st0{fill:#F5564E;}
</style>
<g>
	<path class="st0" d="M26.6,26.1c-0.3,0-0.5-0.1-0.8-0.3l-7.8-7.3c-2,1.5-4.5,2.4-7,2.4C5,20.8,0,16.2,0,10.4C0,4.7,5,0,11.1,0
		c6.1,0,11.1,4.7,11.1,10.4c0,2.4-0.9,4.7-2.5,6.6l7.7,7.3c0.2,0.2,0.3,0.5,0.3,0.8c0,0.3-0.1,0.6-0.3,0.8
		C27.2,25.9,26.9,26.1,26.6,26.1z M18.1,17.1l8.5,7.9l0,0L18.1,17.1l0.4-0.4c1.7-1.7,2.6-3.9,2.6-6.2c0-3.8-2.4-7.1-5.9-8.6
		c3.5,1.5,5.9,4.8,5.9,8.6c0,3.2-1.7,6-4.2,7.7c0.3-0.2,0.7-0.5,1-0.7L18.1,17.1z M7,1.9c-3.5,1.5-6,4.7-6,8.6c0,3.8,2.5,7.2,6,8.6
		c-3.5-1.5-6-4.8-6-8.6C1.1,6.6,3.5,3.3,7,1.9z M11.1,2.1c-4.9,0-8.9,3.7-8.9,8.3s4,8.3,8.9,8.3S20,15,20,10.4S16,2.1,11.1,2.1z"/>
</g>
</svg>
