<svg width="271" height="89" viewBox="0 0 271 89" fill="none" xmlns="http://www.w3.org/2000/svg">
<path d="M159.958 59.7442C158.577 59.6719 157.202 59.9795 155.982 60.6337C154.763 61.288 153.746 62.2638 153.042 63.4554V60.2367H150.344V80.8507H153.068V70.0512C153.068 64.5284 156.118 62.3825 159.739 62.3825C163.359 62.3825 165.345 64.5284 165.345 68.1956V80.8507H168.061V68.1956C168.035 63.0421 164.985 59.7442 159.958 59.7442ZM113.046 54.3005C115.07 54.2638 117.065 54.7819 118.816 55.7989C120.566 56.8158 122.005 58.2927 122.977 60.0696L125.526 58.5922C124.263 56.406 122.442 54.5961 120.248 53.3486C118.055 52.1012 115.569 51.4614 113.046 51.4951C111.013 51.3741 108.977 51.6703 107.062 52.3656C105.148 53.0609 103.395 54.1406 101.913 55.5383C100.431 56.936 99.2497 58.6222 98.4425 60.4933C97.6352 62.3645 97.2188 64.3811 97.2188 66.4191C97.2188 68.4572 97.6352 70.4738 98.4425 72.3449C99.2497 74.2161 100.431 75.9023 101.913 77.3C103.395 78.6977 105.148 79.7774 107.062 80.4727C108.977 81.1679 111.013 81.4642 113.046 81.3431C115.574 81.3808 118.065 80.7388 120.26 79.4842C122.455 78.2297 124.274 76.4086 125.526 74.2109L122.977 72.7687C122.007 74.5468 120.568 76.0249 118.817 77.042C117.066 78.0591 115.07 78.5765 113.046 78.5377C109.834 78.5377 106.754 77.261 104.483 74.9883C102.212 72.7156 100.936 69.6332 100.936 66.4191C100.936 63.2051 102.212 60.1227 104.483 57.85C106.754 55.5773 109.834 54.3005 113.046 54.3005ZM173.624 65.6364C173.624 63.4115 175.812 62.3825 177.948 62.3825C179.925 62.3825 182.026 63.1652 182.896 65.2671L185.163 63.9479C183.968 61.3888 181.331 59.7442 177.948 59.7442C173.835 59.7442 170.917 62.3825 170.917 65.6364C170.917 73.226 182.949 70.2974 182.949 75.407C182.949 77.843 180.637 78.7048 178.203 78.7048C175.443 78.7048 173.308 77.3505 172.561 75.2399L170.258 76.603C171.286 79.2413 174.09 81.3431 178.168 81.3431C182.562 81.3431 185.629 78.9159 185.629 75.407C185.655 67.8262 173.624 70.7548 173.624 65.6364ZM137.407 59.7442C135.275 59.7529 133.193 60.3937 131.424 61.5856C129.655 62.7775 128.278 64.4672 127.468 66.4413C126.658 68.4154 126.451 70.5854 126.872 72.6774C127.293 74.7694 128.325 76.6895 129.836 78.1955C131.347 79.7014 133.27 80.7256 135.362 81.1387C137.454 81.5519 139.622 81.3355 141.591 80.5168C143.561 79.6982 145.244 78.3139 146.428 76.539C147.612 74.764 148.243 72.6777 148.243 70.5437C148.254 69.1188 147.981 67.7061 147.439 66.3882C146.898 65.0703 146.099 63.8736 145.091 62.868C144.082 61.8625 142.882 61.0684 141.563 60.532C140.244 59.9956 138.831 59.7278 137.407 59.7442ZM137.407 78.7048C135.793 78.7118 134.213 78.2391 132.867 77.3466C131.521 76.4541 130.47 75.1819 129.848 73.6913C129.225 72.2006 129.058 70.5586 129.369 68.9732C129.68 67.3878 130.454 65.9303 131.593 64.7854C132.732 63.6406 134.185 62.8598 135.768 62.542C137.351 62.2243 138.993 62.3838 140.485 63.0005C141.977 63.6171 143.253 64.6631 144.151 66.006C145.049 67.3488 145.528 68.9281 145.528 70.5437C145.544 71.617 145.346 72.6828 144.944 73.6781C144.542 74.6734 143.945 75.5781 143.188 76.3388C142.431 77.0994 141.53 77.7007 140.537 78.1071C139.544 78.5135 138.48 78.7167 137.407 78.7048ZM264.214 63.6577V60.2367H261.49V80.8507H264.214V69.418C264.214 64.3085 267.422 62.576 270.726 62.576V59.9377C268.107 59.9113 265.656 60.7732 264.214 63.6577ZM249.38 59.7442C247.953 59.7013 246.532 59.9516 245.206 60.4798C243.88 61.0079 242.676 61.8025 241.668 62.8147C240.661 63.8268 239.872 65.0349 239.349 66.3642C238.827 67.6936 238.583 69.1161 238.631 70.5437C238.631 76.7701 243.078 81.3431 249.59 81.3431C251.382 81.4107 253.161 81.0089 254.75 80.1775C256.339 79.3462 257.684 78.114 258.651 76.603L256.261 75.2047C255.153 77.1834 252.886 78.7224 249.626 78.7224C245.231 78.7224 242.006 76.0841 241.426 71.9244H259.512C259.564 71.4982 259.593 71.0696 259.6 70.6404C259.6 64.9769 255.681 59.7442 249.38 59.7442ZM241.426 69.2685C241.632 67.3254 242.568 65.5331 244.045 64.2547C245.521 62.9762 247.428 62.307 249.38 62.3825C252.895 62.3825 256.217 64.7306 256.797 69.2685H241.426ZM229.228 59.7442C227.884 59.7185 226.557 60.0521 225.384 60.7107C224.212 61.3692 223.236 62.3289 222.558 63.4906C221.996 62.3194 221.103 61.3395 219.988 60.6732C218.874 60.007 217.588 59.6839 216.291 59.7442C215.023 59.7128 213.769 60.0225 212.66 60.6413C211.552 61.26 210.63 62.1651 209.99 63.262V60.2543H207.266V80.8683H209.99V69.4356C209.99 64.3173 212.952 62.4001 215.922 62.4001C218.893 62.4001 220.738 64.3349 220.738 68.0021V80.8683H223.463V69.4356C223.463 64.3173 226.011 62.4001 229.184 62.4001C232.11 62.4001 234.211 64.3349 234.211 68.0021V80.8683H236.935V67.9845C236.935 62.831 233.763 59.7442 229.228 59.7442ZM202.582 71.0362C202.582 76.559 199.532 78.7048 195.911 78.7048C192.291 78.7048 190.304 76.559 190.304 72.8918V60.2367H187.589V72.8918C187.589 78.0453 190.638 81.3431 195.665 81.3431C197.047 81.4155 198.422 81.1079 199.641 80.4537C200.86 79.7994 201.877 78.8235 202.582 77.6319V80.8507H205.306V60.2367H202.582V71.0362Z" fill="white"/>
<path fill-rule="evenodd" clip-rule="evenodd" d="M5.32798 5.22575C8.68649 1.89258 13.2376 0.0138778 17.9872 0H92.0625V71.2105C92.0485 75.9243 90.1555 80.4411 86.797 83.7743C83.4385 87.1074 78.8874 88.9861 74.1378 89H17.9872C13.2376 88.9861 8.68649 87.1074 5.32798 83.7743C1.96947 80.4411 0.0764833 75.9243 0.0625 71.2105V17.7895C0.0764833 13.0757 1.96947 8.55892 5.32798 5.22575ZM21.7679 58.8241C23.9282 58.9265 26.012 59.648 27.7664 60.9009V59.5295H32.4483V80.4932H27.7929V78.8598C25.5748 80.4632 22.8353 81.1946 20.1043 80.9125C17.567 80.6404 15.1982 79.5224 13.3864 77.7417C11.5745 75.961 10.4271 73.6234 10.1321 71.112C9.89107 68.9827 10.2791 66.83 11.2491 64.915C12.2191 63 13.7293 61.4051 15.5965 60.3239C17.4637 59.2427 19.6076 58.7217 21.7679 58.8241ZM25.8243 74.4926C27.0564 73.2843 27.7548 71.6415 27.7664 69.924V69.8367C27.7548 68.1192 27.0564 66.4764 25.8243 65.2681C24.5923 64.0598 22.927 63.3846 21.1934 63.3904C19.4597 63.3961 17.7991 64.0824 16.5753 65.2989C15.3515 66.5154 14.6643 68.1629 14.6643 69.8803C14.6643 71.5978 15.3515 73.2453 16.5753 74.4618C17.7991 75.6782 19.4597 76.3646 21.1934 76.3703C22.927 76.3761 24.5923 75.7009 25.8243 74.4926ZM35.5608 56.2015H32.5101V52.0087H40.2427V80.4932H35.5608V56.2015ZM53.0364 59.7915H54.2267C56.8914 59.9607 59.3958 61.1113 61.2477 63.017C63.0995 64.9226 64.1648 67.4456 64.2342 70.09C64.2599 71.4982 64.0052 72.8977 63.4845 74.2083C62.9639 75.519 62.1876 76.7151 61.2001 77.7284C60.2125 78.7416 59.033 79.5521 57.7291 80.1134C56.4251 80.6748 55.0222 80.976 53.6007 80.9999H53.2833C50.5069 81.0134 47.8286 79.9833 45.7887 78.1173C44.7453 77.1637 43.9062 76.0119 43.3215 74.7303C42.7368 73.4488 42.4184 72.0637 42.3853 70.6577C42.3741 68.0382 43.2774 65.4954 44.9423 63.4602L53.5654 52H59.1203L53.0364 59.7915ZM51.2147 76.4472C51.9598 76.7082 52.7501 76.8187 53.539 76.7722C54.3747 76.7345 55.1945 76.5318 55.95 76.1759C56.7055 75.8199 57.3816 75.318 57.9385 74.6995C58.4955 74.081 58.922 73.3585 59.1931 72.5745C59.4641 71.7904 59.5743 70.9605 59.517 70.1337C59.4953 69.274 59.3009 68.4273 58.9451 67.6429C58.5893 66.8585 58.0794 66.1522 57.445 65.5653C56.3214 64.548 54.8494 63.9922 53.3274 64.0105H53.0364C52.2465 64.0389 51.4703 64.2227 50.7528 64.5511C50.0353 64.8795 49.3909 65.346 48.8571 65.9234C48.2691 66.5653 47.8165 67.317 47.5258 68.1345C47.2351 68.952 47.1121 69.8187 47.1642 70.684C47.1794 71.5414 47.3674 72.3873 47.7172 73.1718C48.0669 73.9563 48.5714 74.6636 49.2009 75.2523C49.7849 75.7798 50.4696 76.1861 51.2147 76.4472ZM82.0272 63.8271L71.623 76.2481L82.0625 76.283V80.4932H65.9712V76.2481L76.349 63.8271H65.9712V59.6256H82.0272V63.8271Z" fill="white"/>
</svg>
