<svg width="1680" height="325" viewBox="0 0 1680 325" fill="none" xmlns="http://www.w3.org/2000/svg">
<g opacity="0.6" clip-path="url(#clip0_1220_7344)">
<mask id="mask0_1220_7344" style="mask-type:alpha" maskUnits="userSpaceOnUse" x="-482" y="-447" width="4019" height="2069">
<path opacity="0.2" d="M-480.844 281.88C-423.529 251.808 -363.241 222.082 -296.872 210.859C-188.338 192.521 -113.389 264.697 -2.36752 228.074C89.1072 197.916 172.819 130.342 274.414 132.215C369.977 133.962 450.527 172.658 549.744 136.325C655.643 97.5528 744.819 22.7023 860.986 6.2998C970.846 -9.21233 1078.87 36.2279 1187.47 13.1774C1291.18 -8.84806 1369.52 -88.1489 1472.87 -111.658C1595.5 -139.561 1719.41 -81.9254 1842.64 -107.295C1929.45 -125.168 2001.34 -178.495 2084.62 -207.215C2191.33 -243.994 2271.26 -195.976 2375.39 -209.416C2465.06 -220.998 2534.14 -280.342 2618.63 -305.246C2726.38 -336.998 2877.07 -301.357 2986.99 -321.32C3128.9 -347.099 3183.6 -385.887 3293.71 -446.163" stroke="white" stroke-width="1.35" stroke-miterlimit="10"/>
<path opacity="0.23" d="M-472.873 323.483C-415.21 292.718 -354.465 262.275 -287.316 250.794C-179.117 232.356 -103.666 303.542 6.98356 267.6C99.0156 237.846 182.791 170.285 284.456 171.166C380.568 171.844 461.939 210.817 561.577 174.843C667.255 136.593 755.937 61.688 871.538 45.0043C981.929 28.9612 1090.59 74.9092 1199.85 51.8688C1304.41 29.8116 1382 -49.5971 1486.24 -73.02C1608.16 -100.553 1729.62 -43.0598 1853.81 -68.6245C1940.43 -86.4623 2011.82 -139.723 2094.8 -168.417C2202.35 -205.678 2282.2 -157.51 2387.66 -171.33C2477.14 -182.992 2546.43 -242.957 2630.57 -267.341C2737.5 -298.405 2885.83 -262.947 2994.84 -282.344C3136.06 -307.391 3192.04 -346.856 3301.14 -407.587" stroke="white" stroke-width="1.92" stroke-miterlimit="10"/>
<path opacity="0.25" d="M-464.905 365.084C-406.901 333.61 -345.693 302.468 -277.746 290.722C-169.876 272.201 -93.9467 342.385 16.341 307.103C108.937 277.768 192.771 210.204 294.497 210.076C391.159 209.684 473.35 248.934 573.41 213.32C678.868 175.593 767.055 100.633 882.089 83.6676C993.005 67.0768 1102.34 113.559 1212.21 90.5257C1317.62 68.4369 1394.48 -11.0861 1499.58 -34.4257C1620.77 -61.5652 1739.8 -4.22867 1864.93 -29.9981C1951.37 -47.801 2022.25 -100.971 2104.92 -129.68C2213.33 -167.423 2293.12 -119.113 2399.88 -133.305C2489.15 -145.058 2558.69 -205.616 2642.46 -229.514C2748.54 -259.883 2894.56 -224.606 3002.62 -243.422C3143.16 -267.738 3200.42 -307.88 3308.51 -369.066" stroke="white" stroke-width="2.5" stroke-miterlimit="10"/>
<path opacity="0.28" d="M-456.952 406.694C-398.6 374.527 -336.911 342.678 -268.198 330.64C-160.664 312.02 -84.3207 380.993 25.6604 346.603C118.745 317.502 202.72 250.333 304.525 248.993C401.737 247.729 484.737 287.082 585.229 251.805C690.483 214.593 778.159 139.585 892.626 122.338C1004.07 105.217 1114.04 152.207 1224.57 129.183C1330.84 107.063 1406.94 27.432 1512.93 4.18577C1633.41 -22.5674 1749.98 34.6099 1876.07 8.64566C1962.34 -9.1293 2032.7 -62.2081 2115.07 -90.909C2224.34 -129.141 2304.05 -80.6814 2412.11 -95.2462C2501.19 -107.096 2570.94 -168.251 2654.35 -191.63C2759.61 -221.31 2903.27 -186.216 3010.42 -204.466C3150.29 -228.074 3208.83 -268.876 3315.89 -330.51" stroke="white" stroke-width="3.07" stroke-miterlimit="10"/>
<path opacity="0.3" d="M-448.977 448.312C-390.283 415.437 -328.131 382.888 -258.62 370.585C-151.398 351.875 -74.597 419.796 35.0257 386.122C128.647 357.374 212.71 290.326 314.581 287.937C412.339 285.644 496.163 325.233 597.077 290.316C702.117 253.643 789.308 178.556 903.192 161.035C1015.17 143.383 1125.8 190.874 1236.96 167.867C1344.09 145.732 1419.45 65.9697 1526.29 42.8069C1646.04 16.43 1760.18 73.4748 1887.23 47.299C1973.32 29.5588 2043.16 -23.4461 2125.23 -52.1453C2235.35 -90.8423 2314.98 -42.2503 2424.36 -57.1945C2513.22 -69.1342 2583.22 -130.9 2666.26 -153.776C2770.7 -182.768 2912.01 -147.841 3018.23 -165.534C3157.41 -188.41 3217.23 -229.89 3323.26 -291.972" stroke="white" stroke-width="3.64" stroke-miterlimit="10"/>
<path opacity="0.33" d="M-441.009 489.914C-381.967 456.346 -319.359 423.08 -249.05 410.513C-142.157 391.72 -64.8878 458.566 44.3735 425.648C138.539 397.27 222.677 330.31 324.619 326.887C422.947 323.575 507.572 363.391 608.907 328.833C713.727 292.683 800.445 217.788 913.757 199.733C1026.31 181.806 1137.53 229.548 1249.35 206.551C1357.33 184.384 1431.98 104.731 1539.67 81.4449C1658.77 55.6876 1770.39 112.333 1898.39 85.9522C1984.31 68.2401 2053.63 15.3259 2135.4 -13.3649C2246.38 -52.5506 2325.93 -3.80909 2436.62 -19.126C2525.27 -31.1559 2595.52 -93.5157 2678.19 -115.888C2781.79 -144.202 2920.76 -109.449 3026.05 -126.568C3164.53 -148.73 3225.65 -190.894 3330.66 -253.407" stroke="white" stroke-width="4.22" stroke-miterlimit="10"/>
<path opacity="0.35" d="M-433.042 531.517C-373.658 497.24 -310.587 463.274 -239.488 450.425C-132.93 431.532 -55.189 497.36 53.724 465.135C148.433 437.126 232.652 370.27 334.654 365.781C433.528 361.441 518.96 401.499 620.726 367.278C725.325 331.65 811.563 256.734 924.301 238.38C1037.04 220.026 1149.25 268.172 1261.72 245.185C1370.55 222.987 1444.47 143.259 1553.04 120.026C1671.42 94.696 1780.6 151.158 1909.55 124.566C1995.29 106.889 2064.1 54.0652 2145.56 25.3591C2257.39 -14.3084 2336.88 34.5755 2448.87 18.886C2537.33 6.75897 2607.8 -56.2045 2690.09 -78.0673C2792.87 -105.693 2929.5 -71.1306 3033.87 -87.676C3171.66 -109.106 3234.06 -151.947 3338.05 -214.915" stroke="white" stroke-width="4.79" stroke-miterlimit="10"/>
<path opacity="0.38" d="M-425.09 573.125C-365.382 538.145 -301.813 503.466 -229.95 490.366C-123.722 471.39 -45.5058 536.16 63.0489 504.651C158.301 477.011 242.596 410.243 344.669 404.721C444.107 399.345 530.424 439.889 632.534 405.785C737.002 370.899 822.652 295.749 934.827 277.073C1048.45 258.143 1160.97 306.852 1274.05 283.872C1383.74 261.642 1456.92 181.841 1566.35 158.651C1684.02 133.73 1790.75 190.003 1920.65 163.223C2006.22 145.573 2074.51 92.8236 2155.67 64.1429C2268.36 23.9867 2347.76 73.0268 2461.08 56.9579C2549.32 44.7575 2620.03 -18.8335 2701.96 -40.1934C2803.91 -67.1311 2938.19 -32.735 3041.62 -48.7237C3178.73 -69.4227 3242.42 -112.947 3345.38 -176.356" stroke="white" stroke-width="5.36" stroke-miterlimit="10"/>
<path opacity="0.4" d="M-417.114 614.744C-357.057 579.072 -293.032 543.676 -220.379 530.294C-114.486 511.218 -35.7811 574.963 72.3983 544.177C168.194 516.907 252.581 450.219 354.71 443.672C454.693 437.267 541.841 478.064 644.366 444.303C748.627 409.973 833.783 334.769 945.377 315.778C1059.55 296.35 1172.69 345.533 1286.43 322.563C1396.97 300.301 1469.41 220.403 1579.71 197.296C1696.66 172.786 1800.94 228.891 1931.8 201.9C2017.2 184.302 2084.96 131.627 2165.82 102.93C2279.36 62.2924 2358.7 111.475 2473.32 95.0334C2561.35 82.7428 2632.31 18.5582 2713.87 -2.29879C2814.98 -28.5415 2946.93 5.66399 3049.45 -9.74096C3185.88 -29.7322 3250.85 -73.9102 3352.79 -137.774" stroke="white" stroke-width="5.94" stroke-miterlimit="10"/>
<path opacity="0.43" d="M-409.145 656.346C-348.747 619.965 -284.28 583.72 -210.808 570.222C-105.292 550.847 -26.0742 613.773 81.7569 583.679C178.12 556.789 262.568 490.155 364.759 482.598C465.306 475.159 553.258 516.239 656.207 482.797C760.254 449.007 844.916 373.747 955.936 354.458C1070.63 334.523 1184.44 384.183 1298.81 361.23C1410.2 338.937 1481.91 258.964 1593.07 235.9C1709.3 211.8 1811.13 267.723 1942.95 240.536C2028.18 222.967 2095.43 170.365 2175.98 141.694C2290.39 100.584 2369.65 149.899 2485.57 133.085C2573.4 120.697 2644.59 55.909 2725.79 35.555C2826.08 10.0005 2955.64 43.8159 3057.26 29.191C3192.95 9.65728 3259.26 -34.9305 3360.18 -99.2426" stroke="white" stroke-width="6.51" stroke-miterlimit="10"/>
<path opacity="0.45" d="M-401.195 697.955C-340.449 660.881 -275.532 623.903 -201.255 610.157C-96.0582 590.675 -16.3685 652.583 91.0806 623.196C187.994 596.691 272.51 530.129 374.774 521.539C475.877 513.047 564.649 554.404 668.013 521.304C771.846 488.054 856.014 412.739 966.46 393.152C1081.7 372.72 1196.13 422.854 1311.16 399.911C1423.4 377.586 1494.37 297.523 1606.4 274.535C1721.91 250.828 1821.31 306.595 1954.07 279.203C2039.12 261.669 2105.86 209.158 2186.1 180.472C2301.36 138.88 2380.52 188.097 2497.8 171.144C2585.41 158.477 2656.91 93.4426 2737.67 73.4396C2837.19 48.7896 2964.37 82.1983 3065.04 68.1538C3200.05 49.311 3267.64 4.08664 3367.54 -60.6803" stroke="white" stroke-width="7.08" stroke-miterlimit="10"/>
<path opacity="0.47" d="M-393.218 739.574C-332.13 701.791 -266.733 664.106 -191.683 650.084C-86.8215 630.503 -6.63624 691.404 100.448 662.715C197.912 636.597 282.506 570.081 384.825 560.466C486.484 550.921 576.06 592.561 679.856 559.798C783.492 527.08 867.148 451.718 977.038 431.826C1092.82 410.879 1207.9 461.498 1323.54 438.579C1436.64 416.222 1506.86 336.067 1619.79 313.149C1734.59 289.846 1831.53 345.436 1965.25 317.85C2050.13 300.343 2116.35 247.923 2196.29 219.245C2312.41 177.165 2391.47 226.522 2510.08 209.206C2597.47 196.448 2669.22 130.82 2749.61 111.303C2848.3 87.3654 2973.13 120.567 3072.89 107.089C3207.23 88.9538 3276.08 43.0761 3374.96 -22.1389" stroke="white" stroke-width="7.66" stroke-miterlimit="10"/>
<path opacity="0.5" d="M-385.25 781.176C-323.814 742.701 -257.96 704.299 -182.113 690.013C-77.5868 670.332 3.07708 730.231 109.806 702.218C207.82 676.487 292.492 610.018 394.874 599.393C497.106 588.789 587.486 630.713 691.696 598.293C795.119 566.114 878.274 490.68 987.597 470.506C1103.91 449.029 1219.64 500.172 1335.93 477.246C1449.9 454.851 1519.35 374.612 1633.15 351.754C1747.23 328.843 1841.72 384.285 1976.39 356.47C2061.1 338.998 2126.79 286.652 2206.44 257.976C2323.41 215.414 2402.4 264.896 2522.32 247.224C2609.51 234.369 2681.47 168.145 2761.52 149.141C2859.38 125.891 2981.87 158.902 3080.69 146.005C3214.33 128.584 3284.49 82.0393 3382.34 16.3762" stroke="white" stroke-width="8.23" stroke-miterlimit="10"/>
<path opacity="0.53" d="M-377.279 822.778C-315.501 783.593 -249.191 744.475 -172.556 729.947C-68.3592 710.184 12.7934 769.058 119.133 741.734C217.705 716.406 302.441 649.95 404.909 638.326C507.697 626.67 598.881 668.877 703.523 636.793C806.732 605.154 889.392 529.665 998.142 509.193C1114.97 487.209 1231.37 538.829 1348.3 515.92C1463.12 493.493 1531.85 413.157 1646.51 390.382C1759.86 367.864 1851.92 423.132 1987.53 395.13C2072.07 377.686 2137.26 325.43 2216.59 296.763C2334.42 253.712 2413.34 303.344 2534.56 285.299C2621.54 272.354 2693.75 205.536 2773.41 187.025C2870.44 164.487 2990.58 197.274 3088.49 184.984C3221.43 168.278 3292.88 121.073 3389.71 54.9379" stroke="white" stroke-width="8.8" stroke-miterlimit="10"/>
<path opacity="0.55" d="M-369.328 864.387C-307.226 824.5 -240.436 784.675 -163.01 769.866C-59.1489 750.002 22.4892 807.892 128.474 781.244C227.603 756.319 312.411 689.893 414.94 677.26C518.278 664.535 610.289 707.036 715.329 675.302C818.318 644.185 900.483 568.641 1008.67 547.888C1126.03 525.372 1243.06 577.5 1360.64 554.601C1476.32 532.142 1544.3 451.699 1659.83 429C1772.47 406.869 1862.08 461.995 1998.65 433.781C2083.01 416.371 2147.69 364.2 2226.71 335.524C2345.4 292.008 2424.23 341.748 2546.77 323.348C2633.54 310.313 2706 242.901 2785.29 224.893C2881.5 203.043 2999.29 235.663 3096.28 223.923C3228.54 207.925 3301.27 160.043 3397.08 93.4769" stroke="white" stroke-width="9.37" stroke-miterlimit="10"/>
<path opacity="0.57" d="M-361.354 906.006C-298.904 865.426 -231.64 824.878 -153.434 809.811C-49.9012 789.864 32.2325 846.746 137.821 820.771C237.508 796.248 322.397 729.829 424.978 716.211C528.866 702.417 621.688 745.217 727.159 713.82C832.631 682.422 911.598 607.626 1019.21 586.592C1137.12 563.563 1254.78 616.181 1373 593.299C1489.53 570.808 1556.76 490.274 1673.17 467.652C1785.09 445.914 1872.26 500.867 2009.78 472.465C2093.97 455.084 2158.12 402.993 2236.85 374.335C2356.4 330.331 2435.14 380.227 2559 361.448C2645.57 348.316 2718.26 280.3 2797.19 262.795C2892.56 241.64 3008.02 274.062 3104.06 262.903C3235.64 247.619 3309.65 199.077 3404.43 132.063" stroke="white" stroke-width="9.95" stroke-miterlimit="10"/>
<path opacity="0.6" d="M-353.384 947.608C-290.592 906.319 -222.865 865.071 -143.862 849.738C-40.6648 829.692 41.9544 885.59 147.181 860.273C247.425 836.154 332.378 769.748 435.022 755.121C539.476 740.25 633.102 783.334 738.995 752.296C844.888 721.259 922.712 646.554 1029.77 625.255C1148.2 601.695 1266.52 654.814 1385.38 631.949C1502.76 609.427 1569.25 528.778 1686.54 506.256C1797.74 484.888 1882.46 539.715 2020.93 511.101C2104.94 493.755 2168.59 441.748 2247 413.082C2367.4 368.595 2446.09 418.635 2571.25 399.483C2657.6 386.26 2730.54 317.651 2809.09 300.655C2903.63 280.189 3016.74 312.427 3111.87 301.835C3242.77 287.259 3318.07 238.056 3411.82 170.594" stroke="white" stroke-width="10.52" stroke-miterlimit="10"/>
<path opacity="0.62" d="M-345.416 989.21C-282.276 947.229 -214.092 905.264 -134.298 889.65C-31.4299 869.521 51.6849 924.411 156.516 899.766C257.307 876.074 342.328 809.64 445.048 794.038C550.051 778.098 644.497 821.459 750.812 790.781C853.162 761.242 933.814 685.506 1040.3 663.926C1159.26 639.818 1278.24 693.479 1397.74 670.607C1515.97 648.053 1581.71 567.296 1699.89 544.844C1810.36 523.869 1892.64 578.53 2032.08 549.721C2115.9 532.41 2179.04 480.494 2257.15 451.829C2378.42 406.854 2457.03 457.043 2583.49 437.518C2669.64 424.222 2742.82 354.985 2821 338.493C2914.72 318.714 3025.49 350.763 3119.67 340.751C3249.89 326.906 3326.46 277.027 3419.2 209.109" stroke="white" stroke-width="11.09" stroke-miterlimit="10"/>
<path opacity="0.65" d="M-337.466 1030.82C-273.985 988.128 -205.338 945.463 -124.746 929.584C-22.2069 909.373 61.3934 963.278 165.862 939.292C267.218 916.02 352.313 849.576 455.085 832.988C557.857 816.401 655.894 859.64 762.641 829.298C869.388 798.957 944.921 724.474 1050.87 702.623C1170.38 677.977 1289.99 732.145 1410.13 709.29C1529.21 686.705 1594.22 605.834 1713.26 583.482C1823.02 562.876 1902.85 617.387 2043.24 588.391C2126.9 571.108 2189.52 519.265 2267.32 490.609C2389.43 445.152 2467.96 495.49 2595.74 475.569C2681.69 462.176 2755.1 392.336 2832.92 376.363C2925.8 357.28 3034.23 389.154 3127.5 379.716C3257.02 366.603 3334.89 316.039 3426.59 247.681" stroke="white" stroke-width="11.67" stroke-miterlimit="10"/>
<path opacity="0.68" d="M-329.486 1072.44C-265.656 1029.05 -196.546 985.69 -115.188 969.519C-12.977 949.225 71.1257 1002.14 175.209 978.801C277.128 955.949 362.274 889.485 465.122 871.922C571.244 853.796 667.302 897.781 774.47 867.799C876.373 839.288 956.035 763.443 1061.41 741.31C1181.45 716.116 1301.71 770.809 1422.5 747.964C1542.44 725.347 1606.69 644.369 1726.61 622.093C1835.64 601.864 1913.04 656.243 2054.37 627.018C2137.85 609.769 2199.95 558.018 2277.45 529.346C2400.43 483.401 2478.88 533.888 2607.97 513.594C2693.71 500.128 2767.34 429.667 2844.81 414.19C2936.87 395.795 3042.95 427.503 3135.29 418.615C3264.15 406.226 3343.29 354.992 3433.97 286.179" stroke="white" stroke-width="12.24" stroke-miterlimit="10"/>
<path opacity="0.7" d="M-321.522 1114.04C-257.35 1069.95 -187.76 1025.88 -105.621 1009.45C-3.73936 989.07 80.8488 1041 184.546 1018.31C288.243 995.622 372.243 929.387 475.144 910.839C581.808 891.627 678.669 935.896 786.283 906.284C887.982 878.288 967.143 802.371 1071.95 779.998C1192.51 754.256 1313.43 809.467 1434.84 786.646C1555.63 763.997 1619.15 682.887 1739.94 660.729C1848.25 640.852 1923.21 695.098 2065.49 665.685C2148.81 648.465 2210.39 596.804 2287.58 568.141C2411.41 521.73 2489.8 572.343 2620.19 551.677C2705.72 538.12 2779.59 467.065 2856.68 452.099C2947.91 434.375 3051.65 465.916 3143.06 457.601C3271.23 445.944 3351.65 394.033 3441.32 324.765" stroke="white" stroke-width="12.81" stroke-miterlimit="10"/>
<path opacity="0.72" d="M-313.568 1155.65C-249.072 1110.85 -179.001 1066.08 -96.0653 1049.38C5.48781 1028.92 90.5684 1079.88 193.897 1057.84C296.951 1035.84 382.202 969.296 485.185 949.789C592.409 929.485 690.081 974.053 798.109 944.784C899.581 917.294 978.24 841.305 1082.5 818.685C1203.58 792.395 1325.15 848.131 1447.21 825.319C1568.86 802.639 1631.61 721.404 1753.3 699.356C1860.87 679.856 1933.4 733.97 2076.64 704.345C2159.77 687.159 2220.83 635.573 2297.73 606.911C2422.42 560.012 2500.77 611.055 2632.43 589.735C2717.78 576.271 2791.86 504.423 2868.58 489.959C2958.98 472.93 3060.39 504.291 3150.87 496.533C3278.36 485.608 3360.07 433.013 3448.71 363.297" stroke="white" stroke-width="13.39" stroke-miterlimit="10"/>
<path opacity="0.75" d="M-305.595 1197.27C-240.751 1151.78 -170.217 1106.3 -86.4974 1089.31C14.727 1068.77 100.293 1118.75 203.236 1097.35C306.844 1075.8 392.156 1009.21 495.232 988.717C603.008 967.302 701.497 1012.19 809.948 983.279C911.198 956.311 989.357 880.251 1093.05 857.365C1214.66 830.528 1336.9 886.798 1459.59 863.987C1582.09 841.275 1644.1 759.909 1766.67 737.954C1873.53 718.823 1943.6 772.794 2087.8 742.976C2170.77 725.818 2231.32 674.321 2307.9 645.669C2433.44 598.288 2511.73 649.473 2644.69 627.781C2729.85 614.219 2804.15 541.751 2880.51 527.807C2970.08 511.449 3069.15 542.66 3158.7 535.459C3285.49 525.265 3368.48 471.993 3456.1 401.828" stroke="white" stroke-width="13.96" stroke-miterlimit="10"/>
<path opacity="0.78" d="M-297.623 1238.87C-232.438 1192.67 -161.412 1146.66 -76.923 1129.24C24.0142 1108.81 110.031 1157.62 212.598 1136.85C316.785 1115.75 402.142 1049.08 505.285 1027.64C613.597 1005.13 712.914 1050.31 821.792 1021.77C922.832 995.304 1000.49 919.172 1103.62 896.046C1225.76 868.637 1348.63 925.456 1471.98 902.654C1595.33 879.911 1656.6 798.413 1780.05 776.576C1886.18 757.797 1953.82 811.653 2098.96 781.629C2181.75 764.506 2241.78 713.084 2318.07 684.433C2444.47 636.563 2522.66 687.905 2656.95 665.833C2741.89 652.181 2816.44 579.102 2892.42 565.685C2981.16 550.015 3077.89 581.059 3166.5 574.415C3292.61 564.969 3376.89 510.979 3463.48 440.384" stroke="white" stroke-width="14.53" stroke-miterlimit="10"/>
<path opacity="0.8" d="M-289.654 1280.47C-224.12 1233.58 -152.621 1186.85 -67.3511 1169.17C33.2574 1148.66 119.773 1196.52 221.965 1176.37C326.705 1155.72 412.134 1088.98 515.342 1066.59C624.207 1042.96 724.317 1088.45 833.641 1060.28C934.454 1034.32 1011.62 958.133 1114.2 934.736C1236.86 906.763 1360.41 964.116 1484.37 941.338C1608.57 918.563 1669.09 836.941 1793.41 815.197C1898.82 796.771 1964.02 850.501 2110.12 820.282C2192.74 803.187 2252.26 751.856 2328.23 723.213C2455.48 674.861 2533.62 726.346 2669.21 703.901C2753.95 690.153 2828.73 616.47 2904.34 603.555C2992.24 588.564 3086.64 619.451 3174.34 613.374C3299.77 604.659 3385.32 549.992 3470.9 478.942" stroke="white" stroke-width="15.11" stroke-miterlimit="10"/>
<path opacity="0.82" d="M-281.702 1322.08C-215.827 1274.48 -143.865 1227.05 -57.8046 1209.08C42.4682 1188.47 129.483 1235.39 231.282 1215.87C336.601 1195.67 422.059 1128.86 525.343 1105.49C634.76 1080.76 735.682 1126.54 845.434 1098.76C946.02 1073.3 1022.68 997.041 1124.71 973.396C1247.89 944.858 1372.09 1002.75 1496.71 979.985C1621.76 957.177 1681.53 875.407 1806.73 853.798C1911.4 835.731 1974.19 889.339 2121.23 858.915C2203.67 841.855 2262.67 790.614 2338.35 761.956C2466.47 713.133 2544.51 764.733 2681.41 741.933C2765.94 728.094 2840.95 653.783 2916.22 641.406C3003.29 627.086 3095.35 657.84 3182.11 652.302C3306.86 644.336 3393.7 588.968 3478.24 517.477" stroke="white" stroke-width="15.68" stroke-miterlimit="10"/>
<path opacity="0.85" d="M-273.73 1363.7C-207.506 1315.41 -135.08 1267.27 -48.2465 1249.04C51.7145 1228.34 139.212 1274.3 240.628 1255.39C346.508 1235.66 432.023 1168.75 535.38 1144.44C645.343 1118.58 747.033 1164.47 857.263 1137.28C957.579 1112.12 1033.8 1035.99 1135.26 1012.1C1258.97 982.991 1383.81 1041.43 1509.08 1018.68C1635 995.83 1694 913.919 1820.09 892.443C1924.04 874.729 1984.37 928.211 2132.37 897.576C2214.65 880.56 2273.12 829.377 2348.49 800.744C2477.46 751.439 2555.43 803.188 2693.65 780.009C2777.96 766.079 2853.2 691.009 2928.1 679.29C3014.31 665.476 3104.06 696.246 3189.88 691.265C3313.95 684.048 3402.07 627.986 3485.6 556.04" stroke="white" stroke-width="16.25" stroke-miterlimit="10"/>
<path opacity="0.88" d="M-265.757 1405.3C-199.192 1356.3 -126.303 1307.47 -38.6784 1288.95C60.9469 1268.15 148.951 1313.18 249.967 1294.89C356.414 1275.63 441.97 1208.62 545.41 1183.36C655.902 1156.38 758.416 1202.6 869.085 1175.76C969.197 1151.12 1044.88 1074.89 1145.8 1050.77C1270.02 1021.08 1395.54 1080.09 1521.44 1057.33C1648.22 1034.46 1706.47 952.396 1833.45 931.031C1936.67 913.669 1994.56 967.043 2143.52 936.196C2225.61 919.215 2283.58 868.122 2358.63 839.481C2488.44 789.694 2566.35 841.586 2705.87 818.034C2790 804.024 2865.46 728.334 2940 717.135C3025.39 704.008 3112.79 734.784 3197.69 730.181C3321.08 723.949 3410.48 666.949 3492.98 594.555" stroke="white" stroke-width="16.82" stroke-miterlimit="10"/>
<path opacity="0.9" d="M-257.804 1446.91C-190.914 1397.21 -117.528 1347.66 -29.1229 1328.88C70.1736 1308 158.677 1352.08 259.317 1334.41C366.333 1315.63 451.922 1248.51 555.451 1222.31C666.488 1194.2 769.827 1240.76 880.917 1214.28C980.809 1190.16 1055.95 1113.64 1156.35 1089.47C1281.03 1058.97 1407.26 1118.77 1533.82 1096.02C1661.45 1073.11 1718.9 990.69 1846.81 969.675C1949.28 952.483 2004.76 1005.91 2154.67 974.873C2236.6 957.92 2294.05 906.918 2368.79 878.285C2499.47 828.01 2577.29 880.05 2718.13 856.126C2802.04 842.026 2877.74 765.725 2951.91 755.029C3036.48 742.591 3121.53 773.183 3205.5 769.153C3328.2 763.652 3418.88 705.976 3500.37 633.11" stroke="white" stroke-width="17.4" stroke-miterlimit="10"/>
<path opacity="0.93" d="M-249.841 1488.51C-182.603 1438.12 -108.76 1387.85 -19.5579 1368.81C79.4098 1347.85 168.395 1390.98 268.653 1373.92C376.236 1355.62 461.824 1288.21 565.471 1261.23C676.995 1231.8 781.224 1278.9 892.729 1252.76C992.4 1229.17 1067.04 1152.59 1166.88 1128.15C1292.09 1097.11 1418.98 1157.41 1546.15 1134.69C1674.64 1111.75 1731.36 1029.21 1860.12 1008.28C1961.87 991.478 2014.91 1044.75 2165.78 1013.51C2247.52 996.589 2304.45 945.66 2378.89 917.029C2510.42 866.272 2588.17 918.462 2730.34 894.151C2814.05 879.954 2889.99 803.066 2963.78 792.88C3047.5 781.12 3130.23 811.555 3213.28 808.092C3335.31 803.299 3427.26 744.969 3507.72 671.655" stroke="white" stroke-width="17.97" stroke-miterlimit="10"/>
<path opacity="0.95" d="M-241.862 1530.13C-174.282 1479.03 -99.9762 1428.06 -9.98333 1408.74C88.6487 1387.67 178.168 1430.05 278.016 1413.43C386.188 1395.75 471.808 1328.13 575.524 1300.16C687.598 1269.66 792.63 1317.04 904.574 1291.26C1004.02 1268.19 1078.17 1191.55 1177.46 1166.82C1303.2 1135.23 1430.73 1196.06 1558.56 1173.35C1687.9 1150.38 1743.86 1067.73 1873.51 1046.89C1974.54 1030.46 2025.14 1083.59 2176.95 1052.15C2258.53 1035.26 2314.95 984.426 2389.08 955.803C2521.48 904.574 2599.14 956.896 2742.62 932.213C2826.12 917.926 2902.3 840.427 2975.73 830.744C3058.62 819.672 3139.01 849.917 3221.12 847.035C3342.46 842.973 3435.71 783.959 3515.13 710.197" stroke="white" stroke-width="18.54" stroke-miterlimit="10"/>
<path opacity="0.97" d="M-233.893 1571.73C-165.966 1519.94 -91.2031 1468.26 -0.41273 1448.67C97.8906 1427.52 187.905 1468.88 287.381 1452.95C396.117 1435.69 481.795 1368.06 585.58 1339.1C698.203 1307.53 804.057 1355.19 916.422 1329.77C1015.67 1307.21 1089.3 1230.53 1188.02 1205.52C1314.3 1173.4 1442.48 1234.73 1570.95 1212.03C1701.14 1189.03 1756.37 1106.27 1886.89 1085.53C1987.19 1069.49 2035.35 1122.47 2188.12 1090.82C2269.51 1073.97 2325.41 1023.22 2399.25 994.584C2532.49 942.872 2610.1 995.337 2754.88 970.281C2838.17 955.904 2914.59 877.795 2987.65 868.631C3069.73 858.248 3147.76 888.309 3228.94 886C3349.59 882.67 3444.12 822.962 3522.54 748.762" stroke="white" stroke-width="19.12" stroke-miterlimit="10"/>
<path d="M-225.945 1613.34C-157.676 1560.84 -82.4328 1508.45 9.12118 1488.61C107.089 1467.36 197.589 1507.74 296.686 1492.47C405.986 1475.63 491.722 1408 595.593 1378.04C708.782 1345.4 815.446 1393.35 928.209 1368.28C1027.24 1346.27 1100.37 1269.5 1198.53 1244.22C1325.33 1211.57 1454.17 1273.42 1583.28 1250.72C1714.32 1227.68 1768.8 1144.82 1900.21 1124.15C1999.8 1108.48 2045.5 1161.31 2199.23 1129.47C2280.45 1112.65 2335.84 1061.97 2409.37 1033.36C2543.48 981.161 2620.99 1033.78 2767.09 1008.35C2850.18 993.873 2926.84 915.177 2999.53 906.499C3080.77 896.811 3156.46 926.699 3236.73 924.94C3356.69 922.324 3452.51 861.949 3529.91 787.301" stroke="white" stroke-width="19.69" stroke-miterlimit="10"/>
</mask>
<g mask="url(#mask0_1220_7344)">
<rect opacity="0.9" x="-245.402" y="-0.643555" width="1930.37" height="339.044" fill="white"/>
</g>
</g>
<defs>
<clipPath id="clip0_1220_7344">
<rect width="2007.96" height="734.979" fill="white" transform="translate(-338.979 136.126) rotate(-15.4215)"/>
</clipPath>
</defs>
</svg>
