<svg width="528" height="58" viewBox="0 0 528 58" fill="none" xmlns="http://www.w3.org/2000/svg">
<g clip-path="url(#clip0_1220_7387)">
<path d="M33.3828 2.27295V8.67063H37.8786V45.4573H44.8719V2.27295H33.3828Z" fill="#005A59"/>
<path d="M26.3055 13.6372V15.91C18.8959 10.5225 8.48905 12.2061 3.07751 19.6981C-2.33403 27.1901 -0.585685 37.7126 6.82396 43.1843C12.6518 47.3933 20.4777 47.3933 26.3055 43.1843V45.6256H33.2989V13.6372H26.3055ZM26.3055 29.463C26.3055 34.9347 21.893 39.3121 16.4815 39.2279C11.0699 39.2279 6.74071 34.7663 6.82396 29.2946C6.90722 23.8229 11.2365 19.5298 16.648 19.6139C21.9763 19.6139 26.3055 23.9913 26.3055 29.3788V29.463Z" fill="#005A59"/>
<path d="M106.982 39.0597H91.4966L106.899 20.2033V13.8057H83.0879V20.2033H98.49L83.0879 39.0597V45.4573H106.982V39.0597Z" fill="#005A59"/>
<path d="M65.6036 14.0581H63.8552L72.93 2.27295H64.6045L51.7833 19.614C49.2857 22.7287 47.9536 26.5168 48.0369 30.5574C48.1201 34.8506 49.9517 38.9754 53.1154 41.8375C56.1126 44.6997 60.1088 46.2991 64.2715 46.2991H64.771C73.6793 46.1307 80.7559 38.7229 80.5894 29.7156C80.2564 21.466 73.8458 14.6474 65.6036 14.0581ZM64.6045 39.8172C62.1901 39.9856 59.859 39.1438 58.1107 37.4602C56.1958 35.6924 55.1135 33.167 55.1135 30.5574C54.947 27.9478 55.8628 25.3383 57.6111 23.3179C59.193 21.5502 61.4409 20.54 63.8552 20.4558H64.2715C66.5194 20.4558 68.684 21.2976 70.3491 22.8129C72.2639 24.5806 73.3462 27.106 73.4295 29.7156C73.7625 34.9348 69.9328 39.3963 64.771 39.733L64.6045 39.8172Z" fill="#005A59"/>
<path d="M152.521 45.5415H148.192V8.50227L133.123 34.093H132.54L117.388 8.50227V45.5415H113.059V1.85205H118.387L132.79 26.1801L147.193 1.85205H152.521V45.5415Z" fill="#005A59"/>
<path d="M189.903 14.3104V45.4569H185.823V39.3118C183.243 43.5208 178.83 46.2146 173.335 46.2146C164.677 46.2146 157.434 39.1434 157.434 29.8836C157.434 20.6238 164.677 13.5527 173.335 13.5527C178.83 13.5527 183.243 16.2465 185.823 20.4555V14.3104H189.903ZM185.823 29.9678C185.823 23.0651 180.495 17.5934 173.668 17.5934C166.841 17.5934 161.513 22.9809 161.513 29.9678C161.513 36.9548 166.841 42.3423 173.668 42.3423C180.495 42.3423 185.823 36.8706 185.823 29.9678Z" fill="#005A59"/>
<path d="M209.883 13.8057V17.7621C204.971 17.7621 200.142 20.3717 200.142 28.1163V45.4573H196.062V14.3107H200.142V19.4457C202.307 15.1525 205.887 13.8057 209.883 13.8057Z" fill="#005A59"/>
<path d="M232.446 45.5415L217.044 30.4732V45.5415H212.965V1.85205H217.044V28.1162L231.697 14.3107H237.275L221.374 29.2947L237.941 45.5415H232.446Z" fill="#005A59"/>
<path d="M267.412 30.052C267.412 30.6413 267.328 31.3989 267.245 31.9881H240.187C241.02 38.3858 245.932 42.2581 252.426 42.2581C257.255 42.2581 260.668 39.9011 262.333 36.9548L265.913 39.0593C263.332 43.2683 258.587 46.2146 252.343 46.2146C242.602 46.2146 235.941 39.3118 235.941 29.8836C235.941 20.708 242.519 13.5527 252.01 13.5527C261.584 13.5527 267.412 21.5498 267.412 30.052ZM240.187 28.0317H263.166C262.333 21.1289 257.338 17.5934 252.093 17.5934C245.682 17.5934 241.02 21.8865 240.187 28.0317Z" fill="#005A59"/>
<path d="M277.985 18.3513V37.2076C277.985 42.5951 280.899 42.0901 286.894 41.9217V45.5414C278.568 46.8041 273.906 44.6996 273.906 37.2076V18.3513H267.412V14.3107H273.906V6.90284L277.985 5.64014V14.3107H286.894V18.2671H277.985V18.3513Z" fill="#005A59"/>
<path d="M323.61 29.9678C323.61 39.2276 316.367 46.2987 307.708 46.2987C302.213 46.2987 297.801 43.605 295.22 39.396V57.9998H291.141V14.3104H295.22V20.4555C297.801 16.2465 302.213 13.5527 307.708 13.5527C316.367 13.5527 323.61 20.708 323.61 29.9678ZM319.53 29.9678C319.53 23.0651 314.202 17.5934 307.375 17.5934C300.548 17.5934 295.22 22.9809 295.22 29.9678C295.22 36.9548 300.548 42.3423 307.375 42.3423C314.202 42.3423 319.53 36.8706 319.53 29.9678Z" fill="#005A59"/>
<path d="M327.938 0H332.017V45.5414H327.938V0Z" fill="#005A59"/>
<path d="M368.733 14.3104V45.4569H364.653V39.3118C362.073 43.5208 357.66 46.2146 352.165 46.2146C343.507 46.2146 336.264 39.1434 336.264 29.8836C336.264 20.6238 343.507 13.5527 352.165 13.5527C357.66 13.5527 362.073 16.2465 364.653 20.4555V14.3104H368.733ZM364.653 29.9678C364.653 23.0651 359.325 17.5934 352.498 17.5934C345.671 17.5934 340.343 22.9809 340.343 29.9678C340.343 36.9548 345.671 42.3423 352.498 42.3423C359.325 42.3423 364.653 36.8706 364.653 29.9678Z" fill="#005A59"/>
<path d="M373.062 29.9681C373.062 20.7083 379.973 13.6372 389.297 13.6372C395.375 13.6372 400.62 16.9202 402.784 21.8027L399.454 23.7388C397.789 20.0349 393.876 17.5937 389.297 17.5937C382.47 17.5937 377.142 22.9812 377.142 29.9681C377.142 36.9551 382.47 42.3426 389.297 42.3426C393.959 42.3426 397.706 39.8172 399.704 36.1974L403.117 38.2178C400.62 43.1002 395.375 46.299 389.297 46.299C379.973 46.299 373.062 39.1437 373.062 29.9681Z" fill="#005A59"/>
<path d="M435.67 30.052C435.67 30.6413 435.587 31.3989 435.587 31.9881H408.529C409.362 38.3858 414.274 42.2581 420.768 42.2581C425.596 42.2581 429.01 39.9011 430.675 36.9548L434.255 39.0593C431.674 43.2683 426.928 46.2146 420.684 46.2146C410.944 46.2146 404.283 39.3118 404.283 29.8836C404.283 20.708 410.86 13.5527 420.351 13.5527C429.842 13.5527 435.67 21.5498 435.67 30.052ZM408.529 28.0317H431.507C430.675 21.1289 425.68 17.5934 420.435 17.5934C413.941 17.5934 409.278 21.8865 408.529 28.0317Z" fill="#005A59"/>
<path d="M453.153 1.85205V45.5415H446.077V9.59661L437.418 12.122L435.67 5.97687L446.993 1.93623L453.153 1.85205Z" fill="#005A59"/>
<path d="M457.066 23.7387C457.066 10.2699 463.144 1.09424 474.05 1.09424C484.957 1.09424 491.034 10.2699 491.034 23.7387C491.034 37.2074 484.873 46.2989 474.05 46.2989C463.227 46.2989 457.066 37.2074 457.066 23.7387ZM483.874 23.7387C483.874 13.7212 480.461 8.08118 473.967 8.08118C467.64 8.08118 464.06 13.7212 464.06 23.7387C464.06 33.7561 467.556 39.3961 473.967 39.3961C480.461 39.3119 483.874 33.7561 483.874 23.7387Z" fill="#005A59"/>
<path d="M494.115 23.7387C494.115 10.2699 500.193 1.09424 511.099 1.09424C521.922 1.09424 528.083 10.2699 528.083 23.7387C528.083 37.2074 521.922 46.2989 511.099 46.2989C500.276 46.2989 494.115 37.2074 494.115 23.7387ZM520.923 23.7387C520.923 13.7212 517.51 8.08118 511.016 8.08118C504.689 8.08118 501.109 13.7212 501.109 23.7387C501.109 33.7561 504.605 39.3961 511.016 39.3961C517.51 39.3119 520.923 33.7561 520.923 23.7387Z" fill="#005A59"/>
</g>
<defs>
<clipPath id="clip0_1220_7387">
<rect width="528" height="58" fill="white"/>
</clipPath>
</defs>
</svg>
