<svg width="414" height="308" viewBox="0 0 414 308" fill="none" xmlns="http://www.w3.org/2000/svg">
<g clip-path="url(#clip0_1220_10475)">
<g clip-path="url(#clip1_1220_10475)">
<mask id="mask0_1220_10475" style="mask-type:alpha" maskUnits="userSpaceOnUse" x="-333" y="40" width="1406" height="726">
<path opacity="0.35" d="M-332.744 295.068C-312.735 284.57 -291.688 274.192 -268.518 270.274C-230.627 263.872 -204.462 289.07 -165.704 276.284C-133.769 265.756 -104.545 242.165 -69.0767 242.819C-35.7149 243.429 -7.5943 256.938 27.0431 244.254C64.0133 230.718 95.1455 204.587 135.701 198.861C174.053 193.446 211.764 209.309 249.68 201.262C285.886 193.573 313.235 165.888 349.313 157.681C392.125 147.94 435.384 168.061 478.404 159.204C508.709 152.965 533.806 134.347 562.881 124.321C600.134 111.481 628.038 128.245 664.391 123.553C695.698 119.509 719.811 98.7919 749.311 90.0976C786.926 79.0128 839.533 91.4555 877.907 84.486C927.449 75.4865 946.545 61.9453 984.985 40.9025" stroke="white" stroke-width="0.952434" stroke-miterlimit="10"/>
<path opacity="0.4" d="M-329.961 309.592C-309.83 298.852 -288.624 288.224 -265.181 284.216C-227.408 277.779 -201.068 302.631 -162.439 290.083C-130.31 279.696 -101.063 256.11 -65.5708 256.417C-32.0172 256.654 -3.61013 270.26 31.1745 257.701C68.0677 244.348 99.0272 218.197 139.384 212.373C177.923 206.772 215.857 222.813 254.001 214.769C290.505 207.069 317.591 179.347 353.984 171.17C396.545 161.558 438.947 181.629 482.303 172.704C512.544 166.477 537.465 147.883 566.434 137.866C603.983 124.858 631.86 141.673 668.674 136.849C699.914 132.778 724.105 111.843 753.479 103.331C790.807 92.4859 842.591 104.864 880.647 98.0929C929.95 89.3487 949.492 75.5712 987.579 54.3695" stroke="white" stroke-width="1.35457" stroke-miterlimit="10"/>
<path opacity="0.45" d="M-327.181 324.115C-306.931 313.128 -285.563 302.256 -261.842 298.155C-224.184 291.689 -197.676 316.191 -159.174 303.874C-126.847 293.633 -97.5805 270.045 -62.0667 270.001C-28.3214 269.864 0.372214 283.566 35.304 271.133C72.1203 257.962 102.907 231.793 143.066 225.87C181.788 220.078 219.956 236.306 258.314 228.265C295.116 220.553 321.945 192.791 358.638 184.643C400.947 175.168 442.502 195.185 486.186 186.189C516.363 179.974 541.105 161.412 569.969 151.389C607.813 138.213 635.669 155.078 672.939 150.123C704.104 146.021 728.382 124.879 757.626 116.536C794.662 105.934 845.637 118.25 883.363 111.681C932.426 103.192 952.415 89.1778 990.149 67.8173" stroke="white" stroke-width="1.76377" stroke-miterlimit="10"/>
<path opacity="0.55" d="M-324.404 338.642C-304.033 327.412 -282.497 316.293 -258.508 312.091C-220.967 305.59 -194.315 329.67 -155.92 317.664C-123.423 307.504 -94.1072 284.055 -58.5662 283.587C-24.6287 283.146 4.34757 296.884 39.4301 284.569C76.1752 271.578 106.784 245.392 146.745 239.371C185.653 233.394 224.044 249.798 262.629 241.761C299.729 234.038 326.296 206.238 363.297 198.123C405.358 188.783 446.053 208.744 490.074 199.68C520.193 193.474 544.755 174.944 573.51 164.925C611.656 151.577 639.486 168.495 677.21 163.41C708.307 159.274 732.659 137.924 761.777 129.762C798.526 119.4 848.678 131.652 886.087 125.281C934.913 117.039 955.351 102.795 992.726 81.2778" stroke="white" stroke-width="2.1659" stroke-miterlimit="10"/>
<path opacity="0.65" d="M-321.619 353.171C-301.128 341.694 -279.431 330.331 -255.164 326.036C-217.732 319.504 -190.92 343.216 -152.649 331.46C-119.965 321.424 -90.6183 298.017 -55.0545 297.183C-20.9262 296.382 8.33758 310.203 43.5673 298.013C80.2378 285.21 110.677 258.997 150.435 252.88C189.528 246.718 228.148 263.297 266.956 255.265C304.356 247.538 330.663 219.692 367.965 211.606C409.771 202.397 449.615 222.312 493.97 213.174C524.025 206.981 548.406 188.476 577.058 178.457C615.502 164.948 643.302 181.912 681.488 176.694C712.511 172.526 736.947 150.963 765.938 142.977C802.399 132.856 851.731 145.049 888.813 138.872C937.4 130.886 958.285 116.405 995.301 94.7318" stroke="white" stroke-width="2.56804" stroke-miterlimit="10"/>
<path opacity="0.7" d="M-318.839 367.694C-298.227 355.976 -276.369 344.362 -251.824 339.975C-214.507 333.414 -187.531 356.751 -149.387 345.259C-116.514 335.352 -87.1403 311.975 -51.5513 310.78C-17.2241 309.624 12.3191 323.524 47.696 311.46C84.2895 298.839 114.564 272.693 154.122 266.39C193.417 260.131 232.244 276.798 271.28 268.77C308.977 261.031 335.039 233.224 372.633 225.094C414.21 216.102 453.181 235.878 497.864 226.668C527.861 220.485 552.063 202.012 580.606 191.996C619.352 178.315 647.125 195.332 685.766 189.984C716.714 185.785 741.238 164.014 770.101 156.204C806.267 146.319 854.785 158.452 891.543 152.475C939.887 144.738 961.224 130.019 997.884 108.195" stroke="white" stroke-width="2.97724" stroke-miterlimit="10"/>
<path opacity="0.75" d="M-316.056 382.218C-295.325 370.252 -273.306 358.394 -248.484 353.908C-211.284 347.313 -184.144 370.294 -146.122 359.044C-113.058 349.266 -83.6563 325.926 -48.0468 324.358C-13.5289 322.843 16.2959 336.828 51.8236 324.881C88.34 312.443 118.446 286.289 157.804 279.882C197.162 273.474 236.335 290.282 275.599 282.258C313.595 274.508 339.399 246.674 377.302 238.563C418.631 229.72 456.744 249.432 501.761 240.148C531.695 233.977 555.717 215.536 584.155 205.514C623.196 191.666 650.949 208.732 690.046 203.255C720.925 199.021 745.528 177.04 774.256 169.407C810.136 159.763 857.837 171.829 894.271 166.053C942.376 158.571 964.159 143.615 1000.47 121.633" stroke="white" stroke-width="3.37938" stroke-miterlimit="10"/>
<path opacity="0.8" d="M-313.28 396.744C-292.435 384.533 -270.243 372.426 -245.155 367.852C-208.07 361.228 -180.764 383.839 -142.867 372.839C-109.613 363.19 -80.1852 339.881 -44.5505 337.953C-9.836 336.076 20.2982 350.231 55.9454 338.325C92.416 326.146 122.317 299.91 161.479 293.39C201.146 286.781 240.427 303.786 279.905 295.764C318.198 288.003 343.744 260.144 381.949 252.048C423.027 243.348 460.289 262.993 505.636 253.644C535.512 247.482 559.352 229.067 587.684 219.054C627.027 205.036 654.747 222.156 694.305 216.546C725.112 212.287 749.797 190.087 778.398 182.63C813.991 173.226 860.871 185.234 896.979 179.652C944.844 172.426 967.08 157.231 1003.02 135.094" stroke="white" stroke-width="3.78151" stroke-miterlimit="10"/>
<path opacity="0.8" d="M-310.496 411.274C-289.529 398.821 -267.178 386.464 -241.814 381.792C-204.845 375.132 -177.369 397.386 -139.603 386.639C-106.16 377.118 -76.6995 353.837 -41.0454 351.551C-6.14024 349.316 24.2839 363.558 60.0759 351.772C96.4743 339.787 126.203 313.532 165.162 306.902C205.02 300.12 244.518 317.29 284.225 309.271C322.815 301.5 348.107 273.606 386.612 265.539C427.439 256.983 463.847 276.57 509.529 267.147C539.343 261.003 563.001 242.614 591.228 232.596C630.867 218.409 658.565 235.579 698.579 229.839C729.311 225.548 754.084 203.141 782.557 195.859C817.856 186.698 863.92 198.639 899.712 193.261C947.341 186.282 970.021 170.859 1005.61 148.564" stroke="white" stroke-width="4.19071" stroke-miterlimit="10"/>
<path opacity="0.85" d="M-307.713 425.797C-286.628 413.096 -264.122 400.443 -238.472 395.73C-201.635 388.967 -173.98 410.935 -136.335 400.429C-102.694 391.041 -73.2123 367.779 -37.5365 365.14C-2.43473 362.543 28.27 376.885 64.2104 365.21C100.534 353.413 130.09 327.139 168.848 320.405C208.889 313.446 248.62 330.783 288.548 322.77C327.437 314.987 352.471 287.068 391.278 279.016C431.854 270.602 467.404 290.125 513.422 280.634C543.179 274.501 566.655 256.137 594.776 246.128C634.718 231.776 662.387 248.992 702.857 243.122C733.52 238.798 758.372 216.179 786.718 209.074C821.73 200.152 866.962 211.958 902.439 206.852C949.81 200.033 972.96 184.467 1008.19 162.015" stroke="white" stroke-width="4.59285" stroke-miterlimit="10"/>
<path opacity="0.85" d="M-304.94 440.323C-283.733 427.381 -261.069 414.471 -235.139 409.672C-198.414 402.871 -170.593 424.484 -133.082 414.224C-99.2486 404.971 -69.7435 381.734 -34.0424 378.735C1.25354 375.771 32.2448 390.208 68.33 378.653C104.579 367.045 133.963 340.752 172.521 333.914C212.751 326.781 252.701 344.283 292.857 336.274C332.044 328.48 356.818 300.529 395.931 292.504C436.253 284.228 470.957 303.696 517.303 294.134C546.996 288.012 570.293 269.68 598.309 259.666C638.547 245.146 666.181 262.328 707.125 256.409C737.708 251.987 762.67 229.283 790.866 222.3C825.608 213.694 870.006 225.358 905.153 220.454C952.286 213.876 975.881 198.088 1010.76 175.477" stroke="white" stroke-width="4.99499" stroke-miterlimit="10"/>
<path opacity="0.9" d="M-302.153 454.853C-280.827 441.662 -257.996 428.506 -231.796 423.611C-195.188 416.776 -167.194 438.036 -129.81 428.021C-95.7849 418.903 -66.2525 395.682 -30.5321 392.325C4.95806 388.993 36.2299 403.53 72.4658 392.092C108.646 380.67 137.851 354.36 176.215 347.415C216.634 340.103 256.81 357.774 297.183 349.773C336.666 341.968 361.18 313.985 400.605 305.985C440.683 297.849 474.524 317.256 521.207 307.626C550.842 301.514 573.959 283.213 601.866 273.202C642.406 258.511 670.005 275.742 711.413 269.697C741.921 265.243 766.97 242.332 795.036 235.518C829.487 227.161 873.066 238.752 907.895 234.047C954.792 227.716 978.83 211.7 1013.35 188.933" stroke="white" stroke-width="5.40418" stroke-miterlimit="10"/>
<path opacity="0.9" d="M-299.373 469.377C-277.925 455.945 -254.935 442.539 -228.456 437.551C-191.965 430.68 -163.805 451.592 -126.545 441.812C-92.3274 432.829 -62.7677 409.624 -27.0255 405.915C8.66465 402.213 40.2171 416.849 76.5978 405.531C112.704 394.297 141.734 367.962 179.899 360.92C220.504 353.422 260.906 371.276 301.504 363.272C341.292 355.454 365.54 327.442 405.268 319.462C445.093 311.464 478.081 330.819 525.095 321.108C554.667 315.009 577.602 296.734 605.406 286.723C646.242 271.864 673.818 289.139 715.683 282.97C746.123 278.482 771.245 255.363 799.191 248.728C833.356 240.611 876.118 252.136 910.617 247.633C957.272 241.552 981.765 225.302 1015.92 202.379" stroke="white" stroke-width="5.80632" stroke-miterlimit="10"/>
<path opacity="0.95" d="M-296.591 483.9C-275.024 470.22 -251.874 456.564 -225.12 451.492C-188.744 444.593 -160.413 465.146 -123.289 455.607C-88.8768 446.765 -59.2947 423.565 -23.5225 419.507C12.3619 415.437 44.1949 430.172 80.7263 418.972C116.758 407.926 145.615 381.572 183.58 374.425C224.367 366.75 265.001 384.771 305.822 376.773C345.907 368.944 369.901 340.898 409.93 332.947C449.501 325.086 481.641 344.381 528.986 334.605C558.499 328.515 581.255 310.272 608.95 300.264C650.088 285.235 677.637 302.561 719.958 296.262C750.322 291.743 775.533 268.416 803.342 261.954C837.216 254.085 879.157 265.531 913.337 261.241C959.749 255.409 984.692 238.929 1018.5 215.841" stroke="white" stroke-width="6.20846" stroke-miterlimit="10"/>
<path opacity="0.95" d="M-293.814 498.426C-272.133 484.501 -248.816 470.598 -221.787 465.428C-185.528 458.494 -157.027 478.703 -120.027 469.4C-85.4201 460.699 -55.813 437.509 -20.0191 433.099C16.0571 428.656 48.179 443.493 84.8493 432.415C120.804 421.552 149.488 395.179 187.256 387.934C228.228 380.073 269.086 398.271 310.134 390.277C350.517 382.437 374.249 354.353 414.584 346.429C453.907 338.703 485.189 357.948 532.868 348.098C562.318 342.02 584.9 323.807 612.484 313.795C653.92 298.604 681.443 315.969 724.222 309.545C754.512 304.994 779.81 281.46 807.492 275.173C841.078 267.545 882.198 278.933 916.058 274.835C962.234 269.25 987.623 252.534 1021.07 229.295" stroke="white" stroke-width="6.61059" stroke-miterlimit="10"/>
<path d="M-291.03 512.956C-269.228 498.789 -245.745 484.633 -218.443 479.373C-182.299 472.41 -153.625 492.268 -116.763 483.199C-81.9619 474.638 -52.3265 451.451 -16.5143 446.697C19.7536 441.881 52.1586 456.823 88.9796 445.862C125.801 434.901 153.369 408.789 190.938 401.446C232.099 393.406 273.177 411.775 314.448 403.787C355.129 395.935 378.6 367.82 419.241 359.923C458.312 352.334 488.745 371.518 536.754 361.603C566.146 355.535 588.541 337.349 616.024 327.345C657.761 311.983 685.252 329.402 728.492 322.846C758.713 318.261 784.09 294.516 811.644 288.405C844.938 281.02 885.247 292.339 918.777 288.443C964.711 283.107 990.549 266.161 1023.64 242.766" stroke="white" stroke-width="7.01979" stroke-miterlimit="10"/>
<path d="M-288.246 527.48C-266.325 513.065 -242.681 498.665 -215.1 493.313C-179.073 486.314 -150.23 505.829 -113.495 496.99C-78.4987 488.57 -48.8408 465.387 -13.0069 460.281C23.4588 455.089 56.1443 470.13 93.1125 459.295C130.081 448.459 157.25 422.379 194.624 414.944C235.97 406.719 277.277 425.263 318.77 417.281C359.749 409.418 382.963 381.263 423.907 373.4C462.728 365.94 492.305 385.081 540.648 375.092C569.976 369.036 592.198 350.88 619.57 340.872C661.603 325.342 689.072 342.811 732.768 336.125C762.915 331.508 788.379 307.556 815.8 301.623C848.806 294.478 888.293 305.733 921.505 302.035C967.202 296.946 993.489 279.769 1026.22 256.218" stroke="white" stroke-width="7.42193" stroke-miterlimit="10"/>
<path d="M-285.464 542.003C-263.421 527.347 -239.618 512.697 -211.761 507.245C-175.849 500.218 -146.833 519.381 -110.235 510.777C-75.0484 502.506 -45.3669 479.313 -9.50647 473.867C27.151 468.302 60.123 483.439 97.2384 472.73C132.97 462.417 161.126 435.977 198.302 428.443C239.832 420.027 281.367 438.76 323.086 430.776C364.362 422.902 387.314 394.709 428.57 386.871C467.137 379.548 495.86 398.631 544.539 388.573C573.804 382.53 595.846 364.406 623.115 354.399C665.449 338.697 692.892 356.219 737.043 349.402C767.117 344.761 792.665 320.589 819.957 314.832C852.677 307.927 891.346 319.115 924.229 315.62C969.687 310.787 996.42 293.373 1028.8 269.663" stroke="white" stroke-width="7.82407" stroke-miterlimit="10"/>
<path opacity="0.95" d="M-282.689 556.529C-260.527 541.625 -236.562 526.731 -208.427 521.187C-172.63 514.131 -143.444 532.95 -106.973 524.576C-71.589 516.452 -41.8815 493.256 -6.00285 487.465C29.8758 481.674 64.1014 496.769 101.368 486.177C138.634 475.584 165.003 449.582 201.99 441.953C243.711 433.349 285.469 452.26 327.41 444.281C368.984 436.396 391.679 408.163 433.238 400.36C471.556 393.166 499.426 412.197 548.436 402.074C577.643 396.04 599.503 377.941 626.664 367.937C669.293 352.068 696.709 369.641 741.319 362.687C771.325 358.011 796.951 333.629 824.118 328.053C856.545 321.391 894.4 332.519 926.958 329.224C972.177 324.646 999.363 306.993 1031.37 283.129" stroke="white" stroke-width="8.23326" stroke-miterlimit="10"/>
<path opacity="0.68" d="M-279.905 571.058C-257.621 555.913 -233.494 540.774 -205.092 535.129C-169.409 528.044 -140.048 546.516 -103.712 538.369C-68.1308 530.391 -38.4056 507.188 -2.50045 501.057C34.5476 494.729 68.0821 510.084 105.495 499.617C141.07 489.664 168.881 463.186 205.67 455.459C247.575 446.664 289.559 465.757 331.727 457.782C373.599 449.886 396.032 421.616 437.897 413.839C475.958 406.777 502.979 425.761 552.321 415.558C581.463 409.537 603.144 391.47 630.2 381.461C673.131 365.42 700.52 383.046 745.585 375.961C775.519 371.26 801.222 346.661 828.267 341.258C860.407 334.837 897.441 345.906 929.679 342.803C974.664 338.478 1002.29 320.592 1033.95 296.569" stroke="white" stroke-width="8.6354" stroke-miterlimit="10"/>
<path opacity="0.7" d="M-277.123 585.582C-254.721 570.189 -230.426 554.804 -201.751 549.068C-166.183 541.954 -136.652 560.083 -100.451 552.162C-64.2491 544.242 -34.9241 521.118 0.999326 514.643C38.2368 507.936 72.0519 523.39 109.621 513.053C145.125 503.279 172.76 476.776 209.35 468.965C251.438 459.979 293.653 479.253 336.039 471.286C378.208 463.379 400.382 435.063 442.552 427.327C480.361 420.388 506.532 439.326 556.204 429.058C585.289 423.046 606.79 405.011 633.737 395.004C676.967 378.802 704.332 396.471 749.853 389.256C779.712 384.524 805.503 359.718 832.414 354.493C864.265 348.305 900.478 359.317 932.392 356.414C977.137 352.344 1005.21 334.222 1036.52 310.04" stroke="white" stroke-width="9.03754" stroke-miterlimit="10"/>
<path opacity="0.72" d="M-274.347 600.108C-251.831 584.47 -227.369 568.838 -198.415 563.01C-162.962 555.867 -133.26 573.659 -97.1868 565.962C-61.2096 558.283 -31.448 535.051 4.50437 528.241C41.9371 521.153 76.0352 536.712 113.749 526.494C149.173 516.897 176.634 490.369 213.031 482.472C255.302 473.294 297.743 492.751 340.356 484.788C382.823 476.87 404.732 448.51 447.213 440.813C484.767 434.005 510.087 452.897 560.094 442.555C589.115 436.555 610.434 418.546 637.279 408.54C680.81 392.167 708.161 409.986 754.125 402.543C783.921 397.843 809.785 372.76 836.568 367.711C868.126 361.766 903.531 372.714 935.119 370.006C979.624 366.192 1008.15 347.83 1039.1 323.492" stroke="white" stroke-width="9.44673" stroke-miterlimit="10"/>
<path opacity="0.75" d="M-271.563 614.638C-248.926 598.758 -224.302 582.881 -195.074 576.949C-159.736 569.777 -129.864 587.225 -93.926 579.755C-57.7554 572.231 -27.9725 548.984 8.01223 541.831C45.6379 534.355 80.0213 550.025 117.882 539.933C153.23 530.518 180.515 503.964 216.717 495.975C259.171 486.606 301.846 506.25 344.679 498.287C387.444 490.358 409.093 461.952 451.883 454.288C489.187 447.609 513.649 466.451 563.992 456.041C592.956 450.051 614.095 432.073 640.831 422.07C684.658 405.529 711.988 423.398 758.407 415.825C788.135 411.091 814.075 385.791 840.733 380.923C872.001 375.213 906.588 386.109 937.85 383.595C982.116 380.036 1011.09 361.438 1041.68 336.943" stroke="white" stroke-width="9.84887" stroke-miterlimit="10"/>
<path opacity="0.78" d="M-268.78 629.161C-246.023 613.034 -221.228 596.971 -191.732 590.888C-156.494 583.757 -126.465 600.797 -90.6576 593.545C-54.2851 586.18 -24.486 562.905 11.5219 555.42C49.3345 547.559 84.0069 563.332 122.017 553.371C157.291 544.13 184.402 517.552 220.404 509.478C263.046 499.91 305.942 519.746 349.003 511.785C392.066 503.845 413.457 475.394 456.552 467.77C493.603 461.215 517.218 480.016 567.889 469.535C596.789 463.557 617.746 445.605 644.379 435.602C688.508 418.891 715.805 436.814 762.686 429.109C792.339 424.343 818.364 398.831 844.891 394.146C875.872 388.676 909.639 399.514 940.574 397.194C984.602 393.897 1014.02 375.048 1044.25 350.403" stroke="white" stroke-width="10.251" stroke-miterlimit="10"/>
<path opacity="0.8" d="M-265.997 643.685C-243.119 627.316 -218.158 611 -188.39 604.828C-153.266 597.668 -123.063 614.376 -87.387 607.342C-50.8211 600.132 -20.9973 576.833 15.0336 569.016C53.0391 560.768 87.9886 576.647 126.155 566.816C161.349 557.752 188.287 531.154 224.1 522.986C266.922 513.22 310.052 533.243 353.33 525.291C396.69 517.34 417.816 488.845 461.22 481.254C498.019 474.821 520.778 493.579 571.785 483.029C600.627 477.061 621.406 459.141 647.93 449.141C692.354 432.262 719.63 450.235 766.966 442.4C796.55 437.6 822.655 411.876 849.054 407.368C879.74 402.134 912.694 412.917 943.312 410.796C987.1 407.753 1016.97 388.669 1046.85 363.864" stroke="white" stroke-width="10.6602" stroke-miterlimit="10"/>
<path opacity="0.82" d="M-263.222 658.211C-240.225 641.594 -215.102 625.034 -185.058 618.763C-150.052 611.568 -119.674 627.945 -84.1352 621.131C-47.3676 614.08 -17.5333 590.756 18.5241 582.599C56.7225 573.963 91.955 589.947 130.271 580.247C165.386 571.36 192.149 544.737 227.768 536.482C270.772 526.519 314.13 546.731 357.636 538.782C401.294 530.82 422.158 502.274 465.869 494.73C502.41 488.422 524.327 507.137 575.663 496.516C604.441 490.56 625.04 472.672 651.459 462.667C696.187 445.622 723.431 463.636 771.225 455.677C800.735 450.845 826.923 424.903 853.199 420.582C883.595 415.582 915.734 426.319 946.022 424.386C989.573 421.605 1019.89 402.275 1049.4 377.317" stroke="white" stroke-width="11.0623" stroke-miterlimit="10"/>
<path opacity="0.85" d="M-260.438 672.741C-237.319 655.882 -212.034 639.078 -181.72 632.711C-146.823 625.484 -116.276 641.532 -80.8713 634.931C-43.9079 628.04 -14.0536 604.681 22.0292 596.197C60.4181 587.168 95.919 603.187 134.401 593.694C169.422 584.913 196.031 558.333 231.451 549.994C274.642 539.832 318.222 560.235 361.955 552.29C405.917 544.314 426.514 515.718 470.533 508.221C506.822 502.037 527.883 520.708 579.553 510.013C608.275 504.073 628.69 486.204 655.003 476.208C700.027 458.995 727.244 477.061 775.499 468.969C804.934 464.106 831.2 437.899 857.349 433.808C887.446 428.985 918.777 439.727 948.739 437.988C992.053 435.468 1022.81 415.897 1051.97 390.78" stroke="white" stroke-width="11.4645" stroke-miterlimit="10"/>
<path opacity="0.88" d="M-257.655 687.264C-234.416 670.158 -208.97 653.109 -178.38 646.644C-143.6 639.383 -112.877 655.104 -77.611 648.718C-40.4493 641.993 -10.5811 618.601 25.5306 609.783C64.1042 600.363 99.8929 616.499 138.528 607.129C173.478 598.529 199.901 571.914 235.131 563.495C278.499 553.129 322.318 573.73 366.272 565.786C410.531 557.799 430.867 529.151 475.196 521.692C511.233 515.631 531.441 534.264 583.445 523.495C612.104 517.567 632.339 499.73 658.54 489.731C703.86 472.35 731.056 490.466 779.767 482.244C809.136 477.353 835.478 450.929 861.502 447.019C891.312 442.437 921.826 453.181 951.464 451.574C994.54 449.398 1025.75 429.499 1054.55 404.226" stroke="white" stroke-width="11.8666" stroke-miterlimit="10"/>
<path opacity="0.9" d="M-254.88 701.79C-231.528 684.438 -205.908 667.141 -175.045 660.585C-140.38 653.295 -109.483 668.685 -74.3485 662.517C-36.9886 655.959 -7.10868 632.528 29.0343 623.381C67.7984 613.567 103.875 629.82 142.657 620.576C177.53 612.158 203.761 585.442 238.813 577.006C282.34 566.357 326.409 587.234 370.59 579.293C415.147 571.295 435.205 542.52 479.859 535.183C515.631 529.182 535.001 547.832 587.335 536.998C615.936 531.08 635.992 513.274 662.085 503.278C707.706 485.727 734.876 503.895 784.042 495.542C813.336 490.62 839.764 463.983 865.66 460.248C895.183 455.906 924.874 466.586 954.188 465.179C997.024 463.259 1028.68 443.124 1057.13 417.685" stroke="white" stroke-width="12.2758" stroke-miterlimit="10"/>
<path opacity="0.93" d="M-252.097 716.314C-228.624 698.721 -202.845 681.173 -171.703 674.525C-137.153 667.206 -106.087 682.266 -71.0865 676.31C-33.5283 669.919 -3.64893 646.385 32.5352 636.967C71.4693 626.693 107.856 643.136 146.784 634.011C181.58 625.775 207.638 599.041 242.491 590.507C286.205 579.671 330.502 600.724 374.9 592.791C419.755 584.782 439.556 555.967 484.51 548.66C520.029 542.795 538.547 561.393 591.215 550.485C619.753 544.579 639.627 526.8 665.616 516.804C711.533 499.084 738.676 517.304 788.31 508.817C817.535 503.861 844.044 477.019 869.806 473.463C899.034 469.357 927.913 479.982 956.909 478.773C999.509 477.1 1031.61 456.737 1059.7 431.142" stroke="white" stroke-width="12.6779" stroke-miterlimit="10"/>
<path opacity="0.95" d="M-249.311 730.843C-225.718 713.002 -199.778 695.21 -168.36 688.464C-133.927 681.11 -102.675 695.902 -67.8174 690.1C-30.0536 683.928 -0.162859 660.321 36.0454 650.557C75.1713 639.909 111.839 656.451 150.919 647.45C185.638 639.396 211.524 612.642 246.185 604.008C290.082 592.981 334.605 614.217 379.231 606.287C424.384 598.267 443.922 569.415 489.185 562.14C524.454 556.404 542.12 574.951 595.118 563.977C623.598 558.08 643.292 540.333 669.174 530.34C715.395 512.456 742.508 530.722 792.597 522.105C821.748 517.117 848.342 490.061 873.976 486.681C902.917 482.816 930.979 493.375 959.645 492.368C1002.01 490.95 1034.56 470.348 1062.29 444.597" stroke="white" stroke-width="13.0801" stroke-miterlimit="10"/>
<path opacity="0.97" d="M-246.53 745.367C-222.816 727.284 -196.715 709.242 -165.02 702.403C-130.701 695.02 -99.2763 709.461 -64.5486 703.897C-26.5878 697.872 3.32301 674.263 39.5554 664.152C78.873 653.132 115.827 669.77 155.055 660.894C189.703 653.021 215.41 626.25 249.873 617.517C293.956 606.305 338.708 627.716 383.556 619.792C429.006 611.761 448.288 582.869 493.853 575.629C528.869 570.031 545.683 588.525 599.015 577.477C627.431 571.593 646.946 553.877 672.722 543.879C719.239 525.826 746.331 544.142 796.876 535.395C825.952 530.376 852.631 503.107 878.14 499.908C906.793 496.283 934.033 506.778 962.375 505.972C1004.5 504.809 1037.49 483.964 1064.87 458.06" stroke="white" stroke-width="13.4893" stroke-miterlimit="10"/>
<path d="M-243.756 759.893C-219.923 741.563 -193.655 723.274 -161.692 716.347C-127.491 708.93 -95.8965 723.026 -61.3011 717.695C-23.1434 711.816 6.78755 688.206 43.05 677.747C82.5653 666.35 119.803 683.093 159.169 674.34C193.742 666.655 219.272 639.853 253.54 631.028C297.808 619.631 342.786 641.225 387.86 633.299C433.608 625.257 452.626 596.326 498.504 589.111C533.27 583.641 549.226 602.086 602.895 590.97C631.247 585.098 650.586 567.406 676.256 557.417C723.074 539.193 750.133 557.564 801.139 548.684C830.147 543.631 856.907 516.157 882.286 513.128C910.647 509.746 937.071 520.18 965.094 519.566C1006.97 518.653 1040.43 497.575 1067.44 471.515" stroke="white" stroke-width="13.8914" stroke-miterlimit="10"/>
</mask>
<g mask="url(#mask0_1220_10475)">
<rect opacity="0.6" x="-2" width="417" height="310" fill="#F6EFE7"/>
</g>
</g>
</g>
<defs>
<clipPath id="clip0_1220_10475">
<rect width="414" height="308" fill="white"/>
</clipPath>
<clipPath id="clip1_1220_10475">
<rect width="737.67" height="232.893" fill="white" transform="translate(-221.639 271.346) rotate(-15.4215)"/>
</clipPath>
</defs>
</svg>
