<?xml version="1.0" encoding="utf-8"?>
<!-- Generator: Adobe Illustrator 25.2.0, SVG Export Plug-In . SVG Version: 6.00 Build 0)  -->
<svg version="1.1" id="Layer_1" xmlns="http://www.w3.org/2000/svg" xmlns:xlink="http://www.w3.org/1999/xlink" x="0px" y="0px"
	 viewBox="0 0 824.2 113.9" style="enable-background:new 0 0 824.2 113.9;" xml:space="preserve">
<style type="text/css">
	.st0{clip-path:url(#SVGID_2_);}
	
		.st1{opacity:0.35;fill:none;filter:url(#Adobe_OpacityMaskFilter);stroke:#FFFFFF;stroke-width:1.35;stroke-miterlimit:10;enable-background:new    ;}
	.st2{opacity:0.4;fill:none;stroke:#FFFFFF;stroke-width:1.92;stroke-miterlimit:10;enable-background:new    ;}
	.st3{opacity:0.45;fill:none;stroke:#FFFFFF;stroke-width:2.5;stroke-miterlimit:10;enable-background:new    ;}
	.st4{opacity:0.55;fill:none;stroke:#FFFFFF;stroke-width:3.07;stroke-miterlimit:10;enable-background:new    ;}
	.st5{opacity:0.65;fill:none;stroke:#FFFFFF;stroke-width:3.64;stroke-miterlimit:10;enable-background:new    ;}
	.st6{opacity:0.7;fill:none;stroke:#FFFFFF;stroke-width:4.22;stroke-miterlimit:10;enable-background:new    ;}
	.st7{opacity:0.75;fill:none;stroke:#FFFFFF;stroke-width:4.79;stroke-miterlimit:10;enable-background:new    ;}
	.st8{opacity:0.8;fill:none;stroke:#FFFFFF;stroke-width:5.36;stroke-miterlimit:10;enable-background:new    ;}
	.st9{opacity:0.8;fill:none;stroke:#FFFFFF;stroke-width:5.94;stroke-miterlimit:10;enable-background:new    ;}
	.st10{opacity:0.85;fill:none;stroke:#FFFFFF;stroke-width:6.51;stroke-miterlimit:10;enable-background:new    ;}
	.st11{opacity:0.85;fill:none;stroke:#FFFFFF;stroke-width:7.08;stroke-miterlimit:10;enable-background:new    ;}
	.st12{opacity:0.9;fill:none;stroke:#FFFFFF;stroke-width:7.66;stroke-miterlimit:10;enable-background:new    ;}
	.st13{opacity:0.9;fill:none;stroke:#FFFFFF;stroke-width:8.23;stroke-miterlimit:10;enable-background:new    ;}
	.st14{opacity:0.95;fill:none;stroke:#FFFFFF;stroke-width:8.8;stroke-miterlimit:10;enable-background:new    ;}
	.st15{opacity:0.95;fill:none;stroke:#FFFFFF;stroke-width:9.37;stroke-miterlimit:10;enable-background:new    ;}
	.st16{fill:none;stroke:#FFFFFF;stroke-width:9.95;stroke-miterlimit:10;}
	.st17{fill:none;stroke:#FFFFFF;stroke-width:10.52;stroke-miterlimit:10;}
	.st18{fill:none;stroke:#FFFFFF;stroke-width:11.09;stroke-miterlimit:10;}
	.st19{opacity:0.95;fill:none;stroke:#FFFFFF;stroke-width:11.67;stroke-miterlimit:10;enable-background:new    ;}
	.st20{opacity:0.68;fill:none;stroke:#FFFFFF;stroke-width:12.24;stroke-miterlimit:10;enable-background:new    ;}
	.st21{opacity:0.7;fill:none;stroke:#FFFFFF;stroke-width:12.81;stroke-miterlimit:10;enable-background:new    ;}
	.st22{opacity:0.72;fill:none;stroke:#FFFFFF;stroke-width:13.39;stroke-miterlimit:10;enable-background:new    ;}
	.st23{opacity:0.75;fill:none;stroke:#FFFFFF;stroke-width:13.96;stroke-miterlimit:10;enable-background:new    ;}
	.st24{opacity:0.78;fill:none;stroke:#FFFFFF;stroke-width:14.53;stroke-miterlimit:10;enable-background:new    ;}
	.st25{opacity:0.8;fill:none;stroke:#FFFFFF;stroke-width:15.11;stroke-miterlimit:10;enable-background:new    ;}
	.st26{opacity:0.82;fill:none;stroke:#FFFFFF;stroke-width:15.68;stroke-miterlimit:10;enable-background:new    ;}
	.st27{opacity:0.85;fill:none;stroke:#FFFFFF;stroke-width:16.25;stroke-miterlimit:10;enable-background:new    ;}
	.st28{opacity:0.88;fill:none;stroke:#FFFFFF;stroke-width:16.82;stroke-miterlimit:10;enable-background:new    ;}
	.st29{opacity:0.9;fill:none;stroke:#FFFFFF;stroke-width:17.4;stroke-miterlimit:10;enable-background:new    ;}
	.st30{opacity:0.93;fill:none;stroke:#FFFFFF;stroke-width:17.97;stroke-miterlimit:10;enable-background:new    ;}
	.st31{opacity:0.95;fill:none;stroke:#FFFFFF;stroke-width:18.54;stroke-miterlimit:10;enable-background:new    ;}
	.st32{opacity:0.97;fill:none;stroke:#FFFFFF;stroke-width:19.12;stroke-miterlimit:10;enable-background:new    ;}
	.st33{fill:none;stroke:#FFFFFF;stroke-width:19.69;stroke-miterlimit:10;}
	.st34{mask:url(#mask0_1220_7713_1_);}
	.st35{fill:#F1E9DD;}
</style>
<g>
	<defs>
		
			<rect id="SVGID_1_" x="-167.7" y="-1045.5" transform="matrix(0.3081 -0.9514 0.9514 0.3081 309.9499 47.7208)" width="710.9" height="1712.6"/>
	</defs>
	<clipPath id="SVGID_2_">
		<use xlink:href="#SVGID_1_"  style="overflow:visible;"/>
	</clipPath>
	<g class="st0">
		<defs>
			<filter id="Adobe_OpacityMaskFilter" filterUnits="userSpaceOnUse" x="-14.1" y="-333.6" width="846.6" height="438.5">
				<feColorMatrix  type="matrix" values="1 0 0 0 0  0 1 0 0 0  0 0 1 0 0  0 0 0 1 0"/>
			</filter>
		</defs>
		<mask maskUnits="userSpaceOnUse" x="-14.1" y="-333.6" width="846.6" height="438.5" id="mask0_1220_7713_1_">
			<path class="st1" d="M-964.7,35.8c47.5,27.6,97.5,55.1,153.3,67.1c91.3,19.6,157.6-38.8,250.3-3.6c76.4,29,144.9,89.4,231.1,91.6
				c81.1,2.1,150.8-27.7,233.6,6.8c88.3,36.8,161.1,103.6,259,121.9c92.6,17.3,185.8-17.2,277.1,6.4
				c87.1,22.5,150.6,92.7,237.3,116.5c102.9,28.2,210.1-16,313.7,10.1c72.9,18.4,131.9,66.3,201.4,93.8
				c89.1,35.2,158.7-2.6,246.4,12.7c75.6,13.2,132,66.1,202.7,90.3c90.2,30.9,219.3,6.4,311.7,27.4
				c119.4,27.2,164.3,62.1,255.4,117.3"/>
			<path class="st2" d="M-956.4,0.8c47.7,28.2,98.1,56.3,154.6,68.6c91,19.7,157.7-37.9,250.1-3.3c76.9,28.7,145.4,89.1,231.6,92.1
				c81.5,3,152-27,235.1,7.2C3.3,201.9,75.7,268.7,173.1,287.2c93,17.7,186.8-17.2,278.6,6.4c87.8,22.6,150.6,92.8,238.2,116.6
				c102.3,27.9,207.5-16.3,311.8,10c72.8,18.4,131.3,66.2,200.6,93.6c89.8,35.6,159.3-2.2,248.2,13.4
				c75.4,13.2,131.9,66.7,202.4,90.5c89.5,30.3,216.6,5.8,308.3,26.3c118.8,26.5,164.8,62.1,255,117.6"/>
			<path class="st3" d="M-948.1-34.1c48,28.9,98.7,57.5,155.9,70c90.8,19.7,157.8-36.9,250-2.9c77.4,28.3,146,88.7,232.2,92.7
				c81.9,3.9,153.1-26.3,236.6,7.7c88,35.9,160,102.8,256.9,121.5c93.4,18.2,187.9-17.1,280.1,6.5c88.6,22.7,150.7,93,239,116.7
				c101.7,27.5,204.8-16.6,309.9,9.9c72.6,18.3,130.7,66.1,199.7,93.5c90.5,36,160-1.9,249.9,14.1c75.2,13.3,131.9,67.2,202.1,90.6
				c88.8,29.7,213.9,5.3,304.8,25.2c118.3,25.9,165.3,62,254.7,118"/>
			<path class="st4" d="M-939.8-69.1c48.3,29.5,99.4,58.8,157.2,71.5c90.5,19.8,157.8-35.8,249.7-2.6C-455,28-386.3,88.1-300.1,93
				c82.4,4.7,154.2-25.6,238.1,8.1c87.8,35.5,159.4,102.4,255.8,121.3c93.9,18.7,188.8-17.1,281.7,6.6
				c89.3,22.7,150.8,93.1,239.8,116.8c101.2,27.2,202.1-16.9,308.1,9.8c72.5,18.3,130.1,65.9,198.9,93.3
				c91.2,36.5,160.6-1.6,251.7,14.8c75.1,13.4,131.9,67.8,201.8,90.8c88.1,29.1,211.2,4.7,301.4,24.2
				c117.7,25.2,165.8,62,254.3,118.3"/>
			<path class="st5" d="M-931.5-104.1c48.5,30.1,100,60,158.5,73c90.2,19.9,157.9-34.8,249.5-2.2c78.3,27.9,147.1,87.9,233.3,93.7
				c82.8,5.6,155.3-24.8,239.6,8.5c87.7,35,158.8,101.9,254.7,121c94.3,19.2,189.8-17,283.2,6.7c90,22.8,150.9,93.2,240.6,116.8
				c100.5,26.8,199.4-17.3,306.2,9.7c72.3,18.3,129.6,65.8,198.1,93.2c91.9,36.9,161.2-1.3,253.4,15.5
				c74.9,13.4,131.9,68.4,201.5,90.9c87.5,28.5,208.6,4.2,298,23.1c117.1,24.6,166.3,62,253.9,118.6"/>
			<path class="st6" d="M-923.2-139.1c48.8,30.7,100.6,61.2,159.8,74.5c89.9,19.9,157.9-33.9,249.3-1.9
				c78.8,27.6,147.6,87.5,233.9,94.2c83.2,6.5,156.5-24.1,241.1,9C48.5,71.3,119.2,138,214.6,157.6c94.8,19.4,190.8-16.9,284.8,6.8
				c90.7,22.8,151,93.2,241.5,116.9c100,26.3,196.8-17.6,304.3,9.6c72.2,18.2,129,65.7,197.2,93.1c92.6,37.4,161.9-1,255.2,16.1
				c74.7,13.5,131.9,69,201.2,91.1c86.8,27.9,205.9,3.6,294.5,22.1c116.6,24,166.8,62,253.5,118.9"/>
			<path class="st7" d="M-914.8-174.1c49.1,31.3,101.3,62.4,161.1,76c89.6,20,158-32.9,249.1-1.5c79.3,27.3,148.2,87.1,234.5,94.7
				c83.7,7.4,157.6-23.4,242.6,9.4C59.8,38.7,130.1,105.4,225,125.2c94.9,19.8,191.8-16.9,286.3,6.8c91.4,22.9,151.1,93.2,242.3,117
				c99.4,25.9,194.1-17.9,302.4,9.5c72,18.2,128.4,65.5,196.4,92.9c93.3,37.8,162.6-0.7,256.9,16.8c74.5,13.6,131.9,69.6,200.9,91.2
				c86.1,27.3,203.2,3.1,291.1,21c116,23.3,167.3,62,253.2,119.2"/>
			<path class="st8" d="M-906.6-209c49.3,31.9,101.9,63.7,162.4,77.5c89.4,20.1,158.1-31.9,249-1.2c79.7,27,148.7,86.8,235,95.2
				c84.1,8.3,158.8-22.9,244.1,9.9C71.2,5.8,141,72.7,235.4,92.8C331,113.1,428.2,76,523.2,99.7c92.2,22.9,151.2,93.3,243.1,117.1
				c98.8,25.5,191.4-18.2,300.6,9.4c71.9,18.2,127.8,65.4,195.6,92.8c94,38.3,163.2-0.4,258.7,17.5c74.4,13.6,131.9,70.2,200.6,91.4
				c85.4,26.6,200.6,2.5,287.7,19.9c115.5,22.7,167.9,62,252.8,119.6"/>
			<path class="st9" d="M-898.2-244c49.6,32.5,102.5,64.9,163.6,78.9c89.1,20.1,158.2-31,248.7-0.8c80.2,26.7,149.3,86.4,235.6,95.8
				C-165.7-61-90.3-92.3-4.6-59.9c87.1,33,156.5,99.9,250.4,120.2c96.1,20.7,193.8-16.7,289.4,7c92.9,23,151.3,93.5,244,117.2
				c98.2,25.1,188.8-18.5,298.7,9.3c71.8,18.1,127.2,65.3,194.7,92.7c94.8,38.7,163.9,0,260.4,18.2c74.2,13.7,131.9,70.8,200.3,91.5
				c84.8,26,197.9,2,284.2,18.8c114.9,22,168.3,61.9,252.4,119.9"/>
			<path class="st10" d="M-889.9-279c49.8,33.1,103.2,66.2,164.9,80.4c88.7,20.4,158.3-30,248.6-0.5c80.7,26.4,149.8,86,236.2,96.3
				c85,10.1,161.1-21.5,247.1,10.7c87,32.5,155.9,99.5,249.3,120c96.5,21.2,194.8-16.7,291,7.1c93.6,23.1,151.4,93.5,244.8,117.3
				c97.6,24.8,186.1-18.8,296.8,9.1c71.6,18.1,126.7,65.2,193.9,92.5c95.5,39.1,164.5,0.3,262.2,18.9c74,13.8,131.9,71.4,200,91.7
				c84.1,25.4,195.2,1.6,280.8,17.8c114.3,21.6,168.9,61.9,252,120.2"/>
			<path class="st11" d="M-881.6-314c50.1,33.7,103.8,67.5,166.2,81.9c88.5,20.4,158.3-29.1,248.3-0.1
				c81.2,26.1,150.3,85.7,236.7,96.8c85.4,11,162.2-20.8,248.6,11.2C105.1-92.2,173.6-25.2,266.5-4.5C363.5,17.2,462.4-21.1,559,2.7
				C653.4,25.8,710.5,96.3,804.7,120c97,24.4,183.4-19.2,294.9,9c71.4,18,126.1,65.1,193,92.4c96.2,39.6,165.1,0.8,263.9,19.6
				c73.8,14,132,71.8,199.7,91.8c83.4,24.6,192.5,1,277.4,16.7c113.8,21,169.4,61.9,251.7,120.5"/>
			<path class="st12" d="M-873.3-349c50.4,34.3,104.4,68.7,167.5,83.4c88.2,20.5,158.4-28.1,248.2,0.2
				C-376-239.6-306.7-180-220.3-168c85.8,11.9,163.3-20.1,250.1,11.6C116.4-124.8,184.5-57.8,277-36.9c97.4,22.1,196.8-16.5,294,7.2
				C666-6.5,722.6,64.1,817.5,87.8c96.5,24,180.7-19.5,293.1,8.9c71.3,18,125.5,64.9,192.2,92.2c96.9,40,165.8,1.1,265.7,20.2
				c73.6,14.1,132,72.4,199.4,92c82.8,24,189.8,0.5,273.9,15.7c113.2,20.4,169.9,61.9,251.3,120.8"/>
			<path class="st13" d="M-865-383.9c50.7,34.9,105,69.9,168.8,84.9c87.9,20.6,158.5-27.2,248,0.6c82.1,25.5,151.4,85,237.9,97.8
				c86.3,12.8,164.5-19.4,251.6,12c86.5,31.1,154.2,98.2,246.1,119.4c97.8,22.6,197.8-16.5,295.6,7.3
				c95.8,23.2,151.7,93.9,247.3,117.5c95.9,23.7,178.1-19.8,291.2,8.8c71.2,18,124.9,64.8,191.4,92.1
				c97.6,40.5,166.4,1.5,267.4,20.9c73.4,14.2,132,73,199.1,92.1c82.1,23.4,187.2,0,270.5,14.6c112.6,19.8,170.4,61.8,250.9,121.2"
				/>
			<path class="st14" d="M-856.7-418.9c50.9,35.5,105.7,71.2,170.1,86.4c87.6,20.6,158.6-26.2,247.7,0.9
				c82.6,25.2,152,84.7,238.4,98.3c86.7,13.7,165.6-18.7,253.1,12.5c86.3,30.7,153.6,97.8,245,119.2c98.2,23,198.8-16.4,297.1,7.4
				C691.4-71,746.6-0.3,843,23.3c95.3,23.3,175.4-20.1,289.3,8.7c71,17.9,124.3,64.7,190.5,92c98.3,40.9,167.1,1.8,269.2,21.6
				c73.3,14.2,132,73.6,198.8,92.2c81.4,22.7,184.5-0.6,267.1,13.5c112.1,19.1,170.9,61.8,250.5,121.5"/>
			<path class="st15" d="M-848.4-453.9c51.2,36.1,106.3,72.4,171.4,87.8c87.3,20.7,158.7-25.3,247.6,1.2
				c83.1,24.8,152.5,84.3,239,98.9c87.1,14.6,166.7-17.9,254.6,12.9c86.2,30.2,153,97.3,243.9,119c98.7,23.5,199.8-16.3,298.7,7.5
				C704-103.3,758.6-32.5,855.7-9c94.7,23,172.7-20.4,287.4,8.6c70.9,17.9,123.8,64.6,189.7,91.8c99,41.3,167.7,2.1,270.9,22.3
				c73.1,14.3,132,74.2,198.5,92.4c80.8,22.1,181.8-1.1,263.6,12.4c111.6,18.5,171.4,61.8,250.2,121.8"/>
			<path class="st16" d="M-840.1-488.9c51.4,36.7,106.9,73.6,172.7,89.3c87,20.8,158.8-24.4,247.3,1.6
				c83.6,24.5,153.1,84,239.6,99.4c87.6,15.6,167.9-17.2,256.1,13.3c88.3,30.6,152.4,96.9,242.9,118.8
				c99.1,23.9,200.8-16.3,300.2,7.5c98,23.4,151.9,94.2,249.8,117.7c94.1,22.6,170-20.7,285.6,8.5c70.7,17.9,123.2,64.4,188.9,91.7
				c99.7,41.8,168.3,2.4,272.7,23c72.9,14.4,132,74.8,198.3,92.5c80.1,21.5,179.2-1.7,260.2,11.4c111,17.9,171.9,61.8,249.8,122.2"
				/>
			<path class="st17" d="M-831.8-523.9c51.7,37.4,107.6,74.9,174,90.8c86.7,20.9,158.9-23.5,247.2,1.9
				c84.1,24.2,153.6,83.7,240.1,99.9c88,16.5,169-16.5,257.6,13.8c88.6,30.3,151.8,96.5,241.8,118.6c99.5,24.4,201.8-16.2,301.8,7.6
				c98.7,23.5,152,94.3,250.6,117.8c93.5,22.3,167.4-21,283.7,8.4c70.6,17.8,122.6,64.3,188,91.6c100.4,42.2,169,2.7,274.4,23.6
				c72.7,14.4,132,75.3,197.9,92.7c79.4,20.9,176.5-2.2,256.8,10.3c110.4,17.2,172.4,61.8,249.4,122.5"/>
			<path class="st18" d="M-823.5-558.8c52,38,108.2,76.1,175.3,92.3c86.5,20.9,159-22.5,246.9,2.3c84.6,23.9,154.2,83.4,240.7,100.4
				c88.4,17.4,170.1-15.8,259.1,14.2c85.7,28.9,151.2,96.1,240.7,118.4c100,24.9,202.8-16.2,303.3,7.7
				C742-200,794.7-129.1,894-105.7c92.9,21.9,164.7-21.4,281.8,8.3c70.4,17.8,122,64.2,187.2,91.4c101.1,42.7,169.6,3,276.1,24.3
				c72.5,14.5,132,75.9,197.7,92.8c78.7,20.3,173.8-2.8,253.3,9.2c109.9,16.6,172.9,61.8,249,122.8"/>
			<path class="st19" d="M-815.2-593.8c52.2,38.6,108.8,77.3,176.6,93.8c86.2,21,159.1-21.6,246.8,2.6
				c85.1,23.5,154.7,83,241.2,100.9c86.5,17.9,171.3-15.1,260.6,14.6c89.4,29.7,150.6,95.7,239.6,118.2
				c100.4,25.4,203.8-16.1,304.8,7.8c100.1,23.6,152.2,94.6,252.3,118c92.3,21.6,162-21.7,280,8.2c70.3,17.8,121.4,64.1,186.3,91.3
				c101.8,43.1,170.3,3.4,277.9,25c72.4,14.6,132,76.5,197.4,93c78,19.6,171.2-3.3,249.9,8.2c109.3,16,173.5,61.7,248.6,123.1"/>
			<path class="st20" d="M-806.8-628.8c52.5,39.2,109.5,78.5,177.8,95.3c85.9,21,159.2-20.7,246.6,3
				c85.6,23.2,155.3,82.7,241.8,101.4c89.3,19.3,172.4-14.4,262.1,15.1c85.3,28,150,95.3,238.6,118c100.8,25.8,204.8-16,306.4,7.8
				c100.8,23.7,152.3,94.7,253.1,118.1c91.7,21.2,159.3-22,278.1,8.1c70.1,17.7,120.8,63.9,185.5,91.1
				c102.5,43.5,170.9,3.7,279.6,25.7c72.2,14.6,132,77.1,197.1,93.1c77.4,19,168.5-3.9,246.5,7.1c108.8,15.3,174,61.7,248.3,123.4"
				/>
			<path class="st21" d="M-798.5-663.8C-745.8-624-688.4-584-619.4-567c85.6,21.1,159.3-19.8,246.3,3.3
				c87.1,23.1,155.8,82.4,242.4,102C-41-441.5,42.8-475.4,133-446.2c85.2,27.5,149.5,94.9,237.5,117.7
				c101.3,26.3,205.8-16,307.9,7.9c101.6,23.7,152.4,94.9,254,118.2c91.1,20.9,156.7-22.3,276.2,8c70,17.7,120.3,63.8,184.7,91
				c103.2,44,171.6,4,281.4,26.4c72,14.7,132,77.7,196.8,93.3c76.7,18.4,165.8-4.4,243,6c108.2,14.7,174.5,61.7,247.9,123.8"/>
			<path class="st22" d="M-790.2-698.8c53,40.4,110.7,81,180.4,98.2c85.3,21.1,159.4-18.9,246.2,3.7
				c86.6,22.5,156.3,82.1,242.9,102.5c90.2,21.2,174.6-12.9,265.1,15.9c85,27.1,148.9,94.5,236.4,117.5
				c101.7,26.8,206.8-15.9,309.5,8c102.3,23.8,152.5,95,254.8,118.2c90.5,20.6,154-22.6,274.3,7.9c69.8,17.7,119.7,63.7,183.8,90.9
				c104,44.4,172.3,4.1,283.1,27.1c71.9,14.6,132,78.3,196.5,93.4c76,17.8,163.2-5,239.6,5c107.7,14,175,61.7,247.5,124.1"/>
			<path class="st23" d="M-781.9-733.8c53.3,41,111.4,82.2,181.7,99.7c85.1,21.2,159.5-18,245.9,4c87,22.1,156.9,81.8,243.5,103
				c90.6,22.2,175.8-12.2,266.6,16.4c84.8,26.6,148.3,94.1,235.3,117.3c102.1,27.3,207.8-15.8,311,8.1
				c103,23.8,152.5,95.1,255.6,118.3c89.9,20.2,151.3-22.9,272.5,7.7c69.7,17.6,119.1,63.6,183,90.7c104.7,44.9,173,4.4,284.9,27.7
				c71.7,14.7,132,78.9,196.2,93.6c75.3,17.2,160.5-5.5,236.2,3.9c107.1,13.4,175.5,61.6,247.1,124.4"/>
			<path class="st24" d="M-773.6-768.7c53.5,41.6,112,83.3,183,101.2c84.8,21.1,159.6-17.1,245.8,4.4
				c87.5,21.8,157.4,81.5,244.1,103.5c91,23.1,176.9-11.5,268.1,16.8C252-516.6,315-449.2,401.6-425.7
				c102.5,27.8,208.8-15.8,312.6,8.2c103.7,23.9,152.6,95.3,256.5,118.4c89.3,19.9,148.6-23.2,270.6,7.6
				c69.5,17.6,118.5,63.5,182.1,90.6c105.4,45.3,173.6,4.7,286.6,28.4c71.5,14.7,132,79.5,195.9,93.7c74.7,16.6,157.8-6.1,232.7,2.8
				c106.6,12.7,176,61.6,246.8,124.7"/>
			<path class="st25" d="M-765.3-803.7c53.8,42.2,112.7,84.5,184.3,102.7c84.5,21.1,159.7-16.2,245.6,4.7
				c88,21.4,158,81.2,244.6,104C0.6-568.2,87.2-603,178.9-575c84.5,25.8,147.1,93.3,233.2,116.9c103,28.3,209.8-15.7,314.1,8.2
				c104.5,24,152.7,95.4,257.3,118.5c88.7,19.6,146-23.6,268.7,7.5c69.4,17.6,117.9,63.3,181.3,90.4c106.1,45.7,174.2,5,288.4,29.1
				c71.3,14.8,132,80.1,195.6,93.9c74,16,155.2-6.7,229.3,1.8c106,12.1,176.5,61.6,246.4,125.1"/>
			<path class="st26" d="M-757-838.7c54.1,42.8,113.3,85.7,185.6,104.2c84.2,21.2,159.8-15.3,245.4,5
				c88.5,21.1,158.5,80.9,245.2,104.6c91.8,25.1,179.1-10,271.1,17.7c84.3,25.3,146.5,92.9,232.1,116.7
				c103.4,28.8,210.8-15.6,315.6,8.3c105.2,24,152.8,95.6,258.1,118.6c88.1,19.2,143.3-23.9,266.8,7.4
				c69.2,17.5,117.4,63.2,180.4,90.3c106.8,46.2,174.9,5.3,290.1,29.8c71.2,14.9,132,80.7,195.3,94c73.3,15.4,152.5-7.2,225.8,0.7
				c105.5,11.4,177,61.6,246,125.4"/>
			<path class="st27" d="M-748.7-873.7c54.3,43.4,114,86.9,186.9,105.6c84,21.3,159.9-14.4,245.2,5.4c89,20.7,159,80.6,245.8,105.1
				c92.3,26,180.2-9.1,272.6,18.1c84.1,25.1,145.9,92.5,231,116.5c103.8,29.3,211.8-15.6,317.2,8.4c105.9,24.1,152.9,95.7,259,118.6
				c87.5,18.9,140.6-24.2,265,7.3c69.1,17.5,116.8,63.1,179.6,90.2c107.5,46.6,175.5,5.7,291.9,30.5c71,15,131.9,81.4,195,94.2
				c72.6,14.9,149.8-7.8,222.4-0.4c104.9,10.8,177.5,61.6,245.7,125.7"/>
			<path class="st28" d="M-740.4-908.6c54.6,44,114.6,88.2,188.2,107.1c83.7,21.4,160-13.5,244.9,5.7
				c89.5,20.3,159.6,80.3,246.3,105.6c92.7,27,181.3-8.4,274.1,18.5c84,24.6,145.3,92.1,229.9,116.3
				c104.2,29.8,212.8-15.5,318.7,8.5c106.6,24.1,153,95.9,259.8,118.7c86.9,18.6,137.9-24.5,263.1,7.2c69,17.5,116.2,62.9,178.8,90
				c108.2,47.1,176.2,6,293.6,31.2c70.8,15,131.9,82,194.7,94.3c71.9,14.3,147.2-8.5,219-1.4c104.4,9.9,178,61.6,245.3,126"/>
			<path class="st29" d="M-732.1-943.6c54.9,44.6,115.2,89.4,189.5,108.6c83.4,21.4,160.1-12.7,244.8,6.1
				c90,19.9,160.1,80,246.9,106.1c93.1,28,182.4-7.6,275.6,19c83.8,24.2,144.6,91.9,228.9,116.1c104.6,30.5,213.8-15.5,320.3,8.6
				c107.4,24.2,153,96.2,260.6,118.8c86.2,18.4,135.3-24.8,261.2,7.1c68.8,17.4,115.6,62.8,177.9,89.9
				c108.9,47.5,176.8,6.3,295.4,31.8c70.6,15.1,132,82.6,194.4,94.4c71.2,13.7,144.5-9.1,215.5-2.5
				c103.8,9.2,178.6,61.5,244.9,126.4"/>
			<path class="st30" d="M-723.8-978.6c55.1,45.2,115.9,90.6,190.8,110.1c83.1,21.5,160.2-11.8,244.5,6.4
				c90.5,19.5,160.6,79.9,247.4,106.6c93.5,29.1,183.6-6.9,277.1,19.4c83.6,23.7,144,91.4,227.8,115.9c105,31,214.8-15.4,321.8,8.6
				c108.1,24.2,153.1,96.3,261.5,118.9c85.6,18,132.6-25.1,259.3,7c68.7,17.4,115,62.7,177.1,89.8c109.6,47.9,177.5,6.6,297.1,32.5
				c70.4,15.2,131.9,83.2,194.1,94.6c70.5,13.1,141.8-9.6,212.1-3.6c103.3,8.6,179.1,61.5,244.5,126.7"/>
			<path class="st31" d="M-715.4-1013.6c55.4,45.9,116.5,91.8,192.1,111.6c82.8,21.5,160.3-11,244.4,6.8
				c91.1,19,161.1,79.6,248,107.1c93.9,30,184.7-6.2,278.6,19.8c83.5,23.3,143.5,91,226.7,115.7c105.4,31.5,215.8-15.3,323.4,8.7
				c108.8,24.3,153.2,96.5,262.3,119c85,17.7,129.9-25.4,257.5,6.9c68.5,17.4,114.5,62.6,176.2,89.6
				c110.3,48.4,178.1,6.9,298.9,33.2c70.3,15.2,132,83.8,193.9,94.7c69.9,12.5,139.2-10.2,208.7-4.6c102.7,8,179.6,61.5,244.2,127"
				/>
			<path class="st32" d="M-707.1-1048.6c55.7,46.5,117.1,93.1,193.4,113.1c82.6,21.6,160.4-10.1,244.2,7.1
				C-178.1-909.7-108-849.1-21-820.7c94.3,31,185.8-5.5,280.2,20.3c83.3,22.8,142.9,90.6,225.6,115.5
				c105.9,31.9,216.8-15.3,324.9,8.8c109.5,24.4,153.3,96.6,263.1,119.1c84.4,17.3,127.2-25.8,255.6,6.8
				c68.4,17.3,113.9,62.4,175.4,89.5c111,48.8,178.8,7.2,300.6,33.9c70.1,15.3,131.9,84.4,193.6,94.9
				c69.2,11.9,136.5-10.7,205.2-5.7c102.2,7.3,180.1,61.5,243.8,127.3"/>
			<path class="st33" d="M-698.8-1083.5c55.9,47.1,117.8,94.3,194.6,114.5c82.3,21.7,160.5-9.2,244,7.5
				c92,18.4,162.2,78.9,249.2,108.2c94.7,31.9,187-4.8,281.6,20.7c83.1,22.4,142.3,90.2,224.6,115.3
				c106.3,32.4,217.8-15.2,326.5,8.9c110.2,24.4,153.3,96.7,264,119.2c83.8,17,124.6-26.1,253.7,6.7
				c68.2,17.3,113.3,62.3,174.6,89.3c111.8,49.3,179.4,7.5,302.4,34.6c69.9,15.4,132,85,193.3,95c68.5,11.2,133.8-11.3,201.8-6.8
				c101.6,6.7,180.6,61.5,243.4,127.6"/>
		</mask>
		<g class="st34">
			
				<rect x="199.7" y="-532.8" transform="matrix(2.346629e-02 -0.9997 0.9997 2.346629e-02 513.8911 297.4825)" class="st35" width="419" height="837"/>
		</g>
	</g>
</g>
</svg>
