<?xml version="1.0" encoding="utf-8"?>
<!-- Generator: Adobe Illustrator 25.2.0, SVG Export Plug-In . SVG Version: 6.00 Build 0)  -->
<svg version="1.1" id="Layer_1" xmlns="http://www.w3.org/2000/svg" xmlns:xlink="http://www.w3.org/1999/xlink" x="0px" y="0px"
	 viewBox="0 0 896 262" style="enable-background:new 0 0 896 262;" xml:space="preserve">
<style type="text/css">
	.st0{clip-path:url(#SVGID_2_);}
	
		.st1{opacity:0.35;fill:none;filter:url(#Adobe_OpacityMaskFilter);stroke:#FFFFFF;stroke-width:1.35;stroke-miterlimit:10;enable-background:new    ;}
	.st2{opacity:0.4;fill:none;stroke:#FFFFFF;stroke-width:1.92;stroke-miterlimit:10;enable-background:new    ;}
	.st3{opacity:0.45;fill:none;stroke:#FFFFFF;stroke-width:2.5;stroke-miterlimit:10;enable-background:new    ;}
	.st4{opacity:0.55;fill:none;stroke:#FFFFFF;stroke-width:3.07;stroke-miterlimit:10;enable-background:new    ;}
	.st5{opacity:0.65;fill:none;stroke:#FFFFFF;stroke-width:3.64;stroke-miterlimit:10;enable-background:new    ;}
	.st6{opacity:0.7;fill:none;stroke:#FFFFFF;stroke-width:4.22;stroke-miterlimit:10;enable-background:new    ;}
	.st7{opacity:0.75;fill:none;stroke:#FFFFFF;stroke-width:4.79;stroke-miterlimit:10;enable-background:new    ;}
	.st8{opacity:0.8;fill:none;stroke:#FFFFFF;stroke-width:5.36;stroke-miterlimit:10;enable-background:new    ;}
	.st9{opacity:0.8;fill:none;stroke:#FFFFFF;stroke-width:5.94;stroke-miterlimit:10;enable-background:new    ;}
	.st10{opacity:0.85;fill:none;stroke:#FFFFFF;stroke-width:6.51;stroke-miterlimit:10;enable-background:new    ;}
	.st11{opacity:0.85;fill:none;stroke:#FFFFFF;stroke-width:7.08;stroke-miterlimit:10;enable-background:new    ;}
	.st12{opacity:0.9;fill:none;stroke:#FFFFFF;stroke-width:7.66;stroke-miterlimit:10;enable-background:new    ;}
	.st13{opacity:0.9;fill:none;stroke:#FFFFFF;stroke-width:8.23;stroke-miterlimit:10;enable-background:new    ;}
	.st14{opacity:0.95;fill:none;stroke:#FFFFFF;stroke-width:8.8;stroke-miterlimit:10;enable-background:new    ;}
	.st15{opacity:0.95;fill:none;stroke:#FFFFFF;stroke-width:9.37;stroke-miterlimit:10;enable-background:new    ;}
	.st16{fill:none;stroke:#FFFFFF;stroke-width:9.95;stroke-miterlimit:10;}
	.st17{fill:none;stroke:#FFFFFF;stroke-width:10.52;stroke-miterlimit:10;}
	.st18{fill:none;stroke:#FFFFFF;stroke-width:11.09;stroke-miterlimit:10;}
	.st19{opacity:0.95;fill:none;stroke:#FFFFFF;stroke-width:11.67;stroke-miterlimit:10;enable-background:new    ;}
	.st20{opacity:0.68;fill:none;stroke:#FFFFFF;stroke-width:12.24;stroke-miterlimit:10;enable-background:new    ;}
	.st21{opacity:0.7;fill:none;stroke:#FFFFFF;stroke-width:12.81;stroke-miterlimit:10;enable-background:new    ;}
	.st22{opacity:0.72;fill:none;stroke:#FFFFFF;stroke-width:13.39;stroke-miterlimit:10;enable-background:new    ;}
	.st23{opacity:0.75;fill:none;stroke:#FFFFFF;stroke-width:13.96;stroke-miterlimit:10;enable-background:new    ;}
	.st24{opacity:0.78;fill:none;stroke:#FFFFFF;stroke-width:14.53;stroke-miterlimit:10;enable-background:new    ;}
	.st25{opacity:0.8;fill:none;stroke:#FFFFFF;stroke-width:15.11;stroke-miterlimit:10;enable-background:new    ;}
	.st26{opacity:0.82;fill:none;stroke:#FFFFFF;stroke-width:15.68;stroke-miterlimit:10;enable-background:new    ;}
	.st27{opacity:0.85;fill:none;stroke:#FFFFFF;stroke-width:16.25;stroke-miterlimit:10;enable-background:new    ;}
	.st28{opacity:0.88;fill:none;stroke:#FFFFFF;stroke-width:16.82;stroke-miterlimit:10;enable-background:new    ;}
	.st29{opacity:0.9;fill:none;stroke:#FFFFFF;stroke-width:17.4;stroke-miterlimit:10;enable-background:new    ;}
	.st30{opacity:0.93;fill:none;stroke:#FFFFFF;stroke-width:17.97;stroke-miterlimit:10;enable-background:new    ;}
	.st31{opacity:0.95;fill:none;stroke:#FFFFFF;stroke-width:18.54;stroke-miterlimit:10;enable-background:new    ;}
	.st32{opacity:0.97;fill:none;stroke:#FFFFFF;stroke-width:19.12;stroke-miterlimit:10;enable-background:new    ;}
	.st33{fill:none;stroke:#FFFFFF;stroke-width:19.69;stroke-miterlimit:10;}
	.st34{mask:url(#mask0_1220_7851_1_);}
	.st35{fill:#F1E9DD;}
</style>
<g>
	<defs>
		
			<rect id="SVGID_1_" x="-665.3" y="-143" transform="matrix(0.964 -0.2659 0.2659 0.964 -30.7866 55.9045)" width="1712.6" height="569.2"/>
	</defs>
	<clipPath id="SVGID_2_">
		<use xlink:href="#SVGID_1_"  style="overflow:visible;"/>
	</clipPath>
	<g class="st0">
		<defs>
			<filter id="Adobe_OpacityMaskFilter" filterUnits="userSpaceOnUse" x="0" y="0" width="896" height="277">
				<feColorMatrix  type="matrix" values="1 0 0 0 0  0 1 0 0 0  0 0 1 0 0  0 0 0 1 0"/>
			</filter>
		</defs>
		<mask maskUnits="userSpaceOnUse" x="0" y="0" width="896" height="277" id="mask0_1220_7851_1_">
			<path class="st1" d="M-951.4-54.6c48.6-25.5,99.8-50.7,156.1-60.3c92.1-15.6,155.7,45.7,249.9,14.6
				c77.6-25.6,148.7-82.9,234.9-81.4c81.1,1.5,149.5,34.3,233.7,3.5c89.9-32.9,165.6-96.4,264.1-110.3
				c93.2-13.2,184.9,25.4,277.1,5.8c88-18.7,154.5-86,242.2-105.9c104.1-23.7,209.2,25.2,313.8,3.7c73.7-15.2,134.7-60.4,205.4-84.8
				c90.6-31.2,158.4,9.5,246.8-1.9c76.1-9.8,134.7-60.2,206.4-81.3c91.4-26.9,219.3,3.3,312.6-13.6c120.4-21.9,166.9-54.8,260.3-106
				"/>
			<path class="st2" d="M-944.6-19.3c48.9-26.1,100.5-51.9,157.5-61.7c91.8-15.6,155.9,44.8,249.8,14.3
				c78.1-25.3,149.2-82.6,235.5-81.8c81.6,0.6,150.6,33.7,235.2,3.1c89.7-32.5,164.9-96,263.1-110.2c93.7-13.6,185.9,25.4,278.6,5.8
				c88.7-18.7,154.6-86.1,243.1-106c103.5-23.4,206.5,25.4,311.9,3.7c73.5-15.1,134.1-60.3,204.5-84.7c91.3-31.6,159,9.3,248.5-2.5
				c75.9-9.9,134.8-60.8,206.1-81.5c90.8-26.4,216.6,3.7,309.1-12.7c119.9-21.3,167.4-54.8,259.9-106.3"/>
			<path class="st3" d="M-937.8,16c49.2-26.7,101.2-53.1,158.8-63.1c91.5-15.7,156,43.8,249.6,13.9c78.6-24.9,149.7-82.2,236.1-82.3
				c82-0.3,151.8,33,236.7,2.8c89.5-32,164.3-95.6,262-110c94.1-14.1,186.9,25.4,280.2,5.8c89.5-18.7,154.7-86.2,243.9-106
				c102.8-23,203.9,25.6,310.1,3.8c73.4-15.1,133.5-60.2,203.7-84.6c92-32,159.7,9,250.3-3.1c75.8-10,134.8-61.4,205.9-81.6
				c90-25.8,213.9,4.2,305.7-11.8c119.3-20.6,167.9-54.7,259.6-106.6"/>
			<path class="st4" d="M-931.1,51.3C-881.6,24-829.2-3-770.9-13.3c91.3-15.8,156,42.7,249.4,13.5c79-24.7,150.3-81.7,236.7-82.8
				c82.5-1.1,152.9,32.3,238.2,2.4c89.3-31.6,163.7-95.2,260.9-109.9c94.6-14.5,187.9,25.3,281.7,5.8
				c90.2-18.8,154.8-86.4,244.7-106.1c102.2-22.7,201.2,25.8,308.2,3.8c73.2-15.1,132.9-60.1,202.8-84.5
				c92.7-32.4,160.4,8.7,252.1-3.7c75.6-10.1,134.8-62,205.6-81.8c89.3-25.2,211.2,4.6,302.2-10.9c118.7-20,168.4-54.7,259.2-107"/>
			<path class="st5" d="M-924.3,86.6c49.8-27.9,102.6-55.5,161.5-66c91-15.9,156.2,41.8,249.2,13.2c79.5-24.4,150.8-81.3,237.2-83.3
				c83-1.9,154.1,31.7,239.7,2c89.1-31.1,163.1-94.8,259.8-109.7c95-15,188.9,25.3,283.3,5.8c90.9-18.8,154.9-86.5,245.6-106.1
				c101.6-22.4,198.5,26,306.3,3.8c73.1-15.1,132.3-60,202-84.4c93.5-32.8,161,8.4,253.9-4.3c75.4-10.1,134.8-62.6,205.3-82
				c88.6-24.6,208.6,5,298.7-10c118.1-19.4,168.9-54.6,258.9-107.3"/>
			<path class="st6" d="M-917.6,121.9c50.1-28.5,103.2-56.7,162.9-67.4c90.7-15.9,156.3,40.8,249,12.8
				c79.9-24.1,151.3-80.9,237.8-83.8c83.4-2.8,155.3,31,241.3,1.7C62.4-45.5,136-109,232.2-124.4c95.5-15.2,189.9,25.3,284.8,5.8
				c91.7-18.8,155-86.4,246.4-106.2c101.1-21.9,195.8,26.2,304.4,3.8c72.9-15,131.8-59.9,201.1-84.3c94.2-33.3,161.7,8.1,255.6-4.9
				c75.2-10.2,134.8-63.1,205-82.1c87.9-24,205.9,5.5,295.2-9.1c117.5-18.8,169.4-54.6,258.5-107.6"/>
			<path class="st7" d="M-910.8,157.2c50.4-29.1,103.9-57.9,164.3-68.8c90.4-16,156.4,39.8,248.8,12.5
				c80.4-23.8,151.9-80.5,238.4-84.3c83.9-3.7,156.4,30.3,242.8,1.3C72.3-12.4,145.5-76,241.1-91.6S432-66.3,527.5-85.8
				c92.4-18.8,155.1-86.5,247.2-106.2c100.5-21.5,193.1,26.4,302.6,3.9c72.8-15,131.2-59.8,200.3-84.2
				c94.9-33.7,162.4,7.8,257.4-5.5c75.1-10.3,134.9-63.7,204.7-82.3c87.2-23.4,203.2,5.9,291.8-8.2c116.9-18.2,169.9-54.5,258.2-108
				"/>
			<path class="st8" d="M-904.1,192.5c50.7-29.7,104.6-59.1,165.6-70.2c90.2-16.1,156.5,38.9,248.7,12.1
				c80.8-23.5,152.4-80.1,239-84.8C-166.4,45-93.1,79.5-6.5,50.5C82.2,20.9,154.9-42.9,250.1-58.7C346.5-74.8,442-33.4,537.9-53
				C631-71.8,693.1-139.5,786-159.2c99.9-21.1,190.4,26.6,300.7,3.9c72.6-15,130.6-59.7,199.5-84.1c95.6-34.1,163,7.5,259.2-6.1
				c74.9-10.4,134.9-64.3,204.4-82.4c86.5-22.9,200.5,6.3,288.3-7.2c116.4-17.6,170.4-54.5,257.8-108.3"/>
			<path class="st9" d="M-897.3,227.8c51-30.3,105.3-60.3,167-71.7c89.9-16.2,156.7,37.9,248.5,11.8
				c81.3-23.1,152.9-79.7,239.6-85.3c84.9-5.4,158.8,29.2,245.8,0.5C92,54.1,164.3-9.8,259-25.9c96.9-16.5,192.9,25.3,289.4,5.8
				c93.8-18.9,155.3-86.7,248.9-106.3c99.2-20.8,187.8,26.8,298.8,3.9c72.5-14.9,130-59.6,198.6-84c96.4-34.5,163.7,7.3,261-6.7
				c74.7-10.4,134.9-64.9,204.1-82.6c85.8-22.3,197.8,6.8,284.8-6.3c115.8-17,170.9-54.5,257.4-108.7"/>
			<path class="st10" d="M-890.5,263.2c51.3-30.9,106-61.6,168.3-73.1c89.5-16.4,156.8,37,248.3,11.4
				c81.8-22.8,153.4-79.4,240.2-85.8c85.3-6.3,160,28.6,247.3,0.2C101.9,87.2,173.8,23.3,268,7c97.3-16.9,193.9,25.2,291,5.7
				C653.5-6.2,714.3-74.1,808.7-93.7c98.6-20.5,185.1,27,296.9,3.9c72.3-14.9,129.4-59.6,197.8-83.9c97.1-34.9,164.4,7,262.7-7.3
				c74.5-10.5,135-65.5,203.9-82.8c85.1-21.7,195.1,7,281.3-5.4c115.1-16.6,171.4-54.4,257.1-109"/>
			<path class="st11" d="M-883.8,298.5c51.6-31.5,106.6-62.8,169.7-74.5c89.3-16.5,156.9,36,248.1,11.1c82.2-22.5,154-79,240.8-86.3
				c85.8-7.2,161.1,27.9,248.9-0.2c88.1-28.2,159.5-92.1,253.3-108.8c97.8-17.3,194.9,25.2,292.5,5.7
				C664.7,26.6,724.9-41.4,820-60.9c98-20.1,182.4,27.2,295.1,4c72.2-14.9,128.8-59.4,196.9-83.8c97.8-35.3,165,6.5,264.5-7.9
				c74.4-10.8,135-65.9,203.6-82.9c84.5-20.9,192.4,7.4,277.8-4.5c114.6-16,171.9-54.4,256.7-109.3"/>
			<path class="st12" d="M-877,333.8c51.8-32.1,107.3-64,171-75.9c89-16.6,157,35.1,247.9,10.7c82.7-22.2,154.5-78.6,241.3-86.8
				c86.3-8.1,162.3,27.2,250.4-0.6c88-27.8,158.9-91.7,252.2-108.6c98.3-17.8,195.9,25.2,294.1,5.7c96-19,155.6-87,251.4-106.4
				c97.4-19.8,179.7,27.4,293.2,4c72-14.9,128.2-59.3,196.1-83.7c98.5-35.7,165.7,6.2,266.3-8.5c74.2-10.8,135.1-66.5,203.3-83.1
				c83.8-20.3,189.7,7.9,274.4-3.6c114-15.4,172.4-54.3,256.3-109.7"/>
			<path class="st13" d="M-870.2,369.1c52.1-32.7,108-65.2,172.4-77.4c88.7-16.7,157.2,34.1,247.7,10.4
				c83.2-21.8,155-78.2,241.9-87.3c86.8-9,163.5,26.6,251.9-0.9c87.8-27.3,158.3-91.3,251.1-108.4c98.7-18.2,196.9,25.2,295.6,5.7
				c96.7-19,155.7-87.1,252.2-106.5c96.8-19.4,177,27.6,291.3,4c71.9-14.8,127.6-59.3,195.2-83.6c99.3-36.1,166.3,5.9,268.1-9.1
				c74-10.9,135.1-67.1,203-83.2c83.1-19.7,187,8.3,270.9-2.7c113.4-14.8,173-54.3,256-110"/>
			<path class="st14" d="M-863.5,404.4c52.4-33.3,108.7-66.5,173.7-78.8c88.4-16.8,157.3,33.2,247.5,10
				c83.7-21.5,155.6-77.9,242.5-87.8c87.2-9.9,164.6,25.9,253.4-1.3c87.6-26.9,157.7-90.9,250-108.3c99.1-18.7,197.9,25.2,297.2,5.7
				c97.5-19,155.8-87.2,253.1-106.5c96.2-19.1,174.3,27.8,289.4,4c71.8-14.8,127.1-59.2,194.4-83.5c100-36.5,167,5.6,269.9-9.7
				c73.8-11,135.1-67.7,202.7-83.4c82.4-19.1,184.3,8.7,267.4-1.7c112.8-14.2,173.5-54.2,255.6-110.4"/>
			<path class="st15" d="M-856.7,439.7c52.7-33.9,109.4-67.6,175.1-80.2c88.1-16.9,157.4,32.3,247.4,9.7
				c84.1-21.2,156.1-77.5,243.1-88.2c87.7-10.8,165.8,25.3,254.9-1.7c87.4-26.4,157.1-90.5,248.9-108.1
				c99.6-19.1,198.9,25.1,298.7,5.7c98.2-19.1,155.9-87.3,253.9-106.6c95.6-18.8,171.6,28,287.5,4.1
				c71.6-14.8,126.5-59.1,193.5-83.4c100.7-36.9,167.6,5.3,271.6-10.3c73.6-11.1,135.1-68.3,202.4-83.6
				c81.6-18.5,181.6,9.1,263.9-0.8c112.3-13.6,174-54.2,255.3-110.7"/>
			<path class="st16" d="M-850,475c53-34.4,110.1-68.9,176.5-81.6c87.9-16.9,157.6,31.3,247.2,9.3c84.6-20.8,156.6-77.2,243.7-88.7
				c88.2-11.7,166.9,24.6,256.4-2c89.5-26.6,156.5-90.1,247.9-108c100.1-19.5,199.9,25.1,300.3,5.7
				c98.9-19.1,155.9-87.4,254.7-106.6c95-18.4,169,28.2,285.7,4.1c71.5-14.8,125.9-59,192.7-83.3c101.5-37.3,168.3,5,273.4-10.9
				c73.5-11.1,135.2-68.9,202.1-83.7c80.9-18,178.9,9.6,260.4,0.1c111.7-13,174.5-54.2,254.9-111"/>
			<path class="st17" d="M-843.2,510.3c53.3-35,110.8-70,177.8-83.1c87.6-17,157.7,30.4,247,8.9c85.1-20.5,157.2-76.8,244.3-89.2
				c88.6-12.6,168.1,23.9,258-2.4s155.9-89.7,246.8-107.8c100.5-20,200.9,25.1,301.8,5.7c99.6-19.1,156-87.6,255.6-106.7
				c94.4-18.1,166.3,28.4,283.8,4.1c71.3-14.7,125.3-58.9,191.8-83.2c102.2-37.8,169,4.7,275.2-11.5
				c73.3-11.2,135.2-69.4,201.8-83.9c80.2-17.4,176.2,10,257,1c111.1-12.4,175-54.1,254.6-111.4"/>
			<path class="st18" d="M-836.4,545.6c53.6-35.6,111.4-71.2,179.2-84.5c87.3-17.1,157.8,29.5,246.8,8.6
				c85.5-20.1,157.7-76.5,244.9-89.7c89.1-13.5,169.3,23.3,259.5-2.8c86.9-25.1,155.3-89.3,245.7-107.7
				c101-20.5,201.9,25.1,303.3,5.7c100.3-19.1,156.1-87.7,256.4-106.7c93.8-17.8,163.6,28.6,281.9,4.1
				c71.1-14.7,124.7-58.8,191-83.1c102.9-38.2,169.6,4.4,276.9-12.1c73.1-11.3,135.2-70,201.6-84c79.5-16.8,173.5,10.4,253.5,1.9
				c110.5-11.7,175.5-54.1,254.2-111.7"/>
			<path class="st19" d="M-829.7,581c53.9-36.2,112.1-72.4,180.5-85.9c87-17.2,158,28.6,246.6,8.2c86-19.8,158.2-76.1,245.5-90.2
				c87.2-14.1,170.4,22.6,261-3.1s154.7-89,244.6-107.5c101.4-20.9,202.9,25.1,304.9,5.7c101.1-19.2,156.2-87.8,257.3-106.8
				c93.1-17.5,160.9,28.8,280,4.2c71-14.7,124.1-58.7,190.2-83c103.6-38.6,170.3,4.1,278.7-12.8c72.9-11.4,135.2-70.6,201.3-84.2
				c78.8-16.2,170.9,10.9,250,2.8c109.9-11.1,176-54,253.8-112.1"/>
			<path class="st20" d="M-822.9,616.3c54.2-36.8,112.8-73.6,181.9-87.3c86.7-17.2,158.1,27.7,246.4,7.9
				c86.5-19.4,158.8-75.8,246-90.7c90.1-15.4,171.6,21.9,262.5-3.5c86.5-24.2,154.1-88.6,243.5-107.3c101.9-21.4,203.9,25,306.4,5.6
				C765.7,321.7,820.2,253,922,234.1c92.5-17.2,158.2,29,278.2,4.2c70.8-14.6,123.5-58.6,189.3-82.9c104.4-39,170.9,3.9,280.5-13.4
				c72.8-11.4,135.2-71.2,201-84.4c78.1-15.6,168.2,11.3,246.5,3.8C2226.9,50.9,2294,7.4,2371-51"/>
			<path class="st21" d="M-816.2,651.6c54.5-37.4,113.5-74.8,183.2-88.8c86.5-17.3,158.3,26.8,246.3,7.5
				c88-19.3,159.3-75.5,246.6-91.2c90.5-16.3,172.7,21.3,264.1-3.9c86.3-23.8,153.5-88.2,242.4-107.2c102.3-21.8,204.9,25,308,5.6
				c102.5-19.2,156.4-88.1,258.9-106.9c91.9-16.9,155.5,29.2,276.3,4.2c70.7-14.6,123-58.5,188.5-82.8
				c105.1-39.4,171.6,3.6,282.3-14c72.6-11.5,135.3-71.8,200.7-84.5c77.4-15,165.5,11.7,243,4.7c108.8-9.9,177-53.9,253.1-112.7"/>
			<path class="st22" d="M-809.4,686.9c54.7-38,114.2-76,184.6-90.2c86.2-17.4,158.4,25.9,246.1,7.2
				c87.5-18.7,159.8-75.1,247.2-91.7c91-17.2,173.9,20.6,265.6-4.2c86.1-23.3,152.9-87.8,241.3-107c102.8-22.3,205.9,25,309.5,5.6
				c103.2-19.2,156.5-88.2,259.8-106.9c91.3-16.5,152.8,29.4,274.4,4.2c70.6-14.6,122.4-58.4,187.6-82.7
				c105.8-39.8,172.3,3.5,284.1-14.6c72.4-11.4,135.3-72.4,200.4-84.7c76.7-14.5,162.8,12.2,239.6,5.6
				c108.2-9.3,177.5-53.9,252.8-113.1"/>
			<path class="st23" d="M-802.6,722.2c55-38.6,114.9-77.2,185.9-91.6c85.9-17.4,158.5,25,245.9,6.8
				c87.9-18.3,160.3-74.8,247.8-92.2c91.5-18.2,175,19.9,267.1-4.6c85.9-22.9,152.3-87.4,240.3-106.9c103.2-22.8,207,25,311.1,5.6
				c104-19.3,156.6-88.3,260.6-107c90.7-16.2,150.2,29.6,272.5,4.3c70.4-14.6,121.8-58.3,186.8-82.6c106.5-40.2,173,3.2,285.8-15.2
				c72.3-11.5,135.3-73,200.1-84.8c76-13.9,160.1,12.6,236.1,6.5c107.6-8.7,178-53.9,252.4-113.4"/>
			<path class="st24" d="M-795.9,757.5c55.3-39.2,115.6-78.2,187.3-93c85.7-17.3,158.7,24.1,245.7,6.5
				c88.4-17.9,160.9-74.5,248.4-92.7c91.9-19.1,176.2,19.2,268.6-5c85.7-22.5,151.7-87.1,239.2-106.7c103.7-23.3,207.9,25,312.6,5.6
				c104.7-19.3,156.7-88.5,261.4-107c90.1-15.9,147.5,29.8,270.7,4.3c70.3-14.5,121.2-58.2,185.9-82.5
				c107.3-40.6,173.6,2.9,287.6-15.8c72.1-11.6,135.4-73.6,199.8-85c75.3-13.3,157.4,13,232.6,7.4c107-8,178.6-53.8,252-113.7"/>
			<path class="st25" d="M-789.1,792.8c55.6-39.8,116.3-79.5,188.7-94.5c85.4-17.4,158.8,23.2,245.5,6.1
				c88.9-17.5,161.4-74.2,249-93.2c92.4-20.1,177.4,18.6,270.1-5.3c85.6-22,151-86.7,238.1-106.5c104.1-23.7,208.9,24.9,314.1,5.6
				c105.4-19.3,156.8-88.6,262.3-107.1c89.5-15.6,144.8,30,268.8,4.3c70.1-14.5,120.6-58.1,185.1-82.4c108-41,174.3,2.7,289.4-16.4
				c71.9-11.7,135.4-74.2,199.6-85.2c74.6-12.7,154.7,13.5,229.1,8.3c106.4-7.4,179.1-53.8,251.7-114.1"/>
			<path class="st26" d="M-782.4,828.1c55.9-40.4,117-80.7,190-95.9c85.1-17.5,158.9,22.3,245.3,5.8
				c89.4-17.1,161.9-73.8,249.6-93.7c92.9-21,178.5,17.9,271.6-5.7c85.4-21.6,150.4-86.3,237-106.4c104.5-24.2,209.9,24.9,315.7,5.6
				C833,518.5,883.8,449.1,990,430.7c88.8-15.3,142.1,30.2,266.9,4.3c69.9-14.5,120-58,184.2-82.3c108.7-41.4,175,2.4,291.2-17
				c71.7-11.7,135.4-74.8,199.3-85.3c73.9-12.2,152,13.9,225.6,9.2c105.9-6.8,179.6-53.7,251.3-114.4"/>
			<path class="st27" d="M-775.6,863.5c56.2-41,117.7-81.8,191.4-97.3c84.8-17.6,159.1,21.4,245.2,5.4
				c89.9-16.8,162.4-73.5,250.1-94.2c93.3-22,179.6,17,273.2-6.1c85.1-21.3,149.8-86,235.9-106.2c105-24.7,210.9,24.9,317.2,5.6
				c106.9-19.4,156.9-88.9,263.9-107.1c88.2-15,139.4,30.4,265,4.4c69.8-14.4,119.4-57.9,183.4-82.2
				c109.5-41.8,175.6,2.1,292.9-17.6c71.6-11.8,135.4-75.5,199-85.5c73.2-11.7,149.3,14.4,222.2,10.2
				c105.3-6.1,180.1-53.7,251-114.8"/>
			<path class="st28" d="M-768.8,898.8c56.5-41.6,118.3-83,192.7-98.8c84.5-17.7,159.2,20.6,245,5c90.3-16.3,162.9-73.2,250.7-94.7
				c93.8-22.9,180.8,16.3,274.7-6.5c85-20.9,149.2-85.6,234.8-106.1c105.4-25.2,211.9,24.9,318.8,5.6
				c107.6-19.4,157-89.1,264.8-107.2c87.6-14.7,136.7,30.6,263.2,4.4c69.7-14.4,118.9-57.8,182.5-82.1
				c110.2-42.3,176.3,1.8,294.7-18.2c71.4-11.9,135.4-76.1,198.7-85.6c72.5-11.1,146.6,15,218.7,11.1
				c104.7-5.3,180.6-53.7,250.6-115.1"/>
			<path class="st29" d="M-762.1,934.1c56.8-42.2,119-84.2,194.1-100.2c84.3-17.7,159.4,19.7,244.8,4.7
				c90.8-15.9,163.5-72.9,251.3-95.1c94.2-23.9,181.9,15.7,276.2-6.8c84.8-20.5,148.5-85.4,233.7-105.9
				c105.8-25.9,212.9,24.9,320.3,5.6c108.3-19.4,157.1-89.4,265.6-107.2c87-14.6,134,30.7,261.3,4.4c69.5-14.4,118.3-57.7,181.7-82
				c110.9-42.7,176.9,1.5,296.5-18.8c71.2-12,135.4-76.7,198.4-85.8c71.8-10.6,144,15.4,215.2,12c104.1-4.7,181.1-53.6,250.2-115.5"
				/>
			<path class="st30" d="M-755.3,969.4c57.1-42.8,119.7-85.4,195.4-101.6c84-17.8,159.5,18.8,244.6,4.3
				c91.3-15.5,163.9-72.8,251.9-95.6c94.6-25,183.1,15,277.7-7.2c84.6-20,147.9-85,232.7-105.8c106.3-26.3,213.9,24.8,321.9,5.6
				c109-19.5,157.2-89.5,266.4-107.3c86.4-14.3,131.4,31,259.4,4.4c69.4-14.4,117.7-57.6,180.9-81.9
				c111.6-43.1,177.6,1.2,298.3-19.4c71-12,135.5-77.3,198.1-85.9c71.1-10,141.2,15.8,211.7,12.9c103.6-4.1,181.6-53.6,249.9-115.8"
				/>
			<path class="st31" d="M-748.5,1004.7c57.4-43.4,120.4-86.6,196.8-103c83.7-17.9,159.7,18.1,244.4,4
				c91.8-15,164.5-72.4,252.5-96.1c95.1-25.9,184.2,14.3,279.3-7.6c84.4-19.6,147.3-84.6,231.6-105.6
				c106.7-26.8,214.9,24.8,323.4,5.6c109.8-19.5,157.2-89.6,267.3-107.3c85.7-13.9,128.7,31.1,257.5,4.5
				c69.2-14.3,117.1-57.5,180-81.8c112.4-43.5,178.3,0.9,300-20c70.9-12.1,135.5-77.9,197.8-86.1c70.4-9.4,138.6,16.3,208.3,13.8
				c103-3.4,182.1-53.5,249.5-116.1"/>
			<path class="st32" d="M-741.8,1040c57.6-44,121.1-87.8,198.1-104.4c83.4-17.9,159.8,17.2,244.2,3.6c92.3-14.6,165-72,253.1-96.6
				c95.6-26.8,185.4,13.7,280.8-7.9c84.2-19.1,146.7-84.2,230.5-105.4c107.2-27.3,216,24.8,325,5.5
				c110.5-19.5,157.4-89.8,268.1-107.4c85.1-13.6,126,31.4,255.6,4.5c69.1-14.3,116.5-57.4,179.2-81.7
				c113.1-43.9,178.9,0.6,301.8-20.6c70.7-12.2,135.5-78.5,197.6-86.3c69.6-8.8,135.9,16.7,204.8,14.7
				c102.4-2.8,182.6-53.5,249.2-116.5"/>
			<path class="st33" d="M-735,1075.3c57.9-44.6,121.8-89,199.5-105.8c83.1-18,159.9,16.2,244,3.3c92.8-14.3,165.5-71.7,253.7-97.1
				c96.1-27.7,186.6,13,282.3-8.3c84-18.7,146.1-83.8,229.4-105.3c107.6-27.7,217,24.8,326.5,5.5c111.2-19.5,157.4-89.9,269-107.4
				c84.5-13.3,123.3,31.5,253.8,4.5c68.9-14.3,115.9-57.3,178.3-81.6c113.8-44.3,179.6,0.4,303.6-21.2
				c70.5-12.3,135.6-79.1,197.3-86.4c68.9-8.2,133.2,17.1,201.3,15.6c101.8-2.2,183.1-53.5,248.8-116.8"/>
		</mask>
		<g class="st34">
			<rect class="st35" width="896" height="277"/>
		</g>
	</g>
</g>
</svg>
