<?xml version="1.0" encoding="utf-8"?>
<!-- Generator: Adobe Illustrator 25.2.0, SVG Export Plug-In . SVG Version: 6.00 Build 0)  -->
<svg version="1.1" id="Layer_1" xmlns="http://www.w3.org/2000/svg" xmlns:xlink="http://www.w3.org/1999/xlink" x="0px" y="0px"
	 viewBox="0 0 737 232" style="enable-background:new 0 0 737 232;" xml:space="preserve">
<style type="text/css">
	.st0{clip-path:url(#SVGID_2_);}
	
		.st1{opacity:0.35;fill:none;filter:url(#Adobe_OpacityMaskFilter);stroke:#FFFFFF;stroke-width:0.9524;stroke-miterlimit:10;enable-background:new    ;}
	.st2{opacity:0.4;fill:none;stroke:#FFFFFF;stroke-width:1.3546;stroke-miterlimit:10;enable-background:new    ;}
	.st3{opacity:0.45;fill:none;stroke:#FFFFFF;stroke-width:1.7638;stroke-miterlimit:10;enable-background:new    ;}
	.st4{opacity:0.55;fill:none;stroke:#FFFFFF;stroke-width:2.1659;stroke-miterlimit:10;enable-background:new    ;}
	.st5{opacity:0.65;fill:none;stroke:#FFFFFF;stroke-width:2.568;stroke-miterlimit:10;enable-background:new    ;}
	.st6{opacity:0.7;fill:none;stroke:#FFFFFF;stroke-width:2.9772;stroke-miterlimit:10;enable-background:new    ;}
	.st7{opacity:0.75;fill:none;stroke:#FFFFFF;stroke-width:3.3794;stroke-miterlimit:10;enable-background:new    ;}
	.st8{opacity:0.8;fill:none;stroke:#FFFFFF;stroke-width:3.7815;stroke-miterlimit:10;enable-background:new    ;}
	.st9{opacity:0.8;fill:none;stroke:#FFFFFF;stroke-width:4.1907;stroke-miterlimit:10;enable-background:new    ;}
	.st10{opacity:0.85;fill:none;stroke:#FFFFFF;stroke-width:4.5929;stroke-miterlimit:10;enable-background:new    ;}
	.st11{opacity:0.85;fill:none;stroke:#FFFFFF;stroke-width:4.995;stroke-miterlimit:10;enable-background:new    ;}
	.st12{opacity:0.9;fill:none;stroke:#FFFFFF;stroke-width:5.4042;stroke-miterlimit:10;enable-background:new    ;}
	.st13{opacity:0.9;fill:none;stroke:#FFFFFF;stroke-width:5.8063;stroke-miterlimit:10;enable-background:new    ;}
	.st14{opacity:0.95;fill:none;stroke:#FFFFFF;stroke-width:6.2085;stroke-miterlimit:10;enable-background:new    ;}
	.st15{opacity:0.95;fill:none;stroke:#FFFFFF;stroke-width:6.6106;stroke-miterlimit:10;enable-background:new    ;}
	.st16{fill:none;stroke:#FFFFFF;stroke-width:7.0198;stroke-miterlimit:10;}
	.st17{fill:none;stroke:#FFFFFF;stroke-width:7.4219;stroke-miterlimit:10;}
	.st18{fill:none;stroke:#FFFFFF;stroke-width:7.8241;stroke-miterlimit:10;}
	.st19{opacity:0.95;fill:none;stroke:#FFFFFF;stroke-width:8.2333;stroke-miterlimit:10;enable-background:new    ;}
	.st20{opacity:0.68;fill:none;stroke:#FFFFFF;stroke-width:8.6354;stroke-miterlimit:10;enable-background:new    ;}
	.st21{opacity:0.7;fill:none;stroke:#FFFFFF;stroke-width:9.0375;stroke-miterlimit:10;enable-background:new    ;}
	.st22{opacity:0.72;fill:none;stroke:#FFFFFF;stroke-width:9.4467;stroke-miterlimit:10;enable-background:new    ;}
	.st23{opacity:0.75;fill:none;stroke:#FFFFFF;stroke-width:9.8489;stroke-miterlimit:10;enable-background:new    ;}
	.st24{opacity:0.78;fill:none;stroke:#FFFFFF;stroke-width:10.251;stroke-miterlimit:10;enable-background:new    ;}
	.st25{opacity:0.8;fill:none;stroke:#FFFFFF;stroke-width:10.6602;stroke-miterlimit:10;enable-background:new    ;}
	.st26{opacity:0.82;fill:none;stroke:#FFFFFF;stroke-width:11.0623;stroke-miterlimit:10;enable-background:new    ;}
	.st27{opacity:0.85;fill:none;stroke:#FFFFFF;stroke-width:11.4645;stroke-miterlimit:10;enable-background:new    ;}
	.st28{opacity:0.88;fill:none;stroke:#FFFFFF;stroke-width:11.8666;stroke-miterlimit:10;enable-background:new    ;}
	.st29{opacity:0.9;fill:none;stroke:#FFFFFF;stroke-width:12.2758;stroke-miterlimit:10;enable-background:new    ;}
	.st30{opacity:0.93;fill:none;stroke:#FFFFFF;stroke-width:12.6779;stroke-miterlimit:10;enable-background:new    ;}
	.st31{opacity:0.95;fill:none;stroke:#FFFFFF;stroke-width:13.0801;stroke-miterlimit:10;enable-background:new    ;}
	.st32{opacity:0.97;fill:none;stroke:#FFFFFF;stroke-width:13.4893;stroke-miterlimit:10;enable-background:new    ;}
	.st33{fill:none;stroke:#FFFFFF;stroke-width:13.8914;stroke-miterlimit:10;}
	.st34{mask:url(#mask0_1224_11767_1_);}
	.st35{fill:#F6EFE7;}
</style>
<g>
	<defs>
		
			<rect id="SVGID_1_" x="-341.5" y="-47.4" transform="matrix(0.964 -0.2659 0.2659 0.964 -26.0346 82.3453)" width="1265.1" height="369.5"/>
	</defs>
	<clipPath id="SVGID_2_">
		<use xlink:href="#SVGID_1_"  style="overflow:visible;"/>
	</clipPath>
	<g class="st0">
		<defs>
			<filter id="Adobe_OpacityMaskFilter" filterUnits="userSpaceOnUse" x="0" y="0" width="737" height="232">
				<feColorMatrix  type="matrix" values="1 0 0 0 0  0 1 0 0 0  0 0 1 0 0  0 0 0 1 0"/>
			</filter>
		</defs>
		<mask maskUnits="userSpaceOnUse" x="0" y="0" width="737" height="232" id="mask0_1224_11767_1_">
			<path class="st1" d="M-566.4,36.4c34.3-18,70.4-35.8,110.2-42.5c65-11,109.9,32.2,176.3,10.3c54.8-18.1,104.9-58.5,165.7-57.4
				c57.2,1,105.4,24.2,164.8,2.5c63.4-23.2,116.8-68,186.4-77.9c65.8-9.3,130.5,17.9,195.5,4.1c62.1-13.2,109-60.7,170.9-74.7
				c73.4-16.7,147.6,17.8,221.4,2.6c52-10.7,95-42.6,144.9-59.8c63.9-22,111.7,6.7,174.1-1.3c53.7-6.9,95.1-42.5,145.6-57.4
				c64.5-19,154.7,2.3,220.6-9.6c85-15.4,117.7-38.7,183.6-74.7"/>
			<path class="st2" d="M-561.6,61.3c34.5-18.4,70.9-36.6,111.1-43.5c64.8-11,110,31.6,176.2,10.1C-219.2,10-169-30.4-108.1-29.9
				C-50.6-29.5-1.9-6.2,57.8-27.7c63.3-22.9,116.4-67.8,185.6-77.7c66.1-9.6,131.2,17.9,196.6,4.1c62.6-13.2,109.1-60.8,171.5-74.8
				c73-16.5,145.7,17.9,220.1,2.6c51.9-10.7,94.6-42.6,144.3-59.7c64.4-22.3,112.2,6.5,175.3-1.7c53.6-7,95.1-42.9,145.4-57.5
				c64-18.6,152.8,2.6,218.1-9c84.6-15,118.1-38.6,183.4-75"/>
			<path class="st3" d="M-556.8,86.2c34.7-18.8,71.4-37.5,112.1-44.5c64.6-11.1,110,30.9,176.1,9.8c55.4-17.6,105.6-58,166.5-58.1
				C-44.3-6.9,5,16.6,64.9-4.7C128-27.3,180.8-72.1,249.7-82.3c66.4-9.9,131.9,17.9,197.7,4.1C510.5-91.4,556.5-139,619.4-153
				c72.6-16.2,143.8,18.1,218.8,2.7c51.8-10.7,94.2-42.5,143.7-59.7c64.9-22.6,112.7,6.3,176.6-2.2c53.4-7,95.1-43.3,145.2-57.6
				c63.5-18.2,150.9,2.9,215.7-8.3c84.1-14.6,118.4-38.6,183.1-75.2"/>
			<path class="st4" d="M-552.1,111.1c34.9-19.3,71.9-38.3,113-45.5c64.4-11.1,110.1,30.1,175.9,9.6c55.7-17.4,106-57.6,167-58.4
				c58.2-0.8,107.9,22.8,168.1,1.7C135-3.9,187.5-48.8,256-59.2c66.7-10.3,132.6,17.9,198.7,4.1c63.6-13.2,109.2-60.9,172.7-74.8
				c72.1-16,141.9,18.2,217.4,2.7c51.6-10.6,93.8-42.4,143.1-59.6c65.4-22.9,113.2,6.1,177.9-2.6c53.3-7.1,95.1-43.7,145-57.7
				c63-17.8,149,3.2,213.2-7.7c83.7-14.1,118.8-38.6,182.9-75.5"/>
			<path class="st5" d="M-547.3,136c35.1-19.7,72.4-39.2,114-46.5c64.2-11.2,110.2,29.5,175.8,9.3C-201.4,81.6-151.1,41.4-90.1,40
				C-31.6,38.6,18.6,62.3,79,41.4c62.9-22,115.1-66.9,183.3-77.4c67-10.6,133.3,17.9,199.8,4.1c64.1-13.3,109.3-61,173.2-74.9
				c71.7-15.8,140,18.4,216.1,2.7c51.6-10.6,93.4-42.4,142.5-59.5c65.9-23.2,113.6,5.9,179.1-3c53.2-7.1,95.1-44.1,144.8-57.8
				c62.5-17.4,147.1,3.6,210.7-7c83.3-13.7,119.2-38.5,182.6-75.7"/>
			<path class="st6" d="M-542.5,160.9c35.4-20.1,72.8-40,114.9-47.5c64-11.3,110.3,28.8,175.7,9.1c56.4-17,106.8-57.1,167.8-59.1
				c58.9-2,109.5,21.9,170.2,1.2C148.9,42.8,200.8-2,268.6-12.8C336-23.5,402.6,5,469.6-8.7c64.7-13.3,109.3-61,173.8-74.9
				c71.3-15.4,138.2,18.5,214.8,2.7c51.4-10.6,92.9-42.3,141.9-59.5c66.5-23.5,114.1,5.7,180.4-3.4c53.1-7.2,95.1-44.5,144.6-57.9
				c62-17,145.2,3.9,208.3-6.4c82.9-13.3,119.5-38.5,182.4-75.9"/>
			<path class="st7" d="M-537.7,185.8c35.6-20.5,73.3-40.9,115.9-48.6c63.8-11.3,110.3,28.1,175.6,8.8
				c56.7-16.8,107.1-56.8,168.2-59.5C-18.9,84,32.3,108,93.2,87.5C155.8,66.2,207.5,21.3,275,10.3c67.5-11,134.7,17.8,202,4.1
				c65.2-13.3,109.4-61,174.4-74.9c70.9-15.2,136.2,18.6,213.4,2.7c51.3-10.6,92.5-42.2,141.3-59.4c67-23.8,114.5,5.5,181.6-3.9
				c53-7.3,95.1-45,144.4-58c61.5-16.5,143.4,4.2,205.8-5.8c82.5-12.8,119.9-38.5,182.1-76.2"/>
			<path class="st8" d="M-533,210.7c35.8-20.9,73.8-41.7,116.8-49.6c63.6-11.4,110.4,27.4,175.4,8.6c57-16.5,107.5-56.5,168.6-59.8
				c59.5-3.2,111.2,21.1,172.4,0.6c62.5-20.9,113.8-65.9,181-77.1c68-11.3,135.4,17.8,203.1,4.1c65.7-13.3,109.5-61.1,175-75
				c70.5-14.9,134.4,18.8,212.1,2.7c51.2-10.6,92.1-42.2,140.7-59.3c67.5-24,115,5.3,182.9-4.3c52.8-7.3,95.2-45.4,144.2-58.2
				c61-16.1,141.4,4.5,203.4-5.1c82.1-12.4,120.2-38.5,181.9-76.4"/>
			<path class="st9" d="M-528.2,235.7c36-21.4,74.3-42.6,117.8-50.6c63.4-11.4,110.5,26.7,175.3,8.3c57.4-16.3,107.9-56.3,169-60.2
				c59.9-3.8,112,20.6,173.4,0.4c62.4-20.6,113.4-65.6,180.2-77c68.4-11.6,136.1,17.8,204.2,4.1c66.2-13.3,109.6-61.2,175.6-75
				c70-14.7,132.5,18.9,210.8,2.8c51.1-10.5,91.7-42.1,140.1-59.3c68-24.3,115.5,5.1,184.1-4.7c52.7-7.4,95.2-45.8,144-58.3
				c60.5-15.7,139.5,4.8,200.9-4.5c81.7-12,120.6-38.4,181.6-76.7"/>
			<path class="st10" d="M-523.4,260.6c36.2-21.8,74.8-43.5,118.8-51.6c63.2-11.6,110.6,26.1,175.2,8.1
				c57.7-16.1,108.3-56,169.4-60.5c60.2-4.5,112.9,20.1,174.5,0.1c62.3-20.2,113-65.3,179.5-76.8c68.7-11.9,136.8,17.8,205.3,4.1
				c66.7-13.3,109.6-61.2,176.2-75C745-5.6,805.9,27.9,884.9,11.6c51-10.5,91.3-42,139.5-59.2c68.5-24.6,115.9,4.9,185.4-5.2
				c52.6-7.4,95.2-46.2,143.8-58.4c60-15.3,137.6,4.9,198.5-3.8c81.2-11.7,120.9-38.4,181.4-76.9"/>
			<path class="st11" d="M-518.7,285.5c36.4-22.2,75.2-44.3,119.7-52.6c63-11.7,110.7,25.4,175,7.8c58-15.9,108.6-55.7,169.9-60.9
				c60.5-5.1,113.7,19.7,175.6-0.1c62.2-19.9,112.6-65,178.7-76.7c69-12.2,137.5,17.8,206.4,4C573.8,93.7,616.3,45.7,683.4,32
				c69.2-14.2,128.7,19.2,208.2,2.8c50.9-10.5,90.9-41.9,138.9-59.1c69-24.9,116.4,4.6,186.6-5.6c52.4-7.6,95.3-46.5,143.6-58.5
				c59.6-14.8,135.7,5.2,196-3.2c80.8-11.3,121.3-38.4,181.1-77.1"/>
			<path class="st12" d="M-513.9,310.4c36.6-22.6,75.7-45.2,120.7-53.6c62.8-11.7,110.8,24.7,174.9,7.6
				c58.4-15.6,109-55.5,170.3-61.2c60.9-5.7,114.5,19.2,176.6-0.4c62.1-19.6,112.1-64.7,177.9-76.6c69.3-12.5,138.2,17.8,207.5,4
				c67.7-13.4,109.8-61.4,177.4-75.1c68.7-14,126.8,19.3,206.8,2.8c50.8-10.5,90.5-41.9,138.3-59c69.5-25.2,116.9,4.4,187.9-6
				c52.3-7.6,95.3-46.9,143.4-58.6c59.1-14.3,133.8,5.5,193.6-2.5c80.4-10.9,121.7-38.3,180.9-77.4"/>
			<path class="st13" d="M-509.1,335.3c36.8-23,76.2-46,121.6-54.6c62.6-11.8,110.9,24.1,174.8,7.3c58.7-15.4,109.4-55.2,170.7-61.6
				c61.2-6.3,115.3,18.8,177.7-0.7c61.9-19.3,111.7-64.4,177.2-76.5c69.6-12.9,138.9,17.8,208.6,4c68.2-13.4,109.8-61.5,178-75.1
				c68.3-13.7,124.9,19.5,205.5,2.8c50.7-10.5,90.1-41.8,137.7-59c70-25.5,117.3,4.1,189.1-6.4C1284,7.9,1327-31.7,1375-43.1
				c58.6-13.9,131.9,5.8,191.1-1.9c80-10.4,122-38.3,180.6-77.6"/>
			<path class="st14" d="M-504.4,360.2c37-23.5,76.7-46.9,122.6-55.6c62.4-11.8,111,23.4,174.6,7.1c59-15.2,109.8-55,171.1-61.9
				c61.5-7,116.1,18.3,178.8-0.9c61.8-18.9,111.3-64.1,176.4-76.4c70-13.2,139.6,17.7,209.7,4c68.7-13.4,109.9-61.5,178.6-75.2
				c67.9-13.5,123,19.6,204.2,2.8c50.6-10.4,89.7-41.7,137.1-58.9c70.6-25.8,117.8,3.9,190.4-6.9c52.1-7.8,95.3-47.8,143-58.8
				c58.1-13.5,130,6.1,188.7-1.2c79.6-10,122.4-38.3,180.3-77.9"/>
			<path class="st15" d="M-499.6,385.1c37.2-23.9,77.2-47.7,123.5-56.6c62.2-11.9,111.1,22.8,174.5,6.8
				c59.4-14.9,110.1-54.7,171.5-62.3c61.9-7.6,117,17.8,179.9-1.2c61.7-18.6,110.9-63.9,175.6-76.3c70.3-13.5,140.3,17.7,210.7,4
				c69.3-13.4,110-61.6,179.1-75.2c67.4-13.3,121.1,19.8,202.9,2.9c50.5-10.4,89.2-41.7,136.5-58.8c71.1-26.1,118.3,3.7,191.6-7.3
				c51.9-7.8,95.3-48.2,142.8-58.9c57.6-13.1,128.1,6.4,186.2-0.6c79.2-9.6,122.7-38.2,180.1-78.1"/>
			<path class="st16" d="M-494.8,410.1c37.4-24.3,77.7-48.6,124.5-57.6c62-11.9,111.2,22.1,174.4,6.6
				c59.7-14.7,110.5-54.5,171.9-62.6c62.2-8.3,117.8,17.4,180.9-1.4c63.1-18.8,110.4-63.6,174.9-76.2c70.6-13.8,141,17.7,211.8,4
				c69.8-13.5,110-61.7,179.7-75.2c67-13,119.2,19.9,201.5,2.9c50.4-10.4,88.8-41.6,136-58.8c71.6-26.3,118.7,3.5,192.9-7.7
				c51.8-7.9,95.4-48.6,142.6-59.1c57.1-12.7,126.2,6.7,183.7,0.1c78.8-9.2,123.1-38.2,179.8-78.3"/>
			<path class="st17" d="M-490,435c37.6-24.7,78.1-49.4,125.4-58.6c61.8-12,111.3,21.5,174.3,6.3c60-14.4,110.9-54.2,172.3-63
				c62.5-8.9,118.6,16.9,182-1.7c63.4-18.6,110-63.3,174.1-76.1c70.9-14.1,141.8,17.7,212.9,4c70.3-13.5,110.1-61.8,180.3-75.3
				c66.6-12.8,117.3,20,200.2,2.9c50.3-10.4,88.4-41.5,135.3-58.7c72.1-26.6,119.2,3.3,194.1-8.1c51.7-7.9,95.4-49,142.4-59.2
				c56.6-12.3,124.3,7,181.3,0.7c78.4-8.7,123.5-38.2,179.6-78.6"/>
			<path class="st18" d="M-485.3,459.9c37.8-25.1,78.6-50.3,126.4-59.6c61.6-12.1,111.4,20.8,174.1,6.1
				c60.3-14.2,111.3-54,172.8-63.3c62.9-9.5,119.4,16.4,183.1-2c61.3-17.7,109.6-63,173.3-76c71.2-14.4,142.5,17.7,214,4
				c70.8-13.5,110.2-61.9,180.9-75.3c66.1-12.6,115.4,20.2,198.9,2.9c50.2-10.4,88-41.4,134.8-58.6c72.6-26.9,119.7,3.1,195.4-8.6
				c51.6-8,95.4-49.4,142.2-59.3c56.1-11.8,122.4,7.3,178.8,1.4c78-8.3,123.8-38.2,179.3-78.8"/>
			<path class="st19" d="M-480.5,484.8c38-25.6,79.1-51.1,127.4-60.6c61.4-12.1,111.4,20.2,174,5.8c60.7-13.9,111.6-53.7,173.2-63.6
				c61.5-9.9,120.2,16,184.1-2.2s109.1-62.8,172.6-75.8c71.6-14.8,143.2,17.7,215.1,4c71.3-13.5,110.2-61.9,181.5-75.3
				c65.7-12.3,113.5,20.3,197.6,2.9c50.1-10.3,87.6-41.4,134.2-58.5c73.1-27.2,120.1,2.9,196.6-9c51.5-8,95.4-49.8,142-59.4
				c55.6-11.4,120.5,7.7,176.4,2c77.6-7.9,124.2-38.1,179.1-79.1"/>
			<path class="st20" d="M-475.7,509.7c38.2-26,79.6-51.9,128.3-61.6c61.2-12.2,111.6,19.5,173.9,5.6c61-13.7,112-53.5,173.6-64
				c63.5-10.9,121.1,15.5,185.2-2.5c61-17.1,108.7-62.5,171.8-75.7c71.9-15.1,143.9,17.7,216.2,4c71.8-13.5,110.3-62,182.1-75.4
				c65.3-12.1,111.6,20.4,196.2,2.9c50-10.3,87.2-41.3,133.6-58.5c73.6-27.5,120.6,2.7,197.9-9.4c51.3-8.1,95.4-50.2,141.8-59.5
				c55.1-11,118.6,8,173.9,2.6c77.1-7.4,124.5-38.1,178.8-79.3"/>
			<path class="st21" d="M-471,534.6c38.4-26.4,80.1-52.8,129.3-62.6c61-12.2,111.6,18.9,173.7,5.3c62.1-13.6,112.4-53.2,174-64.3
				c63.9-11.5,121.9,15,186.3-2.7c60.9-16.8,108.3-62.2,171-75.6c72.2-15.4,144.6,17.6,217.3,4C653,325,691,276.5,763.3,263.2
				c64.8-11.9,109.7,20.6,194.9,3c49.9-10.3,86.8-41.2,133-58.4c74.1-27.8,121.1,2.5,199.1-9.9c51.2-8.1,95.4-50.7,141.6-59.6
				c54.6-10.6,116.7,8.3,171.5,3.3c76.7-7,124.9-38.1,178.6-79.5"/>
			<path class="st22" d="M-466.2,559.5c38.6-26.8,80.6-53.6,130.2-63.6c60.8-12.3,111.7,18.3,173.6,5.1
				c61.7-13.2,112.7-53,174.4-64.7c64.2-12.2,122.7,14.5,187.4-3c60.8-16.5,107.9-62,170.3-75.5c72.5-15.7,145.3,17.6,218.4,4
				c72.8-13.6,110.4-62.2,183.3-75.4c64.4-11.7,107.8,20.7,193.6,3c49.8-10.3,86.3-41.2,132.4-58.3c74.7-28.1,121.6,2.5,200.4-10.3
				c51.1-8.1,95.5-51.1,141.4-59.7c54.1-10.2,114.8,8.6,169,3.9c76.3-6.5,125.2-38,178.3-79.8"/>
			<path class="st23" d="M-461.4,584.4c38.8-27.2,81.1-54.5,131.2-64.6c60.6-12.3,111.8,17.6,173.5,4.8c62-12.9,113.1-52.8,174.8-65
				c64.5-12.8,123.5,14.1,188.4-3.3c60.6-16.1,107.4-61.7,169.5-75.4c72.8-16.1,146,17.6,219.5,4c73.3-13.6,110.5-62.3,183.9-75.5
				c64-11.5,105.9,20.9,192.3,3c49.7-10.3,85.9-41.1,131.8-58.3c75.2-28.4,122,2.3,201.7-10.7c51-8.1,95.5-51.5,141.2-59.9
				c53.6-9.8,112.9,8.9,166.6,4.6c75.9-6.1,125.6-38,178.1-80"/>
			<path class="st24" d="M-456.7,609.4c39-27.7,81.6-55.2,132.1-65.6c60.4-12.2,111.9,17,173.3,4.6c62.4-12.6,113.5-52.5,175.2-65.4
				c64.9-13.5,124.3,13.6,189.5-3.5c60.5-15.8,107-61.4,168.7-75.3c73.1-16.4,146.7,17.6,220.6,4c73.9-13.6,110.5-62.4,184.5-75.5
				c63.5-11.2,104,21,190.9,3c49.6-10.3,85.5-41,131.2-58.2c75.7-28.7,122.5,2.1,202.9-11.1c50.9-8.2,95.5-51.9,141-60
				c53.1-9.4,111,9.2,164.1,5.2c75.5-5.7,126-38,177.8-80.2"/>
			<path class="st25" d="M-451.9,634.3c39.2-28.1,82-56.1,133.1-66.6c60.2-12.3,112,16.4,173.2,4.3c62.7-12.4,113.9-52.3,175.7-65.7
				c65.2-14.1,125.1,13.1,190.6-3.8c60.4-15.5,106.6-61.2,168-75.2c73.4-16.7,147.4,17.6,221.6,4c74.4-13.6,110.6-62.5,185-75.5
				c63.1-11,102.1,21.1,189.6,3c49.5-10.2,85.1-41,130.6-58.1c76.2-29,123,1.9,204.1-11.6c50.7-8.2,95.5-52.3,140.8-60.1
				c52.6-9,109.1,9.5,161.6,5.9c75.1-5.2,126.3-37.9,177.6-80.5"/>
			<path class="st26" d="M-447.1,659.2c39.4-28.5,82.5-56.9,134.1-67.7c60-12.3,112.1,15.7,173.1,4.1
				c63.1-12.1,114.2-52.1,176.1-66.1c65.5-14.8,125.9,12.6,191.7-4c60.2-15.2,106.1-60.9,167.2-75.1c73.8-17.1,148.1,17.6,222.7,3.9
				c74.9-13.7,110.7-62.6,185.6-75.6c62.7-10.8,100.3,21.3,188.3,3.1c49.4-10.2,84.7-40.9,130-58.1c76.7-29.2,123.4,1.7,205.4-12
				c50.6-8.3,95.5-52.8,140.6-60.2c52.1-8.6,107.2,9.8,159.2,6.5c74.7-4.8,126.7-37.9,177.3-80.7"/>
			<path class="st27" d="M-442.3,684.1c39.7-28.9,83-57.7,135-68.7c59.9-12.4,112.2,15.1,173,3.8c63.4-11.8,114.6-51.9,176.5-66.4
				c65.8-15.5,126.7,12,192.7-4.3c60.1-15.1,105.7-60.6,166.4-74.9c74.1-17.4,148.8,17.6,223.8,3.9c75.4-13.7,110.7-62.7,186.2-75.6
				c62.2-10.6,98.4,21.4,187,3.1c49.3-10.2,84.3-40.8,129.4-58c77.2-29.5,123.9,1.5,206.7-12.4c50.5-8.3,95.5-53.3,140.4-60.3
				c51.6-8.3,105.4,10.2,156.7,7.2c74.3-4.3,127-37.9,177.1-81"/>
			<path class="st28" d="M-437.6,709c39.9-29.3,83.5-58.6,136-69.7c59.6-12.5,112.3,14.5,172.8,3.6c63.7-11.5,115-51.7,176.9-66.8
				c66.2-16.2,127.5,11.5,193.8-4.6c59.9-14.8,105.3-60.4,165.7-74.8c74.4-17.8,149.5,17.6,224.9,3.9
				c75.9-13.7,110.8-62.8,186.8-75.6c61.8-10.4,96.5,21.6,185.7,3.1c49.1-10.2,83.9-40.8,128.8-57.9c77.7-29.8,124.4,1.3,207.9-12.8
				c50.4-8.4,95.5-53.7,140.2-60.4c51.1-7.9,103.5,10.6,154.3,7.8c73.9-3.7,127.4-37.9,176.8-81.2"/>
			<path class="st29" d="M-432.8,733.9c40-29.8,84-59.4,136.9-70.7c59.5-12.5,112.4,13.9,172.7,3.3c64.1-11.2,115.3-51.4,177.3-67.1
				c66.5-16.8,128.4,11,194.9-4.8c59.8-14.4,104.8-60.3,164.9-74.7c74.7-18.3,150.2,17.5,226,3.9c76.4-13.7,110.8-63.1,187.4-75.6
				c61.3-10.3,94.6,21.7,184.3,3.1c49-10.2,83.5-40.7,128.2-57.8c78.2-30.1,124.8,1.1,209.2-13.3c50.2-8.4,95.6-54.1,140-60.5
				c50.6-7.4,101.6,10.9,151.8,8.5c73.5-3.3,127.8-37.8,176.5-81.5"/>
			<path class="st30" d="M-428,758.8c40.3-30.2,84.5-60.3,137.9-71.7c59.3-12.6,112.5,13.3,172.6,3.1c64.4-11,115.7-51.3,177.7-67.5
				c66.8-17.6,129.2,10.6,195.9-5.1c59.7-14.1,104.4-60,164.1-74.6c75-18.6,150.9,17.5,227.1,3.9c76.9-13.7,110.9-63.2,188-75.7
				c60.9-10.1,92.7,21.8,183,3.1c48.9-10.1,83-40.6,127.6-57.8c78.8-30.4,125.3,0.9,210.4-13.7c50.1-8.5,95.6-54.5,139.8-60.6
				c50.1-7,99.6,11.2,149.4,9.1c73.1-2.9,128.1-37.8,176.3-81.7"/>
			<path class="st31" d="M-423.3,783.7c40.5-30.6,85-61.1,138.8-72.7c59.1-12.6,112.7,12.8,172.4,2.8C-47.2,703.3,4,662.8,66.1,646
				c67.1-18.3,130,10.1,197-5.3c59.5-13.8,103.9-59.7,163.4-74.5c75.3-18.9,151.6,17.5,228.2,3.9c77.4-13.8,110.9-63.2,188.6-75.7
				c60.5-9.8,90.8,22,181.7,3.2c48.9-10.1,82.6-40.6,127-57.7c79.3-30.7,125.8,0.7,211.7-14.1c50-8.6,95.6-55,139.6-60.8
				c49.6-6.6,97.8,11.5,146.9,9.8c72.6-2.4,128.5-37.8,176-81.9"/>
			<path class="st32" d="M-418.5,808.7c40.7-31,85.4-62,139.8-73.7c58.9-12.7,112.8,12.1,172.3,2.6c65.1-10.3,116.4-50.8,178.5-68.2
				c67.4-18.9,130.8,9.6,198.1-5.6c59.4-13.5,103.5-59.4,162.6-74.4c75.6-19.2,152.4,17.5,229.3,3.9c77.9-13.8,111-63.3,189.2-75.7
				c60-9.6,88.9,22.1,180.4,3.2c48.7-10.1,82.2-40.5,126.4-57.6c79.8-31,126.2,0.5,212.9-14.5c49.9-8.6,95.6-55.4,139.4-60.9
				c49.1-6.2,95.9,11.8,144.5,10.4c72.2-2,128.8-37.7,175.8-82.2"/>
			<path class="st33" d="M-413.7,833.6c40.9-31.4,85.9-62.8,140.7-74.7c58.7-12.7,112.8,11.5,172.2,2.3
				c65.4-10.1,116.8-50.6,179-68.5c67.8-19.5,131.6,9.2,199.1-5.8c59.3-13.2,103.1-59.1,161.9-74.3c75.9-19.5,153.1,17.5,230.4,3.9
				c78.5-13.8,111.1-63.4,189.8-75.8c59.6-9.4,87,22.3,179,3.2c48.6-10.1,81.8-40.4,125.8-57.5c80.3-31.3,126.7,0.3,214.2-15
				c49.8-8.7,95.6-55.8,139.2-61c48.6-5.8,94,12.1,142,11c71.8-1.6,129.2-37.7,175.5-82.4"/>
		</mask>
		<g class="st34">
			<rect class="st35" width="737" height="232"/>
		</g>
	</g>
</g>
</svg>
