<?xml version="1.0" encoding="utf-8"?>
<!-- Generator: Adobe Illustrator 25.2.0, SVG Export Plug-In . SVG Version: 6.00 Build 0)  -->
<svg version="1.1" id="Layer_1" xmlns="http://www.w3.org/2000/svg" xmlns:xlink="http://www.w3.org/1999/xlink" x="0px" y="0px"
	 viewBox="0 0 519.3 391.1" style="enable-background:new 0 0 519.3 391.1;" xml:space="preserve">
<style type="text/css">
	.st0{clip-path:url(#SVGID_2_);}
	
		.st1{opacity:0.35;fill:none;filter:url(#Adobe_OpacityMaskFilter);stroke:#FFFFFF;stroke-width:1.35;stroke-miterlimit:10;enable-background:new    ;}
	.st2{opacity:0.4;fill:none;stroke:#FFFFFF;stroke-width:1.92;stroke-miterlimit:10;enable-background:new    ;}
	.st3{opacity:0.45;fill:none;stroke:#FFFFFF;stroke-width:2.5;stroke-miterlimit:10;enable-background:new    ;}
	.st4{opacity:0.55;fill:none;stroke:#FFFFFF;stroke-width:3.07;stroke-miterlimit:10;enable-background:new    ;}
	.st5{opacity:0.65;fill:none;stroke:#FFFFFF;stroke-width:3.64;stroke-miterlimit:10;enable-background:new    ;}
	.st6{opacity:0.7;fill:none;stroke:#FFFFFF;stroke-width:4.22;stroke-miterlimit:10;enable-background:new    ;}
	.st7{opacity:0.75;fill:none;stroke:#FFFFFF;stroke-width:4.79;stroke-miterlimit:10;enable-background:new    ;}
	.st8{opacity:0.8;fill:none;stroke:#FFFFFF;stroke-width:5.36;stroke-miterlimit:10;enable-background:new    ;}
	.st9{opacity:0.8;fill:none;stroke:#FFFFFF;stroke-width:5.94;stroke-miterlimit:10;enable-background:new    ;}
	.st10{opacity:0.85;fill:none;stroke:#FFFFFF;stroke-width:6.51;stroke-miterlimit:10;enable-background:new    ;}
	.st11{opacity:0.85;fill:none;stroke:#FFFFFF;stroke-width:7.08;stroke-miterlimit:10;enable-background:new    ;}
	.st12{opacity:0.9;fill:none;stroke:#FFFFFF;stroke-width:7.66;stroke-miterlimit:10;enable-background:new    ;}
	.st13{opacity:0.9;fill:none;stroke:#FFFFFF;stroke-width:8.23;stroke-miterlimit:10;enable-background:new    ;}
	.st14{opacity:0.95;fill:none;stroke:#FFFFFF;stroke-width:8.8;stroke-miterlimit:10;enable-background:new    ;}
	.st15{opacity:0.95;fill:none;stroke:#FFFFFF;stroke-width:9.37;stroke-miterlimit:10;enable-background:new    ;}
	.st16{fill:none;stroke:#FFFFFF;stroke-width:9.95;stroke-miterlimit:10;}
	.st17{fill:none;stroke:#FFFFFF;stroke-width:10.52;stroke-miterlimit:10;}
	.st18{fill:none;stroke:#FFFFFF;stroke-width:11.09;stroke-miterlimit:10;}
	.st19{opacity:0.95;fill:none;stroke:#FFFFFF;stroke-width:11.67;stroke-miterlimit:10;enable-background:new    ;}
	.st20{opacity:0.68;fill:none;stroke:#FFFFFF;stroke-width:12.24;stroke-miterlimit:10;enable-background:new    ;}
	.st21{opacity:0.7;fill:none;stroke:#FFFFFF;stroke-width:12.81;stroke-miterlimit:10;enable-background:new    ;}
	.st22{opacity:0.72;fill:none;stroke:#FFFFFF;stroke-width:13.39;stroke-miterlimit:10;enable-background:new    ;}
	.st23{opacity:0.75;fill:none;stroke:#FFFFFF;stroke-width:13.96;stroke-miterlimit:10;enable-background:new    ;}
	.st24{opacity:0.78;fill:none;stroke:#FFFFFF;stroke-width:14.53;stroke-miterlimit:10;enable-background:new    ;}
	.st25{opacity:0.8;fill:none;stroke:#FFFFFF;stroke-width:15.11;stroke-miterlimit:10;enable-background:new    ;}
	.st26{opacity:0.82;fill:none;stroke:#FFFFFF;stroke-width:15.68;stroke-miterlimit:10;enable-background:new    ;}
	.st27{opacity:0.85;fill:none;stroke:#FFFFFF;stroke-width:16.25;stroke-miterlimit:10;enable-background:new    ;}
	.st28{opacity:0.88;fill:none;stroke:#FFFFFF;stroke-width:16.82;stroke-miterlimit:10;enable-background:new    ;}
	.st29{opacity:0.9;fill:none;stroke:#FFFFFF;stroke-width:17.4;stroke-miterlimit:10;enable-background:new    ;}
	.st30{opacity:0.93;fill:none;stroke:#FFFFFF;stroke-width:17.97;stroke-miterlimit:10;enable-background:new    ;}
	.st31{opacity:0.95;fill:none;stroke:#FFFFFF;stroke-width:18.54;stroke-miterlimit:10;enable-background:new    ;}
	.st32{opacity:0.97;fill:none;stroke:#FFFFFF;stroke-width:19.12;stroke-miterlimit:10;enable-background:new    ;}
	.st33{fill:none;stroke:#FFFFFF;stroke-width:19.69;stroke-miterlimit:10;}
	.st34{mask:url(#mask0_1220_4029_1_);}
</style>
<g>
	<defs>
		
			<rect id="SVGID_1_" x="-58.8" y="-126" transform="matrix(0.964 -0.2659 0.2659 0.964 -44.7993 79.3522)" width="658.9" height="662.3"/>
	</defs>
	<clipPath id="SVGID_2_">
		<use xlink:href="#SVGID_1_"  style="overflow:visible;"/>
	</clipPath>
	<g class="st0">
		<defs>
			<filter id="Adobe_OpacityMaskFilter" filterUnits="userSpaceOnUse" x="-0.3" y="-20.6" width="519.6" height="447.1">
				<feColorMatrix  type="matrix" values="1 0 0 0 0  0 1 0 0 0  0 0 1 0 0  0 0 0 1 0"/>
			</filter>
		</defs>
		<mask maskUnits="userSpaceOnUse" x="-0.3" y="-20.6" width="519.6" height="447.1" id="mask0_1220_4029_1_">
			<path class="st1" d="M-819,251.7c35.6-18.7,73-37.1,114.2-44.1c67.4-11.4,113.9,33.4,182.9,10.7c56.8-18.7,108.8-60.7,171.9-59.5
				c59.3,1.1,109.4,25.1,171,2.6c65.8-24.1,121.1-70.6,193.3-80.7c68.2-9.6,135.3,18.6,202.7,4.3c64.4-13.7,113-62.9,177.2-77.5
				C470.3-10,547.3,25.7,623.8,10c53.9-11.1,98.5-44.2,150.3-62c66.3-22.8,115.9,7,180.6-1.4c55.7-7.2,98.6-44,151-59.5
				c66.9-19.7,160.5,2.4,228.7-10c88.1-16,122.1-40.1,190.5-77.5"/>
			<path class="st2" d="M-814.1,277.5c35.8-19.1,73.5-38,115.2-45.1c67.2-11.4,114,32.8,182.8,10.4c57.1-18.5,109.2-60.4,172.3-59.9
				c59.7,0.4,110.2,24.6,172.1,2.3c65.6-23.8,120.7-70.3,192.5-80.6c68.6-10,136,18.6,203.9,4.3c64.9-13.7,113.1-63,177.8-77.6
				c75.7-17.1,151.1,18.6,228.2,2.7c53.8-11.1,98.1-44.1,149.6-62c66.8-23.1,116.4,6.8,181.9-1.8c55.6-7.2,98.6-44.5,150.8-59.6
				c66.4-19.3,158.5,2.7,226.2-9.3c87.7-15.6,122.5-40.1,190.2-77.8"/>
			<path class="st3" d="M-809.1,303.3c36-19.5,74-38.9,116.2-46.2c67-11.5,114.1,32.1,182.6,10.2c57.5-18.2,109.6-60.2,172.7-60.3
				c60-0.2,111.1,24.1,173.2,2c65.5-23.4,120.2-70,191.7-80.5c68.9-10.3,136.8,18.6,205,4.3c65.5-13.7,113.2-63.1,178.5-77.6
				C486,38.4,559.9,74,637.6,58c53.7-11.1,97.7-44.1,149-61.9C854-27.4,903.5,2.6,969.8-6.2c55.4-7.3,98.6-44.9,150.6-59.7
				c65.9-18.9,156.6,3,223.7-8.6c87.3-15.1,122.8-40,190-78"/>
			<path class="st4" d="M-804.2,329.2c36.2-20,74.5-39.8,117.2-47.2c66.8-11.6,114.2,31.3,182.5,9.9
				c57.8-18.1,109.9-59.8,173.2-60.6c60.4-0.8,111.9,23.7,174.3,1.7c65.4-23.1,119.8-69.7,190.9-80.4
				c69.2-10.6,137.5,18.5,206.1,4.3c66-13.7,113.2-63.2,179.1-77.6c74.8-16.6,147.2,18.9,225.5,2.8c53.6-11,97.3-44,148.4-61.8
				c67.9-23.7,117.4,6.4,184.5-2.7c55.3-7.4,98.6-45.3,150.4-59.9c65.4-18.4,154.6,3.4,221.1-8c86.8-14.7,123.2-40,189.7-78.3"/>
			<path class="st5" d="M-799.2,355c36.4-20.4,75-40.6,118.2-48.3c66.6-11.6,114.3,30.6,182.3,9.6c58.1-17.9,110.3-59.5,173.6-61
				c60.7-1.4,112.8,23.2,175.4,1.5c65.2-22.8,119.4-69.4,190.1-80.3c69.5-11,138.2,18.5,207.3,4.2c66.5-13.7,113.3-63.3,179.7-77.7
				c74.4-16.4,145.2,19,224.1,2.8c53.5-11,96.8-43.9,147.8-61.8c68.4-24,117.8,6.1,185.8-3.1c55.2-7.4,98.6-45.8,150.2-60
				c64.9-18,152.6,3.7,218.6-7.3c86.4-14.2,123.6-40,189.4-78.5"/>
			<path class="st6" d="M-794.3,380.8c36.7-20.8,75.5-41.5,119.2-49.3c66.4-11.7,114.4,29.8,182.2,9.4
				c58.5-17.6,110.7-59.2,174-61.3c61.1-2.1,113.6,22.7,176.5,1.2c65.1-22.4,118.9-69,189.3-80.2c69.9-11.1,139,18.5,208.4,4.2
				c67.1-13.8,113.4-63.2,180.3-77.7c74-16,143.3,19.2,222.8,2.8c53.4-11,96.4-43.9,147.2-61.7c68.9-24.3,118.3,5.9,187.1-3.6
				c55-7.5,98.7-46.2,150-60.1c64.3-17.6,150.6,4,216-6.6c86-13.8,123.9-39.9,189.2-78.8"/>
			<path class="st7" d="M-789.4,406.7c36.9-21.3,76-42.4,120.2-50.4c66.2-11.7,114.4,29.1,182.1,9.1
				c58.8-17.4,111.1-58.9,174.4-61.7c61.4-2.7,114.4,22.2,177.6,0.9c65-22.1,118.5-68.6,188.5-80c70-11.4,139.7,18.5,209.5,4.2
				c67.6-13.8,113.5-63.3,180.9-77.7c73.5-15.7,141.3,19.3,221.4,2.8c53.2-11,96-43.8,146.6-61.6c69.4-24.6,118.8,5.7,188.4-4
				c54.9-7.5,98.7-46.6,149.8-60.2c63.8-17.2,148.7,4.3,213.5-6c85.6-13.3,124.3-39.9,188.9-79"/>
			<path class="st8" d="M-784.4,432.5c37.1-21.7,76.6-43.3,121.2-51.4c66-11.8,114.5,28.4,181.9,8.9
				c59.1-17.2,111.5-58.6,174.9-62.1c61.7-3.3,115.3,21.8,178.8,0.7c64.9-21.7,118.1-68.3,187.7-79.9
				c70.6-11.8,140.4,18.5,210.6,4.2c68.1-13.8,113.6-63.4,181.5-77.8c73.1-15.5,139.3,19.5,220,2.8c53.1-11,95.5-43.7,145.9-61.5
				c70-24.9,119.3,5.5,189.7-4.5c54.8-7.6,98.7-47.1,149.6-60.3c63.3-16.7,146.7,4.6,210.9-5.3c85.1-12.9,124.7-39.9,188.6-79.3"/>
			<path class="st9" d="M-779.5,458.4c37.3-22.2,77.1-44.1,122.2-52.4c65.8-11.8,114.6,27.7,181.8,8.6
				c59.5-16.9,111.9-58.3,175.3-62.4c62.1-4,116.2,21.4,179.9,0.4c64.7-21.3,117.6-68,186.9-79.8c70.9-12.1,141.2,18.5,211.8,4.2
				c68.6-13.8,113.6-63.4,182.1-77.8c72.6-15.2,137.4,19.6,218.6,2.9c53-10.9,95.1-43.6,145.3-61.5c70.5-25.2,119.8,5.3,191-4.9
				c54.7-7.6,98.7-47.5,149.4-60.4c62.8-16.3,144.7,4.9,208.4-4.6c84.7-12.4,125.1-39.8,188.4-79.5"/>
			<path class="st10" d="M-774.5,484.2c37.5-22.6,77.5-45.1,123.2-53.5c65.5-12,114.7,27,181.7,8.4c59.8-16.7,112.3-58.1,175.7-62.8
				c62.4-4.6,117.1,20.9,181,0.1c64.6-21,117.2-67.7,186.1-79.7c71.2-12.4,141.9,18.5,212.9,4.2c69.2-13.8,113.7-63.5,182.7-77.8
				c72.2-15,135.4,19.8,217.3,2.9c52.9-10.9,94.7-43.6,144.7-61.4c71-25.5,120.3,5.1,192.3-5.3c54.5-7.7,98.7-47.9,149.2-60.6
				c62.3-15.9,142.7,5.1,205.8-4c84.3-12.1,125.4-39.8,188.1-79.8"/>
			<path class="st11" d="M-769.6,510c37.7-23,78-46,124.2-54.5c65.3-12.1,114.8,26.3,181.5,8.1c60.2-16.5,112.7-57.8,176.2-63.1
				c62.8-5.3,117.9,20.4,182.1-0.1c64.5-20.6,116.7-67.4,185.3-79.6c71.6-12.7,142.6,18.4,214,4.2c69.7-13.9,113.8-63.6,183.3-77.9
				C548.8,232.4,610.5,267,693,250c52.8-10.9,94.3-43.5,144.1-61.3c71.6-25.8,120.7,4.7,193.6-5.8c54.4-7.9,98.8-48.3,148.9-60.7
				c61.8-15.3,140.8,5.4,203.3-3.3c83.8-11.7,125.8-39.8,187.8-80"/>
			<path class="st12" d="M-764.6,535.9c37.9-23.5,78.5-46.9,125.1-55.6c65.1-12.2,114.9,25.7,181.4,7.8
				c60.5-16.2,113.1-57.5,176.6-63.5c63.1-5.9,118.8,19.9,183.2-0.4c64.4-20.3,116.3-67.1,184.5-79.5c71.9-13,143.4,18.4,215.2,4.2
				c70.2-13.9,113.8-63.7,184-77.9c71.3-14.5,131.5,20,214.5,2.9c52.7-10.9,93.8-43.4,143.5-61.2c72.1-26.1,121.2,4.5,194.9-6.2
				c54.3-7.9,98.8-48.7,148.7-60.8c61.3-14.9,138.8,5.8,200.8-2.6c83.4-11.3,126.2-39.8,187.6-80.2"/>
			<path class="st13" d="M-759.7,561.7c38.2-23.9,79-47.7,126.1-56.6c64.9-12.2,115,25,181.3,7.6c60.9-16,113.4-57.3,177-63.9
				c63.5-6.6,119.6,19.4,184.3-0.7c64.2-20,115.9-66.8,183.7-79.4c72.2-13.3,144.1,18.4,216.3,4.2c70.8-13.9,113.9-63.7,184.6-77.9
				c70.8-14.2,129.5,20.2,213.1,2.9c52.6-10.8,93.4-43.4,142.9-61.2c72.6-26.4,121.7,4.3,196.2-6.7c54.2-8,98.8-49.1,148.5-60.9
				c60.8-14.4,136.8,6.1,198.2-1.9c83-10.8,126.6-39.7,187.3-80.5"/>
			<path class="st14" d="M-754.7,587.5c38.4-24.3,79.5-48.6,127.1-57.6c64.7-12.3,115.1,24.3,181.1,7.3
				c61.2-15.7,113.8-57,177.5-64.2c63.8-7.2,120.5,19,185.4-1c64.1-19.6,115.4-66.5,183-79.2c72.5-13.7,144.8,18.4,217.4,4.2
				c71.3-13.9,114-63.8,185.2-78c70.4-14,127.6,20.3,211.8,2.9c52.5-10.8,93-43.3,142.2-61.1c73.2-26.7,122.2,4.1,197.5-7.1
				c54-8,98.9-49.5,148.3-61c60.2-14,134.8,6.4,195.7-1.3c82.5-10.4,126.9-39.7,187-80.8"/>
			<path class="st15" d="M-749.8,613.4c38.6-24.8,80-49.5,128.1-58.7c64.5-12.3,115.2,23.6,181,7.1c61.6-15.5,114.2-56.7,177.9-64.6
				c64.2-7.9,121.3,18.5,186.5-1.2c64-19.3,115-66.2,182.2-79.1c72.9-14,145.6,18.4,218.6,4.2c71.8-13.9,114-63.9,185.8-78
				c69.9-13.7,125.6,20.5,210.4,3c52.4-10.8,92.6-43.2,141.6-61c73.7-27,122.7,3.9,198.8-7.6c53.9-8.1,98.9-50,148.1-61.1
				c59.7-13.6,132.9,6.7,193.1-0.6c82.1-9.9,127.3-39.7,186.8-81"/>
			<path class="st16" d="M-744.8,639.2c38.8-25.2,80.5-50.4,129.1-59.7c64.3-12.4,115.3,22.9,180.9,6.8
				c61.9-15.2,114.6-56.5,178.3-64.9c64.5-8.6,122.2,18,187.6-1.5c65.5-19.5,114.5-65.9,181.4-79c73.2-14.3,146.3,18.4,219.7,4.2
				c72.4-14,114.1-64,186.4-78c69.5-13.5,123.6,20.6,209,3c52.3-10.8,92.1-43.1,141-60.9c74.2-27.3,123.1,3.7,200-8
				c53.8-8.2,98.9-50.4,147.9-61.3c59.2-13.1,130.9,7,190.6,0.1c81.7-9.5,127.7-39.6,186.5-81.2"/>
			<path class="st17" d="M-739.9,665.1c39-25.6,81-51.3,130.1-60.8c64.1-12.4,115.4,22.3,180.7,6.5c62.2-15,115-56.2,178.7-65.3
				c64.9-9.2,123,17.5,188.8-1.8C4.2,524.5,52.5,478.1,119,464.9c73.5-14.6,147,18.4,220.8,4.2c72.9-14,114.2-64.1,187-78.1
				c69.1-13.3,121.7,20.8,207.7,3c52.2-10.8,91.7-43.1,140.4-60.9c74.8-27.6,123.6,3.4,201.3-8.4c53.6-8.2,98.9-50.8,147.7-61.4
				c58.7-12.7,128.9,7.3,188,0.7c81.3-9.1,128-39.6,186.2-81.5"/>
			<path class="st18" d="M-734.9,690.9c39.2-26.1,81.5-52.1,131.1-61.8c63.9-12.5,115.5,21.6,180.6,6.3
				c62.6-14.7,115.4-56,179.2-65.7c65.2-9.9,123.9,17,189.9-2c63.6-18.3,113.6-65.4,179.8-78.8c73.9-15,147.8,18.4,222,4.1
				c73.4-14,114.2-64.2,187.6-78.1c68.6-13,119.7,20.9,206.3,3c52.1-10.8,91.3-43,139.8-60.8c75.3-27.9,124.1,3.2,202.7-8.9
				c53.5-8.3,98.9-51.2,147.5-61.5c58.2-12.3,127,7.6,185.5,1.4c80.9-8.6,128.4-39.6,186-81.7"/>
			<path class="st19" d="M-730,716.7c39.4-26.5,82-53,132.1-62.9c63.7-12.5,115.6,20.9,180.5,6c62.9-14.5,115.8-55.7,179.6-66
				c63.8-10.3,124.7,16.5,191-2.3c66.3-18.8,113.2-65.1,179-78.7c74.2-15.3,148.5,18.3,223.1,4.1c73.9-14,114.3-64.2,188.2-78.1
				c68.2-12.8,117.7,21.1,204.9,3c52-10.7,90.8-42.9,139.1-60.7c75.8-28.2,124.6,3,203.9-9.3c53.4-8.3,99-51.7,147.3-61.6
				c57.7-11.9,125,7.9,182.9,2.1c80.4-8.1,128.8-39.5,185.7-82"/>
			<path class="st20" d="M-725,742.6c39.6-26.9,82.6-53.9,133.1-63.9c63.5-12.6,115.7,20.3,180.3,5.8c63.3-14.2,116.2-55.5,180-66.4
				c65.9-11.3,125.5,16.1,192.1-2.6c63.3-17.7,112.7-64.8,178.2-78.5c74.5-15.6,149.2,18.3,224.2,4.1c74.5-14,114.4-64.3,188.8-78.2
				c67.7-12.6,115.8,21.2,203.5,3.1c51.8-10.7,90.4-42.8,138.5-60.7c76.4-28.5,125.1,2.8,205.2-9.8c53.2-8.4,99-52.1,147.1-61.7
				c57.2-11.4,123,8.3,180.4,2.7c80-7.7,129.2-39.5,185.5-82.2"/>
			<path class="st21" d="M-720.1,768.4c39.8-27.4,83.1-54.7,134.1-64.9c63.3-12.7,115.8,19.6,180.2,5.5s116.6-55.2,180.5-66.7
				c66.2-11.9,126.4,15.6,193.2-2.8C31,622,80.1,574.9,145.2,561c74.9-16,150,18.3,225.3,4.1c75-14.1,114.4-64.4,189.5-78.2
				c67.3-12.3,113.8,21.3,202.2,3.1c51.7-10.7,90-42.8,137.9-60.6c76.9-28.8,125.6,2.6,206.5-10.2c53.1-8.4,99-52.5,146.9-61.8
				c56.7-11,121.1,8.6,177.8,3.4c79.6-7.2,129.5-39.5,185.2-82.5"/>
			<path class="st22" d="M-715.2,794.2c40-27.8,83.6-55.6,135.1-66c63.1-12.7,115.9,18.9,180.1,5.3c64-13.7,116.9-55,180.9-67.1
				c66.6-12.6,127.2,15.1,194.3-3.1C38.2,646.2,87,599,151.8,585c75.2-16.3,150.7,18.3,226.5,4.1c75.5-14.1,114.5-64.5,190.1-78.2
				c66.8-12.1,111.8,21.5,200.8,3.1c51.6-10.7,89.5-42.7,137.3-60.5c77.4-29.1,126.1,2.6,207.8-10.7c53-8.4,99-53,146.6-62
				c56.1-10.6,119.1,8.9,175.3,4.1c79.2-6.8,129.9-39.4,184.9-82.7"/>
			<path class="st23" d="M-710.2,820.1c40.3-28.2,84.1-56.5,136.1-67c62.9-12.8,116,18.3,179.9,5c64.3-13.4,117.3-54.7,181.3-67.5
				c66.9-13.3,128.1,14.6,195.4-3.4c62.9-16.7,111.4-64,175.8-78.2c75.5-16.7,151.4,18.3,227.6,4.1c76.1-14.1,114.6-64.6,190.7-78.3
				C643,523,686.5,556.5,776,538c51.5-10.7,89.1-42.6,136.7-60.4c78-29.4,126.6,2.4,209.1-11.1c52.9-8.4,99-53.4,146.4-62.1
				c55.6-10.2,117.1,9.2,172.8,4.8c78.7-6.3,130.3-39.4,184.7-83"/>
			<path class="st24" d="M-705.3,845.9c40.5-28.7,84.6-57.3,137-68.1c62.7-12.7,116.1,17.6,179.8,4.7
				c64.7-13.1,117.7-54.5,181.8-67.8c67.3-14,128.9,14.1,196.5-3.6c62.7-16.4,111-63.7,175-78.1c75.8-17,152.1,18.3,228.7,4.1
				c76.6-14.1,114.6-64.7,191.3-78.3c65.9-11.7,107.9,21.8,198,3.1c51.4-10.6,88.7-42.6,136.1-60.4c78.5-29.7,127,2.2,210.4-11.6
				c52.7-8.5,99-53.9,146.2-62.2c55.1-9.7,115.2,9.5,170.2,5.4c78.3-5.9,130.7-39.4,184.4-83.2"/>
			<path class="st25" d="M-700.3,871.8c40.7-29.1,85.1-58.1,138-69.1c62.5-12.7,116.2,17,179.7,4.5c65-12.8,118.1-54.3,182.2-68.2
				c67.6-14.7,129.8,13.6,197.7-3.9c62.6-16.1,110.5-63.4,174.2-78c76.2-17.4,152.9,18.2,229.9,4.1c77.1-14.1,114.7-64.8,191.9-78.3
				c65.5-11.4,105.9,21.9,196.7,3.2c51.3-10.6,88.3-42.5,135.4-60.3c79-30,127.5,1.9,211.7-12c52.6-8.5,99.1-54.3,146-62.3
				c54.6-9.3,113.2,9.9,167.7,6.1c77.9-5.4,131-39.4,184.2-83.5"/>
			<path class="st26" d="M-695.4,897.6c40.9-29.6,85.6-59,139-70.2c62.3-12.8,116.3,16.3,179.5,4.2c65.4-12.5,118.5-54,182.6-68.5
				c67.9-15.4,130.6,13.1,198.8-4.2C67,743.1,114.6,695.7,178,681.1c76.5-17.7,153.6,18.2,231,4.1c77.7-14.2,114.8-64.9,192.5-78.4
				c65-11.2,104,22.1,195.3,3.2c51.2-10.6,87.8-42.4,134.8-60.2c79.6-30.3,128,1.7,213-12.4c52.5-8.6,99.1-54.7,145.8-62.4
				c54.1-8.9,111.2,10.2,165.1,6.8c77.5-4.9,131.4-39.3,183.9-83.7"/>
			<path class="st27" d="M-690.4,923.4c41.1-30,86.1-59.9,140-71.2c62.1-12.9,116.4,15.7,179.4,4c65.7-12.3,118.9-53.8,183-68.9
				c68.3-16.1,131.4,12.4,199.9-4.5c62.3-15.6,109.6-62.9,172.6-77.7c76.8-18.1,154.3,18.2,232.1,4.1
				c78.2-14.2,114.8-65.1,193.1-78.4c64.5-11,102,22.2,193.9,3.2c51.1-10.6,87.4-42.4,134.2-60.1c80.1-30.6,128.5,1.5,214.3-12.9
				c52.4-8.6,99.1-55.3,145.6-62.5c53.5-8.6,109.3,10.5,162.6,7.4c77-4.5,131.8-39.3,183.6-84"/>
			<path class="st28" d="M-685.5,949.3c41.3-30.4,86.6-60.8,141-72.3c61.9-12.9,116.5,15,179.2,3.7c66.1-12,119.2-53.6,183.5-69.3
				c68.6-16.8,132.3,11.9,201-4.7c62.2-15.3,109.2-62.6,171.8-77.6c77.1-18.4,155.1,18.2,233.3,4.1c78.7-14.2,114.9-65.2,193.7-78.4
				c64.1-10.8,100,22.4,192.5,3.2c51-10.5,87-42.3,133.6-60.1c80.6-30.9,129,1.3,215.6-13.3c52.2-8.7,99.1-55.7,145.4-62.7
				c53-8.2,107.3,11,160,8.1c76.6-3.9,132.1-39.3,183.4-84.2"/>
			<path class="st29" d="M-680.5,975.1c41.5-30.9,87.1-61.6,142-73.3c61.7-13,116.6,14.4,179.1,3.4c66.5-11.7,119.6-53.3,183.9-69.6
				c69-17.5,133.1,11.5,202.1-5c62-15,108.7-62.5,171-77.5c77.4-18.9,155.8,18.2,234.4,4.1c79.3-14.2,114.9-65.4,194.4-78.5
				c63.6-10.7,98.1,22.5,191.2,3.2c50.9-10.5,86.5-42.2,133-60c81.1-31.2,129.5,1.1,216.9-13.8c52.1-8.8,99.1-56.1,145.2-62.8
				c52.5-7.7,105.3,11.3,157.5,8.8c76.2-3.4,132.5-39.2,183.1-84.5"/>
			<path class="st30" d="M-675.6,1000.9c41.8-31.3,87.6-62.5,143-74.3c61.5-13,116.7,13.8,179,3.2c66.8-11.4,120-53.2,184.3-70
				c69.3-18.3,134,11,203.2-5.3c61.9-14.6,108.2-62.2,170.2-77.4c77.8-19.3,156.5,18.2,235.5,4.1c79.8-14.2,115-65.5,195-78.5
				c63.2-10.4,96.1,22.7,189.8,3.2c50.8-10.5,86.1-42.1,132.3-59.9c81.7-31.5,130,0.9,218.2-14.2c52-8.8,99.1-56.6,145-62.9
				c52-7.3,103.4,11.6,154.9,9.4c75.8-3,132.9-39.2,182.8-84.7"/>
			<path class="st31" d="M-670.6,1026.8c42-31.7,88.1-63.4,144-75.4c61.2-13.1,116.8,13.2,178.8,2.9c67.2-11,120.3-53,184.7-70.3
				c69.6-18.9,134.8,10.5,204.3-5.5c61.8-14.3,107.8-61.9,169.5-77.3c78.1-19.6,157.3,18.2,236.7,4.1
				c80.3-14.3,115.1-65.6,195.6-78.5c62.7-10.2,94.2,22.8,188.4,3.3c50.7-10.5,85.7-42.1,131.7-59.8c82.2-31.8,130.4,0.7,219.5-14.6
				c51.8-8.9,99.2-57,144.8-63c51.5-6.9,101.4,11.9,152.4,10.1c75.3-2.5,133.3-39.2,182.6-85"/>
			<path class="st32" d="M-665.7,1052.6c42.2-32.2,88.6-64.3,145-76.4c61-13.1,116.9,12.6,178.7,2.7
				c67.5-10.7,120.7-52.7,185.2-70.7c69.9-19.6,135.7,10,205.4-5.8c61.6-14,107.4-61.6,168.7-77.2c78.4-19.9,158,18.1,237.8,4
				c80.8-14.3,115.1-65.7,196.2-78.6c62.3-10,92.2,22.9,187.1,3.3c50.5-10.5,85.3-42,131.1-59.8c82.7-32.1,130.9,0.5,220.8-15.1
				c51.7-8.9,99.2-57.4,144.6-63.1c51-6.4,99.4,12.2,149.8,10.8c74.9-2.1,133.6-39.1,182.3-85.2"/>
			<path class="st33" d="M-660.7,1078.5c42.4-32.6,89.1-65.1,146-77.4c60.8-13.2,117,11.9,178.6,2.4
				c67.9-10.5,121.1-52.5,185.6-71.1c70.3-20.3,136.5,9.5,206.5-6.1c61.5-13.7,106.9-61.3,167.9-77c78.7-20.3,158.7,18.1,238.9,4
				c81.4-14.3,115.2-65.8,196.8-78.6c61.8-9.7,90.2,23.1,185.7,3.3c50.4-10.4,84.8-41.9,130.5-59.7c83.3-32.4,131.4,0.3,222.1-15.5
				c51.6-9,99.2-57.9,144.3-63.2c50.4-6,97.4,12.5,147.3,11.5c74.5-1.6,134-39.1,182.1-85.5"/>
		</mask>
		<g class="st34">
			<rect x="-0.3" y="-20.6" width="519.6" height="447.1"/>
		</g>
	</g>
</g>
</svg>
