<?xml version="1.0" encoding="utf-8"?>
<!-- Generator: Adobe Illustrator 25.2.0, SVG Export Plug-In . SVG Version: 6.00 Build 0)  -->
<svg version="1.1" id="Layer_1" xmlns="http://www.w3.org/2000/svg" xmlns:xlink="http://www.w3.org/1999/xlink" x="0px" y="0px"
	 viewBox="0 0 278 101.1" style="enable-background:new 0 0 278 101.1;" xml:space="preserve">
<style type="text/css">
	.st0{clip-path:url(#SVGID_2_);}
	
		.st1{opacity:0.35;fill:none;filter:url(#Adobe_OpacityMaskFilter);stroke:#FFFFFF;stroke-width:0.9524;stroke-miterlimit:10;enable-background:new    ;}
	.st2{opacity:0.4;fill:none;stroke:#FFFFFF;stroke-width:1.3546;stroke-miterlimit:10;enable-background:new    ;}
	.st3{opacity:0.45;fill:none;stroke:#FFFFFF;stroke-width:1.7638;stroke-miterlimit:10;enable-background:new    ;}
	.st4{opacity:0.55;fill:none;stroke:#FFFFFF;stroke-width:2.1659;stroke-miterlimit:10;enable-background:new    ;}
	.st5{opacity:0.65;fill:none;stroke:#FFFFFF;stroke-width:2.568;stroke-miterlimit:10;enable-background:new    ;}
	.st6{opacity:0.7;fill:none;stroke:#FFFFFF;stroke-width:2.9772;stroke-miterlimit:10;enable-background:new    ;}
	.st7{opacity:0.75;fill:none;stroke:#FFFFFF;stroke-width:3.3794;stroke-miterlimit:10;enable-background:new    ;}
	.st8{opacity:0.8;fill:none;stroke:#FFFFFF;stroke-width:3.7815;stroke-miterlimit:10;enable-background:new    ;}
	.st9{opacity:0.8;fill:none;stroke:#FFFFFF;stroke-width:4.1907;stroke-miterlimit:10;enable-background:new    ;}
	.st10{opacity:0.85;fill:none;stroke:#FFFFFF;stroke-width:4.5929;stroke-miterlimit:10;enable-background:new    ;}
	.st11{opacity:0.85;fill:none;stroke:#FFFFFF;stroke-width:4.995;stroke-miterlimit:10;enable-background:new    ;}
	.st12{opacity:0.9;fill:none;stroke:#FFFFFF;stroke-width:5.4042;stroke-miterlimit:10;enable-background:new    ;}
	.st13{opacity:0.9;fill:none;stroke:#FFFFFF;stroke-width:5.8063;stroke-miterlimit:10;enable-background:new    ;}
	.st14{opacity:0.95;fill:none;stroke:#FFFFFF;stroke-width:6.2085;stroke-miterlimit:10;enable-background:new    ;}
	.st15{opacity:0.95;fill:none;stroke:#FFFFFF;stroke-width:6.6106;stroke-miterlimit:10;enable-background:new    ;}
	.st16{fill:none;stroke:#FFFFFF;stroke-width:7.0198;stroke-miterlimit:10;}
	.st17{fill:none;stroke:#FFFFFF;stroke-width:7.4219;stroke-miterlimit:10;}
	.st18{fill:none;stroke:#FFFFFF;stroke-width:7.8241;stroke-miterlimit:10;}
	.st19{opacity:0.95;fill:none;stroke:#FFFFFF;stroke-width:8.2333;stroke-miterlimit:10;enable-background:new    ;}
	.st20{opacity:0.68;fill:none;stroke:#FFFFFF;stroke-width:8.6354;stroke-miterlimit:10;enable-background:new    ;}
	.st21{opacity:0.7;fill:none;stroke:#FFFFFF;stroke-width:9.0375;stroke-miterlimit:10;enable-background:new    ;}
	.st22{opacity:0.72;fill:none;stroke:#FFFFFF;stroke-width:9.4467;stroke-miterlimit:10;enable-background:new    ;}
	.st23{opacity:0.75;fill:none;stroke:#FFFFFF;stroke-width:9.8489;stroke-miterlimit:10;enable-background:new    ;}
	.st24{opacity:0.78;fill:none;stroke:#FFFFFF;stroke-width:10.251;stroke-miterlimit:10;enable-background:new    ;}
	.st25{opacity:0.8;fill:none;stroke:#FFFFFF;stroke-width:10.6602;stroke-miterlimit:10;enable-background:new    ;}
	.st26{opacity:0.82;fill:none;stroke:#FFFFFF;stroke-width:11.0623;stroke-miterlimit:10;enable-background:new    ;}
	.st27{opacity:0.85;fill:none;stroke:#FFFFFF;stroke-width:11.4645;stroke-miterlimit:10;enable-background:new    ;}
	.st28{opacity:0.88;fill:none;stroke:#FFFFFF;stroke-width:11.8666;stroke-miterlimit:10;enable-background:new    ;}
	.st29{opacity:0.9;fill:none;stroke:#FFFFFF;stroke-width:12.2758;stroke-miterlimit:10;enable-background:new    ;}
	.st30{opacity:0.93;fill:none;stroke:#FFFFFF;stroke-width:12.6779;stroke-miterlimit:10;enable-background:new    ;}
	.st31{opacity:0.95;fill:none;stroke:#FFFFFF;stroke-width:13.0801;stroke-miterlimit:10;enable-background:new    ;}
	.st32{opacity:0.97;fill:none;stroke:#FFFFFF;stroke-width:13.4893;stroke-miterlimit:10;enable-background:new    ;}
	.st33{fill:none;stroke:#FFFFFF;stroke-width:13.8914;stroke-miterlimit:10;}
	.st34{mask:url(#mask0_1240_37995_1_);}
	.st35{fill:#F6EFE7;}
</style>
<g>
	<defs>
		
			<rect id="SVGID_1_" x="-199.6" y="-64.7" transform="matrix(0.964 -0.2659 0.2659 0.964 -5.3523 46.5432)" width="737.7" height="215.5"/>
	</defs>
	<clipPath id="SVGID_2_">
		<use xlink:href="#SVGID_1_"  style="overflow:visible;"/>
	</clipPath>
	<g class="st0">
		<defs>
			<filter id="Adobe_OpacityMaskFilter" filterUnits="userSpaceOnUse" x="0" y="4.1" width="278" height="97">
				<feColorMatrix  type="matrix" values="1 0 0 0 0  0 1 0 0 0  0 0 1 0 0  0 0 0 1 0"/>
			</filter>
		</defs>
		<mask maskUnits="userSpaceOnUse" x="0" y="4.1" width="278" height="97" id="mask0_1240_37995_1_">
			<path class="st1" d="M-209.4,43.6c18-9.5,37-18.8,57.8-22.3c34.1-5.8,57.7,16.9,92.6,5.4C-30.2,17.2-3.9-4,28-3.4
				c30,0.5,55.4,12.7,86.5,1.3c33.3-12.2,61.3-35.7,97.8-40.9c34.5-4.9,68.5,9.4,102.6,2.2c32.6-6.9,57.2-31.9,89.7-39.2
				c38.5-8.8,77.5,9.3,116.2,1.4c27.3-5.6,49.9-22.4,76.1-31.4c33.5-11.6,58.7,3.5,91.4-0.7c28.2-3.6,49.9-22.3,76.5-30.1
				c33.9-10,81.2,1.2,115.8-5.1c44.6-8.1,61.8-20.3,96.4-39.2"/>
			<path class="st2" d="M-206.9,56.7c18.1-9.7,37.2-19.2,58.3-22.8c34-5.8,57.7,16.6,92.5,5.3C-27.1,29.8-0.8,8.6,31.2,8.8
				C61.4,9,87,21.3,118.3,10c33.2-12,61.1-35.6,97.4-40.8c34.7-5,68.9,9.4,103.2,2.2c32.9-6.9,57.3-31.9,90-39.3
				c38.3-8.7,76.5,9.4,115.5,1.4c27.2-5.6,49.7-22.3,75.8-31.4c33.8-11.7,58.9,3.4,92.1-0.9c28.1-3.7,49.9-22.5,76.4-30.2
				c33.6-9.8,80.2,1.4,114.5-4.7c44.4-7.9,62-20.3,96.3-39.4"/>
			<path class="st3" d="M-204.4,69.8c18.2-9.9,37.5-19.7,58.8-23.4c33.9-5.8,57.8,16.2,92.4,5.1C-24,42.3,2.4,21.1,34.4,21.1
				c30.4-0.1,56.2,12.2,87.7,1c33.2-11.9,60.9-35.4,97-40.8c34.9-5.2,69.2,9.4,103.8,2.2c33.1-6.9,57.3-31.9,90.3-39.3
				c38.1-8.5,75.5,9.5,114.8,1.4c27.2-5.6,49.4-22.3,75.4-31.3c34.1-11.9,59.2,3.3,92.7-1.1c28.1-3.7,49.9-22.7,76.3-30.2
				c33.3-9.5,79.2,1.5,113.2-4.4c44.2-7.6,62.2-20.3,96.2-39.5"/>
			<path class="st4" d="M-201.9,82.9c18.3-10.1,37.7-20.1,59.3-23.9c33.8-5.9,57.8,15.8,92.4,5c29.3-9.1,55.7-30.3,87.7-30.7
				c30.6-0.4,56.6,12,88.2,0.9c33.1-11.7,60.6-35.3,96.6-40.7c35-5.4,69.6,9.4,104.3,2.2c33.4-7,57.3-32,90.6-39.3
				c37.9-8.4,74.5,9.6,114.2,1.4c27.1-5.6,49.2-22.3,75.1-31.3c34.3-12,59.4,3.2,93.4-1.4c28-3.7,49.9-22.9,76.1-30.3
				c33.1-9.3,78.2,1.7,111.9-4c44-7.4,62.4-20.2,96-39.6"/>
			<path class="st5" d="M-199.4,96c18.4-10.3,38-20.6,59.8-24.4c33.7-5.9,57.8,15.5,92.3,4.9c29.4-9,55.9-30.1,87.9-30.9
				c30.7-0.7,57.1,11.7,88.8,0.7c33-11.5,60.4-35.1,96.2-40.6c35.2-5.5,70,9.4,104.9,2.1c33.7-7,57.4-32,91-39.3
				c37.6-8.3,73.5,9.6,113.5,1.4c27.1-5.6,49-22.2,74.8-31.3c34.6-12.2,59.6,3.1,94-1.6c27.9-3.8,49.9-23.2,76-30.4
				c32.8-9.1,77.3,1.9,110.6-3.7c43.7-7.2,62.6-20.2,95.9-39.7"/>
			<path class="st6" d="M-196.8,109c18.6-10.6,38.2-21,60.3-25c33.6-5.9,57.9,15.1,92.2,4.8c29.6-8.9,56-30,88.1-31
				c30.9-1,57.5,11.5,89.4,0.6c33-11.4,60.2-34.9,95.8-40.6c35.4-5.6,70.3,9.4,105.5,2.1c33.9-7,57.4-32,91.3-39.3
				c37.4-8.1,72.5,9.7,112.8,1.4c27-5.6,48.8-22.2,74.5-31.2c34.9-12.3,59.9,3,94.7-1.8c27.9-3.8,49.9-23.4,75.9-30.4
				c32.6-8.9,76.3,2,109.3-3.4c43.5-7,62.7-20.2,95.8-39.9"/>
			<path class="st7" d="M-194.3,122.1c18.7-10.8,38.5-21.5,60.8-25.5c33.5-5.9,57.9,14.8,92.2,4.6C-11.6,92.4,14.9,71.4,47,70
				c31.1-1.4,57.9,11.2,89.9,0.5c32.9-11.2,60-34.7,95.4-40.5c35.4-5.8,70.7,9.4,106.1,2.1c34.2-7,57.4-32,91.6-39.3
				c37.2-8,71.5,9.8,112.1,1.4c27-5.6,48.6-22.2,74.2-31.2c35.2-12.5,60.1,2.9,95.3-2c27.8-3.8,50-23.6,75.8-30.5
				c32.3-8.7,75.3,2.2,108.1-3c43.3-6.7,62.9-20.2,95.6-40"/>
			<path class="st8" d="M-191.8,135.2c18.8-11,38.8-21.9,61.3-26c33.4-6,58,14.4,92.1,4.5C-8.5,105,18,84,50.1,82.3
				c31.3-1.7,58.4,11.1,90.5,0.3c32.8-11,59.8-34.6,95-40.5c35.7-6,71.1,9.4,106.6,2.1c34.5-7,57.5-32.1,91.9-39.4
				c37-7.8,70.5,9.9,111.4,1.4c26.9-5.5,48.4-22.1,73.9-31.1c35.4-12.6,60.4,2.8,96-2.3c27.7-3.8,50-23.8,75.7-30.5
				c32-8.5,74.3,2.3,106.8-2.7c43.1-6.5,63.1-20.2,95.5-40.1"/>
			<path class="st9" d="M-189.3,148.3c18.9-11.2,39-22.3,61.8-26.5c33.3-6,58,14,92,4.4c30.1-8.6,56.6-29.5,88.7-31.6
				c31.4-2,58.8,10.8,91.1,0.2c32.8-10.8,59.5-34.4,94.6-40.4c35.9-6.1,71.5,9.4,107.2,2.1c34.7-7,57.5-32.1,92.2-39.4
				c36.8-7.7,69.5,9.9,110.7,1.4c26.8-5.5,48.1-22.1,73.6-31.1c35.7-12.8,60.6,2.7,96.7-2.5c27.7-3.9,50-24,75.6-30.6
				c31.8-8.2,73.3,2.5,105.5-2.3c42.9-6.3,63.3-20.2,95.4-40.2"/>
			<path class="st10" d="M-186.8,161.3c19-11.4,39.2-22.8,62.3-27.1c33.2-6.1,58.1,13.7,92,4.2c30.3-8.5,56.8-29.4,89-31.8
				c31.6-2.3,59.3,10.6,91.6,0.1c32.7-10.6,59.3-34.3,94.2-40.3c36.1-6.3,71.8,9.3,107.8,2.1c35-7,57.6-32.1,92.5-39.4
				c36.5-7.6,68.5,10,110,1.5c26.8-5.5,47.9-22.1,73.3-31.1c36-12.9,60.9,2.6,97.3-2.7c27.6-3.9,50-24.3,75.5-30.7
				c31.5-8,72.3,2.6,104.2-2c42.7-6.1,63.5-20.2,95.2-40.4"/>
			<path class="st11" d="M-184.3,174.4c19.1-11.7,39.5-23.3,62.8-27.6c33.1-6.1,58.1,13.3,91.9,4.1c30.5-8.3,57-29.3,89.2-32
				c31.8-2.7,59.7,10.3,92.2-0.1c32.6-10.5,59.1-34.1,93.8-40.3c36.2-6.4,72.2,9.3,108.4,2.1c35.3-7,57.6-32.2,92.8-39.4
				c36.3-7.5,67.6,10.1,109.3,1.5c26.7-5.5,47.7-22,72.9-31c36.2-13.1,61.1,2.4,98-2.9c27.5-4,50-24.4,75.4-30.7
				c31.3-7.7,71.3,2.8,102.9-1.7c42.4-5.9,63.7-20.1,95.1-40.5"/>
			<path class="st12" d="M-181.8,187.5c19.2-11.9,39.8-23.7,63.4-28.1c33-6.2,58.2,13,91.8,4c30.6-8.2,57.2-29.1,89.4-32.1
				c32-3,60.1,10.1,92.7-0.2c32.6-10.3,58.9-34,93.4-40.2c36.4-6.6,72.6,9.3,108.9,2.1c35.6-7,57.6-32.2,93.1-39.4
				c36.1-7.3,66.6,10.1,108.6,1.5c26.7-5.5,47.5-22,72.6-31c36.5-13.2,61.4,2.3,98.6-3.2c27.5-4,50-24.6,75.3-30.8
				c31-7.5,70.3,2.9,101.6-1.3c42.2-5.7,63.9-20.1,95-40.6"/>
			<path class="st13" d="M-179.3,200.6c19.3-12.1,40-24.2,63.9-28.7c32.9-6.2,58.2,12.6,91.8,3.8c30.8-8.1,57.4-29,89.6-32.3
				c32.1-3.3,60.5,9.8,93.3-0.3c32.5-10.1,58.7-33.8,93-40.2c36.6-6.8,72.9,9.3,109.5,2.1c35.8-7,57.7-32.3,93.4-39.4
				c35.9-7.2,65.6,10.2,107.9,1.5c26.6-5.5,47.3-21.9,72.3-31c36.8-13.4,61.6,2.2,99.3-3.4c27.4-4,50-24.9,75.2-30.8
				c30.8-7.3,69.3,3.1,100.3-1c42-5.5,64.1-20.1,94.8-40.7"/>
			<path class="st14" d="M-176.8,213.7c19.4-12.3,40.3-24.6,64.4-29.2c32.8-6.2,58.3,12.3,91.7,3.7c31-8,57.6-28.9,89.8-32.5
				c32.3-3.7,61,9.6,93.9-0.5c32.4-9.9,58.4-33.7,92.6-40.1c36.7-6.9,73.3,9.3,110.1,2.1c36.1-7,57.7-32.3,93.7-39.5
				c35.6-7.1,64.6,10.3,107.2,1.5c26.6-5.5,47.1-21.9,72-30.9c37-13.5,61.8,2.1,100-3.6c27.3-4.1,50-25.1,75.1-30.9
				c30.5-7.1,68.3,3.2,99-0.6c41.8-5.3,64.2-20.1,94.7-40.9"/>
			<path class="st15" d="M-174.3,226.7c19.5-12.5,40.5-25.1,64.9-29.7c32.6-6.2,58.3,12,91.6,3.6c31.2-7.8,57.8-28.7,90-32.7
				c32.5-4,61.4,9.4,94.4-0.6c32.4-9.8,58.2-33.5,92.2-40.1c36.9-7.1,73.7,9.3,110.6,2.1c36.4-7.1,57.7-32.3,94-39.5
				c35.4-7,63.6,10.4,106.5,1.5c26.5-5.5,46.9-21.9,71.7-30.9c37.3-13.7,62.1,2,100.6-3.8c27.3-4.1,50.1-25.3,75-30.9
				c30.2-6.9,67.3,3.4,97.8-0.3c41.6-5,64.4-20.1,94.6-41"/>
			<path class="st16" d="M-171.8,239.8c19.6-12.8,40.8-25.5,65.4-30.2c32.5-6.3,58.4,11.6,91.6,3.4c31.3-7.7,58-28.6,90.3-32.9
				c32.7-4.3,61.8,9.1,95-0.8c33.2-9.9,58-33.4,91.8-40c37.1-7.2,74,9.3,111.2,2.1c36.6-7.1,57.8-32.4,94.4-39.5
				c35.2-6.8,62.6,10.4,105.8,1.5c26.5-5.5,46.6-21.8,71.4-30.8c37.6-13.8,62.3,1.9,101.3-4.1c27.2-4.1,50.1-25.5,74.9-31
				c30-6.6,66.3,3.5,96.5,0c41.4-4.8,64.6-20.1,94.4-41.1"/>
			<path class="st17" d="M-169.3,252.9c19.7-13,41-25.9,65.9-30.8c32.4-6.3,58.4,11.3,91.5,3.3c31.5-7.6,58.2-28.5,90.5-33.1
				c32.8-4.7,62.3,8.9,95.6-0.9c33.3-9.8,57.8-33.2,91.4-39.9c37.2-7.4,74.4,9.3,111.8,2.1c36.9-7.1,57.8-32.4,94.7-39.5
				c35-6.7,61.6,10.5,105.1,1.5c26.4-5.5,46.4-21.8,71.1-30.8c37.8-14,62.6,1.7,101.9-4.3c27.1-4.2,50.1-25.7,74.8-31.1
				c29.7-6.4,65.3,3.7,95.2,0.4c41.1-4.6,64.8-20,94.3-41.3"/>
			<path class="st18" d="M-166.8,266c19.8-13.2,41.3-26.4,66.4-31.3c32.3-6.3,58.5,10.9,91.4,3.2c31.7-7.4,58.4-28.3,90.7-33.2
				c33-5,62.7,8.6,96.1-1c32.2-9.3,57.5-33.1,91-39.9c37.4-7.6,74.8,9.3,112.4,2.1c37.2-7.1,57.8-32.5,95-39.5
				c34.7-6.6,60.6,10.6,104.4,1.5c26.4-5.4,46.2-21.8,70.8-30.8c38.1-14.1,62.8,1.6,102.6-4.5c27.1-4.2,50.1-25.9,74.7-31.1
				c29.5-6.2,64.3,3.9,93.9,0.7c40.9-4.4,65-20,94.2-41.4"/>
			<path class="st19" d="M-164.3,279.1c20-13.4,41.5-26.8,66.9-31.8c32.2-6.4,58.5,10.6,91.4,3.1c31.9-7.3,58.6-28.2,90.9-33.4
				c32.3-5.2,63.1,8.4,96.7-1.2c33.6-9.5,57.3-33,90.6-39.8c37.6-7.7,75.2,9.3,112.9,2.1c37.4-7.1,57.9-32.5,95.3-39.5
				c34.5-6.5,59.6,10.7,103.7,1.5c26.3-5.4,46-21.7,70.4-30.7c38.4-14.3,63.1,1.5,103.2-4.7c27-4.2,50.1-26.2,74.6-31.2
				c29.2-6,63.3,4,92.6,1.1c40.7-4.1,65.2-20,94-41.5"/>
			<path class="st20" d="M-161.8,292.1c20.1-13.6,41.8-27.3,67.4-32.4c32.1-6.4,58.6,10.3,91.3,2.9c32-7.2,58.8-28.1,91.1-33.6
				c33.4-5.7,63.6,8.1,97.2-1.3c32-9,57.1-32.8,90.2-39.8c37.7-7.9,75.5,9.3,113.5,2.1c37.7-7.1,57.9-32.6,95.6-39.6
				c34.3-6.4,58.6,10.7,103,1.5c26.2-5.4,45.8-21.7,70.1-30.7c38.7-14.4,63.3,1.4,103.9-5c27-4.2,50.1-26.4,74.4-31.2
				c28.9-5.8,62.3,4.2,91.3,1.4c40.5-3.9,65.4-20,93.9-41.6"/>
			<path class="st21" d="M-159.3,305.2c20.2-13.9,42-27.7,67.9-32.9c32-6.4,58.6,9.9,91.2,2.8c32.6-7.1,59-28,91.3-33.8
				c33.5-6,64,7.9,97.8-1.4c32-8.8,56.9-32.7,89.8-39.7c37.9-8.1,75.9,9.3,114.1,2.1c38-7.1,57.9-32.6,95.9-39.6
				c34-6.2,57.6,10.8,102.3,1.6c26.2-5.4,45.5-21.7,69.8-30.7c38.9-14.6,63.6,1.3,104.6-5.2c26.9-4.3,50.1-26.6,74.3-31.3
				c28.7-5.6,61.3,4.3,90,1.7c40.3-3.7,65.6-20,93.8-41.8"/>
			<path class="st22" d="M-156.8,318.3c20.3-14.1,42.3-28.2,68.4-33.4c31.9-6.4,58.7,9.6,91.1,2.7c32.4-6.9,59.2-27.8,91.6-34
				c33.7-6.4,64.4,7.6,98.4-1.6c31.9-8.6,56.6-32.5,89.4-39.6c38.1-8.3,76.3,9.3,114.6,2.1c38.2-7.1,58-32.7,96.2-39.6
				c33.8-6.1,56.6,10.9,101.6,1.6c26.1-5.4,45.3-21.6,69.5-30.6c39.2-14.7,63.8,1.3,105.2-5.4c26.8-4.2,50.1-26.8,74.2-31.4
				c28.4-5.4,60.3,4.5,88.7,2.1c40.1-3.4,65.8-20,93.6-41.9"/>
			<path class="st23" d="M-154.3,331.4c20.4-14.3,42.6-28.6,68.9-33.9c31.8-6.5,58.7,9.3,91.1,2.5c32.6-6.8,59.4-27.7,91.8-34.1
				c33.9-6.7,64.8,7.4,98.9-1.7c31.8-8.5,56.4-32.4,89-39.6c38.2-8.4,76.7,9.3,115.2,2.1c38.5-7.1,58-32.7,96.5-39.6
				c33.6-6,55.6,11,100.9,1.6c26.1-5.4,45.1-21.6,69.2-30.6c39.5-14.9,64.1,1.2,105.9-5.6c26.8-4.3,50.1-27,74.1-31.4
				c28.2-5.1,59.3,4.7,87.4,2.4c39.9-3.2,65.9-19.9,93.5-42"/>
			<path class="st24" d="M-151.8,344.5c20.5-14.5,42.8-29,69.4-34.5c31.7-6.4,58.8,8.9,91,2.4c32.8-6.6,59.6-27.6,92-34.3
				c34-7.1,65.3,7.1,99.5-1.8c31.8-8.3,56.2-32.3,88.6-39.5c38.4-8.6,77,9.2,115.8,2.1c38.8-7.1,58-32.8,96.8-39.6
				c33.4-5.9,54.6,11,100.2,1.6c26-5.4,44.9-21.5,68.9-30.6c39.7-15,64.3,1.1,106.5-5.8c26.7-4.3,50.1-27.3,74-31.5
				c27.9-4.9,58.3,4.8,86.2,2.7c39.6-3,66.1-19.9,93.4-42.1"/>
			<path class="st25" d="M-149.3,357.5c20.6-14.7,43.1-29.4,69.9-35c31.6-6.4,58.8,8.6,90.9,2.3c32.9-6.5,59.8-27.5,92.2-34.5
				c34.2-7.4,65.7,6.9,100.1-2c31.7-8.2,55.9-32.1,88.2-39.5c38.6-8.8,77.4,9.2,116.4,2.1c39-7.2,58.1-32.8,97.1-39.7
				c33.1-5.8,53.6,11.1,99.6,1.6c26-5.4,44.7-21.5,68.6-30.5c40-15.2,64.6,1,107.2-6.1c26.6-4.3,50.1-27.5,73.9-31.5
				c27.6-4.7,57.3,5,84.9,3.1c39.4-2.7,66.3-19.9,93.2-42.3"/>
			<path class="st26" d="M-146.8,370.6c20.7-15,43.3-29.9,70.4-35.5c31.5-6.5,58.9,8.3,90.9,2.1c33.1-6.3,60-27.3,92.4-34.7
				c34.4-7.8,66.1,6.6,100.6-2.1c31.6-8,55.7-32,87.8-39.4c38.7-9,77.8,9.2,116.9,2.1c39.3-7.2,58.1-32.9,97.5-39.7
				c32.9-5.7,52.6,11.2,98.9,1.6c25.9-5.4,44.5-21.5,68.2-30.5c40.3-15.3,64.8,0.9,107.8-6.3c26.6-4.4,50.2-27.7,73.8-31.6
				c27.4-4.5,56.3,5.2,83.6,3.4c39.2-2.5,66.5-19.9,93.1-42.4"/>
			<path class="st27" d="M-144.3,383.7c20.8-15.2,43.6-30.3,70.9-36c31.4-6.5,58.9,7.9,90.8,2c33.3-6.2,60.2-27.2,92.7-34.9
				c34.6-8.1,66.5,6.3,101.2-2.3c31.5-7.9,55.5-31.8,87.4-39.3c38.9-9.2,78.1,9.2,117.5,2.1c39.6-7.2,58.1-32.9,97.8-39.7
				c32.7-5.6,51.6,11.2,98.2,1.6c25.9-5.3,44.2-21.4,67.9-30.4c40.5-15.5,65,0.8,108.5-6.5c26.5-4.4,50.2-28,73.7-31.7
				c27.1-4.3,55.3,5.3,82.3,3.8c39-2.3,66.7-19.9,93-42.5"/>
			<path class="st28" d="M-141.8,396.8c20.9-15.4,43.8-30.8,71.4-36.6c31.3-6.5,59,7.6,90.7,1.9C53.8,356,80.7,335,113.2,327
				c34.7-8.5,67,6,101.7-2.4c31.5-7.7,55.3-31.7,87-39.3c39-9.3,78.5,9.2,118.1,2.1c39.9-7.2,58.2-33,98.1-39.7
				c32.4-5.5,50.6,11.3,97.5,1.6c25.8-5.3,44-21.4,67.6-30.4c40.8-15.7,65.3,0.7,109.2-6.7c26.4-4.4,50.2-28.2,73.6-31.7
				c26.8-4.1,54.3,5.5,81,4.1c38.8-2,66.9-19.9,92.8-42.6"/>
			<path class="st29" d="M-139.3,409.9c21-15.6,44.1-31.2,71.9-37.1c31.2-6.6,59,7.3,90.7,1.7c33.6-5.9,60.5-27,93.1-35.2
				c34.9-8.8,67.4,5.8,102.3-2.5c31.4-7.6,55-31.6,86.6-39.2c39.2-9.6,78.9,9.2,118.7,2.1c40.1-7.2,58.2-33.1,98.4-39.7
				c32.2-5.4,49.7,11.4,96.8,1.6c25.8-5.3,43.8-21.4,67.3-30.4c41.1-15.8,65.5,0.6,109.8-7c26.4-4.4,50.2-28.4,73.5-31.8
				c26.6-3.9,53.3,5.7,79.7,4.4c38.6-1.7,67.1-19.9,92.7-42.8"/>
			<path class="st30" d="M-136.8,422.9c21.1-15.8,44.3-31.6,72.4-37.6c31.1-6.6,59.1,7,90.6,1.6C60,381.2,87,360,119.5,351.5
				c35.1-9.3,67.8,5.6,102.9-2.7c31.3-7.4,54.8-31.5,86.2-39.2c39.4-9.8,79.2,9.2,119.2,2.1c40.4-7.2,58.2-33.2,98.7-39.7
				c32-5.3,48.7,11.5,96.1,1.6c25.7-5.3,43.6-21.3,67-30.3c41.3-16,65.8,0.5,110.5-7.2c26.3-4.5,50.2-28.6,73.4-31.8
				c26.3-3.7,52.3,5.9,78.4,4.8c38.4-1.5,67.3-19.8,92.6-42.9"/>
			<path class="st31" d="M-134.2,436c21.2-16.1,44.6-32.1,72.9-38.2c31-6.6,59.1,6.7,90.5,1.5c34-5.6,60.9-26.8,93.5-35.6
				c35.2-9.6,68.2,5.3,103.4-2.8c31.3-7.3,54.6-31.3,85.8-39.1c39.5-9.9,79.6,9.2,119.8,2.1c40.7-7.2,58.2-33.2,99-39.8
				c31.8-5.2,47.7,11.5,95.4,1.7c25.6-5.3,43.4-21.3,66.7-30.3c41.6-16.1,66,0.3,111.1-7.4c26.2-4.5,50.2-28.9,73.3-31.9
				c26.1-3.5,51.3,6,77.1,5.1c38.1-1.3,67.5-19.8,92.4-43"/>
			<path class="st32" d="M-131.7,449.1c21.4-16.3,44.9-32.5,73.4-38.7c30.9-6.6,59.2,6.4,90.5,1.3c34.2-5.4,61.1-26.7,93.7-35.8
				c35.4-9.9,68.7,5.1,104-2.9c31.2-7.1,54.3-31.2,85.4-39.1c39.7-10.1,80,9.2,120.4,2c40.9-7.2,58.3-33.2,99.3-39.8
				c31.5-5,46.7,11.6,94.7,1.7c25.6-5.3,43.2-21.2,66.4-30.3c41.9-16.3,66.3,0.2,111.8-7.6c26.2-4.5,50.2-29.1,73.2-32
				c25.8-3.3,50.3,6.2,75.8,5.5c37.9-1,67.6-19.8,92.3-43.1"/>
			<path class="st33" d="M-129.2,462.2c21.5-16.5,45.1-33,73.9-39.2c30.8-6.7,59.2,6,90.4,1.2c34.4-5.3,61.3-26.6,94-36
				c35.6-10.3,69.1,4.8,104.6-3.1c31.1-6.9,54.1-31.1,85-39c39.9-10.3,80.4,9.2,120.9,2c41.2-7.2,58.3-33.3,99.6-39.8
				c31.3-4.9,45.7,11.7,94,1.7c25.5-5.3,42.9-21.2,66.1-30.2c42.2-16.4,66.5,0.1,112.4-7.9c26.1-4.6,50.2-29.3,73.1-32
				c25.5-3,49.3,6.3,74.6,5.8c37.7-0.8,67.8-19.8,92.2-43.3"/>
		</mask>
		<g class="st34">
			<rect y="4.1" class="st35" width="278" height="97"/>
		</g>
	</g>
</g>
</svg>
